<svg fill="none" height="589" width="1042" xmlns="http://www.w3.org/2000/svg" xmlns:xlink="http://www.w3.org/1999/xlink"><linearGradient id="a" gradientUnits="userSpaceOnUse" x1="933.807" x2="-167.807" y1="274.194" y2="274.194"><stop offset="0" stop-color="#299193"/><stop offset="1" stop-color="#32b3b5" stop-opacity=".51"/></linearGradient><linearGradient id="b" gradientUnits="userSpaceOnUse" x1="269.013" x2="-431.094" y1="274.194" y2="274.194"><stop offset="0" stop-color="#297677"/><stop offset="1" stop-color="#32b3b5" stop-opacity=".51"/></linearGradient><clipPath id="c"><path d="m0 0h1042v589h-1042z"/></clipPath><g clip-path="url(#c)"><path d="m678.29-259.931a4 4 0 0 0 -3.344-1.805h-533.514c-3.183 0-5.091 3.536-3.344 6.196l359.444 547.292a3.999 3.999 0 0 1 .001 4.391l-359.446 547.47c-1.747 2.66.161 6.195 3.343 6.195h533.516a4.001 4.001 0 0 0 3.344-1.805l362.15-551.861a3.978 3.978 0 0 0 0-4.389z" fill="url(#a)" opacity=".1"/><path d="m-25.895-259.931a4.001 4.001 0 0 0 -3.344-1.805h-202.626c-3.182 0-5.09 3.535-3.344 6.195l359.271 547.294a4 4 0 0 1 0 4.389l-359.272 547.471c-1.746 2.66.162 6.195 3.344 6.195h202.627a4.001 4.001 0 0 0 3.344-1.805l362.153-551.861a4.001 4.001 0 0 0 0-4.389z" fill="url(#b)" opacity=".1"/></g></svg>