<svg width="1042" height="589" fill="none" xmlns="http://www.w3.org/2000/svg">
  <g clip-path="url(#clip0)">
    <path opacity=".1" d="M678.29-259.931a4 4 0 00-3.344-1.805H141.432c-3.183 0-5.091 3.536-3.344 6.196l359.444 547.292a3.999 3.999 0 01.001 4.391l-359.446 547.47c-1.747 2.66.161 6.195 3.343 6.195h533.516a4.001 4.001 0 003.344-1.805l362.15-551.861a3.978 3.978 0 000-4.389L678.29-259.931z" fill="url(#paint0_linear)"/>
    <path opacity=".1" d="M-25.895-259.931a4.001 4.001 0 00-3.344-1.805h-202.626c-3.182 0-5.09 3.535-3.344 6.195l359.271 547.294a4 4 0 010 4.389L-235.21 843.613c-1.746 2.66.162 6.195 3.344 6.195h202.627a4.001 4.001 0 003.344-1.805l362.153-551.861a4.001 4.001 0 000-4.389L-25.895-259.931z" fill="url(#paint1_linear)"/>
  </g>
  <defs>
    <linearGradient id="paint0_linear" x1="933.807" y1="274.194" x2="-167.807" y2="274.194" gradientUnits="userSpaceOnUse">
      <stop stop-color="#299193"/>
      <stop offset="1" stop-color="#32B3B5" stop-opacity=".51"/>
    </linearGradient>
    <linearGradient id="paint1_linear" x1="269.013" y1="274.194" x2="-431.094" y2="274.194" gradientUnits="userSpaceOnUse">
      <stop stop-color="#297677"/>
      <stop offset="1" stop-color="#32B3B5" stop-opacity=".51"/>
    </linearGradient>
    <clipPath id="clip0">
      <path fill="#fff" d="M0 0h1042v589H0z"/>
    </clipPath>
  </defs>
</svg>
