<svg fill="none" height="40" viewBox="0 0 145 40" width="145" xmlns="http://www.w3.org/2000/svg"><g fill="#fff"><path d="m47.2275 26.9063c1.1588.625 2.7873 1.0937 4.6664 1.0937 4.0087 0 6.2323-1.9062 6.2323-4.8437 0-2.4688-1.472-3.9063-4.3532-4.9688-2.2549-.8437-3.2571-1.4687-3.2571-2.8437 0-1.2188 1.0022-2.25 2.85-2.25 1.5972 0 2.7873.5937 3.4449.9999l.689-2.125c-.8769-.5625-2.3175-.9687-4.0713-.9687-3.6329 0-5.7625 2.0625-5.7625 4.75 0 2 1.378 3.5938 4.4158 4.6875 2.2862.8125 3.1631 1.5625 3.1631 3 0 1.4063-1.0648 2.4688-3.3197 2.4688-1.5659 0-3.1004-.625-4.0087-1.1563z"/><path d="m64.1701 27.7188v-16.4688h-2.8499v16.4688zm-1.4093-23.18755c-1.0962 0-1.8165.8125-1.8165 1.78125s.689 1.75 1.7225 1.75c1.1588 0 1.8478-.78125 1.8478-1.75.0313-1-.689-1.78125-1.7538-1.78125z"/><path d="m69.1814 8.25v3.0937h-2.5994v2.0938h2.5994v9.0625c0 2.1875.3445 3.6562 1.1275 4.4375.689.6562 1.7851 1.0625 3.2257 1.0625 1.1901 0 2.1297-.1875 2.7247-.3438l-.1253-1.9687c-.4384.125-.9395.2187-1.7851.2187-1.6912 0-2.2862-1.1874-2.2862-3.2812v-9.1875h4.3845v-2.0938h-4.3845v-3.99995z"/><path d="m92.1061 19.8125c.0627-.3437.094-.7813.094-1.375 0-2.9375-1.378-7.5313-6.89-7.5313-4.9796 0-7.8921 3.7813-7.8921 8.6563 0 5.25 3.0378 8.4375 8.2679 8.4375 2.7247 0 4.5725-.5312 5.6059-.9375l-.5324-2.0625c-1.0648.5-2.4428.9063-4.635.9063-3.1318 0-5.7939-1.7813-5.8565-6.0625h11.8382zm-11.8069-2.0937c.2506-2.0313 1.5972-4.6876 4.7604-4.6876 3.4763 0 4.3218 2.875 4.2905 4.6876z"/><path d="m95.0501 34.5312h2.85v-8.875h.0626c1.0335 1.5 3.0693 2.3438 5.3553 2.3438 4.103 0 7.61-2.6875 7.61-8.7812 0-5.0938-2.818-8.2188-7.046-8.2188-2.85 0-4.9171 1.0312-6.1698 2.9062h-.0627l-.1566-2.625h-2.5993c.0626 1.5938.1252 3.2813.1252 5.4376v17.8124zm2.85-16.3125c0-.375.0939-.8125.2192-1.1875.5637-2.4687 2.6307-3.9374 4.7917-3.9374 3.351 0 5.167 2.9062 5.167 6.25 0 3.875-1.941 6.5312-5.292 6.5312-2.255 0-4.1656-1.4687-4.7606-3.5937-.094-.375-.1566-.8125-.1566-1.25v-2.8126z"/><path d="m127.714 19.8125c.063-.3437.094-.7813.094-1.375 0-2.9375-1.378-7.5313-6.889-7.5313-4.98 0-7.893 3.7813-7.893 8.6563 0 5.25 3.038 8.4375 8.268 8.4375 2.725 0 4.573-.5312 5.606-.9375l-.532-2.0625c-1.065.5-2.443.9063-4.635.9063-3.132 0-5.794-1.7813-5.857-6.0625h11.838zm-11.806-2.0937c.25-2.0313 1.597-4.6876 4.76-4.6876 3.476 0 4.322 2.875 4.291 4.6876z"/><path d="m129.939 27.7188h2.85v-10.0938c0-.5312.062-1.0312.219-1.4062.564-1.6875 2.161-3.125 4.196-3.125 2.944 0 3.978 2.25 3.978 4.9687v9.6563h2.85v-10c0-5.5938-3.414-6.75-5.794-6.75-2.85 0-4.823 1.3125-5.637 2.7187h-.063l-.157-2.4375h-2.536c.094 1.3438.125 2.7188.125 4.4375v12.0313z"/></g><path d="m20.0435 40c11.0697 0 20.0435-8.9543 20.0435-20s-8.9738-20-20.0435-20c-11.06972 0-20.0435 8.9543-20.0435 20s8.97378 20 20.0435 20z" fill="#0a2944"/><path d="m26.3381 16.3125-5.1674.5937-5.9818 5.9688c-1.0648 1.0625-2.3175.625-2.1609.875l5.7312-.5 6.1696-6.1563c.3758-.375.8769-.6562 1.4093-.7812z" fill="#5cdbdd" opacity=".4"/><path d="m23.6762 5.875-12.7778 12.75c-1.19005 1.1875-1.15873 3.0938 0 4.25 1.1901 1.1875 3.1005 1.1875 4.2593 0l12.7777-12.75c1.1901-1.1875 1.1588-3.0625 0-4.25-1.1588-1.15625-3.0692-1.15625-4.2592 0z" fill="#5cdbdd"/><path d="m24.8978 17.125-12.7777 12.7188c-1.1901 1.1875-1.1588 3.0937 0 4.25 1.1901 1.1875 3.1005 1.1875 4.2593 0l12.7777-12.75c1.1901-1.1875 1.1588-3.0625 0-4.25-1.1588-1.1563-3.0692-1.1563-4.2593.0312z" fill="#5cdbdd"/></svg>