<?xml version="1.0" encoding="utf-8"?>
<svg width="314" height="248" fill="none" xmlns="http://www.w3.org/2000/svg"><rect x="34.394" y="22.71" width="225.83" height="151.319" rx="10" stroke="#E9ECEE" stroke-width="3" stroke-linecap="round" stroke-linejoin="round" stroke-dasharray="5 10"/><g opacity=".78"><path d="M224.424 75.746a.03.03 0 00.021-.052l-.009-.009a.035.035 0 010-.051l.009-.009a.03.03 0 00-.021-.052.03.03 0 01-.024-.013L171.631 1.675A4 4 0 00168.376 0H121.67c-3.252 0-5.145 3.675-3.256 6.323l47.806 67.013a3.999 3.999 0 010 4.646l-47.806 67.014c-1.889 2.648.004 6.323 3.256 6.323h46.706a4 4 0 003.255-1.675L224.4 75.758a.03.03 0 01.024-.012z" fill="url(#paint0_linear)" opacity=".78"/><path opacity=".78" d="M135.471 75.746a.03.03 0 00.021-.052l-.009-.009a.035.035 0 010-.051l.009-.009a.03.03 0 00-.021-.052.03.03 0 01-.024-.013L82.769 1.678A4 4 0 0079.512 0H32.717c-3.252 0-5.145 3.675-3.256 6.323l47.806 67.013a4 4 0 010 4.646l-47.806 67.014c-1.89 2.648.004 6.323 3.256 6.323h46.795a4 4 0 003.257-1.678l52.678-73.883a.03.03 0 01.024-.012z" fill="url(#paint1_linear)"/><path d="M313.9 75.758a.028.028 0 01.024-.012c.027 0 .041-.033.021-.052l-.009-.009a.035.035 0 010-.051l.009-.009c.02-.019.006-.052-.021-.052a.028.028 0 01-.024-.013L261.222 1.678A4 4 0 00257.965 0H211.17c-3.253 0-5.145 3.675-3.256 6.323l47.806 67.013a4.002 4.002 0 010 4.646l-47.806 67.014c-1.889 2.648.003 6.323 3.256 6.323h46.795a4 4 0 003.257-1.678L313.9 75.758z" fill="#5CDBDD" opacity=".78"/></g><g filter="url(#filter0_d)"><rect x="20" y="34.17" width="222.543" height="163.913" rx="4" fill="#fff"/></g><path d="M66.742 51.22H40.324a1 1 0 00-1 1v24.144a1 1 0 001 1h26.418a1 1 0 001-1V52.22a1 1 0 00-1-1z" fill="#E9ECEE"/><path d="M66.742 119.422H40.324a1 1 0 00-1 1v24.144a1 1 0 001 1h26.418a1 1 0 001-1v-24.144a1 1 0 00-1-1z" fill="#5B7993"/><path d="M101.979 119.422H75.561a1 1 0 00-1 1v24.144a1 1 0 001 1h26.418a1 1 0 001-1v-24.144a1 1 0 00-1-1z" fill="#E9ECEE"/><path d="M101.979 85.32H75.561a1 1 0 00-1 1v24.145a1 1 0 001 1h26.418a1 1 0 001-1V86.321a1 1 0 00-1-1zM149.72 153.522h-26.417a1 1 0 00-1 1v24.144a1 1 0 001 1h26.417a1 1 0 001-1v-24.144a1 1 0 00-1-1zM149.72 85.32h-26.417a1 1 0 00-1 1v24.145a1 1 0 001 1h26.417a1 1 0 001-1V86.321a1 1 0 00-1-1z" fill="#ADBCC9"/><path d="M184.958 85.32H158.54a1 1 0 00-1 1v24.145a1 1 0 001 1h26.418a1 1 0 001-1V86.321a1 1 0 00-1-1z" fill="#5B7993"/><path d="M220.195 51.22h-26.417a1 1 0 00-1 1v24.144a1 1 0 001 1h26.417a1 1 0 001-1V52.22a1 1 0 00-1-1z" fill="#E9ECEE"/><path d="M220.195 118.285h-26.417a1 1 0 00-1 1v24.144a1 1 0 001 1h26.417a1 1 0 001-1v-24.144a1 1 0 00-1-1z" fill="#ADBCC9"/><path d="M221.195 153.522h-28.417v26.144h28.417v-26.144zM184.958 51.22H158.54a1 1 0 00-1 1v24.144a1 1 0 001 1h26.418a1 1 0 001-1V52.22a1 1 0 00-1-1z" fill="#E9ECEE"/><path d="M151.991 119.421c.553 0 .999.442.985.995-.079 3.049-.519 12.574-2.984 20.985a.99.99 0 01-.458.578l-6.02 3.454a1 1 0 01-.498.132H121.52c-.711 0-1.197-.721-.954-1.389 3.268-8.969 3.804-20.37 3.891-23.761a1.019 1.019 0 011.016-.994h26.518z" fill="#5B7993"/><path d="M143.45 145.466l-.447-2.151a1 1 0 01.944-1.202l5.723-.206-6.22 3.559z" fill="#3E576C"/><path d="M66.74 153.522c.553 0 .999.442.984.995-.078 3.049-.519 12.574-2.984 20.985a.987.987 0 01-.458.578l-6.02 3.454a.998.998 0 01-.497.132H36.268c-.711 0-1.197-.721-.954-1.389 3.268-8.969 3.804-20.37 3.892-23.761a1.019 1.019 0 011.015-.994H66.74z" fill="#E9ECEE"/><path d="M58.198 179.567l-.446-2.15a1 1 0 01.943-1.203l5.723-.206-6.22 3.559z" fill="#C9C9C9"/><path d="M151.991 51.22c.553 0 .999.442.985.995-.079 3.05-.519 12.574-2.984 20.985a.99.99 0 01-.458.579l-6.02 3.453a1.002 1.002 0 01-.498.133H121.52c-.711 0-1.197-.721-.954-1.39 3.268-8.968 3.804-20.37 3.891-23.76a1.018 1.018 0 011.016-.994h26.518z" fill="#E9ECEE"/><path d="M143.45 77.265l-.447-2.15a1.001 1.001 0 01.944-1.203l5.723-.206-6.22 3.56z" fill="#C9C9C9"/><path d="M184.956 119.421c.553 0 .999.442.984.995-.078 3.049-.519 12.574-2.984 20.985a.982.982 0 01-.458.578l-6.02 3.454a.996.996 0 01-.497.132h-21.497c-.711 0-1.197-.721-.954-1.389 3.268-8.969 3.804-20.37 3.892-23.761a1.018 1.018 0 011.015-.994h26.519z" fill="#E9ECEE"/><path d="M176.414 145.466l-.446-2.151a1 1 0 01.943-1.202l5.723-.206-6.22 3.559z" fill="#C9C9C9"/><path d="M184.956 153.423c.553 0 .999.441.984.994-.078 3.05-.519 12.574-2.984 20.985a.984.984 0 01-.458.579l-6.02 3.453a.997.997 0 01-.497.133h-21.497c-.711 0-1.197-.721-.954-1.389 3.268-8.969 3.804-20.371 3.892-23.761a1.017 1.017 0 011.015-.994h26.519z" fill="#E9ECEE"/><path d="M176.414 179.467l-.446-2.15a1 1 0 01.943-1.203l5.723-.206-6.22 3.559z" fill="#C9C9C9"/><g filter="url(#filter1_d)"><rect x="166.077" y="137.914" width="116.844" height="79.747" rx="4" fill="url(#paint2_linear)"/></g><rect x="174.719" y="147.928" width="22.153" height="3.19" rx="1.595" fill="#5B7993"/><rect x="204.523" y="147.928" width="25.714" height="5.317" rx="2.658" fill="#5B7993"/><rect x="203.293" y="173.406" width="25.714" height="5.317" rx="2.658" fill="#5B7993"/><rect x="221.241" y="181.574" width="17.496" height="5.317" rx="2.658" fill="#5B7993"/><rect x="231.238" y="189.742" width="41.007" height="5.317" rx="2.658" fill="#5B7993"/><rect x="222.339" y="156.265" width="39.646" height="5.317" rx="2.658" fill="#5B7993"/><rect x="253.157" y="164.603" width="19.088" height="5.317" rx="2.658" fill="#5B7993"/><rect x="174.719" y="154.5" width="22.153" height="3.19" rx="1.595" fill="#5B7993"/><rect x="174.719" y="168.96" width="22.153" height="3.19" rx="1.595" fill="#5B7993"/><rect x="174.719" y="175.533" width="22.153" height="3.19" rx="1.595" fill="#5B7993"/><path stroke="#5B7993" stroke-width="2" stroke-linecap="round" stroke-linejoin="round" stroke-dasharray="1 4" d="M242.064 166.111v20.952M242.064 197.265v14.246"/><rect x="236.81" y="158.923" width="7.569" height="7.569" rx="1" transform="rotate(-45 236.81 158.923)" fill="#5B7993"/><defs><linearGradient id="paint0_linear" x1="328.709" y1="38.949" x2="135.334" y2="17.949" gradientUnits="userSpaceOnUse"><stop stop-color="#5CDBDD" stop-opacity=".03"/><stop offset="1" stop-color="#5CDBDD" stop-opacity=".21"/></linearGradient><linearGradient id="paint1_linear" x1="239.756" y1="38.949" x2="46.381" y2="17.949" gradientUnits="userSpaceOnUse"><stop stop-color="#5CDBDD" stop-opacity=".03"/><stop offset="1" stop-color="#5CDBDD" stop-opacity=".21"/></linearGradient><linearGradient id="paint2_linear" x1="282.921" y1="137.914" x2="180.029" y2="223.371" gradientUnits="userSpaceOnUse"><stop stop-color="#1F3D56"/><stop offset="1" stop-color="#335878"/></linearGradient><filter id="filter0_d" x="0" y="24.17" width="262.543" height="203.913" filterUnits="userSpaceOnUse" color-interpolation-filters="sRGB"><feFlood flood-opacity="0" result="BackgroundImageFix"/><feColorMatrix in="SourceAlpha" values="0 0 0 0 0 0 0 0 0 0 0 0 0 0 0 0 0 0 127 0"/><feOffset dy="10"/><feGaussianBlur stdDeviation="10"/><feColorMatrix values="0 0 0 0 0.122344 0 0 0 0 0.237341 0 0 0 0 0.3375 0 0 0 0.12 0"/><feBlend in2="BackgroundImageFix" result="effect1_dropShadow"/><feBlend in="SourceGraphic" in2="effect1_dropShadow" result="shape"/></filter><filter id="filter1_d" x="146.077" y="127.914" width="156.844" height="119.747" filterUnits="userSpaceOnUse" color-interpolation-filters="sRGB"><feFlood flood-opacity="0" result="BackgroundImageFix"/><feColorMatrix in="SourceAlpha" values="0 0 0 0 0 0 0 0 0 0 0 0 0 0 0 0 0 0 127 0"/><feOffset dy="10"/><feGaussianBlur stdDeviation="10"/><feColorMatrix values="0 0 0 0 0.122344 0 0 0 0 0.237341 0 0 0 0 0.3375 0 0 0 0.26 0"/><feBlend in2="BackgroundImageFix" result="effect1_dropShadow"/><feBlend in="SourceGraphic" in2="effect1_dropShadow" result="shape"/></filter></defs></svg>