<svg fill="none" height="248" width="314" xmlns="http://www.w3.org/2000/svg" xmlns:xlink="http://www.w3.org/1999/xlink"><linearGradient id="a"><stop offset="0" stop-color="#5cdbdd" stop-opacity=".03"/><stop offset="1" stop-color="#5cdbdd" stop-opacity=".21"/></linearGradient><linearGradient id="b" gradientUnits="userSpaceOnUse" x1="328.709" x2="135.334" xlink:href="#a" y1="38.949" y2="17.949"/><linearGradient id="c" gradientUnits="userSpaceOnUse" x1="239.756" x2="46.381" xlink:href="#a" y1="38.949" y2="17.949"/><linearGradient id="d" gradientUnits="userSpaceOnUse" x1="282.921" x2="180.029" y1="137.914" y2="223.371"><stop offset="0" stop-color="#1f3d56"/><stop offset="1" stop-color="#335878"/></linearGradient><filter id="e" color-interpolation-filters="sRGB" filterUnits="userSpaceOnUse" height="203.913" width="262.543" x="0" y="24.17"><feFlood flood-opacity="0" result="BackgroundImageFix"/><feColorMatrix in="SourceAlpha" values="0 0 0 0 0 0 0 0 0 0 0 0 0 0 0 0 0 0 127 0"/><feOffset dy="10"/><feGaussianBlur stdDeviation="10"/><feColorMatrix values="0 0 0 0 0.122344 0 0 0 0 0.237341 0 0 0 0 0.3375 0 0 0 0.12 0"/><feBlend in2="BackgroundImageFix" result="effect1_dropShadow"/><feBlend in="SourceGraphic" in2="effect1_dropShadow" result="shape"/></filter><filter id="f" color-interpolation-filters="sRGB" filterUnits="userSpaceOnUse" height="119.747" width="156.844" x="146.077" y="127.914"><feFlood flood-opacity="0" result="BackgroundImageFix"/><feColorMatrix in="SourceAlpha" values="0 0 0 0 0 0 0 0 0 0 0 0 0 0 0 0 0 0 127 0"/><feOffset dy="10"/><feGaussianBlur stdDeviation="10"/><feColorMatrix values="0 0 0 0 0.122344 0 0 0 0 0.237341 0 0 0 0 0.3375 0 0 0 0.26 0"/><feBlend in2="BackgroundImageFix" result="effect1_dropShadow"/><feBlend in="SourceGraphic" in2="effect1_dropShadow" result="shape"/></filter><rect height="151.319" rx="10" stroke="#e9ecee" stroke-dasharray="5 10" stroke-linecap="round" stroke-linejoin="round" stroke-width="3" width="225.83" x="34.394" y="22.71"/><g opacity=".78"><path d="m224.424 75.746a.03.03 0 0 0 .021-.052l-.009-.009a.035.035 0 0 1 0-.051l.009-.009a.03.03 0 0 0 -.021-.052.03.03 0 0 1 -.024-.013l-52.769-73.885a4 4 0 0 0 -3.255-1.675h-46.706c-3.252 0-5.145 3.675-3.256 6.323l47.806 67.013a3.999 3.999 0 0 1 0 4.646l-47.806 67.014c-1.889 2.648.004 6.323 3.256 6.323h46.706a4 4 0 0 0 3.255-1.675l52.769-73.886a.03.03 0 0 1 .024-.012z" fill="url(#b)" opacity=".78"/><path d="m135.471 75.746a.03.03 0 0 0 .021-.052l-.009-.009a.035.035 0 0 1 0-.051l.009-.009a.03.03 0 0 0 -.021-.052.03.03 0 0 1 -.024-.013l-52.678-73.882a4 4 0 0 0 -3.257-1.678h-46.795c-3.252 0-5.145 3.675-3.256 6.323l47.806 67.013a4 4 0 0 1 0 4.646l-47.806 67.014c-1.89 2.648.004 6.323 3.256 6.323h46.795a4 4 0 0 0 3.257-1.678l52.678-73.883a.03.03 0 0 1 .024-.012z" fill="url(#c)" opacity=".78"/><path d="m313.9 75.758a.028.028 0 0 1 .024-.012c.027 0 .041-.033.021-.052l-.009-.009a.035.035 0 0 1 0-.051l.009-.009c.02-.019.006-.052-.021-.052a.028.028 0 0 1 -.024-.013l-52.678-73.882a4 4 0 0 0 -3.257-1.678h-46.795c-3.253 0-5.145 3.675-3.256 6.323l47.806 67.013a4.002 4.002 0 0 1 0 4.646l-47.806 67.014c-1.889 2.648.003 6.323 3.256 6.323h46.795a4 4 0 0 0 3.257-1.678z" fill="#5cdbdd" opacity=".78"/></g><g filter="url(#e)"><rect fill="#fff" height="163.913" rx="4" width="222.543" x="20" y="34.17"/></g><path d="m66.742 51.22h-26.418a1 1 0 0 0 -1 1v24.144a1 1 0 0 0 1 1h26.418a1 1 0 0 0 1-1v-24.144a1 1 0 0 0 -1-1z" fill="#e9ecee"/><path d="m66.742 119.422h-26.418a1 1 0 0 0 -1 1v24.144a1 1 0 0 0 1 1h26.418a1 1 0 0 0 1-1v-24.144a1 1 0 0 0 -1-1z" fill="#5b7993"/><path d="m101.979 119.422h-26.418a1 1 0 0 0 -1 1v24.144a1 1 0 0 0 1 1h26.418a1 1 0 0 0 1-1v-24.144a1 1 0 0 0 -1-1z" fill="#e9ecee"/><path d="m101.979 85.32h-26.418a1 1 0 0 0 -1 1v24.145a1 1 0 0 0 1 1h26.418a1 1 0 0 0 1-1v-24.144a1 1 0 0 0 -1-1zm47.741 68.202h-26.417a1 1 0 0 0 -1 1v24.144a1 1 0 0 0 1 1h26.417a1 1 0 0 0 1-1v-24.144a1 1 0 0 0 -1-1zm0-68.202h-26.417a1 1 0 0 0 -1 1v24.145a1 1 0 0 0 1 1h26.417a1 1 0 0 0 1-1v-24.144a1 1 0 0 0 -1-1z" fill="#adbcc9"/><path d="m184.958 85.32h-26.418a1 1 0 0 0 -1 1v24.145a1 1 0 0 0 1 1h26.418a1 1 0 0 0 1-1v-24.144a1 1 0 0 0 -1-1z" fill="#5b7993"/><path d="m220.195 51.22h-26.417a1 1 0 0 0 -1 1v24.144a1 1 0 0 0 1 1h26.417a1 1 0 0 0 1-1v-24.144a1 1 0 0 0 -1-1z" fill="#e9ecee"/><path d="m220.195 118.285h-26.417a1 1 0 0 0 -1 1v24.144a1 1 0 0 0 1 1h26.417a1 1 0 0 0 1-1v-24.144a1 1 0 0 0 -1-1z" fill="#adbcc9"/><path d="m221.195 153.522h-28.417v26.144h28.417zm-36.237-102.302h-26.418a1 1 0 0 0 -1 1v24.144a1 1 0 0 0 1 1h26.418a1 1 0 0 0 1-1v-24.144a1 1 0 0 0 -1-1z" fill="#e9ecee"/><path d="m151.991 119.421c.553 0 .999.442.985.995-.079 3.049-.519 12.574-2.984 20.985a.99.99 0 0 1 -.458.578l-6.02 3.454a1 1 0 0 1 -.498.132h-21.496c-.711 0-1.197-.721-.954-1.389 3.268-8.969 3.804-20.37 3.891-23.761a1.019 1.019 0 0 1 1.016-.994z" fill="#5b7993"/><path d="m143.45 145.466-.447-2.151a1 1 0 0 1 .944-1.202l5.723-.206z" fill="#3e576c"/><path d="m66.74 153.522c.553 0 .999.442.984.995-.078 3.049-.519 12.574-2.984 20.985a.987.987 0 0 1 -.458.578l-6.02 3.454a.998.998 0 0 1 -.497.132h-21.497c-.711 0-1.197-.721-.954-1.389 3.268-8.969 3.804-20.37 3.892-23.761a1.019 1.019 0 0 1 1.015-.994z" fill="#e9ecee"/><path d="m58.198 179.567-.446-2.15a1 1 0 0 1 .943-1.203l5.723-.206z" fill="#c9c9c9"/><path d="m151.991 51.22c.553 0 .999.442.985.995-.079 3.05-.519 12.574-2.984 20.985a.99.99 0 0 1 -.458.579l-6.02 3.453a1.002 1.002 0 0 1 -.498.133h-21.496c-.711 0-1.197-.721-.954-1.39 3.268-8.968 3.804-20.37 3.891-23.76a1.018 1.018 0 0 1 1.016-.994h26.518z" fill="#e9ecee"/><path d="m143.45 77.265-.447-2.15a1.001 1.001 0 0 1 .944-1.203l5.723-.206-6.22 3.56z" fill="#c9c9c9"/><path d="m184.956 119.421c.553 0 .999.442.984.995-.078 3.049-.519 12.574-2.984 20.985a.982.982 0 0 1 -.458.578l-6.02 3.454a.996.996 0 0 1 -.497.132h-21.497c-.711 0-1.197-.721-.954-1.389 3.268-8.969 3.804-20.37 3.892-23.761a1.018 1.018 0 0 1 1.015-.994z" fill="#e9ecee"/><path d="m176.414 145.466-.446-2.151a1 1 0 0 1 .943-1.202l5.723-.206z" fill="#c9c9c9"/><path d="m184.956 153.423c.553 0 .999.441.984.994-.078 3.05-.519 12.574-2.984 20.985a.984.984 0 0 1 -.458.579l-6.02 3.453a.997.997 0 0 1 -.497.133h-21.497c-.711 0-1.197-.721-.954-1.389 3.268-8.969 3.804-20.371 3.892-23.761a1.017 1.017 0 0 1 1.015-.994z" fill="#e9ecee"/><path d="m176.414 179.467-.446-2.15a1 1 0 0 1 .943-1.203l5.723-.206z" fill="#c9c9c9"/><g filter="url(#f)"><rect fill="url(#d)" height="79.747" rx="4" width="116.844" x="166.077" y="137.914"/></g><g fill="#5b7993"><rect height="3.19" rx="1.595" width="22.153" x="174.719" y="147.928"/><rect height="5.317" rx="2.658" width="25.714" x="204.523" y="147.928"/><rect height="5.317" rx="2.658" width="25.714" x="203.293" y="173.406"/><rect height="5.317" rx="2.658" width="17.496" x="221.241" y="181.574"/><rect height="5.317" rx="2.658" width="41.007" x="231.238" y="189.742"/><rect height="5.317" rx="2.658" width="39.646" x="222.339" y="156.265"/><rect height="5.317" rx="2.658" width="19.088" x="253.157" y="164.603"/><rect height="3.19" rx="1.595" width="22.153" x="174.719" y="154.5"/><rect height="3.19" rx="1.595" width="22.153" x="174.719" y="168.96"/><rect height="3.19" rx="1.595" width="22.153" x="174.719" y="175.533"/></g><path d="m242.064 166.111v20.952m0 10.202v14.246" stroke="#5b7993" stroke-dasharray="1 4" stroke-linecap="round" stroke-linejoin="round" stroke-width="2"/><rect fill="#5b7993" height="7.569" rx="1" transform="matrix(.70710678 -.70710678 .70710678 .70710678 -43.015488 213.997426)" width="7.569" x="236.81" y="158.923"/></svg>