<?xml version="1.0" encoding="utf-8"?>
<svg width="335" height="308" fill="none" xmlns="http://www.w3.org/2000/svg"><ellipse rx="87.309" ry="87.295" transform="rotate(-86.451 203.11 -7.6) skewX(-.001)" stroke="#E9ECEE" stroke-width="3" stroke-linecap="round" stroke-linejoin="round" stroke-dasharray="5 10"/><path opacity=".5" d="M241.367 2.431a4.001 4.001 0 00-3.344-1.805H136.501c-3.182 0-5.09 3.536-3.343 6.196l69.144 105.297a3.997 3.997 0 01.001 4.39l-69.147 105.334c-1.746 2.66.162 6.195 3.344 6.195h101.522a4.002 4.002 0 003.345-1.806l71.993-109.724a4 4 0 000-4.389L241.367 2.431z" fill="#5CDBDD"/><path d="M97.32 2.431A4 4 0 0093.976.626H60.139c-3.182 0-5.09 3.535-3.344 6.195l69.112 105.298a4.001 4.001 0 010 4.389L56.793 221.844c-1.745 2.66.163 6.194 3.345 6.194h33.837a4 4 0 003.345-1.806l71.993-109.724a3.997 3.997 0 000-4.389L97.32 2.431z" fill="url(#paint0_linear)"/><g filter="url(#filter0_d)"><rect x="20.8" y="26.899" width="220.046" height="143.875" rx="4" fill="url(#paint1_linear)"/></g><rect x="33.485" y="39.036" width="9.761" height="9.763" rx="4.881" fill="#5A778F" stroke="#2D4F6D"/><rect x="41.556" y="39.036" width="9.761" height="9.763" rx="4.881" fill="#5A778F" stroke="#2D4F6D"/><path opacity=".481" d="M201.058 51.482c-5.635 0-10.224 4.59-10.224 10.226 0 .466.042.918.099 1.37l-17.667 8.616a10.194 10.194 0 00-7.315-3.093c-5.634 0-10.224 4.59-10.224 10.226 0 2.175.692 4.195 1.864 5.861l-23.527 31.567a10.214 10.214 0 00-3.22-.522c-1.581 0-3.078.367-4.42 1.017l-21.649-22.443a10.192 10.192 0 001.187-4.76c0-5.636-4.59-10.226-10.225-10.226-5.634 0-10.224 4.59-10.224 10.226 0 1.723.424 3.333 1.186 4.76L65.052 116.75a10.104 10.104 0 00-4.42-1.017c-5.65 0-10.239 4.59-10.239 10.226 0 5.635 4.59 10.226 10.239 10.226 5.634 0 10.224-4.591 10.224-10.226 0-1.723-.424-3.334-1.186-4.76l21.634-22.43a10.109 10.109 0 008.84 0l21.635 22.43a10.204 10.204 0 00-1.186 4.76c0 5.635 4.589 10.226 10.224 10.226s10.224-4.591 10.224-10.226a10.16 10.16 0 00-1.864-5.862l23.513-31.553c1.017.339 2.104.523 3.22.523 5.649 0 10.238-4.59 10.238-10.226 0-.466-.042-.918-.099-1.37l17.667-8.616a10.194 10.194 0 007.315 3.093c5.634 0 10.224-4.59 10.224-10.226 0-5.635-4.561-10.24-10.196-10.24z" fill="url(#paint2_linear)"/><rect x="174.956" y="106.681" width="11.364" height="4.237" rx="2.119" fill="#ADBCC9"/><rect x="189.098" y="106.681" width="5.809" height="4.237" rx="2.119" fill="#ADBCC9"/><rect x="197.686" y="106.681" width="21.466" height="4.237" rx="2.119" fill="#ADBCC9"/><rect x="174.956" y="114.288" width="30.659" height="4.237" rx="2.119" fill="#ADBCC9"/><rect x="208.746" y="114.288" width="10.405" height="4.237" rx="2.119" fill="#ADBCC9"/><g filter="url(#filter1_d)"><rect x="35.854" y="148.155" width="120.717" height="114.814" rx="4" fill="#fff"/></g><rect x="51.496" y="161.14" width="11.364" height="4.237" rx="2.119" fill="#ADBCC9"/><rect x="65.639" y="161.14" width="5.809" height="4.237" rx="2.119" fill="#ADBCC9"/><rect x="74.226" y="161.14" width="21.466" height="4.237" rx="2.119" fill="#ADBCC9"/><rect x="51.496" y="168.747" width="30.659" height="4.237" rx="2.119" fill="#ADBCC9"/><rect x="85.286" y="168.747" width="10.405" height="4.237" rx="2.119" fill="#ADBCC9"/><path d="M140.138 247.068H52.286a.79.79 0 01-.79-.791v-60.182a.79.79 0 111.581 0v59.377h87.061a.79.79 0 01.791.791.776.776 0 01-.791.805z" fill="#E2E6E8"/><path d="M69.642 226.137H59.7v12.74h9.942v-12.74zM88.58 216.532h-9.942v22.33h9.942v-22.33zM107.517 219.696h-9.942v19.181h9.942v-19.181zM126.468 208.665h-9.941v30.211h9.941v-30.211z" fill="#ADBCC9"/><path d="M65.642 218.255H63.7a4 4 0 00-4 4v3.881h9.942v-3.881a4 4 0 00-4-4zM88.58 216.546v-8.856c0-.903 0-1.354-.073-1.729a4 4 0 00-3.17-3.17c-.375-.072-.826-.072-1.728-.072s-1.353 0-1.729.072a4 4 0 00-3.17 3.17c-.072.375-.072.826-.072 1.729v8.856h9.942zM103.517 207.817h-1.942a4 4 0 00-4 4v7.865h9.942v-7.865a4 4 0 00-4-4zM122.468 189.965h-1.941a4 4 0 00-4 4v14.7h9.941v-14.7a4 4 0 00-4-4z" fill="#5B7993"/><g filter="url(#filter2_d)"><rect x="240.846" y="208.664" width="73.954" height="68.908" rx="4" fill="#fff"/></g><path d="M278.527 217.39l-1.027-.028v26.522l1.707-1.707 16.31-16.313.726-.726-.744-.707a25.6 25.6 0 00-16.972-7.041z" fill="#E2E6E8" stroke="#fff" stroke-width="2"/><path d="M278.037 242.424l-.665.665.624.705 15.956 18.011.682.771.751-.704c5.012-4.702 8.18-11.365 8.18-18.777 0-6.846-2.705-13.056-7.076-17.673l-.706-.747-.727.727-17.019 17.022z" fill="#5B7993" stroke="#fff" stroke-width="2"/><path d="M278.146 218.39v-1.028l-1.027.028c-13.87.378-25.039 11.745-25.039 25.714 0 14.195 11.545 25.742 25.738 25.742 6.284 0 12.05-2.269 16.527-6.029l.786-.66-.681-.768-16.304-18.414V218.39zm.031 24.658l-.006-.011.006.011z" fill="#ADBCC9" stroke="#fff" stroke-width="2"/><g filter="url(#filter3_d)"><rect x="144.291" y="157.281" width="64.127" height="86.498" rx="4" fill="#fff"/></g><path opacity=".4" d="M200.69 185.651v-18.274a2 2 0 00-2-2h-44.269a2 2 0 00-2 2v18.274a2 2 0 002 2h44.269a2 2 0 002-2zM198.694 218.255h-8.159a2 2 0 00-2 2v10.016a2 2 0 002 2h8.159a2 2 0 002-2v-10.016a2 2 0 00-2-2z" fill="#ADBCC9"/><rect x="152.421" y="192.993" width="12.411" height="4.237" rx="2.119" fill="#ADBCC9"/><rect x="167.864" y="192.993" width="6.343" height="4.237" rx="2.119" fill="#ADBCC9"/><rect x="177.245" y="192.993" width="23.445" height="4.237" rx="2.119" fill="#ADBCC9"/><rect x="152.421" y="200.6" width="33.487" height="4.237" rx="2.119" fill="#ADBCC9"/><rect x="152.421" y="208.207" width="24.826" height="4.237" rx="2.119" fill="#ADBCC9"/><rect x="152.421" y="221.025" width="15.443" height="4.237" rx="2.119" fill="#ADBCC9"/><rect x="152.421" y="228.033" width="24.826" height="4.237" rx="2.119" fill="#ADBCC9"/><rect x="180.268" y="208.207" width="20.422" height="4.237" rx="2.119" fill="#ADBCC9"/><rect x="189.326" y="200.6" width="11.364" height="4.237" rx="2.119" fill="#ADBCC9"/><defs><filter id="filter0_d" x=".8" y="16.899" width="260.046" height="183.875" filterUnits="userSpaceOnUse" color-interpolation-filters="sRGB"><feFlood flood-opacity="0" result="BackgroundImageFix"/><feColorMatrix in="SourceAlpha" values="0 0 0 0 0 0 0 0 0 0 0 0 0 0 0 0 0 0 127 0"/><feOffset dy="10"/><feGaussianBlur stdDeviation="10"/><feColorMatrix values="0 0 0 0 0.122344 0 0 0 0 0.237341 0 0 0 0 0.3375 0 0 0 0.26 0"/><feBlend in2="BackgroundImageFix" result="effect1_dropShadow"/><feBlend in="SourceGraphic" in2="effect1_dropShadow" result="shape"/></filter><filter id="filter1_d" x="15.854" y="138.155" width="160.717" height="154.814" filterUnits="userSpaceOnUse" color-interpolation-filters="sRGB"><feFlood flood-opacity="0" result="BackgroundImageFix"/><feColorMatrix in="SourceAlpha" values="0 0 0 0 0 0 0 0 0 0 0 0 0 0 0 0 0 0 127 0"/><feOffset dy="10"/><feGaussianBlur stdDeviation="10"/><feColorMatrix values="0 0 0 0 0.122344 0 0 0 0 0.237341 0 0 0 0 0.3375 0 0 0 0.12 0"/><feBlend in2="BackgroundImageFix" result="effect1_dropShadow"/><feBlend in="SourceGraphic" in2="effect1_dropShadow" result="shape"/></filter><filter id="filter2_d" x="220.846" y="198.664" width="113.954" height="108.908" filterUnits="userSpaceOnUse" color-interpolation-filters="sRGB"><feFlood flood-opacity="0" result="BackgroundImageFix"/><feColorMatrix in="SourceAlpha" values="0 0 0 0 0 0 0 0 0 0 0 0 0 0 0 0 0 0 127 0"/><feOffset dy="10"/><feGaussianBlur stdDeviation="10"/><feColorMatrix values="0 0 0 0 0.122344 0 0 0 0 0.237341 0 0 0 0 0.3375 0 0 0 0.12 0"/><feBlend in2="BackgroundImageFix" result="effect1_dropShadow"/><feBlend in="SourceGraphic" in2="effect1_dropShadow" result="shape"/></filter><filter id="filter3_d" x="124.291" y="147.281" width="104.128" height="126.498" filterUnits="userSpaceOnUse" color-interpolation-filters="sRGB"><feFlood flood-opacity="0" result="BackgroundImageFix"/><feColorMatrix in="SourceAlpha" values="0 0 0 0 0 0 0 0 0 0 0 0 0 0 0 0 0 0 127 0"/><feOffset dy="10"/><feGaussianBlur stdDeviation="10"/><feColorMatrix values="0 0 0 0 0.122344 0 0 0 0 0.237341 0 0 0 0 0.3375 0 0 0 0.12 0"/><feBlend in2="BackgroundImageFix" result="effect1_dropShadow"/><feBlend in="SourceGraphic" in2="effect1_dropShadow" result="shape"/></filter><linearGradient id="paint0_linear" x1="281.96" y1="59.161" x2="74.4" y2="43.155" gradientUnits="userSpaceOnUse"><stop stop-color="#5CDBDD" stop-opacity=".03"/><stop offset="1" stop-color="#5CDBDD" stop-opacity=".21"/></linearGradient><linearGradient id="paint1_linear" x1="240.846" y1="26.899" x2="53.913" y2="188.964" gradientUnits="userSpaceOnUse"><stop stop-color="#1F3D56"/><stop offset="1" stop-color="#335878"/></linearGradient><linearGradient id="paint2_linear" x1="130.859" y1="50.475" x2="130.859" y2="123.555" gradientUnits="userSpaceOnUse"><stop offset=".002" stop-color="#ADBCC9"/><stop offset="1" stop-color="#ADBCC9" stop-opacity=".13"/></linearGradient></defs></svg>