<?xml version="1.0" encoding="utf-8"?>
<svg width="303" height="293" fill="none" xmlns="http://www.w3.org/2000/svg"><path opacity=".5" fill-rule="evenodd" clip-rule="evenodd" d="M147.8 21.508c-2.233-6.874-3.244-11.21-2.555-11.99C148.366 6 163.66 1.847 165.004 5.16c.158.397 1.494 3.712 3.716 9.215 1.085 2.686 4.021 4.233 6.928 3.86 2.981-.381 5.282-2.697 5.437-5.62.366-6.903.992-11.088 1.923-11.508 4.267-1.899 20.451.439 20.497 3.81.002.424.065 3.83.177 9.475.059 2.982 2.252 5.549 5.221 6.39 3.26.925 6.739-.443 8.183-3.36 2.739-5.535 4.758-8.719 5.769-8.719 4.794.022 19.403 8.635 18.196 11.65l-.7 1.777c-.565 1.437-1.452 3.693-2.613 6.636-1.078 2.736-.052 5.857 2.384 7.7 2.666 2.017 6.413 2.062 8.917-.006 4.602-3.799 7.674-5.827 8.638-5.414 4.605 1.94 15.446 15.435 13.196 17.62-.204.19-1.528 1.497-3.758 3.7l-2.191 2.162c-2.204 2.176-2.48 5.565-.796 8.24 1.77 2.812 5.296 4.22 8.44 3.177 4.188-1.39 6.811-2.203 7.39-2.283 5.367-.663 12.033 18.883 7.07 20.629-.415.145-1.937.737-4.396 1.694l-.54.21c-3.61 1.404-5.483 5.257-4.714 9.019a8.41 8.41 0 007.442 6.665c4.254.398 6.897.701 7.459.861 5.39 1.521 4.617 21.576-.779 21.168-.448-.027-2.193-.115-5.011-.249-4.128-.195-7.589 2.782-8.313 6.708a8.16 8.16 0 004.244 8.69c4.162 2.195 6.729 3.597 7.224 3.977 4.615 3.559-3.602 21.05-8.604 18.511-.454-.244-2.369-1.155-5.466-2.618-3.457-1.633-7.535-.355-9.557 2.716-1.778 2.7-1.598 6.273.613 8.768 3.433 3.873 5.535 6.321 5.896 6.88 3.114 4.968-11.171 17.306-15.03 13.055-.356-.407-1.962-2.089-4.559-4.789-2.579-2.681-6.754-3.023-9.839-1.08-2.903 1.828-4.274 5.365-3.045 8.587 1.783 4.679 2.845 7.605 2.977 8.232 1.119 5.67-17.134 10.892-19.26 5.547-.219-.552-1.24-2.948-2.899-6.804-1.321-3.071-4.759-4.767-8.106-4.311-3.496.476-6.152 3.256-6.152 6.698.001 4.727-.055 7.662-.164 8.258-.985 5.499-20.392 2.9-20.48-2.705-.016-.554-.114-3.02-.284-7.004-.145-3.405-2.72-6.281-6.119-7.215-3.809-1.047-7.858.629-9.332 4.126-1.564 3.711-2.571 5.991-2.874 6.445-3.019 4.505-20.619-5.646-18.617-10.648.211-.491 1.022-2.703 2.327-6.278 1.153-3.161-.102-6.706-2.906-8.791-3.17-2.357-7.622-2.321-10.411.301-2.761 2.596-4.506 4.172-4.953 4.461-4.513 2.811-17.686-13.224-13.932-16.878.331-.308 1.599-1.617 3.634-3.737 2.767-2.883 2.995-7.258.802-10.701-2.244-3.523-6.593-5.369-10.646-4.367-5.006 1.239-8.166 1.648-8.871.965-3.693-3.57-9.064-19.928-6.095-20.971.355-.125 2.98-1.063 7.359-2.633 3.176-1.139 4.891-4.443 4.245-7.72-.594-3.012-3.075-5.381-6.192-5.854-6.474-.982-10.426-1.991-10.905-2.984-2.212-4.63-1.404-21.34 1.843-21.086.37.032 3.096.23 7.647.556 3.601.258 6.687-2.249 7.339-5.672.559-2.93-.789-5.965-3.452-7.55-6.003-3.576-9.518-6.123-9.613-7.224-.406-5.01 6.593-19.511 9.608-17.98l1.778.89 6.006 3.011c2.963 1.487 6.524.46 8.3-2.19a6.276 6.276 0 00-.331-7.45c-4.665-5.807-7.262-9.643-6.927-10.686 1.458-4.64 13.503-14.768 15.811-12.22.201.23 1.581 1.732 3.905 4.261l2.348 2.557c2.191 2.386 5.819 2.787 8.527 1.123 2.503-1.538 3.722-4.528 2.812-7.33zm45.824 146.761c33.752 0 61.113-27.361 61.113-61.113 0-33.752-27.361-61.113-61.113-61.113-33.752 0-61.113 27.361-61.113 61.113 0 33.752 27.361 61.113 61.113 61.113z" fill="#5CDBDD"/><path d="M113.338 208.833c-.036.253.684 1.39 1.903 3.106 2.141 3.014 2.295 6.867 1.042 10.234-1.46 3.924-4.84 7.052-9.152 7.373-.936.069-1.526.131-1.673.183-1.332.402-1.535 7.389.379 10.289.124.198 1.128.493 2.74.853 3.986.891 7.105 3.826 8.698 7.502 1.652 3.81 1.655 8.264-.811 11.514-.849 1.12-1.376 1.852-1.453 2.044-.584 1.287 4.046 6.804 7.243 7.647.194.048.922-.376 2.03-1.147 3.428-2.383 8.138-2.337 12.076-.616 3.571 1.562 6.402 4.462 7.093 8.184.463 2.491.821 4.123.999 4.39.396.608 2.216.796 4.188.81 3.314.024 5.704-.308 5.86-3.518.148-3.053 2.554-7.798 5.468-8.884.278-.104.555-.212.831-.325 3.343-1.367 7.337-1.249 10.219 1.03 1.991 1.576 3.337 2.572 3.643 2.659.694.183 2.053-1.092 3.37-2.593 2.144-2.445 3.402-4.241 1.306-6.841-1.997-2.478-3.645-7.644-2.499-10.509.119-.297.234-.596.343-.897 1.38-3.777 4.55-6.816 8.666-7.327 1.505-.186 2.462-.348 2.658-.463.642-.419.56-2.914.312-5.342-.301-2.946-.624-4.936-3.643-5.374-2.882-.419-7.31-2.876-8.304-5.551a37.97 37.97 0 00-.886-2.175c-1.692-3.814-1.744-8.208.536-11.607.823-1.226 1.315-2.037 1.352-2.265.132-.815-1.673-2.723-3.514-4.428-2.083-1.931-3.727-3.221-5.836-1.433-2.027 1.718-6.575 3.069-8.992 1.771a34.482 34.482 0 00-2.077-1.027c-3.339-1.514-6.055-4.35-6.552-7.87-.265-1.876-.458-3.092-.552-3.327-.507-1.428-7.262-2.265-9.887-.522-.187.116-.386 1.146-.59 2.816-.451 3.677-3.269 6.504-6.795 7.849-3.583 1.367-7.887 1.216-10.842-1.318-1.201-1.029-1.979-1.675-2.17-1.783-1.305-.754-6.2 3.622-6.727 6.888zm45.005 16.035c6.96 7.32 7.386 18.641.911 25.244-6.436 6.622-17.315 6.055-24.26-1.303-6.96-7.32-7.385-18.642-.911-25.244 6.436-6.622 17.288-6.046 24.26 1.303z" fill="url(#paint0_linear)"/><path d="M25.88 90.359c-.064.449 2.262 3.695 5.534 8.018-2.293 3.723-3.724 7.93-4.339 12.276-4.986.245-8.674.46-9.075.601-1.331.403-1.535 7.39.38 10.289.252.403 4.13 1.203 9.376 2.144 1.01 4.299 2.836 8.508 5.43 12.349-3.133 3.985-5.465 7.001-5.632 7.42-.584 1.287 4.046 6.804 7.242 7.647.439.108 3.578-2.176 7.676-5.419 3.871 2.769 8.12 4.651 12.446 5.653.964 5.791 1.775 10.126 2.077 10.578.938 1.44 9.887.522 9.887.522s.233-4.539.51-10.733a28.594 28.594 0 0011.318-4.602c4.523 3.719 7.978 6.438 8.493 6.584 1.599.422 6.727-6.888 6.727-6.888s-2.895-3.603-6.842-8.475c2.251-3.676 3.678-7.816 4.29-12.095 5.325-.463 9.25-.925 9.67-1.171 1.304-.852-.38-10.289-.38-10.289s-4.165-.601-9.887-1.44a38.106 38.106 0 00-5.628-12.771c3.026-4.177 5.181-7.328 5.262-7.814.263-1.634-7.243-7.647-7.243-7.647s-2.983 2.523-7.123 6.044c-3.669-2.643-7.697-4.505-11.812-5.516-.667-5.042-1.174-8.764-1.345-9.196-.507-1.427-7.263-2.264-9.887-.522-.367.227-.775 3.943-1.188 9.103-4.31.565-8.377 2.126-12.013 4.617-3.925-3.438-6.804-5.933-7.197-6.155-1.304-.754-6.2 3.621-6.726 6.888zm45.006 16.034c6.96 7.32 7.385 18.642.91 25.244-6.436 6.622-17.315 6.055-24.26-1.303-6.96-7.319-7.385-18.641-.91-25.244 6.436-6.622 17.288-6.046 24.26 1.303z" fill="url(#paint1_linear)"/><g filter="url(#filter0_d)"><path d="M99.023 88.217a4 4 0 014 0l70.83 40.893c1.237.715 2 2.035 2 3.464v81.787c0 1.429-.763 2.75-2 3.465l-70.83 40.893a3.998 3.998 0 01-4 0l-70.83-40.893a4.002 4.002 0 01-2-3.465v-81.787a4 4 0 012-3.464l70.83-40.893z" fill="url(#paint2_linear)"/></g><path opacity=".481" fill-rule="evenodd" clip-rule="evenodd" d="M100.541 148.459l-4.446 4.445-4.445-4.445a2.072 2.072 0 00-2.93 2.93l4.445 4.446-4.446 4.445a2.072 2.072 0 002.93 2.93l4.446-4.445 4.446 4.445a2.072 2.072 0 002.93-2.93l-4.446-4.445 4.446-4.446a2.072 2.072 0 00-2.93-2.93zm-.202 42.234l-4.547 4.446-4.445-4.446a2.074 2.074 0 00-2.93 0 2.074 2.074 0 000 2.931l4.445 4.445-4.445 4.446a2.073 2.073 0 000 2.93 2.074 2.074 0 002.93 0l4.445-4.446 4.446 4.446a2.072 2.072 0 002.93-2.93l-4.446-4.446 4.446-4.445a2.073 2.073 0 000-2.931c-.808-.808-2.122-.808-2.829 0zm19.804-5.86l4.547-4.445c.808-.809 2.021-.809 2.829 0a2.074 2.074 0 010 2.93l-4.446 4.446 4.446 4.445a2.072 2.072 0 01-2.93 2.93l-4.446-4.445-4.446 4.445a2.072 2.072 0 01-2.93-2.93l4.446-4.445-4.446-4.446a2.072 2.072 0 012.93-2.93l4.446 4.445z" fill="#547188"/><path fill-rule="evenodd" clip-rule="evenodd" d="M111.757 136.233a8.15 8.15 0 018.184-8.184 8.15 8.15 0 018.184 8.184 8.15 8.15 0 01-8.184 8.185 8.15 8.15 0 01-8.184-8.185zm4.446 30.11c-.304.707-.708 1.313-1.213 1.919-1.111 1.415-2.627 2.526-4.244 3.234l-.354.158h-.001c-1.039.46-2.213.978-2.575 2.064-.303 1.011.303 2.223 1.314 2.526.898.27 1.796-.099 2.694-.469l.337-.137c3.637-1.616 6.77-4.547 8.386-8.184 1.52-3.42 1.611-7.197 1.701-10.911l.017-.708 3.637 3.031.072.053c.391.295.867.654 1.343.654.606 0 1.111-.404 1.515-.808.304-.303.607-.607.708-1.112.101-.808-.404-1.515-1.011-2.02v-.001c-2.223-2.324-4.446-4.647-6.769-6.769-.505-.505-1.112-.909-1.718-1.01-.715 0-1.273.474-1.811.934h-.001l-.209.177c-.509.509-1.006 1.018-1.5 1.523-.977.999-1.939 1.983-2.945 2.923l-2.223 2.223c-.607.606-1.011 1.313-.809 2.121.101.506.506.91.91 1.314.404.303.909.505 1.414.404.404-.101.708-.303 1.112-.606l3.637-3.031c0 .421.004.847.008 1.275v.001c.016 1.726.033 3.49-.21 5.19-.202 1.415-.606 2.829-1.212 4.042zm-44.66 33.545a8.15 8.15 0 00-8.184 8.184 8.15 8.15 0 008.184 8.184 8.15 8.15 0 008.184-8.184c.101-4.547-3.637-8.184-8.184-8.184zm0-3.436a2.526 2.526 0 100-5.052 2.526 2.526 0 000 5.052zm2.526-11.113a2.526 2.526 0 11-5.052 0 2.526 2.526 0 015.052 0zm2.93-3.941a2.526 2.526 0 100-5.052 2.526 2.526 0 000 5.052zm10.205-6.164a2.526 2.526 0 11-5.052 0 2.526 2.526 0 015.052 0zm6.062 2.325a2.526 2.526 0 100-5.052 2.526 2.526 0 000 5.052zm11.115-2.526a2.526 2.526 0 11-5.052 0 2.526 2.526 0 015.052 0z" fill="#fff"/><g filter="url(#filter1_d)"><path d="M184.999 12.88a4 4 0 014 0l40.131 23.17c1.237.714 2 2.034 2 3.463v46.339c0 1.429-.763 2.75-2 3.464l-40.131 23.169a3.998 3.998 0 01-4 0l-40.13-23.17a4 4 0 01-2-3.463V39.513a4 4 0 012-3.464l40.13-23.17z" fill="#fff"/></g><path d="M199.971 52.306c-.986-.861-2.547-.861-3.45 0-.986.861-.986 2.224 0 3.014l8.87 7.75-8.87 7.75c-.986.86-.986 2.224 0 3.013.493.43 1.15.646 1.725.646.575 0 1.232-.216 1.725-.646l10.595-9.257c.985-.86.985-2.224 0-3.013l-10.595-9.257zM178.521 52.306c-.985-.861-2.546-.861-3.449 0l-10.596 9.257c-.985.86-.985 2.224 0 3.013l10.596 9.257c.492.43 1.149.646 1.724.646s1.232-.216 1.725-.646c.986-.861.986-2.224 0-3.014l-8.87-7.75 8.87-7.75c.986-.789.986-2.152 0-3.013z" fill="#335878"/><g filter="url(#filter2_d)"><path d="M235.957 110.382a3.998 3.998 0 014 0l40.13 23.169a4 4 0 012 3.464v46.339a4 4 0 01-2 3.464l-40.13 23.169a3.998 3.998 0 01-4 0l-40.13-23.169a4 4 0 01-2.001-3.464v-46.339c0-1.429.763-2.749 2-3.464l40.131-23.169z" fill="#fff"/></g><path fill-rule="evenodd" clip-rule="evenodd" d="M215.518 146.84a1 1 0 000 1.414l33.388 33.388a1 1 0 001.414 0l9.621-9.621a1 1 0 000-1.414l-33.388-33.388a1 1 0 00-1.414 0l-9.621 9.621zm2.827.901l31.072 31.073 7.697-7.698-3.022-3.022-1.511 1.511c-1.102 1.102-2.755-.551-1.653-1.653l1.511-1.511-3.022-3.022-3.848 3.849c-1.102 1.102-2.755-.551-1.653-1.653l3.848-3.849-1.853-1.853-8.666-8.666-1.853-1.853-1.511 1.511c-1.102 1.102-2.755-.551-1.653-1.653l1.511-1.511-3.022-3.022-3.849 3.849c-1.102 1.102-2.754-.551-1.653-1.653l3.849-3.849-3.022-3.022-7.697 7.697z" fill="#ADBCC9"/><path d="M229.207 176.619l7.355-7.355 1.653-1.653 7.697-7.697 1.653-1.653 11.345-11.345a3.506 3.506 0 00-.001-4.96l-3.707-3.706a3.504 3.504 0 00-4.958 0l-11.345 11.345-1.653 1.653-7.697 7.697-1.653 1.653-7.355 7.355-.259.393-4.675 11.687c-.381.954.566 1.901 1.52 1.519l11.687-4.675.393-.258z" fill="#335878"/><path d="M251.975 150.545l-24.06 24.06-5.36-5.36 24.06-24.06 5.36 5.36zM221.329 171.325l4.506 4.506-7.51 3.004 3.004-7.51zM253.628 148.892l-5.36-5.36 3.164-3.163a1.165 1.165 0 011.651-.002l3.708 3.709a1.165 1.165 0 010 1.652l-3.163 3.164z" fill="#fff"/><defs><linearGradient id="paint0_linear" x1="211.501" y1="347.068" x2="184.911" y2="199.599" gradientUnits="userSpaceOnUse"><stop stop-color="#5CDBDD" stop-opacity=".03"/><stop offset="1" stop-color="#5CDBDD" stop-opacity=".21"/></linearGradient><linearGradient id="paint1_linear" x1="124.043" y1="228.594" x2="97.454" y2="81.124" gradientUnits="userSpaceOnUse"><stop stop-color="#5CDBDD" stop-opacity=".03"/><stop offset="1" stop-color="#5CDBDD" stop-opacity=".21"/></linearGradient><linearGradient id="paint2_linear" x1="187.429" y1="87.062" x2="-7.187" y2="197.381" gradientUnits="userSpaceOnUse"><stop stop-color="#1F3D56"/><stop offset="1" stop-color="#335878"/></linearGradient><filter id="filter0_d" x="6.193" y="77.681" width="189.659" height="211.574" filterUnits="userSpaceOnUse" color-interpolation-filters="sRGB"><feFlood flood-opacity="0" result="BackgroundImageFix"/><feColorMatrix in="SourceAlpha" values="0 0 0 0 0 0 0 0 0 0 0 0 0 0 0 0 0 0 127 0"/><feOffset dy="10"/><feGaussianBlur stdDeviation="10"/><feColorMatrix values="0 0 0 0 0.122344 0 0 0 0 0.237341 0 0 0 0 0.3375 0 0 0 0.26 0"/><feBlend in2="BackgroundImageFix" result="effect1_dropShadow"/><feBlend in="SourceGraphic" in2="effect1_dropShadow" result="shape"/></filter><filter id="filter1_d" x="122.869" y="2.344" width="128.261" height="140.677" filterUnits="userSpaceOnUse" color-interpolation-filters="sRGB"><feFlood flood-opacity="0" result="BackgroundImageFix"/><feColorMatrix in="SourceAlpha" values="0 0 0 0 0 0 0 0 0 0 0 0 0 0 0 0 0 0 127 0"/><feOffset dy="10"/><feGaussianBlur stdDeviation="10"/><feColorMatrix values="0 0 0 0 0.122344 0 0 0 0 0.237341 0 0 0 0 0.3375 0 0 0 0.12 0"/><feBlend in2="BackgroundImageFix" result="effect1_dropShadow"/><feBlend in="SourceGraphic" in2="effect1_dropShadow" result="shape"/></filter><filter id="filter2_d" x="173.826" y="99.846" width="128.261" height="140.677" filterUnits="userSpaceOnUse" color-interpolation-filters="sRGB"><feFlood flood-opacity="0" result="BackgroundImageFix"/><feColorMatrix in="SourceAlpha" values="0 0 0 0 0 0 0 0 0 0 0 0 0 0 0 0 0 0 127 0"/><feOffset dy="10"/><feGaussianBlur stdDeviation="10"/><feColorMatrix values="0 0 0 0 0.122344 0 0 0 0 0.237341 0 0 0 0 0.3375 0 0 0 0.12 0"/><feBlend in2="BackgroundImageFix" result="effect1_dropShadow"/><feBlend in="SourceGraphic" in2="effect1_dropShadow" result="shape"/></filter></defs></svg>