<?xml version="1.0" encoding="utf-8"?>
<svg width="421" height="384" fill="none" xmlns="http://www.w3.org/2000/svg"><circle cx="264.933" cy="192.351" r="130.428" transform="rotate(-86.45 264.933 192.351)" stroke="#E9ECEE" stroke-width="3" stroke-linecap="round" stroke-linejoin="round" stroke-dasharray="5 10"/><path opacity=".5" d="M306.208 2.373a4.002 4.002 0 00-3.344-1.805H146.451c-3.182 0-5.09 3.536-3.343 6.196l106.031 161.443a4 4 0 010 4.391L143.106 334.096c-1.746 2.66.162 6.195 3.344 6.195h156.414a4.003 4.003 0 003.344-1.805L415.07 172.597a3.997 3.997 0 000-4.389L306.208 2.373z" fill="#5CDBDD"/><path d="M90.986 2.373A4 4 0 0087.642.568H32.358c-3.181 0-5.09 3.535-3.343 6.195l105.98 161.445a4 4 0 010 4.39L29.013 334.097c-1.746 2.66.162 6.195 3.344 6.195h55.285a4 4 0 003.344-1.806L199.85 172.598a4.003 4.003 0 000-4.39L90.986 2.373z" fill="url(#paint0_linear)"/><g filter="url(#filter0_d)"><rect x="20" y="30.275" width="178.956" height="190.276" rx="4" fill="#325676"/><rect x="21" y="31.275" width="176.956" height="188.276" rx="3" stroke="#335878" stroke-width="2" stroke-linejoin="round"/></g><rect x="37.943" y="200.979" width="7.137" height="7.137" rx="3.569" fill="#5B7993" stroke="#335878"/><rect x="44.045" y="200.979" width="7.137" height="7.137" rx="3.569" fill="#5B7993" stroke="#335878"/><rect opacity=".8" x="38.395" y="49.419" width="28.465" height="7.475" rx="3.737" fill="#ADBCC9"/><rect opacity=".8" x="38.395" y="61.488" width="84.458" height="7.475" rx="3.737" fill="#ADBCC9"/><rect opacity=".4" x="38.395" y="80.665" width="84.458" height="3.203" rx="1.602" fill="#ADBCC9"/><rect opacity=".4" x="38.395" y="88.203" width="84.458" height="3.203" rx="1.602" fill="#ADBCC9"/><rect opacity=".4" x="38.395" y="95.739" width="83.275" height="3.203" rx="1.602" fill="#ADBCC9"/><rect opacity=".4" x="38.395" y="103.276" width="67.959" height="3.203" rx="1.602" fill="#ADBCC9"/><rect opacity=".4" x="38.395" y="176.269" width="84.458" height="3.203" rx="1.602" fill="#ADBCC9"/><rect opacity=".4" x="38.395" y="168.054" width="84.458" height="3.203" rx="1.602" fill="#ADBCC9"/><rect opacity=".4" x="38.395" y="183.805" width="71.74" height="3.203" rx="1.602" fill="#ADBCC9"/><path d="M51.69 156.174a19.7 19.7 0 006.031 1.03c6.391.083 12.098-2.903 15.738-7.587a19.483 19.483 0 004.098-11.739c.007-.436 0-.88-.023-1.308a19.69 19.69 0 00-1.143-5.633c-2.7-7.437-9.782-12.783-18.159-12.896a19.449 19.449 0 00-12.03 3.94c-4.67 3.527-7.722 9.092-7.805 15.393-.12 8.701 5.466 16.153 13.294 18.8zm-8.406-18.747a14.65 14.65 0 015.775-11.483 14.611 14.611 0 019.098-3.008c6.279.083 11.587 4.091 13.617 9.671v.007a14.719 14.719 0 01.88 5.196 14.646 14.646 0 01-3.075 8.799 14.667 14.667 0 01-11.798 5.692 14.431 14.431 0 01-4.519-.774c-5.865-1.978-10.06-7.565-9.978-14.1z" fill="#5B7993"/><path d="M69.58 146.608l3.871 3.001c-3.631 4.685-9.346 7.67-15.737 7.587a19.462 19.462 0 01-6.03-1.03l1.571-4.64c1.421.482 2.94.752 4.52.767a14.617 14.617 0 0011.804-5.685z" fill="#E9ECEE"/><path d="M72.631 136.825l4.895-.263c.023.436.03.872.023 1.315a19.514 19.514 0 01-4.098 11.739l-3.872-3a14.646 14.646 0 003.075-8.799 21.4 21.4 0 00-.023-.992z" fill="#ADBCC9"/><path d="M72.632 136.825a14.712 14.712 0 00-.858-4.211v-.008l4.61-1.677a19.44 19.44 0 011.143 5.633l-4.895.263z" fill="#ADBCC9"/><path d="M46.187 121.973a19.452 19.452 0 0112.03-3.94c8.377.105 15.46 5.459 18.159 12.896l-4.602 1.684v-.007c-2.023-5.572-7.331-9.588-13.617-9.671a14.642 14.642 0 00-9.098 3.008l-2.872-3.97z" fill="#ADBCC9"/><path d="M96.985 155.47c1.894.639 3.917 1 6.03 1.03 6.391.083 12.098-2.902 15.738-7.587a19.485 19.485 0 004.098-11.738c.007-.437 0-.88-.023-1.309a19.68 19.68 0 00-1.143-5.632c-2.699-7.437-9.782-12.784-18.159-12.897a19.443 19.443 0 00-12.03 3.941c-4.67 3.526-7.722 9.091-7.805 15.393-.12 8.7 5.466 16.152 13.294 18.799zm-8.407-18.747a14.647 14.647 0 015.775-11.482 14.605 14.605 0 019.098-3.008c6.279.082 11.587 4.09 13.617 9.67v.008a14.696 14.696 0 01.88 5.196 14.645 14.645 0 01-3.075 8.798 14.666 14.666 0 01-11.798 5.693 14.434 14.434 0 01-4.519-.775c-5.865-1.978-10.06-7.565-9.978-14.1z" fill="#5B7993"/><path d="M114.873 145.906l3.872 3.001c-3.632 4.685-9.346 7.67-15.738 7.587a19.463 19.463 0 01-6.03-1.03l1.572-4.64c1.42.481 2.94.752 4.519.767a14.617 14.617 0 0011.805-5.685z" fill="#E9ECEE"/><path d="M117.925 136.123l4.895-.264c.022.437.03.873.022 1.316a19.512 19.512 0 01-4.098 11.739l-3.872-3.001a14.645 14.645 0 003.075-8.798c0-.338-.007-.669-.022-.992z" fill="#ADBCC9"/><path d="M117.926 136.123a14.71 14.71 0 00-.858-4.212v-.007l4.61-1.677a19.486 19.486 0 011.143 5.632l-4.895.264z" fill="#ADBCC9"/><path d="M91.48 121.271a19.459 19.459 0 0112.031-3.941c8.376.106 15.459 5.46 18.159 12.897l-4.602 1.684v-.007c-2.023-5.572-7.331-9.588-13.617-9.671a14.642 14.642 0 00-9.098 3.008l-2.872-3.97z" fill="#5B7993"/><rect x="139.036" y="49.419" width="41.158" height="38.783" rx="4" fill="#5B7993"/><rect x="139.036" y="97.341" width="41.158" height="105.534" rx="4" fill="#5B7993"/><g filter="url(#filter1_d)"><rect x="162.004" y="53.405" width="192.842" height="126.068" rx="4" fill="#fff"/></g><rect x="173.183" y="64.102" width="8.431" height="8.431" rx="4.215" fill="#5A778F" stroke="#fff"/><rect x="180.256" y="64.102" width="8.431" height="8.431" rx="4.215" fill="#5A778F" stroke="#fff"/><path opacity=".8" d="M319.977 74.945c-4.938 0-8.96 4.022-8.96 8.96 0 .408.037.805.086 1.2l-15.482 7.55a8.937 8.937 0 00-6.411-2.71c-4.938 0-8.96 4.022-8.96 8.96 0 1.906.606 3.675 1.634 5.136l-20.619 27.66a8.928 8.928 0 00-2.822-.458 8.862 8.862 0 00-3.873.891l-18.973-19.665a8.936 8.936 0 001.04-4.171c0-4.938-4.022-8.96-8.96-8.96-4.938 0-8.96 4.022-8.96 8.96 0 1.51.371 2.921 1.039 4.171l-18.972 19.665a8.867 8.867 0 00-3.874-.891c-4.95 0-8.972 4.022-8.972 8.96 0 4.938 4.022 8.961 8.972 8.961 4.938 0 8.96-4.023 8.96-8.961 0-1.509-.371-2.92-1.039-4.17l18.96-19.653a8.859 8.859 0 007.747 0l18.96 19.653a8.934 8.934 0 00-1.039 4.17c0 4.938 4.022 8.961 8.96 8.961 4.938 0 8.96-4.023 8.96-8.961a8.902 8.902 0 00-1.634-5.136l20.606-27.648a8.928 8.928 0 002.822.458c4.95 0 8.973-4.022 8.973-8.96 0-.408-.038-.804-.087-1.2l15.482-7.55a8.937 8.937 0 006.411 2.71c4.938 0 8.96-4.022 8.96-8.96 0-4.938-3.997-8.972-8.935-8.972z" fill="#5B7993"/><rect x="297.102" y="123.312" width="9.959" height="3.713" rx="1.856" fill="#ADBCC9"/><rect x="309.496" y="123.312" width="5.09" height="3.713" rx="1.856" fill="#ADBCC9"/><rect x="317.021" y="123.312" width="18.812" height="3.713" rx="1.856" fill="#ADBCC9"/><rect x="297.102" y="129.978" width="26.869" height="3.713" rx="1.856" fill="#ADBCC9"/><rect x="326.714" y="129.978" width="9.119" height="3.713" rx="1.856" fill="#ADBCC9"/><g filter="url(#filter2_d)"><rect x="331.274" y="200.479" width="69.605" height="64.845" rx="4" fill="#fff"/></g><path d="M366.74 208.632l-1.028-.028V233.764l1.708-1.707 15.351-15.351.725-.726-.744-.706a24.15 24.15 0 00-16.012-6.642z" fill="#E2E6E8" stroke="#fff" stroke-width="2"/><path d="M366.236 232.207l-.665.665.624.705 15.018 16.949.682.77.75-.703c4.729-4.435 7.718-10.72 7.718-17.713 0-6.458-2.552-12.316-6.676-16.672l-.706-.746-.727.727-16.018 16.018z" fill="#5B7993" stroke="#fff" stroke-width="2"/><path d="M366.439 209.632v-1.027l-1.027.028c-13.086.356-23.623 11.079-23.623 24.257 0 13.39 10.892 24.283 24.283 24.283a24.172 24.172 0 0015.592-5.688l.786-.66-.68-.768-15.331-17.311v-23.114zm.023 23.178l-.006-.011.006.011z" fill="#ADBCC9" stroke="#fff" stroke-width="2"/><g filter="url(#filter3_d)"><rect x="58.824" y="206.76" width="117.335" height="80.082" rx="4" fill="#fff"/></g><rect x="67.502" y="216.816" width="22.246" height="3.203" rx="1.602" fill="#ADBCC9"/><rect x="97.431" y="216.816" width="25.822" height="5.339" rx="2.67" fill="#5B7993"/><rect x="96.196" y="242.401" width="25.822" height="5.339" rx="2.67" fill="#5B7993"/><rect x="114.22" y="250.604" width="17.57" height="5.339" rx="2.67" fill="#5B7993"/><rect x="124.258" y="258.806" width="41.18" height="5.339" rx="2.67" fill="#5B7993"/><rect x="115.323" y="225.188" width="39.813" height="5.339" rx="2.67" fill="#5B7993"/><rect x="146.27" y="233.561" width="19.168" height="5.339" rx="2.67" fill="#5B7993"/><rect x="67.502" y="223.416" width="22.246" height="3.203" rx="1.602" fill="#ADBCC9"/><rect x="67.502" y="237.937" width="22.246" height="3.203" rx="1.602" fill="#ADBCC9"/><rect x="67.502" y="244.537" width="22.246" height="3.203" rx="1.602" fill="#ADBCC9"/><path stroke="#5B7993" stroke-width="2" stroke-linecap="round" stroke-linejoin="round" stroke-dasharray="1 4" d="M135.126 235.071v21.049M135.126 266.356v14.314"/><rect x="129.854" y="227.857" width="7.6" height="7.6" rx="1" transform="rotate(-45 129.854 227.857)" fill="#5B7993"/><g filter="url(#filter4_d)"><path fill-rule="evenodd" clip-rule="evenodd" d="M347.972 226.854c28.095 0 50.87-17.964 50.87-40.123s-22.775-40.123-50.87-40.123-50.87 17.964-50.87 40.123c0 8.297 3.193 16.006 8.663 22.404.98 1.147 1.338 2.72.839 4.145l-1.475 4.21c-1.09 3.112 1.842 6.132 4.985 5.135l7.364-2.337c1.038-.33 2.163-.215 3.136.276 7.9 3.982 17.287 6.29 27.358 6.29z" fill="url(#paint1_linear)"/></g><circle cx="364.451" cy="186.731" r="5.015" fill="#E9EDF1"/><circle cx="349.405" cy="186.731" r="5.015" fill="#E9EDF1"/><circle cx="333.642" cy="186.731" r="5.015" fill="#E9EDF1"/><g filter="url(#filter5_d)"><path d="M195.216 306.35a3.998 3.998 0 014 0l17.389 10.039a4 4 0 012 3.464v20.079a4.002 4.002 0 01-2 3.464l-17.389 10.039a3.998 3.998 0 01-4 0l-17.389-10.039a4 4 0 01-2-3.464v-20.079c0-1.429.762-2.75 2-3.464l17.389-10.039z" fill="url(#paint2_linear)"/></g><path fill-rule="evenodd" clip-rule="evenodd" d="M186.705 323.059a1 1 0 000 1.415l15.453 15.453a1 1 0 001.414 0l3.934-3.934a.999.999 0 000-1.414l-15.453-15.454a1 1 0 00-1.414 0l-3.934 3.934zm1.005.802l15.06 15.06 3.731-3.731-1.465-1.464-.732.732c-.534.534-1.335-.267-.801-.801l.732-.733-1.465-1.464-1.865 1.865c-.534.534-1.335-.267-.801-.801l1.865-1.865-.898-.899-4.2-4.2-.898-.898-.733.732c-.534.534-1.335-.267-.801-.801l.733-.732-1.465-1.465-1.865 1.865c-.534.535-1.336-.267-.801-.801l1.865-1.865-1.465-1.465-3.731 3.731z" fill="#ADBCC9"/><path d="M192.975 337.858l3.564-3.565.801-.801 3.731-3.73.801-.802 5.499-5.498a1.699 1.699 0 00-.001-2.404l-1.796-1.796a1.698 1.698 0 00-2.403 0l-5.499 5.499-.801.801-3.731 3.73-.801.801-3.564 3.565-.126.19-2.266 5.665a.567.567 0 00.737.736l5.664-2.266.191-.125z" fill="#E9EDF1"/><path d="M204.009 325.22l-11.661 11.661-2.598-2.597 11.662-11.662 2.597 2.598zM189.156 335.292l2.184 2.184-3.64 1.455 1.456-3.639zM204.81 324.419l-2.597-2.598 1.533-1.533a.565.565 0 01.8-.001l1.798 1.798a.567.567 0 010 .801l-1.534 1.533z" fill="#244663"/><g filter="url(#filter6_d)"><path d="M247.655 305.984a4.003 4.003 0 014 0l17.388 10.04c1.238.714 2 2.035 2 3.464v20.078a4 4 0 01-2 3.465l-17.388 10.039a4.003 4.003 0 01-4 0l-17.389-10.039a4 4 0 01-2-3.465v-20.078c0-1.429.762-2.75 2-3.464l17.389-10.04z" fill="url(#paint3_linear)"/></g><path d="M255.226 325.478c-.325-.325-.838-.325-1.135 0-.324.324-.324.837 0 1.134l2.918 2.918-2.918 2.918c-.324.325-.324.838 0 1.135a.823.823 0 00.567.243.827.827 0 00.568-.243l3.485-3.485c.324-.324.324-.838 0-1.135l-3.485-3.485z" fill="#ADBCC9"/><path d="M252.628 320.02a.797.797 0 00-1 .567l-4.971 17.454a.796.796 0 00.567 1 .594.594 0 00.216.027.836.836 0 00.784-.594l4.944-17.454c.135-.433-.108-.892-.54-1z" fill="#D0D8DF"/><path d="M245.22 325.478c-.324-.325-.838-.325-1.135 0l-3.485 3.485c-.325.324-.325.838 0 1.135l3.485 3.485a.823.823 0 00.567.243c.19 0 .406-.081.568-.243.324-.324.324-.837 0-1.135l-2.918-2.918 2.918-2.918c.324-.297.324-.81 0-1.134z" fill="#ADBCC9"/><g filter="url(#filter7_d)"><path d="M221.414 262.63a3.998 3.998 0 014 0l17.389 10.039c1.237.715 2 2.035 2 3.464v20.079a4 4 0 01-2 3.464l-17.389 10.039a3.998 3.998 0 01-4 0l-17.389-10.039a4 4 0 01-2-3.464v-20.079c0-1.429.763-2.749 2-3.464l17.389-10.039z" fill="url(#paint4_linear)"/></g><path opacity=".481" fill-rule="evenodd" clip-rule="evenodd" d="M224.681 278.814l-1.38 1.381-1.381-1.381a.644.644 0 00-.91.91l1.381 1.381-1.381 1.38a.644.644 0 00.91.91l1.381-1.38 1.38 1.38a.644.644 0 00.91-.91l-1.38-1.38 1.38-1.381a.644.644 0 00-.91-.91zm-.061 13.116l-1.412 1.381-1.381-1.381a.644.644 0 00-.91.91l1.381 1.381-1.381 1.38a.644.644 0 00.91.91l1.381-1.38 1.38 1.38a.644.644 0 00.91-.91l-1.38-1.38 1.38-1.381a.644.644 0 000-.91c-.251-.251-.659-.251-.878 0zm6.149-1.82l1.412-1.381a.607.607 0 01.879 0 .644.644 0 010 .91l-1.381 1.381 1.381 1.38a.644.644 0 01-.91.91l-1.381-1.38-1.38 1.38a.644.644 0 01-.91-.91l1.38-1.38-1.38-1.381a.644.644 0 01.91-.91l1.38 1.381z" fill="#547188"/><path fill-rule="evenodd" clip-rule="evenodd" d="M228.166 275.018a2.53 2.53 0 012.542-2.541 2.53 2.53 0 012.541 2.541 2.53 2.53 0 01-2.541 2.542 2.532 2.532 0 01-2.542-2.542zm1.38 9.35c-.094.22-.219.408-.376.596a3.438 3.438 0 01-1.318 1.004l-.11.049c-.323.143-.687.304-.8.641-.094.314.094.691.408.785.279.084.558-.031.837-.146l.104-.042c1.13-.502 2.103-1.412 2.605-2.542.472-1.062.5-2.235.528-3.388l.005-.22 1.13.941.022.017c.121.091.269.203.417.203.188 0 .345-.126.47-.251.095-.094.189-.189.22-.345.031-.251-.125-.471-.314-.628-.69-.722-1.38-1.443-2.102-2.102-.157-.157-.345-.283-.533-.314-.222 0-.395.148-.563.29a3.166 3.166 0 01-.065.055c-.158.158-.312.316-.466.473-.303.31-.602.616-.914.908l-.691.69c-.188.188-.313.408-.251.659.032.157.157.282.283.408.125.094.282.157.439.125.125-.031.22-.094.345-.188l1.13-.941.002.396c.005.536.01 1.084-.065 1.612a4.158 4.158 0 01-.377 1.255zm-13.868 10.417a2.532 2.532 0 00-2.542 2.542 2.53 2.53 0 002.542 2.541 2.53 2.53 0 002.541-2.541c.032-1.412-1.129-2.542-2.541-2.542zm0-1.067a.784.784 0 100-1.568.784.784 0 000 1.568zm.784-3.45a.784.784 0 11-1.568 0 .784.784 0 011.568 0zm.91-1.225a.784.784 0 10.002-1.568.784.784 0 00-.002 1.568zm3.169-1.914a.784.784 0 11-1.568.002.784.784 0 011.568-.002zm1.883.722a.784.784 0 100-1.568.784.784 0 000 1.568zm3.451-.784a.784.784 0 11-1.568 0 .784.784 0 011.568 0z" fill="#9BACBC"/><defs><filter id="filter0_d" x="0" y="20.275" width="218.956" height="230.276" filterUnits="userSpaceOnUse" color-interpolation-filters="sRGB"><feFlood flood-opacity="0" result="BackgroundImageFix"/><feColorMatrix in="SourceAlpha" values="0 0 0 0 0 0 0 0 0 0 0 0 0 0 0 0 0 0 127 0"/><feOffset dy="10"/><feGaussianBlur stdDeviation="10"/><feColorMatrix values="0 0 0 0 0.122344 0 0 0 0 0.237341 0 0 0 0 0.3375 0 0 0 0.26 0"/><feBlend in2="BackgroundImageFix" result="effect1_dropShadow"/><feBlend in="SourceGraphic" in2="effect1_dropShadow" result="shape"/></filter><filter id="filter1_d" x="142.004" y="43.405" width="232.842" height="166.068" filterUnits="userSpaceOnUse" color-interpolation-filters="sRGB"><feFlood flood-opacity="0" result="BackgroundImageFix"/><feColorMatrix in="SourceAlpha" values="0 0 0 0 0 0 0 0 0 0 0 0 0 0 0 0 0 0 127 0"/><feOffset dy="10"/><feGaussianBlur stdDeviation="10"/><feColorMatrix values="0 0 0 0 0.122344 0 0 0 0 0.237341 0 0 0 0 0.3375 0 0 0 0.12 0"/><feBlend in2="BackgroundImageFix" result="effect1_dropShadow"/><feBlend in="SourceGraphic" in2="effect1_dropShadow" result="shape"/></filter><filter id="filter2_d" x="311.274" y="190.479" width="109.605" height="104.845" filterUnits="userSpaceOnUse" color-interpolation-filters="sRGB"><feFlood flood-opacity="0" result="BackgroundImageFix"/><feColorMatrix in="SourceAlpha" values="0 0 0 0 0 0 0 0 0 0 0 0 0 0 0 0 0 0 127 0"/><feOffset dy="10"/><feGaussianBlur stdDeviation="10"/><feColorMatrix values="0 0 0 0 0.122344 0 0 0 0 0.237341 0 0 0 0 0.3375 0 0 0 0.12 0"/><feBlend in2="BackgroundImageFix" result="effect1_dropShadow"/><feBlend in="SourceGraphic" in2="effect1_dropShadow" result="shape"/></filter><filter id="filter3_d" x="38.824" y="196.76" width="157.335" height="120.082" filterUnits="userSpaceOnUse" color-interpolation-filters="sRGB"><feFlood flood-opacity="0" result="BackgroundImageFix"/><feColorMatrix in="SourceAlpha" values="0 0 0 0 0 0 0 0 0 0 0 0 0 0 0 0 0 0 127 0"/><feOffset dy="10"/><feGaussianBlur stdDeviation="10"/><feColorMatrix values="0 0 0 0 0.122344 0 0 0 0 0.237341 0 0 0 0 0.3375 0 0 0 0.12 0"/><feBlend in2="BackgroundImageFix" result="effect1_dropShadow"/><feBlend in="SourceGraphic" in2="effect1_dropShadow" result="shape"/></filter><filter id="filter4_d" x="277.102" y="136.608" width="141.741" height="120.246" filterUnits="userSpaceOnUse" color-interpolation-filters="sRGB"><feFlood flood-opacity="0" result="BackgroundImageFix"/><feColorMatrix in="SourceAlpha" values="0 0 0 0 0 0 0 0 0 0 0 0 0 0 0 0 0 0 127 0"/><feOffset dy="10"/><feGaussianBlur stdDeviation="10"/><feColorMatrix values="0 0 0 0 0.122344 0 0 0 0 0.237341 0 0 0 0 0.3375 0 0 0 0.26 0"/><feBlend in2="BackgroundImageFix" result="effect1_dropShadow"/><feBlend in="SourceGraphic" in2="effect1_dropShadow" result="shape"/></filter><filter id="filter5_d" x="155.827" y="295.813" width="82.778" height="88.158" filterUnits="userSpaceOnUse" color-interpolation-filters="sRGB"><feFlood flood-opacity="0" result="BackgroundImageFix"/><feColorMatrix in="SourceAlpha" values="0 0 0 0 0 0 0 0 0 0 0 0 0 0 0 0 0 0 127 0"/><feOffset dy="10"/><feGaussianBlur stdDeviation="10"/><feColorMatrix values="0 0 0 0 0.122344 0 0 0 0 0.237341 0 0 0 0 0.3375 0 0 0 0.26 0"/><feBlend in2="BackgroundImageFix" result="effect1_dropShadow"/><feBlend in="SourceGraphic" in2="effect1_dropShadow" result="shape"/></filter><filter id="filter6_d" x="208.266" y="295.448" width="82.777" height="88.157" filterUnits="userSpaceOnUse" color-interpolation-filters="sRGB"><feFlood flood-opacity="0" result="BackgroundImageFix"/><feColorMatrix in="SourceAlpha" values="0 0 0 0 0 0 0 0 0 0 0 0 0 0 0 0 0 0 127 0"/><feOffset dy="10"/><feGaussianBlur stdDeviation="10"/><feColorMatrix values="0 0 0 0 0.122344 0 0 0 0 0.237341 0 0 0 0 0.3375 0 0 0 0.26 0"/><feBlend in2="BackgroundImageFix" result="effect1_dropShadow"/><feBlend in="SourceGraphic" in2="effect1_dropShadow" result="shape"/></filter><filter id="filter7_d" x="182.025" y="252.094" width="82.777" height="88.157" filterUnits="userSpaceOnUse" color-interpolation-filters="sRGB"><feFlood flood-opacity="0" result="BackgroundImageFix"/><feColorMatrix in="SourceAlpha" values="0 0 0 0 0 0 0 0 0 0 0 0 0 0 0 0 0 0 127 0"/><feOffset dy="10"/><feGaussianBlur stdDeviation="10"/><feColorMatrix values="0 0 0 0 0.122344 0 0 0 0 0.237341 0 0 0 0 0.3375 0 0 0 0.26 0"/><feBlend in2="BackgroundImageFix" result="effect1_dropShadow"/><feBlend in="SourceGraphic" in2="effect1_dropShadow" result="shape"/></filter><linearGradient id="paint0_linear" x1="367.445" y1="88.011" x2="57.327" y2="64.094" gradientUnits="userSpaceOnUse"><stop stop-color="#5CDBDD" stop-opacity=".03"/><stop offset="1" stop-color="#5CDBDD" stop-opacity=".21"/></linearGradient><linearGradient id="paint1_linear" x1="398.842" y1="146.608" x2="299.012" y2="218.355" gradientUnits="userSpaceOnUse"><stop stop-color="#1F3D56"/><stop offset="1" stop-color="#335878"/></linearGradient><linearGradient id="paint2_linear" x1="221.913" y1="305.195" x2="166.286" y2="336.728" gradientUnits="userSpaceOnUse"><stop stop-color="#1F3D56"/><stop offset="1" stop-color="#335878"/></linearGradient><linearGradient id="paint3_linear" x1="274.352" y1="304.83" x2="218.725" y2="336.362" gradientUnits="userSpaceOnUse"><stop stop-color="#1F3D56"/><stop offset="1" stop-color="#335878"/></linearGradient><linearGradient id="paint4_linear" x1="248.111" y1="261.475" x2="192.484" y2="293.008" gradientUnits="userSpaceOnUse"><stop stop-color="#1F3D56"/><stop offset="1" stop-color="#335878"/></linearGradient></defs></svg>