<?xml version="1.0" encoding="utf-8"?>
<svg width="295" height="318" fill="none" xmlns="http://www.w3.org/2000/svg"><rect x="41.616" y="47.478" width="188.337" height="204.08" rx="10" stroke="#E9ECEE" stroke-width="3" stroke-linecap="round" stroke-linejoin="round" stroke-dasharray="5 10"/><rect x=".666" y="162.79" width="229.59" height="84.699" rx="42.35" transform="rotate(-45 .666 162.79)" fill="url(#paint0_linear)"/><rect opacity=".5" x="72.43" y="257.723" width="229.59" height="84.699" rx="42.35" transform="rotate(-45 72.43 257.723)" fill="#5CDBDD"/><g filter="url(#filter0_d)"><rect x="55.335" y="60.859" width="184.661" height="196.342" rx="4" fill="#fff"/></g><rect x="73.834" y="236.989" width="7.397" height="7.397" rx="3.698" fill="#E2E6E8" stroke="#fff"/><rect x="80.131" y="236.989" width="7.397" height="7.397" rx="3.698" fill="#E2E6E8" stroke="#fff"/><rect opacity=".8" x="74.317" y="80.614" width="29.372" height="7.713" rx="3.857" fill="#335878"/><rect opacity=".8" x="74.317" y="93.068" width="87.15" height="7.713" rx="3.857" fill="#335878"/><rect opacity=".4" x="74.317" y="112.856" width="87.15" height="3.306" rx="1.653" fill="#335878"/><rect opacity=".4" x="74.317" y="120.634" width="87.15" height="3.306" rx="1.653" fill="#335878"/><rect opacity=".4" x="74.317" y="128.411" width="85.929" height="3.306" rx="1.653" fill="#335878"/><rect opacity=".4" x="74.316" y="136.188" width="70.126" height="3.306" rx="1.653" fill="#335878"/><rect opacity=".4" x="74.317" y="211.507" width="87.15" height="3.306" rx="1.653" fill="#335878"/><rect opacity=".4" x="74.317" y="203.031" width="87.15" height="3.306" rx="1.653" fill="#335878"/><rect opacity=".4" x="74.317" y="219.284" width="74.027" height="3.306" rx="1.653" fill="#335878"/><path d="M88.036 190.771a20.31 20.31 0 006.223 1.063c6.595.086 12.484-2.995 16.239-7.829a20.101 20.101 0 004.228-12.113c.008-.45 0-.907-.023-1.35a20.32 20.32 0 00-1.179-5.812c-2.786-7.674-10.094-13.191-18.738-13.307a20.066 20.066 0 00-12.414 4.066c-4.818 3.639-7.968 9.381-8.054 15.884-.124 8.977 5.641 16.667 13.718 19.398zm-8.674-19.344a15.117 15.117 0 015.958-11.849 15.082 15.082 0 019.389-3.104c6.478.086 11.956 4.221 14.051 9.979v.008c.496 1.365.799 2.824.884 4.345.016.334.024.675.024 1.017a15.11 15.11 0 01-3.174 9.078 15.13 15.13 0 01-12.173 5.874 14.888 14.888 0 01-4.663-.799c-6.052-2.041-10.382-7.806-10.296-14.549z" fill="#5B7993"/><path d="M106.494 180.901l3.996 3.096c-3.748 4.835-9.645 7.915-16.24 7.83a20.103 20.103 0 01-6.222-1.063l1.621-4.788c1.467.497 3.034.776 4.663.792a15.088 15.088 0 0012.182-5.867z" fill="#E9ECEE"/><path d="M109.644 170.806l5.051-.272c.024.45.031.9.024 1.358a20.144 20.144 0 01-4.229 12.113l-3.996-3.096a15.112 15.112 0 003.174-9.079c0-.349-.008-.691-.024-1.024z" fill="#ADBCC9"/><path d="M109.644 170.806a15.185 15.185 0 00-.884-4.345v-.008l4.756-1.73a20.045 20.045 0 011.179 5.812l-5.051.271z" fill="#ADBCC9"/><path d="M82.356 155.481a20.081 20.081 0 0112.414-4.066c8.643.109 15.952 5.633 18.738 13.308l-4.749 1.738v-.008c-2.087-5.75-7.565-9.894-14.051-9.979a15.114 15.114 0 00-9.388 3.104l-2.964-4.097z" fill="#ADBCC9"/><path d="M134.774 190.046a20.348 20.348 0 006.223 1.063c6.595.085 12.484-2.995 16.239-7.83a20.108 20.108 0 004.229-12.112c.007-.45 0-.908-.024-1.35a20.28 20.28 0 00-1.179-5.812c-2.785-7.674-10.094-13.191-18.738-13.308a20.066 20.066 0 00-12.414 4.066c-4.818 3.639-7.968 9.381-8.053 15.884-.124 8.978 5.64 16.667 13.717 19.399zm-8.674-19.345a15.117 15.117 0 015.959-11.849 15.075 15.075 0 019.388-3.103c6.479.085 11.956 4.221 14.051 9.978v.008a15.2 15.2 0 01.908 5.362 15.118 15.118 0 01-3.173 9.079 15.136 15.136 0 01-12.174 5.874 14.89 14.89 0 01-4.663-.8c-6.052-2.04-10.381-7.806-10.296-14.549z" fill="#5B7993"/><path d="M153.233 180.177l3.995 3.096c-3.747 4.834-9.644 7.915-16.239 7.829a20.098 20.098 0 01-6.222-1.063l1.621-4.788c1.467.497 3.034.776 4.663.792 4.95.07 9.373-2.235 12.182-5.866z" fill="#E9ECEE"/><path d="M156.382 170.081l5.051-.271c.023.45.031.9.023 1.357a20.134 20.134 0 01-4.228 12.113l-3.996-3.096a15.111 15.111 0 003.173-9.079c0-.349-.007-.69-.023-1.024z" fill="#ADBCC9"/><path d="M156.382 170.082a15.198 15.198 0 00-.884-4.346v-.008l4.756-1.73a20.078 20.078 0 011.179 5.812l-5.051.272z" fill="#ADBCC9"/><path d="M129.095 154.756a20.08 20.08 0 0112.414-4.066c8.643.109 15.952 5.634 18.737 13.308l-4.748 1.738v-.008c-2.087-5.75-7.565-9.893-14.051-9.978a15.106 15.106 0 00-9.388 3.103l-2.964-4.097z" fill="#58768E"/><rect x="178.166" y="80.614" width="42.47" height="40.02" rx="4" fill="#E9ECEE"/><rect x="178.166" y="130.063" width="42.47" height="137.883" rx="4" fill="#E9ECEE"/><g filter="url(#filter1_d)"><path d="M271.298 269.639H169.964c-1.425 0-2.576-1.051-2.576-2.353v-69.847c0-1.301 1.151-2.352 2.576-2.352h101.343c1.425 0 2.575 1.051 2.575 2.352v69.847c-.008 1.302-1.159 2.353-2.584 2.353z" fill="url(#paint1_linear)"/><path opacity=".481" d="M177.671 245.758c0-.1.015-.199.044-.294.875-2.861 1.918-5.658 3.558-8.286 1.557-2.487 1.981.884 3.538 1.179 2.533.47 3.906-3.924 4.57-5.684.893-2.377 1.833-4.754 2.874-7.066.497-1.097 2.036-1.078 2.515.036 1.281 2.995 2.497 6.007 3.787 8.992 1.059 2.442 3.261 6.643 6.513 4.192a5.255 5.255 0 001.677-2.193c1.188-2.985 3.74 1.908 4.56 2.838.24.276.507.553.839.7 1.962.848 3.418-2.229 3.888-3.62l7.425-21.881a.773.773 0 011.474 0c1.382 3.934 4.782 10.696 7.021 9.747.479-.203.884-.525 1.28-.866.203-.184.516-.083.59.184.35 1.29.571 2.663 1.207 3.824.562 1.013 1.446 1.879 2.533 2.229 1.087.35 2.386.111 3.169-.737.323-.35.553-.792.894-1.124 2.174-2.119 3.575 4.229 3.999 5.445.718 2.064 2.238 4.247 4.385 4.22 1.05-.01 2.165-.553 3.105-.074.635.322.985 1.032 1.28 1.686 1.308 2.878 2.493 5.827 3.71 8.742a1 1 0 01.077.386v9.56a1 1 0 01-1 1h-78.478a1 1 0 01-1-.997l-.034-12.138z" fill="url(#paint2_linear)"/><path opacity=".245" d="M180.131 244.726c0-.097.014-.193.041-.286.919-3.088 2.013-6.106 3.735-8.942 1.632-2.68 2.077.953 3.709 1.27 2.656.507 4.095-4.228 4.79-6.124.937-2.56 1.922-5.121 3.014-7.613.521-1.181 2.134-1.161 2.637.04 1.342 3.226 2.617 6.472 3.969 9.687 1.111 2.631 3.419 7.157 6.829 4.517a5.654 5.654 0 001.757-2.363c1.246-3.216 3.922 2.055 4.781 3.057.251.298.531.596.879.755 2.057.913 3.583-2.402 4.076-3.901l7.784-23.573c.251-.775 1.285-.775 1.546 0 1.448 4.238 5.012 11.523 7.359 10.501.503-.218.928-.566 1.343-.933.212-.199.541-.089.618.198.367 1.39.599 2.869 1.265 4.12.589 1.091 1.516 2.024 2.656 2.402 1.14.377 2.502.119 3.323-.794.338-.378.579-.854.936-1.211 2.289-2.283 3.748 4.555 4.192 5.866.753 2.223 2.347 4.575 4.597 4.546 1.102-.01 2.27-.596 3.255-.08.667.348 1.034 1.112 1.343 1.817 1.374 3.106 2.618 6.289 3.896 9.436.048.12.073.248.073.377v10.398a1 1 0 01-1 1h-82.367a1 1 0 01-1-.998l-.036-13.169z" fill="url(#paint3_linear)"/><path d="M177.822 251.852l22.166-14.974a.5.5 0 01.762.282l1.979 7.224c.131.479.806.494.958.021l5.804-18.054c.158-.491.866-.45.966.056l4.219 21.347a.5.5 0 00.823.277l7.259-6.452a.5.5 0 01.711.047l5.116 5.932a.5.5 0 00.762-.005l8.358-9.975a.5.5 0 01.882.283l.758 10.112a.5.5 0 00.813.351l6.633-5.376a.5.5 0 01.463-.088l16.533 5.144" stroke="#ADBCC9" stroke-width="1.5" stroke-miterlimit="10" stroke-linecap="round" stroke-linejoin="round"/><path d="M177.716 205.365v53.528h86.818" stroke="#5A778F" stroke-width="2" stroke-miterlimit="10" stroke-linecap="round"/></g><g filter="url(#filter2_d)"><rect x="22.963" y="184.628" width="102.708" height="31.82" rx="4" fill="#fff"/></g><rect x="30.496" y="195.087" width="88.357" height="10.902" rx="5.451" fill="#E5EAEC"/><circle cx="108.744" cy="200.538" r="10.109" fill="#E5EAEC"/><path d="M113.337 203.373h0l-1.875-1.875a3.965 3.965 0 00-6.344-4.585 3.964 3.964 0 004.585 6.344l1.875 1.875h.001a.66.66 0 00.935 0h0l.823-.823h0a.661.661 0 000-.936zm-8.039-3.648a2.633 2.633 0 114.094 2.188 2.632 2.632 0 01-4.094-2.188z" fill="#5B7993" stroke="#5B7993" stroke-width=".5"/><g filter="url(#filter3_d)"><rect x="192.729" y="93.068" width="65.453" height="66.591" rx="4" fill="#fff"/></g><rect opacity=".8" x="202.23" y="104.087" width="46.451" height="7.713" rx="3.857" fill="#335878"/><rect opacity=".4" x="202.213" y="115.611" width="25.482" height="3.306" rx="1.653" fill="#335878"/><rect x="202.23" y="147.206" width="12.792" height="3.306" rx="1.653" fill="#E2E6E8"/><rect x="235.89" y="147.206" width="12.792" height="3.306" rx="1.653" fill="#E2E6E8"/><rect x="219.06" y="147.206" width="12.792" height="3.306" rx="1.653" fill="#E2E6E8"/><defs><linearGradient id="paint0_linear" x1="446.584" y1="184.591" x2="97.109" y2="43.839" gradientUnits="userSpaceOnUse"><stop stop-color="#5CDBDD" stop-opacity=".03"/><stop offset="1" stop-color="#5CDBDD" stop-opacity=".21"/></linearGradient><linearGradient id="paint1_linear" x1="273.882" y1="195.087" x2="178.169" y2="272.588" gradientUnits="userSpaceOnUse"><stop stop-color="#1F3D56"/><stop offset="1" stop-color="#335878"/></linearGradient><linearGradient id="paint2_linear" x1="217.945" y1="213.6" x2="217.945" y2="252.219" gradientUnits="userSpaceOnUse"><stop offset=".002" stop-color="#ADBCC9"/><stop offset="1" stop-color="#ADBCC9" stop-opacity=".13"/></linearGradient><linearGradient id="paint3_linear" x1="222.348" y1="210.096" x2="222.348" y2="251.702" gradientUnits="userSpaceOnUse"><stop offset=".002" stop-color="#5A778F"/><stop offset="1" stop-color="#5A778F" stop-opacity=".25"/></linearGradient><filter id="filter0_d" x="35.335" y="50.859" width="224.661" height="236.342" filterUnits="userSpaceOnUse" color-interpolation-filters="sRGB"><feFlood flood-opacity="0" result="BackgroundImageFix"/><feColorMatrix in="SourceAlpha" values="0 0 0 0 0 0 0 0 0 0 0 0 0 0 0 0 0 0 127 0"/><feOffset dy="10"/><feGaussianBlur stdDeviation="10"/><feColorMatrix values="0 0 0 0 0.122344 0 0 0 0 0.237341 0 0 0 0 0.3375 0 0 0 0.12 0"/><feBlend in2="BackgroundImageFix" result="effect1_dropShadow"/><feBlend in="SourceGraphic" in2="effect1_dropShadow" result="shape"/></filter><filter id="filter1_d" x="147.388" y="185.087" width="146.494" height="114.552" filterUnits="userSpaceOnUse" color-interpolation-filters="sRGB"><feFlood flood-opacity="0" result="BackgroundImageFix"/><feColorMatrix in="SourceAlpha" values="0 0 0 0 0 0 0 0 0 0 0 0 0 0 0 0 0 0 127 0"/><feOffset dy="10"/><feGaussianBlur stdDeviation="10"/><feColorMatrix values="0 0 0 0 0.122344 0 0 0 0 0.237341 0 0 0 0 0.3375 0 0 0 0.12 0"/><feBlend in2="BackgroundImageFix" result="effect1_dropShadow"/><feBlend in="SourceGraphic" in2="effect1_dropShadow" result="shape"/></filter><filter id="filter2_d" x="2.963" y="174.628" width="142.708" height="71.82" filterUnits="userSpaceOnUse" color-interpolation-filters="sRGB"><feFlood flood-opacity="0" result="BackgroundImageFix"/><feColorMatrix in="SourceAlpha" values="0 0 0 0 0 0 0 0 0 0 0 0 0 0 0 0 0 0 127 0"/><feOffset dy="10"/><feGaussianBlur stdDeviation="10"/><feColorMatrix values="0 0 0 0 0.122344 0 0 0 0 0.237341 0 0 0 0 0.3375 0 0 0 0.12 0"/><feBlend in2="BackgroundImageFix" result="effect1_dropShadow"/><feBlend in="SourceGraphic" in2="effect1_dropShadow" result="shape"/></filter><filter id="filter3_d" x="172.729" y="83.068" width="105.453" height="106.591" filterUnits="userSpaceOnUse" color-interpolation-filters="sRGB"><feFlood flood-opacity="0" result="BackgroundImageFix"/><feColorMatrix in="SourceAlpha" values="0 0 0 0 0 0 0 0 0 0 0 0 0 0 0 0 0 0 127 0"/><feOffset dy="10"/><feGaussianBlur stdDeviation="10"/><feColorMatrix values="0 0 0 0 0.122344 0 0 0 0 0.237341 0 0 0 0 0.3375 0 0 0 0.12 0"/><feBlend in2="BackgroundImageFix" result="effect1_dropShadow"/><feBlend in="SourceGraphic" in2="effect1_dropShadow" result="shape"/></filter></defs></svg>