<?xml version="1.0" encoding="utf-8"?>
<svg width="294" height="266" fill="none" xmlns="http://www.w3.org/2000/svg"><path opacity=".5" fill-rule="evenodd" clip-rule="evenodd" d="M47.536 120.324c-1.482-4.884-2.108-7.973-1.556-8.579 2.577-2.818 14.842-6.634 15.819-4.161.11.285 1.011 2.587 2.517 6.419.89 2.264 3.328 3.507 5.725 3.092 2.329-.404 4.125-2.29 4.342-4.644.478-5.199 1.087-8.364 1.831-8.721 3.443-1.63 16.236-.528 16.18 2.044-.01.31-.05 2.697-.112 6.669-.04 2.557 1.821 4.731 4.315 5.298 2.416.549 4.935-.539 6.1-2.725 2.402-4.505 4.146-7.124 4.966-7.167 3.809-.185 15.178 5.775 14.136 8.128l-.605 1.388c-.471 1.08-1.2 2.753-2.149 4.925-.975 2.233-.147 4.827 1.85 6.224 1.93 1.351 4.544 1.304 6.357-.201 4.012-3.332 6.677-5.157 7.462-4.872 3.605 1.287 11.847 11.135 9.999 12.899-.167.153-1.256 1.208-3.089 2.984l-1.919 1.859c-1.718 1.665-1.95 4.313-.663 6.329 1.285 2.013 3.793 2.965 6.033 2.139 3.662-1.352 5.958-2.153 6.443-2.243 4.283-.733 9.04 13.912 5.049 15.454-.334.129-1.558.645-3.537 1.478l-1.013.427c-2.581 1.087-3.943 3.936-3.445 6.693.495 2.739 2.767 4.818 5.548 4.919 3.491.127 5.659.25 6.111.35 4.24.934 3.074 16.282-1.202 16.198-.392-.003-2.034.006-4.688.027-2.924.023-5.36 2.212-5.987 5.069-.622 2.834.712 5.775 3.345 6.994 3.069 1.421 4.958 2.332 5.329 2.594 3.568 2.522-3.441 16.226-7.345 14.498-.369-.174-1.977-.834-4.576-1.893-2.592-1.056-5.548-.036-7.134 2.27-1.58 2.298-1.462 5.409.437 7.453 2.371 2.551 3.818 4.164 4.075 4.553 2.336 3.663-9.352 13.687-12.301 10.604-.266-.29-1.447-1.458-3.357-3.334-2.082-2.045-5.317-2.229-7.766-.641-2.434 1.578-3.605 4.621-2.606 7.344 1.164 3.173 1.851 5.156 1.934 5.603.733 4.282-13.913 9.04-15.455 5.049-.149-.388-.815-1.988-1.899-4.562-1.087-2.579-3.935-3.933-6.69-3.435-2.743.497-4.826 2.772-4.928 5.559-.127 3.486-.25 5.651-.35 6.101-.934 4.241-16.281 3.075-16.197-1.201a616.48 616.48 0 00-.027-4.688c-.024-2.925-2.213-5.36-5.069-5.987-2.834-.622-5.775.712-6.994 3.345-1.421 3.068-2.332 4.958-2.594 5.329-2.522 3.568-16.226-3.441-14.498-7.346.174-.369.833-1.976 1.892-4.576 1.057-2.592.037-5.547-2.27-7.133-2.298-1.58-5.409-1.462-7.452.437-2.552 2.371-4.164 3.817-4.553 4.075-3.663 2.336-13.687-9.353-10.604-12.301.279-.257 1.376-1.364 3.137-3.156 2.161-2.201 2.362-5.615.688-8.206-1.626-2.517-4.72-3.774-7.594-2.925-4.387 1.296-7.152 1.818-7.721 1.3-2.836-2.57-6.653-14.835-4.266-15.757.3-.116 2.605-1.019 6.438-2.525 2.264-.89 3.507-3.328 3.092-5.725-.404-2.329-2.29-4.125-4.644-4.342-5.2-.478-8.365-1.087-8.721-1.831-1.63-3.443-.528-16.236 2.044-16.18.31.01 2.7.05 6.676.112 2.555.04 4.728-1.809 5.292-4.301.547-2.42-.543-4.95-2.732-6.118-4.502-2.4-7.118-4.143-7.161-4.962-.185-3.809 5.775-15.178 8.128-14.136l1.388.605c1.08.471 2.753 1.2 4.925 2.149 2.233.975 4.827.147 6.224-1.85 1.35-1.93 1.304-4.544-.201-6.357-3.333-4.012-5.157-6.677-4.872-7.462 1.287-3.605 11.135-11.847 12.9-9.999.152.167 1.207 1.256 2.983 3.089l1.663 1.716c1.776 1.834 4.6 2.077 6.758.711 2.093-1.325 3.131-3.89 2.411-6.26zM81.73 231.972c26.344 0 47.7-21.356 47.7-47.7s-21.356-47.699-47.7-47.699-47.7 21.355-47.7 47.699c0 26.344 21.356 47.7 47.7 47.7z" fill="#5CDBDD"/><path d="M218.197 40.208c-.032.172.386.846 1.12 1.87 1.758 2.452 1.832 5.726.715 8.529-1.161 2.915-3.6 5.24-6.717 5.604-1.103.129-1.806.228-1.955.285-1.069.364-1.423 5.708.019 7.84.101.16 1.032.364 2.515.594 2.905.453 5.186 2.582 6.335 5.288 1.196 2.818 1.164 6.183-.744 8.578-.828 1.04-1.349 1.723-1.421 1.887-.5 1.007 3.027 5.025 5.543 5.533.178.033.947-.451 2.109-1.293 2.522-1.825 5.905-1.906 8.807-.777 2.944 1.145 5.33 3.531 5.842 6.649.256 1.56.46 2.564.58 2.74.318.477 1.936.521 3.621.426 2.487-.142 4.221-.423 4.435-2.905.205-2.369 2.098-6.047 4.311-6.916.327-.128.652-.264.975-.406 2.706-1.194 5.9-1.197 8.297.536 1.411 1.02 2.36 1.657 2.588 1.708.576.116 1.782-1.034 2.923-2.316 1.619-1.821 2.625-3.214 1.057-5.08-1.5-1.785-2.725-5.65-1.767-7.775.169-.377.329-.757.48-1.14 1.1-2.794 3.397-5.082 6.361-5.567 1.55-.254 2.549-.457 2.733-.568.496-.33.524-2.067.414-3.822-.15-2.366-.411-4.016-2.773-4.221-2.25-.196-5.743-2.012-6.525-4.13-.168-.456-.35-.908-.544-1.356-1.231-2.828-1.233-6.156.559-8.666.792-1.108 1.273-1.842 1.312-2.032.121-.602-1.143-1.895-2.494-3.08-1.727-1.513-3.023-2.477-4.778-.997-1.682 1.418-5.34 2.585-7.334 1.66a24.865 24.865 0 00-1.185-.513c-2.759-1.113-5-3.438-5.341-6.393-.128-1.11-.227-1.82-.285-1.973-.364-1.069-5.708-1.423-7.841.018-.137.087-.302.741-.486 1.809-.528 3.067-2.814 5.46-5.689 6.653-2.909 1.207-6.36 1.186-8.831-.767-.774-.611-1.274-.99-1.408-1.058-1.015-.52-5.025 3.027-5.533 5.544zm35.313 10.345c5.329 5.296 5.355 13.923.029 19.238-5.296 5.328-13.923 5.354-19.238.029-5.328-5.296-5.354-13.924-.029-19.239 5.296-5.328 13.902-5.346 19.238-.028z" fill="url(#paint0_linear)"/><path d="M152.578 21.817c-.031.172.387.846 1.121 1.87 1.758 2.453 1.831 5.726.715 8.53-1.162 2.915-3.6 5.24-6.717 5.604-1.104.128-1.807.227-1.955.285-1.069.363-1.423 5.707.018 7.84.102.16 1.033.363 2.516.594 2.904.452 5.186 2.581 6.334 5.287 1.196 2.819 1.164 6.183-.743 8.578-.828 1.04-1.349 1.723-1.422 1.887-.499 1.007 3.027 5.025 5.543 5.534.179.033.947-.452 2.11-1.293 2.522-1.826 5.904-1.906 8.806-.778 2.945 1.145 5.33 3.532 5.842 6.65.256 1.558.461 2.564.581 2.74.317.477 1.936.52 3.62.425 2.488-.141 4.222-.423 4.436-2.905.205-2.369 2.098-6.047 4.311-6.915.327-.129.652-.264.975-.407 2.706-1.194 5.9-1.197 8.297.537 1.41 1.02 2.359 1.656 2.588 1.707.575.116 1.782-1.034 2.922-2.316 1.62-1.82 2.625-3.213 1.058-5.08-1.5-1.785-2.725-5.649-1.768-7.775.17-.377.33-.756.481-1.14 1.1-2.794 3.397-5.081 6.36-5.567 1.55-.254 2.55-.457 2.734-.568.496-.33.524-2.066.413-3.821-.149-2.367-.41-4.017-2.773-4.222-2.249-.196-5.742-2.012-6.524-4.13-.169-.456-.35-.908-.545-1.356-1.23-2.828-1.232-6.155.56-8.665.792-1.109 1.272-1.842 1.311-2.032.122-.602-1.142-1.895-2.494-3.08-1.726-1.514-3.022-2.478-4.778-.997-1.681 1.417-5.339 2.584-7.334 1.659a25.277 25.277 0 00-1.184-.513c-2.759-1.113-5-3.437-5.342-6.393-.128-1.11-.226-1.82-.285-1.973-.363-1.068-5.707-1.422-7.84.019-.138.087-.302.74-.486 1.808-.528 3.067-2.815 5.46-5.689 6.653-2.91 1.207-6.36 1.186-8.832-.767-.773-.611-1.273-.99-1.407-1.057-1.016-.521-5.025 3.027-5.534 5.543zm35.314 10.345c5.328 5.296 5.354 13.924.029 19.238-5.296 5.329-13.924 5.355-19.239.03-5.328-5.297-5.354-13.924-.028-19.24 5.296-5.327 13.902-5.345 19.238-.028z" fill="url(#paint1_linear)"/><circle cx="202.995" cy="159.645" r="82.73" transform="rotate(-86.45 202.995 159.645)" stroke="#E9ECEE" stroke-width="3" stroke-linecap="round" stroke-linejoin="round" stroke-dasharray="5 10"/><g filter="url(#filter0_d)"><rect x="60.055" y="45.103" width="192.874" height="150.883" rx="4" fill="#fff"/></g><rect x="88.468" y="73.969" width="28.877" height="7.008" rx="3.504" fill="#5B7993"/><rect x="124.404" y="73.969" width="44.723" height="7.008" rx="3.504" fill="#5B7993"/><rect x="109.972" y="90.987" width="43.008" height="7.008" rx="3.504" fill="#ADBCC9"/><rect x="160.34" y="90.987" width="65.866" height="7.008" rx="3.504" fill="#ADBCC9"/><rect x="128.442" y="108.008" width="84.44" height="7.008" rx="3.504" fill="#5B7993"/><circle cx="78.111" cy="94.492" r="3.504" fill="#E9ECEE"/><circle cx="78.111" cy="77.473" r="3.504" fill="#E9ECEE"/><circle cx="78.111" cy="111.512" r="3.504" fill="#E9ECEE"/><rect x="109.972" y="125.028" width="28.864" height="7.008" rx="3.504" fill="#ADBCC9"/><rect x="145.577" y="125.028" width="25.085" height="7.008" rx="3.504" fill="#5B7993"/><rect x="88.468" y="142.049" width="43.008" height="7.008" rx="3.504" fill="#ADBCC9"/><rect x="138.33" y="142.049" width="43.008" height="7.008" rx="3.504" fill="#ADBCC9"/><rect x="88.468" y="176.091" width="43.008" height="7.008" rx="3.504" fill="#5B7993"/><rect x="138.33" y="176.091" width="43.008" height="7.008" rx="3.504" fill="#ADBCC9"/><circle cx="78.111" cy="145.553" r="3.504" fill="#E9ECEE"/><circle cx="78.111" cy="128.533" r="3.504" fill="#E9ECEE"/><circle cx="78.111" cy="162.574" r="3.504" fill="#E9ECEE"/><rect x="109.972" y="159.069" width="43.008" height="7.008" rx="3.504" fill="#ADBCC9"/><rect x="192.785" y="159.069" width="43.008" height="7.008" rx="3.504" fill="#ADBCC9"/><rect x="160.34" y="159.069" width="25.085" height="7.008" rx="3.504" fill="#5B7993"/><circle cx="78.111" cy="179.595" r="3.504" fill="#E9ECEE"/><path d="M60.055 49.103a4 4 0 014-4H248.93a4 4 0 014 4V60.75H60.055V49.103z" fill="#ADBCC9"/><rect x="236.294" y="49.611" width="6.63" height="6.63" rx="3.315" fill="#5B7993" stroke="#ADBCC9"/><rect x="242.016" y="49.611" width="6.63" height="6.63" rx="3.315" fill="#5B7993" stroke="#ADBCC9"/><path d="M269.483 225.36H254.31l7.433-17.316 7.74 17.316z" fill="#fff"/><path d="M261.749 221.468h3.141l1.488 3.713h2.772l-7.401-16.595v.012-2.823l11.839 4.222-1.806 15.654-10.033 5.557v-9.74z" fill="#94A6B6"/><path d="M263.911 219.179h-2.162v-5.201l2.162 5.201z" fill="#94A6B6"/><path d="M261.749 221.468h-3.141l-1.488 3.713h-2.772l7.401-16.595v.012-2.823l-11.839 4.222 1.805 15.654 10.034 5.557v-9.74z" fill="#ADBCC9"/><path d="M259.587 219.179h2.162v-5.201l-2.162 5.201z" fill="#ADBCC9"/><path fill="#fff" d="M272.72 131.737h19.372v12.856H272.72z"/><path d="M267.795 133.263v11.716a1 1 0 001 1h23.433a1 1 0 001-1v-23.433a1 1 0 00-1-1h-23.433a1 1 0 00-1 1v11.717zm20.495-1.013a3.164 3.164 0 011.591.916c.235.25.581.706.61.815.008.032-1.098.775-1.769 1.191-.023.016-.121-.088-.23-.25-.327-.477-.67-.682-1.195-.719-.771-.052-1.272.352-1.264 1.026 0 .198.028.314.109.477.17.351.485.561 1.474.989 1.82.783 2.599 1.3 3.083 2.035.541.819.662 2.127.295 3.1-.404 1.058-1.405 1.776-2.813 2.015-.436.076-1.47.065-1.938-.02-1.021-.182-1.99-.686-2.588-1.348-.234-.259-.69-.933-.662-.982.012-.016.118-.081.235-.149l.944-.545.732-.424.153.227c.214.327.682.775.965.924.811.428 1.925.367 2.474-.125.235-.214.331-.436.331-.763 0-.295-.035-.424-.189-.646-.198-.282-.602-.52-1.749-1.017-1.312-.565-1.877-.917-2.394-1.474a3.36 3.36 0 01-.698-1.271c-.097-.36-.121-1.26-.045-1.623.271-1.272 1.227-2.152 2.608-2.414.449-.085 1.491-.053 1.93.056v-.001zm-5.97 1.061l.008 1.041h-3.31v9.406h-2.342v-9.406h-3.31v-1.022l.028-1.049c.012-.016 2.026-.023 4.469-.02l4.444.012.013 1.038zM185.063 221.615h-23.722a1 1 0 00-1 1v23.723a1 1 0 001 1h23.722a1 1 0 001-1v-23.723a1 1 0 00-1-1z" fill="#ADBCC9"/><path d="M177.62 241.711c.518.846 1.192 1.468 2.384 1.468 1.002 0 1.642-.501 1.642-1.192 0-.829-.658-1.123-1.76-1.605l-.604-.259c-1.745-.743-2.903-1.674-2.903-3.642 0-1.813 1.381-3.193 3.54-3.193 1.536 0 2.641.535 3.437 1.935l-1.882 1.209c-.414-.743-.861-1.036-1.555-1.036-.708 0-1.157.449-1.157 1.036 0 .725.449 1.019 1.486 1.468l.604.259c2.054.88 3.214 1.778 3.214 3.797 0 2.176-1.71 3.368-4.006 3.368-2.244 0-3.695-1.07-4.404-2.472l1.964-1.141zm-8.539.21c.38.673.725 1.243 1.556 1.243.794 0 1.295-.311 1.295-1.519v-8.219h2.417v8.252c0 2.503-1.467 3.642-3.609 3.642-1.935 0-3.056-1.002-3.626-2.208l1.967-1.191z" fill="#fff"/><g filter="url(#filter1_d)"><rect x="39.167" y="152.802" width="106.41" height="72.558" rx="4" fill="url(#paint2_linear)"/></g><rect x="49.956" y="175.697" width="43.008" height="3.004" rx="1.502" fill="#5B7993"/><rect x="49.956" y="164.217" width="7.861" height="3.004" rx="1.502" fill="#ADBCC9"/><rect x="60.93" y="164.217" width="17.425" height="3.004" rx="1.502" fill="#ADBCC9"/><rect x="49.956" y="182.697" width="24.773" height="3.004" rx="1.502" fill="#5B7993"/><rect x="78.682" y="182.697" width="37.055" height="3.004" rx="1.502" fill="#5B7993"/><rect x="49.956" y="189.696" width="37.055" height="3.004" rx="1.502" fill="#5B7993"/><rect x="89.064" y="189.696" width="37.055" height="3.004" rx="1.502" fill="#5B7993"/><rect x="49.956" y="196.696" width="13.579" height="3.004" rx="1.502" fill="#5B7993"/><rect x="49.956" y="203.223" width="5.784" height="3.004" rx="1.502" fill="#5B7993"/><rect x="49.956" y="209.748" width="21.176" height="3.004" rx="1.502" fill="#5B7993"/><rect x="74.729" y="209.748" width="7.253" height="3.004" rx="1.502" fill="#5B7993"/><rect x="96.163" y="175.697" width="8.303" height="3.004" rx="1.502" fill="#5B7993"/><rect x="107.591" y="175.697" width="5.023" height="3.004" rx="1.502" fill="#5B7993"/><rect x="115.737" y="175.697" width="18.574" height="3.004" rx="1.502" fill="#5B7993"/><defs><linearGradient id="paint0_linear" x1="292.378" y1="141.623" x2="267.68" y2="31.854" gradientUnits="userSpaceOnUse"><stop stop-color="#5CDBDD" stop-opacity=".03"/><stop offset="1" stop-color="#5CDBDD" stop-opacity=".21"/></linearGradient><linearGradient id="paint1_linear" x1="226.759" y1="123.232" x2="202.061" y2="13.463" gradientUnits="userSpaceOnUse"><stop stop-color="#5CDBDD" stop-opacity=".03"/><stop offset="1" stop-color="#5CDBDD" stop-opacity=".21"/></linearGradient><linearGradient id="paint2_linear" x1="145.578" y1="152.802" x2="51.944" y2="230.641" gradientUnits="userSpaceOnUse"><stop stop-color="#1F3D56"/><stop offset="1" stop-color="#335878"/></linearGradient><filter id="filter0_d" x="40.055" y="35.103" width="232.874" height="190.883" filterUnits="userSpaceOnUse" color-interpolation-filters="sRGB"><feFlood flood-opacity="0" result="BackgroundImageFix"/><feColorMatrix in="SourceAlpha" values="0 0 0 0 0 0 0 0 0 0 0 0 0 0 0 0 0 0 127 0"/><feOffset dy="10"/><feGaussianBlur stdDeviation="10"/><feColorMatrix values="0 0 0 0 0.122344 0 0 0 0 0.237341 0 0 0 0 0.3375 0 0 0 0.12 0"/><feBlend in2="BackgroundImageFix" result="effect1_dropShadow"/><feBlend in="SourceGraphic" in2="effect1_dropShadow" result="shape"/></filter><filter id="filter1_d" x="19.167" y="142.802" width="146.41" height="112.558" filterUnits="userSpaceOnUse" color-interpolation-filters="sRGB"><feFlood flood-opacity="0" result="BackgroundImageFix"/><feColorMatrix in="SourceAlpha" values="0 0 0 0 0 0 0 0 0 0 0 0 0 0 0 0 0 0 127 0"/><feOffset dy="10"/><feGaussianBlur stdDeviation="10"/><feColorMatrix values="0 0 0 0 0.122344 0 0 0 0 0.237341 0 0 0 0 0.3375 0 0 0 0.26 0"/><feBlend in2="BackgroundImageFix" result="effect1_dropShadow"/><feBlend in="SourceGraphic" in2="effect1_dropShadow" result="shape"/></filter></defs></svg>