<?xml version="1.0" encoding="utf-8"?>
<svg width="314" height="316" fill="none" xmlns="http://www.w3.org/2000/svg"><rect x="55.276" y="34.06" width="189.325" height="206.991" rx="10" stroke="#E9ECEE" stroke-width="3" stroke-linecap="round" stroke-linejoin="round" stroke-dasharray="5 10"/><path d="M183.784 189.314l20.063-47.133-50.03-9.401 8.619 16.271-141.049 74.278 12.466 23.411 140.993-74.278 8.938 16.852z" fill="url(#paint0_linear)"/><path d="M260.446 200.843c.788 1.487 2.948 1.396 3.607-.153l14.482-34.004a2 2 0 00-1.47-2.749l-36.105-6.79c-1.647-.31-2.922 1.422-2.137 2.902l4.465 8.422a1.999 1.999 0 01-.835 2.706l-116.629 61.418a2 2 0 00-.834 2.71l8.747 16.417a2 2 0 002.697.829l116.602-61.43a1.999 1.999 0 012.699.833l4.711 8.889z" fill="url(#paint1_linear)"/><path d="M256.946 42.008c1.574 2.98 5.903 2.797 7.219-.307l11.987-28.274a4 4 0 00-2.941-5.492l-29.893-5.643c-3.291-.622-5.843 2.835-4.28 5.797l1.659 3.144a4 4 0 01-1.668 5.403l-113.925 60.24a4 4 0 00-1.664 5.41l6.946 13.097a4 4 0 005.404 1.662l113.882-60.24a4 4 0 015.407 1.668l1.867 3.535z" fill="url(#paint2_linear)"/><path d="M178.558 32.407c.787 1.493 2.954 1.4 3.612-.153l9.643-22.798a2 2 0 00-1.47-2.744l-24.047-4.55c-1.645-.311-2.922 1.416-2.141 2.898l2.405 4.564a2 2 0 01-.833 2.7L83.119 56.108a2 2 0 00-.83 2.703l5.745 10.85a2 2 0 002.704.83l82.557-43.772a2 2 0 012.706.835l2.557 4.852z" fill="url(#paint3_linear)"/><path opacity=".5" d="M284.508 161.127c1.575 2.976 5.899 2.793 7.217-.306l20.33-47.816a4 4 0 00-2.94-5.496l-50.686-9.55c-3.292-.62-5.843 2.84-4.276 5.802l5.228 9.882a4 4 0 01-1.67 5.408L85.149 210.073a4 4 0 00-1.666 5.416l12.125 22.797a4 4 0 005.398 1.66l172.52-91.031a4 4 0 015.402 1.667l5.58 10.545z" fill="#5CDBDD"/><g filter="url(#filter0_d)"><rect x="48.013" y="47.339" width="183.252" height="221.028" rx="4" fill="#fff"/></g><path d="M85.45 205.234a24.407 24.407 0 007.484 1.279c7.93.103 15.012-3.602 19.528-9.415a24.172 24.172 0 005.085-14.566c.01-.542 0-1.092-.028-1.624a24.412 24.412 0 00-1.418-6.989c-3.35-9.229-12.139-15.863-22.533-16.003a24.127 24.127 0 00-14.928 4.889c-5.795 4.377-9.583 11.282-9.686 19.101-.149 10.797 6.784 20.044 16.497 23.328zm-10.43-23.262a18.177 18.177 0 017.165-14.249 18.128 18.128 0 0111.29-3.733c7.791.103 14.378 5.077 16.897 12v.01a18.273 18.273 0 011.092 6.448 18.17 18.17 0 01-3.816 10.917 18.197 18.197 0 01-14.64 7.064 17.915 17.915 0 01-5.607-.961c-7.278-2.454-12.484-9.387-12.382-17.496z" fill="#5B7993"/><path d="M107.648 193.365l4.805 3.723c-4.507 5.813-11.598 9.518-19.529 9.415a24.168 24.168 0 01-7.483-1.278l1.95-5.758c1.764.598 3.649.933 5.608.952a18.142 18.142 0 0014.649-7.054z" fill="#E9ECEE"/><path d="M111.436 181.225l6.074-.327c.028.542.037 1.083.028 1.633a24.21 24.21 0 01-5.085 14.567l-4.805-3.724a18.17 18.17 0 003.816-10.917c0-.42-.009-.831-.028-1.232z" fill="#ADBCC9"/><path d="M111.436 181.225a18.252 18.252 0 00-1.063-5.226v-.009l5.719-2.081a24.078 24.078 0 011.418 6.989l-6.074.327z" fill="#ADBCC9"/><path d="M78.62 162.796a24.14 24.14 0 0114.929-4.89c10.394.131 19.183 6.774 22.533 16.003l-5.711 2.09v-.009c-2.509-6.915-9.097-11.897-16.897-12a18.172 18.172 0 00-11.29 3.732l-3.564-4.926z" fill="#ADBCC9"/><path opacity=".1" d="M164.638 143.433H74.133c-4.525 0-8.201-3.676-8.201-8.202v-62.23c0-4.526 3.676-8.202 8.201-8.202h90.505c4.525 0 8.201 3.676 8.201 8.202v62.23c.01 4.526-3.676 8.202-8.201 8.202z" fill="#1F3D56"/><path d="M207.978 143.744h-10.124a3.638 3.638 0 01-3.639-3.639v-10.124a3.638 3.638 0 013.639-3.64h10.124a3.638 3.638 0 013.639 3.64v10.124a3.632 3.632 0 01-3.639 3.639z" fill="#5B7993"/><path d="M207.978 111.613h-10.124a2.638 2.638 0 01-2.639-2.639V98.85a2.638 2.638 0 012.639-2.64h10.124a2.638 2.638 0 012.639 2.64v10.124a2.632 2.632 0 01-2.639 2.639zM207.978 81.038h-10.124a2.638 2.638 0 01-2.639-2.64V68.275a2.638 2.638 0 012.639-2.639h10.124a2.638 2.638 0 012.639 2.64v10.124a2.632 2.632 0 01-2.639 2.639z" stroke="#ADBCC9" stroke-width="2"/><path d="M202.37 138.882l-4.395-3.835a.86.86 0 01-.084-1.222.86.86 0 011.223-.084l3.107 2.715 4.431-4.946a.87.87 0 011.223-.065.869.869 0 01.065 1.222l-5.57 6.215z" fill="#fff"/><g filter="url(#filter1_d)"><rect x="20" y="22.828" width="106.216" height="78.203" rx="4" fill="url(#paint4_linear)"/></g><rect opacity=".4" x="127.383" y="158.224" width="84.039" height="8.17" rx="4.085" fill="#335878"/><rect opacity=".1" x="127.383" y="178.067" width="84.039" height="8.17" rx="4.085" fill="#1F3D56"/><rect opacity=".1" x="127.383" y="197.91" width="84.039" height="8.17" rx="4.085" fill="#1F3D56"/><rect opacity=".1" x="68.952" y="217.305" width="142.471" height="8.17" rx="4.085" fill="#1F3D56"/><rect opacity=".1" x="68.952" y="235.424" width="142.471" height="8.17" rx="4.085" fill="#1F3D56"/><rect opacity=".8" x="30.282" y="34.06" width="32.799" height="4.447" rx="2.224" fill="#B7C4D0"/><rect opacity=".8" x="30.282" y="42.892" width="17.731" height="4.447" rx="2.224" fill="#5E798F"/><path d="M96.367 57.71c1.26.429 2.603.662 4.003.68 4.236.057 8.033-1.93 10.45-5.038a12.883 12.883 0 002.715-7.792c0-.289 0-.578-.019-.867a12.999 12.999 0 00-.755-3.733c-1.792-4.936-6.494-8.491-12.055-8.557a12.975 12.975 0 00-7.987 2.613 13.002 13.002 0 00-5.178 10.218c-.075 5.776 3.639 10.721 8.826 12.476zm-5.57-12.439a9.723 9.723 0 013.835-7.623 9.705 9.705 0 016.037-1.997c4.169.056 7.685 2.713 9.039 6.415a.029.029 0 01.002.01l.001.008a9.87 9.87 0 01.568 2.795c.009.215.018.43.009.653a9.665 9.665 0 01-2.043 5.842 9.746 9.746 0 01-10.833 3.266c-3.89-1.325-6.671-5.04-6.615-9.369z" fill="#9BACBC"/><path opacity=".1" d="M107.146 52.562c.661-.61 1.676-.751 2.386-.2.712.551.847 1.584.211 2.221a12.968 12.968 0 01-9.372 3.817 13.093 13.093 0 01-2.427-.26c-.882-.179-1.34-1.114-1.051-1.967.287-.847 1.207-1.288 2.09-1.147.468.075.946.118 1.435.127a9.754 9.754 0 006.728-2.59z" fill="#C9D3DB"/><path opacity=".481" d="M33.007 89.22c-.952 0-1.365-1.206-.614-1.79l14.66-11.405a1 1 0 011.09-.09l14.04 7.62a1 1 0 001.08-.082L83.407 68.21a1 1 0 011.096-.073l14.058 7.946a1 1 0 001.055-.044l13.944-9.486a1 1 0 011.562.826v20.84a1 1 0 01-1 1H33.007z" fill="url(#paint5_linear)"/><g filter="url(#filter2_d)"><rect x="138.247" y="212.006" width="81.183" height="73.242" rx="4" fill="#fff"/></g><rect opacity=".8" x="150.032" y="224.125" width="57.614" height="8.483" rx="4.242" fill="#335878"/><rect opacity=".4" x="150.011" y="238.951" width="31.605" height="8.483" rx="4.242" fill="#335878"/><rect x="150.032" y="271.551" width="15.866" height="3.636" rx="1.818" fill="#E2E6E8"/><rect x="191.78" y="271.551" width="15.866" height="3.636" rx="1.818" fill="#E2E6E8"/><rect x="170.905" y="271.551" width="15.866" height="3.636" rx="1.818" fill="#E2E6E8"/><defs><linearGradient id="paint0_linear" x1="375.768" y1="162.113" x2="70.27" y2="89.437" gradientUnits="userSpaceOnUse"><stop offset=".589" stop-color="#5CDBDD" stop-opacity=".21"/><stop offset="1" stop-color="#5CDBDD" stop-opacity="0"/></linearGradient><linearGradient id="paint1_linear" x1="425.995" y1="181.372" x2="165.697" y2="119.449" gradientUnits="userSpaceOnUse"><stop offset=".589" stop-color="#5CDBDD" stop-opacity=".21"/><stop offset="1" stop-color="#5CDBDD" stop-opacity="0"/></linearGradient><linearGradient id="paint2_linear" x1="425.574" y1="26.019" x2="163.385" y2="-36.101" gradientUnits="userSpaceOnUse"><stop stop-color="#5CDBDD" stop-opacity=".03"/><stop offset="1" stop-color="#5CDBDD" stop-opacity=".21"/></linearGradient><linearGradient id="paint3_linear" x1="297.768" y1="19.419" x2="111.079" y2="-24.711" gradientUnits="userSpaceOnUse"><stop offset=".589" stop-color="#5CDBDD" stop-opacity=".21"/><stop offset="1" stop-color="#5CDBDD" stop-opacity="0"/></linearGradient><linearGradient id="paint4_linear" x1="126.216" y1="22.828" x2="26.983" y2="99.228" gradientUnits="userSpaceOnUse"><stop stop-color="#1F3D56"/><stop offset="1" stop-color="#335878"/></linearGradient><linearGradient id="paint5_linear" x1="72.626" y1="65.208" x2="72.626" y2="85.681" gradientUnits="userSpaceOnUse"><stop offset=".002" stop-color="#ADBCC9"/><stop offset="1" stop-color="#ADBCC9" stop-opacity=".13"/></linearGradient><filter id="filter0_d" x="28.013" y="37.339" width="223.252" height="261.028" filterUnits="userSpaceOnUse" color-interpolation-filters="sRGB"><feFlood flood-opacity="0" result="BackgroundImageFix"/><feColorMatrix in="SourceAlpha" values="0 0 0 0 0 0 0 0 0 0 0 0 0 0 0 0 0 0 127 0"/><feOffset dy="10"/><feGaussianBlur stdDeviation="10"/><feColorMatrix values="0 0 0 0 0.122344 0 0 0 0 0.237341 0 0 0 0 0.3375 0 0 0 0.12 0"/><feBlend in2="BackgroundImageFix" result="effect1_dropShadow"/><feBlend in="SourceGraphic" in2="effect1_dropShadow" result="shape"/></filter><filter id="filter1_d" x="0" y="12.828" width="146.216" height="118.203" filterUnits="userSpaceOnUse" color-interpolation-filters="sRGB"><feFlood flood-opacity="0" result="BackgroundImageFix"/><feColorMatrix in="SourceAlpha" values="0 0 0 0 0 0 0 0 0 0 0 0 0 0 0 0 0 0 127 0"/><feOffset dy="10"/><feGaussianBlur stdDeviation="10"/><feColorMatrix values="0 0 0 0 0.122344 0 0 0 0 0.237341 0 0 0 0 0.3375 0 0 0 0.12 0"/><feBlend in2="BackgroundImageFix" result="effect1_dropShadow"/><feBlend in="SourceGraphic" in2="effect1_dropShadow" result="shape"/></filter><filter id="filter2_d" x="118.247" y="202.006" width="121.183" height="113.241" filterUnits="userSpaceOnUse" color-interpolation-filters="sRGB"><feFlood flood-opacity="0" result="BackgroundImageFix"/><feColorMatrix in="SourceAlpha" values="0 0 0 0 0 0 0 0 0 0 0 0 0 0 0 0 0 0 127 0"/><feOffset dy="10"/><feGaussianBlur stdDeviation="10"/><feColorMatrix values="0 0 0 0 0.122344 0 0 0 0 0.237341 0 0 0 0 0.3375 0 0 0 0.12 0"/><feBlend in2="BackgroundImageFix" result="effect1_dropShadow"/><feBlend in="SourceGraphic" in2="effect1_dropShadow" result="shape"/></filter></defs></svg>