<svg fill="none" height="316" width="314" xmlns="http://www.w3.org/2000/svg" xmlns:xlink="http://www.w3.org/1999/xlink"><linearGradient id="a"><stop offset=".589" stop-color="#5cdbdd" stop-opacity=".21"/><stop offset="1" stop-color="#5cdbdd" stop-opacity="0"/></linearGradient><linearGradient id="b" gradientUnits="userSpaceOnUse" x1="375.768" x2="70.27" xlink:href="#a" y1="162.113" y2="89.437"/><linearGradient id="c" gradientUnits="userSpaceOnUse" x1="425.995" x2="165.697" xlink:href="#a" y1="181.372" y2="119.449"/><linearGradient id="d" gradientUnits="userSpaceOnUse" x1="425.574" x2="163.385" y1="26.019" y2="-36.101"><stop offset="0" stop-color="#5cdbdd" stop-opacity=".03"/><stop offset="1" stop-color="#5cdbdd" stop-opacity=".21"/></linearGradient><linearGradient id="e" gradientUnits="userSpaceOnUse" x1="297.768" x2="111.079" xlink:href="#a" y1="19.419" y2="-24.711"/><linearGradient id="f" gradientUnits="userSpaceOnUse" x1="126.216" x2="26.983" y1="22.828" y2="99.228"><stop offset="0" stop-color="#1f3d56"/><stop offset="1" stop-color="#335878"/></linearGradient><linearGradient id="g" gradientUnits="userSpaceOnUse" x1="72.626" x2="72.626" y1="65.208" y2="85.681"><stop offset=".002" stop-color="#adbcc9"/><stop offset="1" stop-color="#adbcc9" stop-opacity=".13"/></linearGradient><filter id="h" color-interpolation-filters="sRGB" filterUnits="userSpaceOnUse" height="261.028" width="223.252" x="28.013" y="37.339"><feFlood flood-opacity="0" result="BackgroundImageFix"/><feColorMatrix in="SourceAlpha" values="0 0 0 0 0 0 0 0 0 0 0 0 0 0 0 0 0 0 127 0"/><feOffset dy="10"/><feGaussianBlur stdDeviation="10"/><feColorMatrix values="0 0 0 0 0.122344 0 0 0 0 0.237341 0 0 0 0 0.3375 0 0 0 0.12 0"/><feBlend in2="BackgroundImageFix" result="effect1_dropShadow"/><feBlend in="SourceGraphic" in2="effect1_dropShadow" result="shape"/></filter><filter id="i" color-interpolation-filters="sRGB" filterUnits="userSpaceOnUse" height="118.203" width="146.216" x="0" y="12.828"><feFlood flood-opacity="0" result="BackgroundImageFix"/><feColorMatrix in="SourceAlpha" values="0 0 0 0 0 0 0 0 0 0 0 0 0 0 0 0 0 0 127 0"/><feOffset dy="10"/><feGaussianBlur stdDeviation="10"/><feColorMatrix values="0 0 0 0 0.122344 0 0 0 0 0.237341 0 0 0 0 0.3375 0 0 0 0.12 0"/><feBlend in2="BackgroundImageFix" result="effect1_dropShadow"/><feBlend in="SourceGraphic" in2="effect1_dropShadow" result="shape"/></filter><filter id="j" color-interpolation-filters="sRGB" filterUnits="userSpaceOnUse" height="113.241" width="121.183" x="118.247" y="202.006"><feFlood flood-opacity="0" result="BackgroundImageFix"/><feColorMatrix in="SourceAlpha" values="0 0 0 0 0 0 0 0 0 0 0 0 0 0 0 0 0 0 127 0"/><feOffset dy="10"/><feGaussianBlur stdDeviation="10"/><feColorMatrix values="0 0 0 0 0.122344 0 0 0 0 0.237341 0 0 0 0 0.3375 0 0 0 0.12 0"/><feBlend in2="BackgroundImageFix" result="effect1_dropShadow"/><feBlend in="SourceGraphic" in2="effect1_dropShadow" result="shape"/></filter><rect height="206.991" rx="10" stroke="#e9ecee" stroke-dasharray="5 10" stroke-linecap="round" stroke-linejoin="round" stroke-width="3" width="189.325" x="55.276" y="34.06"/><path d="m183.784 189.314 20.063-47.133-50.03-9.401 8.619 16.271-141.049 74.278 12.466 23.411 140.993-74.278z" fill="url(#b)"/><path d="m260.446 200.843c.788 1.487 2.948 1.396 3.607-.153l14.482-34.004a2 2 0 0 0 -1.47-2.749l-36.105-6.79c-1.647-.31-2.922 1.422-2.137 2.902l4.465 8.422a1.999 1.999 0 0 1 -.835 2.706l-116.629 61.418a2 2 0 0 0 -.834 2.71l8.747 16.417a2 2 0 0 0 2.697.829l116.602-61.43a1.999 1.999 0 0 1 2.699.833z" fill="url(#c)"/><path d="m256.946 42.008c1.574 2.98 5.903 2.797 7.219-.307l11.987-28.274a4 4 0 0 0 -2.941-5.492l-29.893-5.643c-3.291-.622-5.843 2.835-4.28 5.797l1.659 3.144a4 4 0 0 1 -1.668 5.403l-113.925 60.24a4 4 0 0 0 -1.664 5.41l6.946 13.097a4 4 0 0 0 5.404 1.662l113.882-60.24a4 4 0 0 1 5.407 1.668z" fill="url(#d)"/><path d="m178.558 32.407c.787 1.493 2.954 1.4 3.612-.153l9.643-22.798a2 2 0 0 0 -1.47-2.744l-24.047-4.55c-1.645-.311-2.922 1.416-2.141 2.898l2.405 4.564a2 2 0 0 1 -.833 2.7l-82.608 43.784a2 2 0 0 0 -.83 2.703l5.745 10.85a2 2 0 0 0 2.704.83l82.557-43.772a2 2 0 0 1 2.706.835l2.557 4.852z" fill="url(#e)"/><path d="m284.508 161.127c1.575 2.976 5.899 2.793 7.217-.306l20.33-47.816a4 4 0 0 0 -2.94-5.496l-50.686-9.55c-3.292-.62-5.843 2.84-4.276 5.802l5.228 9.882a4 4 0 0 1 -1.67 5.408l-172.562 91.022a4 4 0 0 0 -1.666 5.416l12.125 22.797a4 4 0 0 0 5.398 1.66l172.52-91.031a4 4 0 0 1 5.402 1.667z" fill="#5cdbdd" opacity=".5"/><g filter="url(#h)"><rect fill="#fff" height="221.028" rx="4" width="183.252" x="48.013" y="47.339"/></g><path d="m85.45 205.234a24.407 24.407 0 0 0 7.484 1.279c7.93.103 15.012-3.602 19.528-9.415a24.172 24.172 0 0 0 5.085-14.566c.01-.542 0-1.092-.028-1.624a24.412 24.412 0 0 0 -1.418-6.989c-3.35-9.229-12.139-15.863-22.533-16.003a24.127 24.127 0 0 0 -14.928 4.889c-5.795 4.377-9.583 11.282-9.686 19.101-.149 10.797 6.784 20.044 16.497 23.328zm-10.43-23.262a18.177 18.177 0 0 1 7.165-14.249 18.128 18.128 0 0 1 11.29-3.733c7.791.103 14.378 5.077 16.897 12v.01a18.273 18.273 0 0 1 1.092 6.448 18.17 18.17 0 0 1 -3.816 10.917 18.197 18.197 0 0 1 -14.64 7.064 17.915 17.915 0 0 1 -5.607-.961c-7.278-2.454-12.484-9.387-12.382-17.496z" fill="#5b7993"/><path d="m107.648 193.365 4.805 3.723c-4.507 5.813-11.598 9.518-19.529 9.415a24.168 24.168 0 0 1 -7.483-1.278l1.95-5.758c1.764.598 3.649.933 5.608.952a18.142 18.142 0 0 0 14.649-7.054z" fill="#e9ecee"/><path d="m111.436 181.225 6.074-.327c.028.542.037 1.083.028 1.633a24.21 24.21 0 0 1 -5.085 14.567l-4.805-3.724a18.17 18.17 0 0 0 3.816-10.917c0-.42-.009-.831-.028-1.232z" fill="#adbcc9"/><path d="m111.436 181.225a18.252 18.252 0 0 0 -1.063-5.226v-.009l5.719-2.081a24.078 24.078 0 0 1 1.418 6.989z" fill="#adbcc9"/><path d="m78.62 162.796a24.14 24.14 0 0 1 14.929-4.89c10.394.131 19.183 6.774 22.533 16.003l-5.711 2.09v-.009c-2.509-6.915-9.097-11.897-16.897-12a18.172 18.172 0 0 0 -11.29 3.732z" fill="#adbcc9"/><path d="m164.638 143.433h-90.505c-4.525 0-8.201-3.676-8.201-8.202v-62.23c0-4.526 3.676-8.202 8.201-8.202h90.505c4.525 0 8.201 3.676 8.201 8.202v62.23c.01 4.526-3.676 8.202-8.201 8.202z" fill="#1f3d56" opacity=".1"/><path d="m207.978 143.744h-10.124a3.638 3.638 0 0 1 -3.639-3.639v-10.124a3.638 3.638 0 0 1 3.639-3.64h10.124a3.638 3.638 0 0 1 3.639 3.64v10.124a3.632 3.632 0 0 1 -3.639 3.639z" fill="#5b7993"/><path d="m207.978 111.613h-10.124a2.638 2.638 0 0 1 -2.639-2.639v-10.124a2.638 2.638 0 0 1 2.639-2.64h10.124a2.638 2.638 0 0 1 2.639 2.64v10.124a2.632 2.632 0 0 1 -2.639 2.639zm0-30.575h-10.124a2.638 2.638 0 0 1 -2.639-2.64v-10.123a2.638 2.638 0 0 1 2.639-2.639h10.124a2.638 2.638 0 0 1 2.639 2.64v10.124a2.632 2.632 0 0 1 -2.639 2.639z" stroke="#adbcc9" stroke-width="2"/><path d="m202.37 138.882-4.395-3.835a.86.86 0 0 1 -.084-1.222.86.86 0 0 1 1.223-.084l3.107 2.715 4.431-4.946a.87.87 0 0 1 1.223-.065.869.869 0 0 1 .065 1.222z" fill="#fff"/><g filter="url(#i)"><rect fill="url(#f)" height="78.203" rx="4" width="106.216" x="20" y="22.828"/></g><rect fill="#335878" height="8.17" opacity=".4" rx="4.085" width="84.039" x="127.383" y="158.224"/><g fill="#1f3d56"><rect height="8.17" opacity=".1" rx="4.085" width="84.039" x="127.383" y="178.067"/><rect height="8.17" opacity=".1" rx="4.085" width="84.039" x="127.383" y="197.91"/><rect height="8.17" opacity=".1" rx="4.085" width="142.471" x="68.952" y="217.305"/><rect height="8.17" opacity=".1" rx="4.085" width="142.471" x="68.952" y="235.424"/></g><rect fill="#b7c4d0" height="4.447" opacity=".8" rx="2.224" width="32.799" x="30.282" y="34.06"/><rect fill="#5e798f" height="4.447" opacity=".8" rx="2.224" width="17.731" x="30.282" y="42.892"/><path d="m96.367 57.71c1.26.429 2.603.662 4.003.68 4.236.057 8.033-1.93 10.45-5.038a12.883 12.883 0 0 0 2.715-7.792c0-.289 0-.578-.019-.867a12.999 12.999 0 0 0 -.755-3.733c-1.792-4.936-6.494-8.491-12.055-8.557a12.975 12.975 0 0 0 -7.987 2.613 13.002 13.002 0 0 0 -5.178 10.218c-.075 5.776 3.639 10.721 8.826 12.476zm-5.57-12.439a9.723 9.723 0 0 1 3.835-7.623 9.705 9.705 0 0 1 6.037-1.997c4.169.056 7.685 2.713 9.039 6.415a.029.029 0 0 1 .002.01l.001.008a9.87 9.87 0 0 1 .568 2.795c.009.215.018.43.009.653a9.665 9.665 0 0 1 -2.043 5.842 9.746 9.746 0 0 1 -10.833 3.266c-3.89-1.325-6.671-5.04-6.615-9.369z" fill="#9bacbc"/><path d="m107.146 52.562c.661-.61 1.676-.751 2.386-.2.712.551.847 1.584.211 2.221a12.968 12.968 0 0 1 -9.372 3.817 13.093 13.093 0 0 1 -2.427-.26c-.882-.179-1.34-1.114-1.051-1.967.287-.847 1.207-1.288 2.09-1.147.468.075.946.118 1.435.127a9.754 9.754 0 0 0 6.728-2.59z" fill="#c9d3db" opacity=".1"/><path d="m33.007 89.22c-.952 0-1.365-1.206-.614-1.79l14.66-11.405a1 1 0 0 1 1.09-.09l14.04 7.62a1 1 0 0 0 1.08-.082l20.144-15.263a1 1 0 0 1 1.096-.073l14.058 7.946a1 1 0 0 0 1.055-.044l13.944-9.486a1 1 0 0 1 1.562.826v20.84a1 1 0 0 1 -1 1h-81.115z" fill="url(#g)" opacity=".481"/><g filter="url(#j)"><rect fill="#fff" height="73.242" rx="4" width="81.183" x="138.247" y="212.006"/></g><rect fill="#335878" height="8.483" opacity=".8" rx="4.242" width="57.614" x="150.032" y="224.125"/><rect fill="#335878" height="8.483" opacity=".4" rx="4.242" width="31.605" x="150.011" y="238.951"/><rect fill="#e2e6e8" height="3.636" rx="1.818" width="15.866" x="150.032" y="271.551"/><rect fill="#e2e6e8" height="3.636" rx="1.818" width="15.866" x="191.78" y="271.551"/><rect fill="#e2e6e8" height="3.636" rx="1.818" width="15.866" x="170.905" y="271.551"/></svg>