<?xml version="1.0" encoding="utf-8"?>
<svg width="331" height="281" fill="none" xmlns="http://www.w3.org/2000/svg"><circle cx="219.217" cy="151.658" r="75.612" transform="rotate(-86.45 219.217 151.658)" stroke="#E9ECEE" stroke-width="3" stroke-linecap="round" stroke-linejoin="round" stroke-dasharray="5 10"/><circle cx="157.072" cy="112.478" r="111.317" fill="url(#paint0_linear)"/><g filter="url(#filter0_d)"><path d="M251.961 191.933a3.998 3.998 0 014 0l22.011 12.708a4 4 0 012 3.464v25.416a4 4 0 01-2 3.464l-22.011 12.708a3.998 3.998 0 01-4 0l-22.011-12.708a4 4 0 01-2-3.464v-25.416a4 4 0 012-3.464l22.011-12.708z" fill="url(#paint1_linear)"/></g><path fill-rule="evenodd" clip-rule="evenodd" d="M241.026 212.657a1 1 0 000 1.414l19.099 19.099a1 1 0 001.414 0l5.09-5.09a1 1 0 000-1.414l-19.099-19.099a1 1 0 00-1.414 0l-5.09 5.09zm19.691 19.136l4.537-4.537-1.782-1.781-.89.891c-.65.649-1.624-.325-.975-.975l.891-.89-1.781-1.781-2.269 2.268c-.649.649-1.623-.325-.974-.974l2.269-2.269-1.093-1.092-5.107-5.108-1.093-1.092-.89.891c-.65.649-1.624-.325-.975-.975l.891-.89-1.781-1.782-2.269 2.269c-.649.649-1.623-.325-.974-.974l2.268-2.269-1.781-1.781-4.537 4.537 18.315 18.314z" fill="#ADBCC9"/><path d="M248.804 230.5l4.335-4.335.975-.974 4.537-4.537.974-.974 6.687-6.687a2.066 2.066 0 00-.001-2.923l-2.184-2.185a2.065 2.065 0 00-2.923 0l-6.687 6.687-.974.974-4.537 4.537-.974.974-4.335 4.335-.153.232-2.755 6.888a.689.689 0 00.895.896l6.889-2.756.231-.152z" fill="#E9EDF1"/><path d="M262.224 215.132l-14.182 14.181-3.159-3.159 14.181-14.181 3.16 3.159zM244.161 227.38l2.656 2.656-4.427 1.77 1.771-4.426zM263.198 214.158l-3.159-3.159 1.864-1.865c.27-.27.705-.27.974-.001l2.186 2.186a.689.689 0 010 .974l-1.865 1.865z" fill="#244663"/><g filter="url(#filter1_d)"><path d="M281.995 140.703a3.998 3.998 0 014 0l22.011 12.707a4 4 0 012 3.465v25.415c0 1.429-.762 2.75-2 3.464l-22.011 12.708a3.998 3.998 0 01-4 0l-22.01-12.708a3.998 3.998 0 01-2-3.464v-25.415a4 4 0 012-3.465l22.01-12.707z" fill="url(#paint2_linear)"/></g><path d="M290.768 164.517c-.394-.38-1.018-.38-1.38 0-.394.38-.394.982 0 1.33l3.549 3.419-3.549 3.419c-.394.38-.394.981 0 1.33.198.19.46.285.69.285.23 0 .493-.095.69-.285l4.239-4.084c.394-.38.394-.982 0-1.33l-4.239-4.084z" fill="#ADBCC9"/><path d="M287.609 158.122c-.526-.158-1.084.158-1.216.665l-6.045 20.452c-.165.506.164 1.045.69 1.171.098.032.164.032.263.032.427 0 .821-.285.952-.697l6.013-20.452a.91.91 0 00-.657-1.171z" fill="#D0D8DF"/><path d="M278.601 164.517c-.394-.38-1.018-.38-1.38 0l-4.238 4.084c-.395.38-.395.982 0 1.33l4.238 4.084c.197.19.46.285.69.285.23 0 .493-.095.69-.285.395-.38.395-.982 0-1.33l-3.548-3.419 3.548-3.419c.395-.348.395-.95 0-1.33z" fill="#ADBCC9"/><g filter="url(#filter2_d)"><rect x="158.068" y="10.909" width="142.691" height="97.388" rx="4" fill="#fff"/></g><rect x="168.622" y="23.139" width="27.054" height="3.896" rx="1.948" fill="#ADBCC9"/><rect x="205.019" y="23.139" width="31.402" height="6.493" rx="3.246" fill="#5B7993"/><rect x="203.517" y="54.252" width="31.402" height="6.493" rx="3.246" fill="#5B7993"/><rect x="225.437" y="64.227" width="21.366" height="6.493" rx="3.246" fill="#5B7993"/><rect x="237.643" y="74.201" width="50.079" height="6.493" rx="3.246" fill="#5B7993"/><rect x="226.777" y="33.319" width="48.416" height="6.493" rx="3.246" fill="#5B7993"/><rect x="264.412" y="43.501" width="23.31" height="6.493" rx="3.246" fill="#5B7993"/><rect x="168.622" y="31.165" width="27.054" height="3.896" rx="1.948" fill="#ADBCC9"/><rect x="168.622" y="48.823" width="27.054" height="3.896" rx="1.948" fill="#ADBCC9"/><rect x="168.622" y="56.85" width="27.054" height="3.896" rx="1.948" fill="#ADBCC9"/><path stroke="#5B7993" stroke-width="2" stroke-linecap="round" stroke-linejoin="round" stroke-dasharray="1 4" d="M250.645 45.122v26.029M250.645 83.168v17.839"/><rect x="244.449" y="36.565" width="9.243" height="9.243" rx="1" transform="rotate(-45 244.449 36.565)" fill="#5B7993"/><g filter="url(#filter3_d)"><rect x="20.03" y="54.836" width="91.261" height="120.227" rx="4" fill="#fff"/></g><rect opacity=".8" x="33.459" y="70.715" width="64.403" height="6.941" rx="3.47" fill="#335878"/><rect opacity=".4" x="33.459" y="83.208" width="30.124" height="4.164" rx="2.082" fill="#335878"/><rect opacity=".4" x="39.691" y="98.597" width="44.667" height="4.164" rx="2.082" fill="#C9D3DB"/><rect opacity=".4" x="33.459" y="98.597" width="3.116" height="4.164" rx="1.558" fill="#C9D3DB"/><rect opacity=".4" x="39.691" y="108.314" width="38.434" height="4.164" rx="2.082" fill="#C9D3DB"/><rect opacity=".4" x="33.459" y="108.314" width="3.116" height="4.164" rx="1.558" fill="#C9D3DB"/><rect opacity=".4" x="39.691" y="118.031" width="33.24" height="4.164" rx="2.082" fill="#C9D3DB"/><rect opacity=".4" x="33.459" y="118.031" width="3.116" height="4.164" rx="1.558" fill="#C9D3DB"/><rect opacity=".4" x="39.691" y="137.466" width="38.434" height="4.164" rx="2.082" fill="#C9D3DB"/><rect opacity=".4" x="33.459" y="137.466" width="3.116" height="4.164" rx="1.558" fill="#C9D3DB"/><rect opacity=".4" x="39.691" y="147.183" width="30.124" height="4.164" rx="2.082" fill="#C9D3DB"/><rect opacity=".4" x="33.459" y="147.183" width="3.116" height="4.164" rx="1.558" fill="#C9D3DB"/><rect opacity=".4" x="39.691" y="156.899" width="46.744" height="4.164" rx="2.082" fill="#C9D3DB"/><rect opacity=".4" x="33.459" y="156.898" width="3.116" height="4.164" rx="1.558" fill="#C9D3DB"/><g filter="url(#filter4_d)"><path fill-rule="evenodd" clip-rule="evenodd" d="M148.771 171.766c36.168 0 65.488-23.126 65.488-51.653 0-28.527-29.32-51.653-65.488-51.653-36.169 0-65.489 23.126-65.489 51.653 0 10.913 4.291 21.036 11.616 29.377.995 1.133 1.35 2.709.851 4.133l-2.893 8.259c-1.09 3.112 1.841 6.133 4.985 5.135l12.14-3.853a4.132 4.132 0 013.132.281c10.26 5.263 22.506 8.321 35.658 8.321z" fill="url(#paint3_linear)"/></g><circle cx="169.984" cy="120.113" r="6.457" fill="#E9EDF1"/><circle cx="150.616" cy="120.113" r="6.457" fill="#E9EDF1"/><circle cx="130.323" cy="120.113" r="6.457" fill="#E9EDF1"/><defs><filter id="filter0_d" x="207.95" y="181.397" width="92.022" height="98.832" filterUnits="userSpaceOnUse" color-interpolation-filters="sRGB"><feFlood flood-opacity="0" result="BackgroundImageFix"/><feColorMatrix in="SourceAlpha" values="0 0 0 0 0 0 0 0 0 0 0 0 0 0 0 0 0 0 127 0"/><feOffset dy="10"/><feGaussianBlur stdDeviation="10"/><feColorMatrix values="0 0 0 0 0.122344 0 0 0 0 0.237341 0 0 0 0 0.3375 0 0 0 0.26 0"/><feBlend in2="BackgroundImageFix" result="effect1_dropShadow"/><feBlend in="SourceGraphic" in2="effect1_dropShadow" result="shape"/></filter><filter id="filter1_d" x="237.985" y="130.167" width="92.021" height="98.832" filterUnits="userSpaceOnUse" color-interpolation-filters="sRGB"><feFlood flood-opacity="0" result="BackgroundImageFix"/><feColorMatrix in="SourceAlpha" values="0 0 0 0 0 0 0 0 0 0 0 0 0 0 0 0 0 0 127 0"/><feOffset dy="10"/><feGaussianBlur stdDeviation="10"/><feColorMatrix values="0 0 0 0 0.122344 0 0 0 0 0.237341 0 0 0 0 0.3375 0 0 0 0.26 0"/><feBlend in2="BackgroundImageFix" result="effect1_dropShadow"/><feBlend in="SourceGraphic" in2="effect1_dropShadow" result="shape"/></filter><filter id="filter2_d" x="138.068" y=".909" width="182.691" height="137.388" filterUnits="userSpaceOnUse" color-interpolation-filters="sRGB"><feFlood flood-opacity="0" result="BackgroundImageFix"/><feColorMatrix in="SourceAlpha" values="0 0 0 0 0 0 0 0 0 0 0 0 0 0 0 0 0 0 127 0"/><feOffset dy="10"/><feGaussianBlur stdDeviation="10"/><feColorMatrix values="0 0 0 0 0.122344 0 0 0 0 0.237341 0 0 0 0 0.3375 0 0 0 0.12 0"/><feBlend in2="BackgroundImageFix" result="effect1_dropShadow"/><feBlend in="SourceGraphic" in2="effect1_dropShadow" result="shape"/></filter><filter id="filter3_d" x=".03" y="44.836" width="131.261" height="160.227" filterUnits="userSpaceOnUse" color-interpolation-filters="sRGB"><feFlood flood-opacity="0" result="BackgroundImageFix"/><feColorMatrix in="SourceAlpha" values="0 0 0 0 0 0 0 0 0 0 0 0 0 0 0 0 0 0 127 0"/><feOffset dy="10"/><feGaussianBlur stdDeviation="10"/><feColorMatrix values="0 0 0 0 0.122344 0 0 0 0 0.237341 0 0 0 0 0.3375 0 0 0 0.12 0"/><feBlend in2="BackgroundImageFix" result="effect1_dropShadow"/><feBlend in="SourceGraphic" in2="effect1_dropShadow" result="shape"/></filter><filter id="filter4_d" x="63.282" y="58.46" width="170.977" height="143.306" filterUnits="userSpaceOnUse" color-interpolation-filters="sRGB"><feFlood flood-opacity="0" result="BackgroundImageFix"/><feColorMatrix in="SourceAlpha" values="0 0 0 0 0 0 0 0 0 0 0 0 0 0 0 0 0 0 127 0"/><feOffset dy="10"/><feGaussianBlur stdDeviation="10"/><feColorMatrix values="0 0 0 0 0.122344 0 0 0 0 0.237341 0 0 0 0 0.3375 0 0 0 0.26 0"/><feBlend in2="BackgroundImageFix" result="effect1_dropShadow"/><feBlend in="SourceGraphic" in2="effect1_dropShadow" result="shape"/></filter><linearGradient id="paint0_linear" x1="478.163" y1="58.466" x2="92.813" y2="1.21" gradientUnits="userSpaceOnUse"><stop stop-color="#5CDBDD" stop-opacity=".03"/><stop offset="1" stop-color="#5CDBDD" stop-opacity=".44"/></linearGradient><linearGradient id="paint1_linear" x1="283.996" y1="190.778" x2="216.347" y2="229.125" gradientUnits="userSpaceOnUse"><stop stop-color="#1F3D56"/><stop offset="1" stop-color="#335878"/></linearGradient><linearGradient id="paint2_linear" x1="314.03" y1="139.548" x2="246.382" y2="177.895" gradientUnits="userSpaceOnUse"><stop stop-color="#1F3D56"/><stop offset="1" stop-color="#335878"/></linearGradient><linearGradient id="paint3_linear" x1="214.259" y1="68.46" x2="85.742" y2="160.825" gradientUnits="userSpaceOnUse"><stop stop-color="#1F3D56"/><stop offset="1" stop-color="#335878"/></linearGradient></defs></svg>