<?xml version="1.0" encoding="utf-8"?>
<svg width="153" height="146" viewBox="0 0 153 146" fill="none" xmlns="http://www.w3.org/2000/svg">
<circle cx="106.512" cy="83.3915" r="40.738" transform="rotate(-86.4507 106.512 83.3915)" stroke="#E9ECEE" stroke-width="3" stroke-linecap="round" stroke-linejoin="round" stroke-dasharray="5 10"/>
<circle cx="68.2649" cy="57.8635" r="57.7717" fill="url(#paint0_linear)"/>
<g filter="url(#filter0_d)">
<path d="M78.5872 43.9419C78.5872 44.6875 78.8833 45.4025 79.4105 45.9297C79.9377 46.4568 80.6527 46.753 81.3982 46.753H87.695C88.4406 46.753 89.1556 46.4568 89.6828 45.9297C90.21 45.4025 90.5061 44.6875 90.5061 43.9419C90.5061 43.1964 90.21 42.4814 89.6828 41.9542C89.1556 41.427 88.4406 41.1309 87.695 41.1309H81.3982C80.6527 41.1309 79.9377 41.427 79.4105 41.9542C78.8833 42.4814 78.5872 43.1964 78.5872 43.9419Z" fill="url(#paint1_linear)"/>
</g>
<g filter="url(#filter1_d)">
<path d="M35.3865 43.9419C35.3865 44.6875 35.6826 45.4025 36.2098 45.9297C36.737 46.4568 37.452 46.753 38.1976 46.753H44.4944C45.2399 46.753 45.9549 46.4568 46.4821 45.9297C47.0093 45.4025 47.3054 44.6875 47.3054 43.9419C47.3054 43.1964 47.0093 42.4814 46.4821 41.9542C45.9549 41.427 45.2399 41.1309 44.4944 41.1309H38.1976C37.452 41.1309 36.737 41.427 36.2098 41.9542C35.6826 42.4814 35.3865 43.1964 35.3865 43.9419Z" fill="url(#paint2_linear)"/>
</g>
<g filter="url(#filter2_d)">
<path d="M65.7574 25.4887V19.1919C65.7574 18.4464 65.4612 17.7314 64.9341 17.2042C64.4069 16.677 63.6919 16.3809 62.9463 16.3809C62.2008 16.3809 61.4858 16.677 60.9586 17.2042C60.4314 17.7314 60.1353 18.4464 60.1353 19.1919V25.4887C60.1353 26.2343 60.4314 26.9493 60.9586 27.4765C61.4858 28.0037 62.2008 28.2998 62.9463 28.2998C63.6919 28.2998 64.4069 28.0037 64.9341 27.4765C65.4612 26.9493 65.7574 26.2343 65.7574 25.4887Z" fill="url(#paint3_linear)"/>
</g>
<g filter="url(#filter3_d)">
<path d="M78.4974 24.4533L73.9997 28.951C73.4718 29.4789 73.1753 30.1948 73.1753 30.9413C73.1753 31.6877 73.4718 32.4037 73.9997 32.9315C74.5275 33.4593 75.2434 33.7559 75.9899 33.7559C76.7364 33.7559 77.4523 33.4593 77.9802 32.9315L82.4779 28.4338C83.0057 27.9059 83.3023 27.19 83.3023 26.4435C83.3023 25.697 83.0057 24.9811 82.4779 24.4533C81.95 23.9254 81.2341 23.6289 80.4876 23.6289C79.7411 23.6289 79.0252 23.9254 78.4974 24.4533Z" fill="url(#paint4_linear)"/>
</g>
<g filter="url(#filter4_d)">
<path d="M49.9029 33.7074C50.4596 33.7084 51.0041 33.5441 51.4673 33.2353C51.9305 32.9264 52.2916 32.487 52.5048 31.9728C52.7179 31.4585 52.7736 30.8925 52.6647 30.3465C52.5559 29.8006 52.2873 29.2992 51.8932 28.9061L47.3954 24.4084C47.1341 24.147 46.8238 23.9397 46.4823 23.7982C46.1408 23.6568 45.7748 23.584 45.4052 23.584C45.0356 23.584 44.6696 23.6568 44.3281 23.7982C43.9866 23.9397 43.6763 24.147 43.415 24.4084C43.1536 24.6697 42.9463 24.98 42.8048 25.3215C42.6634 25.663 42.5906 26.029 42.5906 26.3986C42.5906 26.7682 42.6634 27.1342 42.8048 27.4757C42.9463 27.8172 43.1536 28.1275 43.415 28.3889L47.9127 32.8866C48.1739 33.148 48.4842 33.3551 48.8258 33.4959C49.1673 33.6368 49.5334 33.7087 49.9029 33.7074Z" fill="url(#paint5_linear)"/>
</g>
<path d="M16.1139 66.125C14.6228 66.125 13.1927 66.7174 12.1384 67.7717C11.084 68.8261 10.4917 70.2561 10.4917 71.7472V120.952C10.4917 122.443 11.084 123.873 12.1384 124.928C13.1927 125.982 14.6228 126.574 16.1139 126.574H32.3956C33.8209 126.578 35.1944 126.04 36.2382 125.069C37.2819 124.099 37.918 122.768 38.0178 121.346L41.5035 123.437C44.8218 125.429 48.6189 126.483 52.4892 126.484H76.2484C79.1221 126.515 81.9709 125.948 84.6142 124.82C92.2041 121.447 93.396 115.521 92.8337 111.586C94.7822 109.949 96.1786 107.752 96.8326 105.293C97.4866 102.834 97.3663 100.233 96.4881 97.8452C98.3696 95.5688 99.3677 92.6906 99.2992 89.7381C99.1763 87.4252 98.3745 85.1998 96.9941 83.34C97.8564 81.3542 98.0717 79.1473 97.6096 77.0322C97.1474 74.9172 96.0312 73.0012 94.4192 71.556C94.1868 71.3386 93.9432 71.1325 93.6883 70.9376C92.4095 69.9866 90.9342 69.3335 89.3705 69.026H89.2468C81.7918 67.4406 76.7769 67.3394 69.4006 67.3394C69.1195 65.6415 69.1308 62.0771 71.3571 55.3642C73.4148 49.1461 73.2349 44.0075 70.8174 40.0832C69.8203 38.5142 68.4908 37.1833 66.9228 36.1846C65.3549 35.186 63.5867 34.5438 61.7432 34.3036H61.3947C60.1038 34.2812 58.8407 34.6794 57.7961 35.438C56.7514 36.1966 55.9819 37.2746 55.6039 38.509C55.564 38.6416 55.534 38.7769 55.5139 38.9138L54.6706 44.9857C54.4166 46.8097 53.8857 48.5842 53.0964 50.2481L44.8993 67.4631C44.286 68.8826 43.3409 70.1342 42.1434 71.1125C40.946 72.0909 39.5311 72.7674 38.0178 73.0852V71.7472C38.0178 70.2561 37.4254 68.8261 36.3711 67.7717C35.3167 66.7174 33.8867 66.125 32.3956 66.125H16.1139ZM16.1139 120.952V71.7472H32.3956V120.952H16.1139ZM38.6025 78.7411C41.0941 78.3041 43.4374 77.2527 45.4204 75.682C47.4033 74.1114 48.9633 72.071 49.9592 69.7457L58.0888 52.5756C59.1225 50.3926 59.8164 48.0644 60.1466 45.6716L61.0124 39.9933C61.0528 39.9539 61.1034 39.9267 61.1585 39.9145C62.1393 40.0699 63.0769 40.4282 63.9113 40.9665C64.7458 41.5047 65.4588 42.2111 66.0048 43.0405C67.4891 45.4467 67.4891 49.1011 66.0048 53.5989C63.8234 60.1655 63.1488 65.3492 63.9809 69.0148C64.2372 70.1448 64.8719 71.1533 65.7799 71.8732C66.6879 72.593 67.8146 72.981 68.9733 72.9728C76.4058 72.9728 80.9935 73.0403 88.0886 74.5358H88.2011C88.9506 74.6714 89.6609 74.9709 90.2813 75.4128L90.6411 75.7164C93.5196 78.3138 91.6981 81.6422 91.3158 82.2606C90.9563 82.823 90.8086 83.495 90.8993 84.1563C90.9899 84.8176 91.3129 85.4251 91.8105 85.87C92.9051 86.9778 93.5774 88.4338 93.7108 89.9854C93.678 91.0212 93.4371 92.0398 93.0024 92.9806C92.5678 93.9213 91.9483 94.765 91.1808 95.4614C90.7599 95.9065 90.4958 96.4768 90.4288 97.0857C90.3619 97.6947 90.4956 98.3088 90.8098 98.8347C90.9334 99.0483 93.8232 104.075 88.0999 108.28C87.6204 108.641 87.2667 109.143 87.0891 109.717C86.9115 110.29 86.9189 110.905 87.1104 111.473C87.414 112.373 88.6059 116.983 82.4328 119.693C80.4757 120.511 78.3689 120.909 76.2484 120.862H52.4442C49.5955 120.858 46.8013 120.081 44.3595 118.613L38.0178 114.813V78.8311L38.6025 78.7411Z" fill="url(#paint6_linear)"/>
<g filter="url(#filter5_d)">
<path d="M24.2545 115.632C26.1485 115.632 27.684 114.097 27.684 112.203C27.684 110.309 26.1485 108.773 24.2545 108.773C22.3604 108.773 20.825 110.309 20.825 112.203C20.825 114.097 22.3604 115.632 24.2545 115.632Z" fill="url(#paint7_linear)"/>
</g>
<path fill-rule="evenodd" clip-rule="evenodd" d="M113.235 46.6271C113.235 41.3987 117.51 37.0351 122.942 37.0351C125.564 37.0351 127.928 38.0609 129.662 39.7053C131.397 38.0609 133.76 37.0351 136.383 37.0351C141.815 37.0351 146.09 41.3987 146.09 46.6271C146.09 46.7873 146.086 46.9467 146.078 47.1052C146.086 47.1937 146.09 47.2822 146.09 47.3706C146.09 54.6095 142.04 59.7955 138.125 63.1088C136.164 64.7688 134.208 65.9853 132.744 66.7873C132.01 67.1891 131.396 67.4892 130.96 67.6908C130.742 67.7916 130.568 67.868 130.446 67.9202C130.385 67.9463 130.337 67.9665 130.302 67.9806L130.261 67.9974L130.249 68.0025L130.243 68.0048C130.243 68.0048 130.242 68.0053 129.662 66.7032C129.083 68.0053 129.081 68.0048 129.081 68.0048L129.076 68.0025L129.063 67.9974L129.022 67.9806C128.988 67.9665 128.94 67.9463 128.879 67.9202C128.757 67.868 128.583 67.7916 128.365 67.6908C127.929 67.4892 127.314 67.1891 126.581 66.7873C125.116 65.9853 123.161 64.7688 121.199 63.1088C117.285 59.7955 113.235 54.6095 113.235 47.3706C113.235 47.2823 113.239 47.1939 113.247 47.1055C113.239 46.9469 113.235 46.7874 113.235 46.6271ZM129.662 66.7032L129.083 68.0053C129.453 68.1529 129.871 68.1529 130.242 68.0053L129.662 66.7032Z" fill="url(#paint8_linear)"/>
<path d="M115.326 131.876C115.495 131.931 116.63 131.336 118.231 130.421C118.789 130.102 119.484 130.173 119.998 130.56C121.073 131.369 122.24 132.024 123.46 132.523C124.079 132.776 124.502 133.374 124.479 134.043C124.416 135.841 124.386 137.101 124.426 137.268C124.554 137.932 127.694 138.581 129.078 137.902C129.241 137.827 129.639 136.531 130.145 134.659C130.312 134.039 130.854 133.598 131.489 133.507C132.742 133.328 133.983 132.989 135.178 132.492C135.796 132.235 136.518 132.358 136.974 132.848C138.252 134.221 139.169 135.185 139.322 135.28C139.878 135.659 142.551 133.897 143.06 132.446C143.116 132.276 142.467 131.034 141.47 129.306C141.148 128.748 141.217 128.051 141.603 127.535C142.437 126.422 143.106 125.213 143.607 123.948C143.847 123.34 144.42 122.914 145.073 122.911C147.158 122.9 148.641 122.856 148.825 122.764C149.278 122.545 149.409 120.595 149.446 119.29C149.465 118.598 148.985 118.003 148.311 117.849C147.662 117.701 146.771 117.499 145.727 117.264C145.083 117.12 144.615 116.57 144.516 115.918C144.328 114.68 143.982 113.454 143.482 112.273C143.23 111.674 143.336 110.974 143.793 110.513C145.248 109.046 146.258 107.973 146.333 107.773C146.5 107.296 145.218 105.826 144.323 104.879C143.848 104.376 143.087 104.294 142.501 104.662C141.955 105.005 141.213 105.472 140.348 106.018C139.788 106.371 139.067 106.31 138.536 105.914C137.482 105.127 136.339 104.486 135.146 103.998C134.546 103.752 134.128 103.182 134.126 102.534C134.117 100.533 134.068 99.1246 133.988 98.9382C133.77 98.4862 131.823 98.3549 130.518 98.3179C129.825 98.2983 129.228 98.7816 129.074 99.4578C128.937 100.057 128.753 100.862 128.538 101.8C128.39 102.444 127.837 102.908 127.184 103.001C125.862 103.188 124.555 103.548 123.298 104.083C122.699 104.338 121.996 104.232 121.533 103.774C120.166 102.419 119.181 101.496 118.998 101.431C118.521 101.263 117.053 102.543 116.105 103.438C115.601 103.914 115.52 104.677 115.89 105.263C116.202 105.758 116.616 106.413 117.099 107.176C117.453 107.738 117.392 108.461 116.993 108.992C116.233 110.003 115.609 111.096 115.13 112.241C114.873 112.856 114.278 113.277 113.612 113.255C111.9 113.196 110.705 113.166 110.538 113.205C109.874 113.333 109.225 116.474 109.905 117.857C109.978 118.018 111.151 118.386 112.884 118.855C113.522 119.028 113.969 119.594 114.046 120.25C114.203 121.592 114.551 122.912 115.083 124.184C115.341 124.801 115.219 125.522 114.731 125.979C113.461 127.168 112.589 127.998 112.493 128.138C112.101 128.698 113.876 131.367 115.326 131.876ZM124.363 111.78C127.942 109.055 133.062 109.748 135.776 113.344C138.502 116.922 137.808 122.042 134.213 124.757C130.634 127.482 125.515 126.788 122.8 123.193C120.075 119.614 120.771 114.508 124.363 111.78Z" fill="url(#paint9_linear)"/>
<defs>
<filter id="filter0_d" x="58.5872" y="31.1309" width="51.919" height="45.6222" filterUnits="userSpaceOnUse" color-interpolation-filters="sRGB">
<feFlood flood-opacity="0" result="BackgroundImageFix"/>
<feColorMatrix in="SourceAlpha" type="matrix" values="0 0 0 0 0 0 0 0 0 0 0 0 0 0 0 0 0 0 127 0"/>
<feOffset dy="10"/>
<feGaussianBlur stdDeviation="10"/>
<feColorMatrix type="matrix" values="0 0 0 0 0.122344 0 0 0 0 0.237341 0 0 0 0 0.3375 0 0 0 0.26 0"/>
<feBlend mode="normal" in2="BackgroundImageFix" result="effect1_dropShadow"/>
<feBlend mode="normal" in="SourceGraphic" in2="effect1_dropShadow" result="shape"/>
</filter>
<filter id="filter1_d" x="15.3865" y="31.1309" width="51.919" height="45.6222" filterUnits="userSpaceOnUse" color-interpolation-filters="sRGB">
<feFlood flood-opacity="0" result="BackgroundImageFix"/>
<feColorMatrix in="SourceAlpha" type="matrix" values="0 0 0 0 0 0 0 0 0 0 0 0 0 0 0 0 0 0 127 0"/>
<feOffset dy="10"/>
<feGaussianBlur stdDeviation="10"/>
<feColorMatrix type="matrix" values="0 0 0 0 0.122344 0 0 0 0 0.237341 0 0 0 0 0.3375 0 0 0 0.26 0"/>
<feBlend mode="normal" in2="BackgroundImageFix" result="effect1_dropShadow"/>
<feBlend mode="normal" in="SourceGraphic" in2="effect1_dropShadow" result="shape"/>
</filter>
<filter id="filter2_d" x="40.1353" y="6.38086" width="45.6222" height="51.919" filterUnits="userSpaceOnUse" color-interpolation-filters="sRGB">
<feFlood flood-opacity="0" result="BackgroundImageFix"/>
<feColorMatrix in="SourceAlpha" type="matrix" values="0 0 0 0 0 0 0 0 0 0 0 0 0 0 0 0 0 0 127 0"/>
<feOffset dy="10"/>
<feGaussianBlur stdDeviation="10"/>
<feColorMatrix type="matrix" values="0 0 0 0 0.122344 0 0 0 0 0.237341 0 0 0 0 0.3375 0 0 0 0.26 0"/>
<feBlend mode="normal" in2="BackgroundImageFix" result="effect1_dropShadow"/>
<feBlend mode="normal" in="SourceGraphic" in2="effect1_dropShadow" result="shape"/>
</filter>
<filter id="filter3_d" x="53.1753" y="13.6289" width="50.127" height="50.127" filterUnits="userSpaceOnUse" color-interpolation-filters="sRGB">
<feFlood flood-opacity="0" result="BackgroundImageFix"/>
<feColorMatrix in="SourceAlpha" type="matrix" values="0 0 0 0 0 0 0 0 0 0 0 0 0 0 0 0 0 0 127 0"/>
<feOffset dy="10"/>
<feGaussianBlur stdDeviation="10"/>
<feColorMatrix type="matrix" values="0 0 0 0 0.122344 0 0 0 0 0.237341 0 0 0 0 0.3375 0 0 0 0.26 0"/>
<feBlend mode="normal" in2="BackgroundImageFix" result="effect1_dropShadow"/>
<feBlend mode="normal" in="SourceGraphic" in2="effect1_dropShadow" result="shape"/>
</filter>
<filter id="filter4_d" x="22.5906" y="13.584" width="50.1285" height="50.1234" filterUnits="userSpaceOnUse" color-interpolation-filters="sRGB">
<feFlood flood-opacity="0" result="BackgroundImageFix"/>
<feColorMatrix in="SourceAlpha" type="matrix" values="0 0 0 0 0 0 0 0 0 0 0 0 0 0 0 0 0 0 127 0"/>
<feOffset dy="10"/>
<feGaussianBlur stdDeviation="10"/>
<feColorMatrix type="matrix" values="0 0 0 0 0.122344 0 0 0 0 0.237341 0 0 0 0 0.3375 0 0 0 0.26 0"/>
<feBlend mode="normal" in2="BackgroundImageFix" result="effect1_dropShadow"/>
<feBlend mode="normal" in="SourceGraphic" in2="effect1_dropShadow" result="shape"/>
</filter>
<filter id="filter5_d" x="0.824951" y="98.7734" width="46.859" height="46.859" filterUnits="userSpaceOnUse" color-interpolation-filters="sRGB">
<feFlood flood-opacity="0" result="BackgroundImageFix"/>
<feColorMatrix in="SourceAlpha" type="matrix" values="0 0 0 0 0 0 0 0 0 0 0 0 0 0 0 0 0 0 127 0"/>
<feOffset dy="10"/>
<feGaussianBlur stdDeviation="10"/>
<feColorMatrix type="matrix" values="0 0 0 0 0.122344 0 0 0 0 0.237341 0 0 0 0 0.3375 0 0 0 0.26 0"/>
<feBlend mode="normal" in2="BackgroundImageFix" result="effect1_dropShadow"/>
<feBlend mode="normal" in="SourceGraphic" in2="effect1_dropShadow" result="shape"/>
</filter>
<linearGradient id="paint0_linear" x1="234.906" y1="29.832" x2="34.9155" y2="0.117135" gradientUnits="userSpaceOnUse">
<stop stop-color="#5CDBDD" stop-opacity="0.03"/>
<stop offset="1" stop-color="#5CDBDD" stop-opacity="0.21"/>
</linearGradient>
<linearGradient id="paint1_linear" x1="90.5061" y1="41.1309" x2="83.2497" y2="49.8512" gradientUnits="userSpaceOnUse">
<stop stop-color="#1F3D56"/>
<stop offset="1" stop-color="#335878"/>
</linearGradient>
<linearGradient id="paint2_linear" x1="47.3054" y1="41.1309" x2="40.049" y2="49.8512" gradientUnits="userSpaceOnUse">
<stop stop-color="#1F3D56"/>
<stop offset="1" stop-color="#335878"/>
</linearGradient>
<linearGradient id="paint3_linear" x1="65.7574" y1="16.3809" x2="57.9496" y2="18.4685" gradientUnits="userSpaceOnUse">
<stop stop-color="#1F3D56"/>
<stop offset="1" stop-color="#335878"/>
</linearGradient>
<linearGradient id="paint4_linear" x1="83.3023" y1="23.6289" x2="71.8975" y2="30.0937" gradientUnits="userSpaceOnUse">
<stop stop-color="#1F3D56"/>
<stop offset="1" stop-color="#335878"/>
</linearGradient>
<linearGradient id="paint5_linear" x1="52.719" y1="23.584" x2="41.3154" y2="30.0514" gradientUnits="userSpaceOnUse">
<stop stop-color="#1F3D56"/>
<stop offset="1" stop-color="#335878"/>
</linearGradient>
<linearGradient id="paint6_linear" x1="99.3025" y1="34.3027" x2="-2.53686" y2="89.8658" gradientUnits="userSpaceOnUse">
<stop stop-color="#1F3D56"/>
<stop offset="1" stop-color="#335878"/>
</linearGradient>
<linearGradient id="paint7_linear" x1="27.684" y1="108.773" x2="19.9595" y2="113.152" gradientUnits="userSpaceOnUse">
<stop stop-color="#1F3D56"/>
<stop offset="1" stop-color="#335878"/>
</linearGradient>
<linearGradient id="paint8_linear" x1="149" y1="37.4818" x2="113.027" y2="59.0372" gradientUnits="userSpaceOnUse">
<stop stop-color="#1F3D56"/>
<stop offset="1" stop-color="#335878"/>
</linearGradient>
<linearGradient id="paint9_linear" x1="143.989" y1="94.8583" x2="107.386" y2="128.702" gradientUnits="userSpaceOnUse">
<stop stop-color="#1F3D56"/>
<stop offset="1" stop-color="#335878"/>
</linearGradient>
</defs>
</svg>
