<svg width="153" height="146" fill="none" xmlns="http://www.w3.org/2000/svg"><circle cx="106.512" cy="83.391" r="40.738" transform="rotate(-86.45 106.512 83.391)" stroke="#E9ECEE" stroke-width="3" stroke-linecap="round" stroke-linejoin="round" stroke-dasharray="5 10"/><circle cx="68.265" cy="57.864" r="57.772" fill="url(#paint0_linear)"/><g filter="url(#filter0_d)"><path d="M78.587 43.942a2.811 2.811 0 002.811 2.811h6.297a2.811 2.811 0 000-5.622h-6.297a2.811 2.811 0 00-2.81 2.81z" fill="url(#paint1_linear)"/></g><g filter="url(#filter1_d)"><path d="M35.386 43.942a2.811 2.811 0 002.812 2.811h6.296a2.811 2.811 0 000-5.622h-6.296a2.811 2.811 0 00-2.812 2.81z" fill="url(#paint2_linear)"/></g><g filter="url(#filter2_d)"><path d="M65.757 25.489v-6.297a2.811 2.811 0 00-5.622 0v6.297a2.811 2.811 0 105.622 0z" fill="url(#paint3_linear)"/></g><g filter="url(#filter3_d)"><path d="M78.497 24.453L74 28.951a2.815 2.815 0 103.98 3.98l4.498-4.497a2.815 2.815 0 00-3.98-3.98z" fill="url(#paint4_linear)"/></g><g filter="url(#filter4_d)"><path d="M49.903 33.707a2.811 2.811 0 001.99-4.8l-4.498-4.499a2.814 2.814 0 10-3.98 3.98l4.498 4.499a2.798 2.798 0 001.99.82z" fill="url(#paint5_linear)"/></g><path d="M16.114 66.125a5.622 5.622 0 00-5.622 5.622v49.205a5.625 5.625 0 005.622 5.622h16.282a5.618 5.618 0 005.622-5.228l3.486 2.091a21.356 21.356 0 0010.985 3.047h23.76a20.745 20.745 0 008.365-1.664c7.59-3.373 8.782-9.299 8.22-13.234a12.372 12.372 0 003.654-13.74 12.278 12.278 0 002.811-8.108 11.784 11.784 0 00-2.305-6.398 10.311 10.311 0 00-2.575-11.784 9.642 9.642 0 00-.73-.618 10.693 10.693 0 00-4.318-1.912h-.124c-7.455-1.585-12.47-1.687-19.846-1.687-.281-1.698-.27-5.262 1.956-11.975 2.058-6.218 1.878-11.356-.54-15.28a12.695 12.695 0 00-9.074-5.78h-.348a5.949 5.949 0 00-5.791 4.205c-.04.133-.07.268-.09.405l-.843 6.072a18.105 18.105 0 01-1.575 5.262L44.9 67.463a9.66 9.66 0 01-6.881 5.622v-1.338a5.623 5.623 0 00-5.622-5.622H16.114zm0 54.827V71.747h16.282v49.205H16.114zm22.488-42.21a15.213 15.213 0 0011.357-8.996l8.13-17.17a23.703 23.703 0 002.058-6.904l.865-5.679a.303.303 0 01.146-.079 7.139 7.139 0 014.847 3.127c1.484 2.406 1.484 6.06 0 10.558-2.182 6.567-2.856 11.75-2.024 15.416a5.082 5.082 0 004.992 3.958c7.433 0 12.02.067 19.116 1.563h.112c.75.135 1.46.435 2.08.877l.36.303c2.879 2.598 1.057 5.926.675 6.545a2.81 2.81 0 00.495 3.609 6.668 6.668 0 011.9 4.115 7.724 7.724 0 01-2.53 5.476 2.812 2.812 0 00-.371 3.374c.123.213 3.013 5.24-2.71 9.445a2.854 2.854 0 00-.99 3.193c.304.9 1.496 5.51-4.677 8.22a15.165 15.165 0 01-6.185 1.169H52.444a15.733 15.733 0 01-8.085-2.249l-6.341-3.8V78.831l.584-.09z" fill="url(#paint6_linear)"/><g filter="url(#filter5_d)"><path d="M24.255 115.632a3.43 3.43 0 100-6.858 3.43 3.43 0 000 6.858z" fill="url(#paint7_linear)"/></g><path fill-rule="evenodd" clip-rule="evenodd" d="M113.235 46.627c0-5.228 4.275-9.592 9.707-9.592a9.734 9.734 0 016.72 2.67 9.736 9.736 0 016.721-2.67c5.432 0 9.707 4.364 9.707 9.592 0 .16-.004.32-.012.478.008.089.012.177.012.266 0 7.238-4.05 12.424-7.965 15.738a32.833 32.833 0 01-7.165 4.582 19.684 19.684 0 01-.658.29l-.041.016-.012.005-.006.003-.581-1.302c-.579 1.302-.581 1.302-.581 1.302l-.005-.002-.013-.006-.041-.016a19.684 19.684 0 01-.657-.29 32.836 32.836 0 01-7.166-4.582c-3.914-3.314-7.964-8.5-7.964-15.738 0-.089.004-.177.012-.266a9.496 9.496 0 01-.012-.478zm16.427 20.076l-.579 1.302c.37.148.788.148 1.159 0l-.58-1.302z" fill="url(#paint8_linear)"/><path d="M115.326 131.876c.169.055 1.304-.54 2.905-1.455.558-.319 1.253-.248 1.767.139a15.538 15.538 0 003.462 1.963c.619.253 1.042.851 1.019 1.52-.063 1.798-.093 3.058-.053 3.225.128.664 3.268 1.313 4.652.634.163-.075.561-1.371 1.067-3.243.167-.62.709-1.061 1.344-1.152a15.214 15.214 0 003.689-1.015c.618-.257 1.34-.134 1.796.356 1.278 1.373 2.195 2.337 2.348 2.432.556.379 3.229-1.383 3.738-2.834.056-.17-.593-1.412-1.59-3.14-.322-.558-.253-1.255.133-1.771a15.493 15.493 0 002.004-3.587c.24-.608.813-1.034 1.466-1.037 2.085-.011 3.568-.055 3.752-.147.453-.219.584-2.169.621-3.474a1.443 1.443 0 00-1.135-1.441c-.649-.148-1.54-.35-2.584-.585-.644-.144-1.112-.694-1.211-1.346a15.215 15.215 0 00-1.034-3.645c-.252-.599-.146-1.299.311-1.76 1.455-1.467 2.465-2.54 2.54-2.74.167-.477-1.115-1.947-2.01-2.894a1.443 1.443 0 00-1.822-.217c-.546.343-1.288.81-2.153 1.356-.56.353-1.281.292-1.812-.104a15.438 15.438 0 00-3.39-1.916c-.6-.246-1.018-.816-1.02-1.464-.009-2.001-.058-3.41-.138-3.596-.218-.452-2.165-.583-3.47-.62a1.447 1.447 0 00-1.444 1.14l-.536 2.342c-.148.644-.701 1.108-1.354 1.201a15.445 15.445 0 00-3.886 1.082c-.599.255-1.302.149-1.765-.309-1.367-1.355-2.352-2.278-2.535-2.343-.477-.168-1.945 1.112-2.893 2.007a1.443 1.443 0 00-.215 1.825l1.209 1.913c.354.562.293 1.285-.106 1.816a15.12 15.12 0 00-1.863 3.249c-.257.615-.852 1.036-1.518 1.014-1.712-.059-2.907-.089-3.074-.05-.664.128-1.313 3.269-.633 4.652.073.161 1.246.529 2.979.998.638.173 1.085.739 1.162 1.395a14.573 14.573 0 001.037 3.934c.258.617.136 1.338-.352 1.795-1.27 1.189-2.142 2.019-2.238 2.159-.392.56 1.383 3.229 2.833 3.738zm9.037-20.096c3.579-2.725 8.699-2.032 11.413 1.564 2.726 3.578 2.032 8.698-1.563 11.413-3.579 2.725-8.698 2.031-11.413-1.564-2.725-3.579-2.029-8.685 1.563-11.413z" fill="url(#paint9_linear)"/><defs><linearGradient id="paint0_linear" x1="234.906" y1="29.832" x2="34.916" y2=".117" gradientUnits="userSpaceOnUse"><stop stop-color="#5CDBDD" stop-opacity=".03"/><stop offset="1" stop-color="#5CDBDD" stop-opacity=".21"/></linearGradient><linearGradient id="paint1_linear" x1="90.506" y1="41.131" x2="83.25" y2="49.851" gradientUnits="userSpaceOnUse"><stop stop-color="#1F3D56"/><stop offset="1" stop-color="#335878"/></linearGradient><linearGradient id="paint2_linear" x1="47.305" y1="41.131" x2="40.049" y2="49.851" gradientUnits="userSpaceOnUse"><stop stop-color="#1F3D56"/><stop offset="1" stop-color="#335878"/></linearGradient><linearGradient id="paint3_linear" x1="65.757" y1="16.381" x2="57.95" y2="18.468" gradientUnits="userSpaceOnUse"><stop stop-color="#1F3D56"/><stop offset="1" stop-color="#335878"/></linearGradient><linearGradient id="paint4_linear" x1="83.302" y1="23.629" x2="71.897" y2="30.094" gradientUnits="userSpaceOnUse"><stop stop-color="#1F3D56"/><stop offset="1" stop-color="#335878"/></linearGradient><linearGradient id="paint5_linear" x1="52.719" y1="23.584" x2="41.315" y2="30.051" gradientUnits="userSpaceOnUse"><stop stop-color="#1F3D56"/><stop offset="1" stop-color="#335878"/></linearGradient><linearGradient id="paint6_linear" x1="99.302" y1="34.303" x2="-2.537" y2="89.866" gradientUnits="userSpaceOnUse"><stop stop-color="#1F3D56"/><stop offset="1" stop-color="#335878"/></linearGradient><linearGradient id="paint7_linear" x1="27.684" y1="108.773" x2="19.959" y2="113.152" gradientUnits="userSpaceOnUse"><stop stop-color="#1F3D56"/><stop offset="1" stop-color="#335878"/></linearGradient><linearGradient id="paint8_linear" x1="149" y1="37.482" x2="113.027" y2="59.037" gradientUnits="userSpaceOnUse"><stop stop-color="#1F3D56"/><stop offset="1" stop-color="#335878"/></linearGradient><linearGradient id="paint9_linear" x1="143.989" y1="94.858" x2="107.386" y2="128.702" gradientUnits="userSpaceOnUse"><stop stop-color="#1F3D56"/><stop offset="1" stop-color="#335878"/></linearGradient><filter id="filter0_d" x="58.587" y="31.131" width="51.919" height="45.622" filterUnits="userSpaceOnUse" color-interpolation-filters="sRGB"><feFlood flood-opacity="0" result="BackgroundImageFix"/><feColorMatrix in="SourceAlpha" values="0 0 0 0 0 0 0 0 0 0 0 0 0 0 0 0 0 0 127 0"/><feOffset dy="10"/><feGaussianBlur stdDeviation="10"/><feColorMatrix values="0 0 0 0 0.122344 0 0 0 0 0.237341 0 0 0 0 0.3375 0 0 0 0.26 0"/><feBlend in2="BackgroundImageFix" result="effect1_dropShadow"/><feBlend in="SourceGraphic" in2="effect1_dropShadow" result="shape"/></filter><filter id="filter1_d" x="15.386" y="31.131" width="51.919" height="45.622" filterUnits="userSpaceOnUse" color-interpolation-filters="sRGB"><feFlood flood-opacity="0" result="BackgroundImageFix"/><feColorMatrix in="SourceAlpha" values="0 0 0 0 0 0 0 0 0 0 0 0 0 0 0 0 0 0 127 0"/><feOffset dy="10"/><feGaussianBlur stdDeviation="10"/><feColorMatrix values="0 0 0 0 0.122344 0 0 0 0 0.237341 0 0 0 0 0.3375 0 0 0 0.26 0"/><feBlend in2="BackgroundImageFix" result="effect1_dropShadow"/><feBlend in="SourceGraphic" in2="effect1_dropShadow" result="shape"/></filter><filter id="filter2_d" x="40.135" y="6.381" width="45.622" height="51.919" filterUnits="userSpaceOnUse" color-interpolation-filters="sRGB"><feFlood flood-opacity="0" result="BackgroundImageFix"/><feColorMatrix in="SourceAlpha" values="0 0 0 0 0 0 0 0 0 0 0 0 0 0 0 0 0 0 127 0"/><feOffset dy="10"/><feGaussianBlur stdDeviation="10"/><feColorMatrix values="0 0 0 0 0.122344 0 0 0 0 0.237341 0 0 0 0 0.3375 0 0 0 0.26 0"/><feBlend in2="BackgroundImageFix" result="effect1_dropShadow"/><feBlend in="SourceGraphic" in2="effect1_dropShadow" result="shape"/></filter><filter id="filter3_d" x="53.175" y="13.629" width="50.127" height="50.127" filterUnits="userSpaceOnUse" color-interpolation-filters="sRGB"><feFlood flood-opacity="0" result="BackgroundImageFix"/><feColorMatrix in="SourceAlpha" values="0 0 0 0 0 0 0 0 0 0 0 0 0 0 0 0 0 0 127 0"/><feOffset dy="10"/><feGaussianBlur stdDeviation="10"/><feColorMatrix values="0 0 0 0 0.122344 0 0 0 0 0.237341 0 0 0 0 0.3375 0 0 0 0.26 0"/><feBlend in2="BackgroundImageFix" result="effect1_dropShadow"/><feBlend in="SourceGraphic" in2="effect1_dropShadow" result="shape"/></filter><filter id="filter4_d" x="22.591" y="13.584" width="50.129" height="50.123" filterUnits="userSpaceOnUse" color-interpolation-filters="sRGB"><feFlood flood-opacity="0" result="BackgroundImageFix"/><feColorMatrix in="SourceAlpha" values="0 0 0 0 0 0 0 0 0 0 0 0 0 0 0 0 0 0 127 0"/><feOffset dy="10"/><feGaussianBlur stdDeviation="10"/><feColorMatrix values="0 0 0 0 0.122344 0 0 0 0 0.237341 0 0 0 0 0.3375 0 0 0 0.26 0"/><feBlend in2="BackgroundImageFix" result="effect1_dropShadow"/><feBlend in="SourceGraphic" in2="effect1_dropShadow" result="shape"/></filter><filter id="filter5_d" x=".825" y="98.773" width="46.859" height="46.859" filterUnits="userSpaceOnUse" color-interpolation-filters="sRGB"><feFlood flood-opacity="0" result="BackgroundImageFix"/><feColorMatrix in="SourceAlpha" values="0 0 0 0 0 0 0 0 0 0 0 0 0 0 0 0 0 0 127 0"/><feOffset dy="10"/><feGaussianBlur stdDeviation="10"/><feColorMatrix values="0 0 0 0 0.122344 0 0 0 0 0.237341 0 0 0 0 0.3375 0 0 0 0.26 0"/><feBlend in2="BackgroundImageFix" result="effect1_dropShadow"/><feBlend in="SourceGraphic" in2="effect1_dropShadow" result="shape"/></filter></defs></svg>