<svg fill="none" height="133" width="148" xmlns="http://www.w3.org/2000/svg" xmlns:xlink="http://www.w3.org/1999/xlink"><linearGradient id="a" gradientUnits="userSpaceOnUse" x1="248.519" x2="42.248" y1="37.795" y2="7.147"><stop offset="0" stop-color="#5cdbdd" stop-opacity=".03"/><stop offset="1" stop-color="#5cdbdd" stop-opacity=".21"/></linearGradient><linearGradient id="b"><stop offset="0" stop-color="#1f3d56"/><stop offset="1" stop-color="#335878"/></linearGradient><linearGradient id="c" gradientUnits="userSpaceOnUse" x1="113.953" x2="12.519" xlink:href="#b" y1="24.426" y2="107.003"/><linearGradient id="d" gradientUnits="userSpaceOnUse" x1="71.695" x2="39.231" xlink:href="#b" y1="49.475" y2="67.877"/><linearGradient id="e" gradientUnits="userSpaceOnUse" x1="116.655" x2="129.776" xlink:href="#b" y1="107.588" y2="127.632"/><linearGradient id="f" gradientUnits="userSpaceOnUse" x1="116.894" x2="130.015" xlink:href="#b" y1="105.883" y2="125.927"/><linearGradient id="g" gradientUnits="userSpaceOnUse" x1="127.022" x2="139.4" xlink:href="#b" y1="92.053" y2="110.967"/><linearGradient id="h" gradientUnits="userSpaceOnUse" x1="136.087" x2="145.321" xlink:href="#b" y1="108.759" y2="122.865"/><circle cx="96.817" cy="83.846" r="44.483" stroke="#e9ecee" stroke-dasharray="5 10" stroke-linecap="round" stroke-linejoin="round" stroke-width="3" transform="matrix(.06191955 -.99808114 .99808114 .06191955 7.137023 175.285515)"/><path d="m74.644 8.276a4 4 0 0 1 4 0l47.604 27.484c1.237.714 2 2.035 2 3.464v54.966c0 1.43-.763 2.75-2 3.464l-47.604 27.486a3.998 3.998 0 0 1 -4 0l-47.603-27.485a4 4 0 0 1 -2-3.464v-54.967a4 4 0 0 1 2-3.464z" fill="url(#a)"/><g fill="url(#c)"><path d="m57.281 127.366c-14.965 0-26.68-27.882-26.68-63.479 0-12.095 1.4-23.846 4.024-33.954a2.13 2.13 0 0 1 2.613-1.533 2.13 2.13 0 0 1 1.533 2.613c-2.539 9.764-3.888 21.135-3.888 32.874.012 35.4 11.592 59.186 22.398 59.186 6.906 0 13.837-9.507 18.093-24.816a2.161 2.161 0 0 1 2.65-1.496 2.151 2.151 0 0 1 1.496 2.65c-4.943 17.761-13.039 27.955-22.239 27.955zm22.154-34.923a2.149 2.149 0 0 1 -2.11-2.551c1.557-8.145 2.343-16.891 2.343-26.005 0-12.39-1.485-24.288-4.294-34.407a2.138 2.138 0 0 1 1.497-2.638 2.144 2.144 0 0 1 2.637 1.497c2.92 10.488 4.453 22.779 4.453 35.548 0 9.384-.81 18.4-2.417 26.814a2.152 2.152 0 0 1 -2.11 1.742zm-4.76-69.685a2.163 2.163 0 0 1 -2-1.35c-4.23-10.622-9.836-16.707-15.393-16.707-5.495 0-11.064 5.987-15.271 16.425a2.146 2.146 0 0 1 -2.797 1.19 2.146 2.146 0 0 1 -1.19-2.797c4.979-12.327 11.812-19.109 19.257-19.109 7.52 0 14.401 6.893 19.381 19.405a2.134 2.134 0 0 1 -1.202 2.784c-.257.11-.527.16-.785.16z"/><path d="m93.983 103.348c-2.503 0-5.226-.209-8.12-.626-12.61-1.815-27.502-7.409-41.915-15.725-10.93-6.305-20.706-13.69-28.287-21.356a2.147 2.147 0 0 1 .013-3.03 2.147 2.147 0 0 1 3.03.012c7.31 7.397 16.78 14.536 27.378 20.657 13.972 8.047 28.311 13.444 40.393 15.186 11.249 1.619 19.296-.196 22.068-4.993 2.772-4.796.319-12.67-6.71-21.6-7.556-9.593-19.393-19.32-33.352-27.38-30.666-17.7-57.04-19.564-62.449-10.205-2.846 4.931-.208 13.051 7.238 22.263a2.145 2.145 0 1 1 -3.337 2.699c-8.746-10.831-11.457-20.473-7.617-27.109 7.482-12.953 37.486-9.163 68.311 8.636 14.413 8.329 26.693 18.423 34.579 28.446 8.292 10.537 10.795 19.92 7.054 26.41-2.932 5.065-9.298 7.715-18.277 7.715z"/><path d="m20.543 103.348c-8.966 0-15.296-2.637-18.24-7.727-3.741-6.49-1.239-15.86 7.053-26.41 7.875-10.01 20.166-20.117 34.58-28.434 14.412-8.327 29.304-13.91 41.914-15.725 13.272-1.914 22.656.6 26.397 7.09 3.079 5.336 1.975 12.56-3.189 20.914a59.77 59.77 0 0 1 -3.361 4.845 2.136 2.136 0 0 1 -3.005.393 2.136 2.136 0 0 1 -.393-3.005 56.497 56.497 0 0 0 3.116-4.49c4.219-6.832 5.336-12.696 3.128-16.51-2.773-4.797-10.807-6.612-22.068-4.993-12.082 1.742-26.421 7.14-40.38 15.198-13.96 8.06-25.81 17.787-33.353 27.379-7.029 8.942-9.482 16.817-6.71 21.601 2.895 5.017 11.445 6.759 23.441 4.772a2.157 2.157 0 0 1 2.466 1.766 2.15 2.15 0 0 1 -1.767 2.466c-3.47.588-6.685.87-9.629.87zm17.32-2.575a2.157 2.157 0 0 1 -2.072-1.595 2.15 2.15 0 0 1 1.52-2.625c6.06-1.62 12.426-3.95 18.903-6.918a2.135 2.135 0 0 1 2.846 1.054 2.145 2.145 0 0 1 -1.055 2.846c-6.698 3.08-13.297 5.496-19.59 7.176a2.804 2.804 0 0 1 -.551.062zm28.974-11.96a2.144 2.144 0 0 1 -1.03-4.023c.895-.491 1.79-.994 2.674-1.51 10.487-6.047 19.871-13.124 27.157-20.435.834-.834 2.196-.847 3.03-.013.847.835.847 2.196.012 3.03-7.543 7.58-17.246 14.892-28.053 21.135-.92.528-1.84 1.043-2.748 1.546-.33.184-.686.27-1.042.27z"/></g><path d="m57.282 78.3c-7.95 0-14.414-6.464-14.414-14.412 0-7.949 6.465-14.413 14.413-14.413 7.95 0 14.414 6.464 14.414 14.413 0 7.948-6.465 14.413-14.413 14.413zm0-24.532c-5.582 0-10.12 4.538-10.12 10.12 0 5.58 4.538 10.12 10.12 10.12 5.58 0 10.12-4.54 10.12-10.12 0-5.582-4.54-10.12-10.12-10.12z" fill="url(#d)"/><path d="m116.28 113.275v7.879c0 .669.357 1.288.937 1.623l6.831 3.945a1.875 1.875 0 0 0 1.875 0l6.832-3.945c.58-.335.937-.954.937-1.623v-7.89c0-.67-.357-1.288-.937-1.623l-6.831-3.944a1.872 1.872 0 0 0 -1.876.001l-6.833 3.954a1.875 1.875 0 0 0 -.935 1.623zm14.896 1.011v5.858c0 .401-.214.772-.561.973l-5.066 2.932a1.126 1.126 0 0 1 -1.127.001l-5.076-2.933a1.124 1.124 0 0 1 -.562-.974v-5.856c0-.402.214-.774.562-.975l5.076-2.932a1.126 1.126 0 0 1 1.127 0l5.066 2.932c.347.201.561.572.561.974z" fill="url(#e)" stroke="url(#f)" stroke-linejoin="round" stroke-width=".75"/><path d="m127.772 96.158a1.5 1.5 0 0 0 -.75 1.3v7.344c0 .536.286 1.032.75 1.299l6.363 3.673a1.5 1.5 0 0 0 1.5 0l6.363-3.673c.464-.267.75-.763.75-1.299v-7.345a1.5 1.5 0 0 0 -.75-1.299l-6.363-3.672a1.5 1.5 0 0 0 -1.5 0z" fill="url(#g)"/><path d="m136.837 111.711a1.5 1.5 0 0 0 -.75 1.299v5.039a1.5 1.5 0 0 0 .75 1.299l4.363 2.52a1.502 1.502 0 0 0 1.501 0l4.363-2.52a1.5 1.5 0 0 0 .75-1.299v-5.039a1.5 1.5 0 0 0 -.75-1.299l-4.363-2.519a1.502 1.502 0 0 0 -1.501 0z" fill="url(#h)"/></svg>