<svg fill="none" height="130" width="150" xmlns="http://www.w3.org/2000/svg" xmlns:xlink="http://www.w3.org/1999/xlink"><linearGradient id="a" gradientUnits="userSpaceOnUse" x1="253.219" x2="102.246" y1="153.083" y2="131.937"><stop offset="0" stop-color="#5cdbdd" stop-opacity=".03"/><stop offset="1" stop-color="#5cdbdd" stop-opacity=".21"/></linearGradient><linearGradient id="b"><stop offset="0" stop-color="#1f3d56"/><stop offset="1" stop-color="#335878"/></linearGradient><linearGradient id="c" gradientUnits="userSpaceOnUse" x1="38.606" x2="-2.878" xlink:href="#b" y1="79.689" y2="104.274"/><linearGradient id="d" gradientUnits="userSpaceOnUse" x1="86.088" x2="44.604" xlink:href="#b" y1="79.689" y2="104.274"/><linearGradient id="e" gradientUnits="userSpaceOnUse" x1="133.57" x2="92.086" xlink:href="#b" y1="79.689" y2="104.274"/><linearGradient id="f" gradientUnits="userSpaceOnUse" x1="109.94" x2="19.553" xlink:href="#b" y1=".516" y2="58.073"/><linearGradient id="g" gradientUnits="userSpaceOnUse" x1="117.503" x2="27.116" xlink:href="#b" y1="1.608" y2="59.165"/><circle cx="50.395" cy="69.545" r="44.483" stroke="#e9ecee" stroke-dasharray="5 10" stroke-linecap="round" stroke-linejoin="round" stroke-width="3" transform="matrix(.06191955 -.99808114 .99808114 .06191955 -22.136989 115.537104)"/><rect fill="url(#a)" height="92.305" rx="10" transform="matrix(-.70710678 -.70710678 .70710678 -.70710678 52.321534 280.320289)" width="87.014" x="84.217" y="129.324"/><g clip-rule="evenodd" fill-rule="evenodd"><path d="m18.416 82.543c.543-1.142 2.168-1.142 2.71 0l4.002 8.429a1.5 1.5 0 0 0 1.158.843l9.22 1.225c1.248.166 1.75 1.702.839 2.572l-6.755 6.452c-.366.35-.531.859-.44 1.356l1.693 9.205c.228 1.242-1.086 2.193-2.194 1.588l-8.16-4.451a1.501 1.501 0 0 0 -1.436 0l-8.16 4.451c-1.108.605-2.421-.346-2.193-1.588l1.692-9.205a1.5 1.5 0 0 0 -.439-1.356l-6.755-6.452c-.91-.87-.41-2.406.838-2.572l9.221-1.225a1.5 1.5 0 0 0 1.158-.843z" fill="url(#c)"/><path d="m65.898 82.543c.543-1.142 2.168-1.142 2.71 0l4.002 8.429a1.5 1.5 0 0 0 1.157.843l9.221 1.225c1.248.166 1.749 1.702.839 2.572l-6.755 6.452c-.366.35-.531.859-.44 1.356l1.693 9.205c.228 1.242-1.086 2.193-2.194 1.588l-8.16-4.451a1.501 1.501 0 0 0 -1.436 0l-8.16 4.451c-1.108.605-2.421-.346-2.193-1.588l1.692-9.205a1.501 1.501 0 0 0 -.439-1.356l-6.755-6.452c-.91-.87-.41-2.406.838-2.572l9.221-1.225a1.5 1.5 0 0 0 1.158-.843z" fill="url(#d)"/><path d="m113.381 82.543c.542-1.142 2.167-1.142 2.71 0l4.001 8.429a1.5 1.5 0 0 0 1.158.843l9.221 1.225c1.247.166 1.748 1.702.838 2.572l-6.755 6.452c-.366.35-.531.859-.439 1.356l1.692 9.205c.228 1.242-1.085 2.193-2.193 1.588l-8.16-4.451a1.502 1.502 0 0 0 -1.437 0l-8.159 4.451c-1.108.605-2.422-.346-2.194-1.588l1.693-9.205a1.501 1.501 0 0 0 -.44-1.356l-6.755-6.452c-.91-.87-.41-2.406.839-2.572l9.22-1.225a1.5 1.5 0 0 0 1.158-.843z" fill="url(#e)"/><path d="m24.567 43.202c0-23.575 19.111-42.686 42.686-42.686s42.687 19.111 42.687 42.686c0 13.215-6.008 25.028-15.433 32.855a1.979 1.979 0 0 1 -2.537-.008c-3.26-2.738-7.264-4.633-10.697-6.104-.527-.226-1.051-.447-1.56-.66-1.089-.458-2.104-.885-2.916-1.27-.604-.286-1.19-.592-1.676-.922-.418-.285-1.08-.794-1.406-1.591-.617-1.507-.96-2.696-1.13-3.997-.16-1.22-.16-2.492-.16-4.076v-.1c0-1.204.371-2.462.805-3.557.447-1.128 1.029-2.249 1.588-3.223a40.431 40.431 0 0 1 2.198-3.401l.041-.057.012-.016.004-.004v-.002c.001 0 .002-.001 1.591 1.178l-1.59-1.18c.2-.267.463-.48.767-.62l.033-.016a5.071 5.071 0 0 0 .93-.657c.567-.505 1.164-1.258 1.427-2.324.14-.573.07-1.298-.154-1.98a3.967 3.967 0 0 0 -.335-.767 1.763 1.763 0 0 0 -.06-.094 1.979 1.979 0 0 1 -.64-2.145c.761-2.374 1.848-7.542.699-12.054-.561-2.203-1.633-4.171-3.473-5.636-1.841-1.466-4.635-2.574-8.903-2.72a1.863 1.863 0 0 1 -.113-.006c-4.296.147-7.113 1.256-8.97 2.725-1.856 1.467-2.936 3.437-3.503 5.638-1.161 4.51-.076 9.675.686 12.05a1.979 1.979 0 0 1 -.641 2.145 1.763 1.763 0 0 0 -.06.094 3.967 3.967 0 0 0 -.335.765c-.223.683-.294 1.408-.153 1.982.262 1.065.86 1.818 1.426 2.323.283.252.547.432.73.544.092.055.162.093.2.113l.034.017c.303.139.567.352.766.62l-1.59 1.18 1.59-1.18v.001l.006.007.011.016.041.056.148.204a40.431 40.431 0 0 1 2.05 3.197c.56.975 1.142 2.096 1.588 3.223.434 1.096.805 2.354.805 3.557v.1c0 1.584 0 2.857-.16 4.076-.17 1.301-.512 2.49-1.13 3.997-.326.798-.987 1.306-1.406 1.591-.485.33-1.072.637-1.676.923-.812.384-1.827.811-2.916 1.269-.508.214-1.033.434-1.56.66-3.434 1.473-7.44 3.367-10.698 6.107a1.979 1.979 0 0 1 -2.538.007c-9.424-7.827-15.43-19.64-15.43-32.853zm29.936 6.569a9.028 9.028 0 0 1 -1.435-1.046c-.985-.88-2.132-2.288-2.635-4.332-.374-1.518-.134-3.03.234-4.157.189-.576.429-1.109.693-1.555l.03-.05c-.814-2.989-1.714-8.272-.444-13.207.732-2.84 2.203-5.637 4.88-7.755 2.675-2.115 6.372-3.409 11.296-3.577h.021c.064-.003.23-.008.431.01 4.86.178 8.514 1.47 11.16 3.576 2.661 2.12 4.12 4.917 4.842 7.755 1.256 4.932.355 10.214-.46 13.202l.03.05c.265.445.505.979.693 1.555.368 1.126.608 2.639.235 4.156-.504 2.044-1.65 3.453-2.636 4.332a9.03 9.03 0 0 1 -1.435 1.046 36.498 36.498 0 0 0 -1.753 2.747c-.505.88-.988 1.82-1.34 2.709-.365.92-.527 1.632-.527 2.099 0 1.71.004 2.726.126 3.662.108.826.317 1.63.778 2.787l.062.043c.23.157.598.36 1.142.617.733.347 1.611.717 2.644 1.15.526.222 1.091.46 1.698.72 3.075 1.318 6.922 3.096 10.353 5.659 7.86-7.09 12.796-17.35 12.796-28.765 0-21.39-17.34-38.729-38.729-38.729s-38.728 17.34-38.728 38.729c0 11.413 4.934 21.672 12.793 28.763 3.431-2.563 7.279-4.342 10.355-5.66.606-.261 1.172-.499 1.698-.72 1.033-.434 1.912-.803 2.644-1.15.544-.258.913-.46 1.143-.617l.062-.044c.46-1.157.67-1.96.777-2.787.123-.935.126-1.953.126-3.662 0-.467-.161-1.178-.526-2.099-.352-.888-.835-1.83-1.34-2.708a36.475 36.475 0 0 0 -1.754-2.747zm.352-9.207a.102.102 0 0 1 -.002.002zm24.797.003.002.003c-.007-.007-.007-.009-.002-.003z" fill="url(#f)"/></g><path d="m67.252 18.048c.037.003.075.006.113.007 4.268.145 7.062 1.253 8.903 2.72 1.84 1.464 2.912 3.432 3.473 5.635 1.149 4.512.062 9.68-.7 12.055a1.979 1.979 0 0 0 .642 2.144l.06.094c.102.173.227.438.334.766.223.683.295 1.408.154 1.981-.263 1.066-.86 1.819-1.427 2.324a5.071 5.071 0 0 1 -.73.543c-.092.056-.161.093-.2.114l-.033.016a1.978 1.978 0 0 0 -.766.62l1.589 1.18a331.969 331.969 0 0 0 -1.59-1.178l-.001.002-.004.004-.012.016-.04.057a37.639 37.639 0 0 0 -.657.94 40.431 40.431 0 0 0 -1.541 2.461c-.56.974-1.142 2.095-1.589 3.223-.434 1.095-.804 2.353-.804 3.557v.1c0 1.584 0 2.857.159 4.075.17 1.302.513 2.491 1.13 3.998.327.797.988 1.306 1.406 1.59.486.331 1.072.637 1.676.923.812.385 1.827.812 2.916 1.27.509.213 1.033.434 1.56.66 3.433 1.472 7.438 3.366 10.697 6.105a1.979 1.979 0 0 0 2.537.007c9.425-7.827 15.433-19.64 15.433-32.855 0-23.575-19.112-42.686-42.687-42.686s-42.686 19.111-42.686 42.686c0 13.214 6.006 25.026 15.43 32.853a1.979 1.979 0 0 0 2.538-.007c3.259-2.74 7.264-4.634 10.697-6.106.528-.227 1.053-.447 1.561-.661 1.09-.458 2.104-.885 2.916-1.27.604-.285 1.19-.591 1.676-.922.419-.285 1.08-.793 1.407-1.59.617-1.507.96-2.697 1.13-3.998.16-1.219.16-2.492.159-4.075v-.1c0-1.204-.37-2.462-.805-3.558-.446-1.127-1.028-2.248-1.588-3.222a40.431 40.431 0 0 0 -2.198-3.402l-.04-.056-.012-.016-.005-.007h-.001m9.82-29.017s0 0 0 0zm0 0c-4.296.147-7.113 1.256-8.97 2.725-1.856 1.467-2.936 3.437-3.503 5.638-1.161 4.51-.076 9.675.686 12.05a1.979 1.979 0 0 1 -.641 2.145 1.763 1.763 0 0 0 -.06.094 3.967 3.967 0 0 0 -.335.765c-.223.683-.294 1.408-.153 1.982.262 1.065.86 1.818 1.426 2.323.283.252.547.432.73.544.092.055.162.093.2.113l.034.017c.303.139.567.352.766.62m0 0-1.59 1.18zm-.116 16.632-.01.01m19.884-.006s.005.003.011.01m-22.823-14.014a7.7 7.7 0 0 0 .125.075 36.475 36.475 0 0 1 1.753 2.747c.506.879.989 1.82 1.34 2.708.366.92.527 1.633.527 2.1 0 1.709-.003 2.726-.126 3.661-.108.827-.316 1.63-.777 2.787a2.292 2.292 0 0 1 -.062.044c-.23.157-.599.36-1.143.617-.732.347-1.61.716-2.644 1.15-.526.221-1.092.459-1.699.72-3.075 1.318-6.923 3.097-10.354 5.66-7.859-7.09-12.793-17.35-12.793-28.763 0-21.39 17.339-38.729 38.728-38.729 21.39 0 38.729 17.34 38.729 38.729 0 11.414-4.936 21.674-12.796 28.765-3.43-2.563-7.278-4.341-10.353-5.66-.607-.26-1.172-.498-1.698-.718-1.033-.434-1.911-.804-2.644-1.15-.544-.258-.912-.46-1.142-.618a2.225 2.225 0 0 1 -.062-.043c-.461-1.158-.67-1.96-.778-2.787-.122-.936-.126-1.953-.126-3.662 0-.467.162-1.179.527-2.1.352-.888.835-1.829 1.34-2.708a36.498 36.498 0 0 1 1.753-2.747 9.03 9.03 0 0 0 1.435-1.046c.986-.879 2.132-2.288 2.636-4.332.373-1.517.133-3.03-.235-4.156a7.893 7.893 0 0 0 -.693-1.556l-.03-.05c.815-2.987 1.716-8.269.46-13.2-.723-2.84-2.181-5.637-4.842-7.756-2.646-2.107-6.3-3.398-11.16-3.576-.2-.018-.367-.013-.431-.01h-.021c-4.924.168-8.62 1.462-11.295 3.577-2.678 2.117-4.15 4.915-4.88 7.755-1.271 4.935-.371 10.218.443 13.207l-.03.05c-.264.446-.504.98-.693 1.555-.368 1.127-.608 2.639-.234 4.157.503 2.044 1.65 3.452 2.636 4.332.493.44.959.758 1.309.971zm.477-9.132a.102.102 0 0 1 -.002.002zm24.797.003.002.003c-.007-.007-.007-.009-.002-.003z" stroke="url(#g)" stroke-linejoin="round"/></svg>