<?xml version="1.0" encoding="utf-8"?>
<svg width="124" height="121" fill="none" xmlns="http://www.w3.org/2000/svg"><circle cx="87.429" cy="68.674" r="32.072" transform="rotate(-86.45 87.429 68.674)" stroke="#E9ECEE" stroke-width="3" stroke-linecap="round" stroke-linejoin="round" stroke-dasharray="5 10"/><rect x=".601" y="54.575" width="76.739" height="76.739" rx="10" transform="rotate(-45 .601 54.575)" fill="url(#paint0_linear)"/><g filter="url(#filter0_d)"><path d="M71.952 86.651c0-.001-.002-.003-.004-.002-1.356.312-2.73.542-4.112.69-1.134.121-2.088-.794-2.088-1.935v-9.386c0-1.105.896-1.998 1.997-1.906.384.032.77.07 1.156.111a1.59 1.59 0 001.746-1.577c0-.808-.619-1.494-1.423-1.576a40.745 40.745 0 00-1.522-.128c-1.076-.07-1.93-.948-1.93-2.026V57.224a2 2 0 012-2h15.556c.095.007.19.007.284 0 .865 0 1.577-.712 1.577-1.577a58.959 58.959 0 00-2.933-18.53 2.12 2.12 0 011.185-2.603 49.14 49.14 0 003.666-1.745c.804-.424 1.801-.292 2.406.387a33.785 33.785 0 018.557 22.49c0 .866.712 1.578 1.577 1.578s1.577-.712 1.577-1.577a36.974 36.974 0 00-11.145-26.45c-.07-.068-.133-.142-.199-.214a1.652 1.652 0 00-.153-.146c-.074-.063-.151-.123-.222-.19a37.06 37.06 0 00-16.662-9.013 1.61 1.61 0 00-.339-.078 36.732 36.732 0 00-8.27-.962h-.126a36.751 36.751 0 00-8.278.954c-.115.014-.23.04-.339.079a36.964 36.964 0 00-16.626 9c-.084.08-.177.15-.266.225-.05.043-.099.089-.144.137-.067.073-.13.148-.201.217a36.951 36.951 0 00.138 53.009c.089.11.192.209.307.291a37.059 37.059 0 0016.87 9.169.96.96 0 00.206.047 36.8 36.8 0 008.333.978h.126c2.843 0 5.676-.328 8.443-.978a1.582 1.582 0 001.27-1.546 1.584 1.584 0 00-1.995-1.525zm-14.983.107a.002.002 0 00.002-.003 56.898 56.898 0 01-5.155-8.766 1.872 1.872 0 011.233-2.627 45.674 45.674 0 017.478-1.233c1.128-.09 2.067.82 2.067 1.952v10.836c0 .317-.264.57-.58.55a33.18 33.18 0 01-5.045-.705c-.003 0-.002-.004 0-.004zm-4.74-1.395c.003 0 .003-.004 0-.005a33.904 33.904 0 01-7.986-4.327 1.518 1.518 0 01.26-2.614c.532-.252 1.07-.494 1.611-.725.989-.422 2.113.066 2.561 1.042a61.682 61.682 0 003.554 6.629zm4.278-64.2c.282-.406.71-.689 1.194-.784a33.21 33.21 0 012.808-.425c1.133-.123 2.085.792 2.085 1.932v9.328c0 1.131-.938 2.041-2.066 1.952a45.658 45.658 0 01-7.502-1.234 1.872 1.872 0 01-1.233-2.628 56.885 56.885 0 014.714-8.141zm-7.846 7.4c-.45.974-1.573 1.461-2.56 1.04a45.256 45.256 0 01-1.175-.521c-1.278-.589-1.453-2.288-.305-3.102.748-.53 1.517-1.03 2.305-1.497 1.643-.975 3.29.884 2.444 2.597-.243.49-.48.985-.709 1.483zm21.98-8.184c.485.095.912.378 1.194.784a56.788 56.788 0 014.715 8.148 1.872 1.872 0 01-1.235 2.627 45.755 45.755 0 01-7.502 1.229c-1.127.089-2.065-.822-2.065-1.953v-9.328c0-1.14.952-2.055 2.085-1.932.941.101 1.878.243 2.808.425zm-9.98 15.957c1.076.078 1.933.958 1.933 2.038V50.07a2 2 0 01-2 2H48.39c-1.124 0-2.031-.927-1.962-2.049a56.024 56.024 0 012.664-13.94c.331-1.012 1.42-1.546 2.448-1.272a49.081 49.081 0 009.121 1.528zm-.067 18.888a2 2 0 012 2V68.92c0 1.08-.857 1.96-1.934 2.037-3.081.22-6.135.732-9.12 1.527-1.03.274-2.118-.26-2.449-1.272a56.024 56.024 0 01-2.664-13.94c-.07-1.122.838-2.048 1.962-2.048h12.205zm21.32-5.203c.07 1.122-.837 2.05-1.961 2.05H67.748a2 2 0 01-2-2V38.373c0-1.08.857-1.96 1.934-2.038a49.083 49.083 0 009.12-1.527c1.03-.274 2.118.26 2.448 1.272a56.02 56.02 0 012.665 13.94zm-2.94-22.94c-.847-1.713.8-3.572 2.444-2.598.787.467 1.555.965 2.303 1.494 1.15.814.975 2.517-.306 3.105-.389.18-.78.353-1.174.52-.987.421-2.11-.065-2.56-1.04-.23-.497-.465-.99-.708-1.48zm-39.105 2.954c-.005 0-.007.007-.002.01a49.128 49.128 0 005.38 2.636 1.666 1.666 0 01.94 2.058 59.124 59.124 0 00-2.926 15.377c-.06 1.085-.945 1.954-2.032 1.954h-8.823c-1.141 0-2.057-.954-1.933-2.088a33.8 33.8 0 019.4-19.938.005.005 0 00-.004-.009zm-9.4 27.275c-.121-1.134.794-2.087 1.934-2.087h8.829c1.086 0 1.97.867 2.032 1.952a59.122 59.122 0 002.828 15.003 2.12 2.12 0 01-1.178 2.597 49.149 49.149 0 00-3.675 1.77c-.806.43-1.808.3-2.415-.382A33.801 33.801 0 0130.47 57.31z" fill="url(#paint1_linear)"/></g><g filter="url(#filter1_d)"><path d="M99.647 67.049c-.865 0-1.576.711-1.576 1.576v.97a18.937 18.937 0 01-8.428 15.767 4.014 4.014 0 01-4.43-.023 18.934 18.934 0 01-8.428-15.744V66.18a2.32 2.32 0 011.916-2.285 14.057 14.057 0 008.01-4.549.97.97 0 011.434 0 14.058 14.058 0 008.01 4.549l3.209.583a1.586 1.586 0 001.862-1.553c0-.759-.548-1.416-1.295-1.553l-3.209-.583a10.86 10.86 0 01-6.204-3.516l-1.908-2.184a1.618 1.618 0 00-2.365 0l-1.908 2.176a10.86 10.86 0 01-6.204 3.516l-3.209.583a1.582 1.582 0 00-1.293 1.577v6.677a22.038 22.038 0 009.831 18.37l3.09 2.065a1.58 1.58 0 001.75 0l3.091-2.066a22.038 22.038 0 009.831-18.392v-.97c0-.865-.712-1.576-1.577-1.576z" fill="url(#paint2_linear)"/></g><g filter="url(#filter2_d)"><path d="M92.45 69.083l-4.406 4.4a1.908 1.908 0 01-2.697-.001 1.588 1.588 0 10-2.255 2.239l2.46 2.46a1.579 1.579 0 002.23 0l6.899-6.875c.261-.29.407-.666.407-1.056a1.576 1.576 0 00-2.638-1.167z" fill="url(#paint3_linear)"/></g><defs><linearGradient id="paint0_linear" x1="149.645" y1="74.327" x2="16.821" y2="54.592" gradientUnits="userSpaceOnUse"><stop stop-color="#5CDBDD" stop-opacity=".03"/><stop offset="1" stop-color="#5CDBDD" stop-opacity=".21"/></linearGradient><linearGradient id="paint1_linear" x1="101.224" y1="16.594" x2="17.768" y2="63.901" gradientUnits="userSpaceOnUse"><stop stop-color="#1F3D56"/><stop offset="1" stop-color="#335878"/></linearGradient><linearGradient id="paint2_linear" x1="101.226" y1="54.574" x2="66.764" y2="69.656" gradientUnits="userSpaceOnUse"><stop stop-color="#1F3D56"/><stop offset="1" stop-color="#335878"/></linearGradient><linearGradient id="paint3_linear" x1="95.088" y1="68.673" x2="82.743" y2="77.416" gradientUnits="userSpaceOnUse"><stop stop-color="#1F3D56"/><stop offset="1" stop-color="#335878"/></linearGradient><filter id="filter0_d" x="7.118" y="6.594" width="114.106" height="114.106" filterUnits="userSpaceOnUse" color-interpolation-filters="sRGB"><feFlood flood-opacity="0" result="BackgroundImageFix"/><feColorMatrix in="SourceAlpha" values="0 0 0 0 0 0 0 0 0 0 0 0 0 0 0 0 0 0 127 0"/><feOffset dy="10"/><feGaussianBlur stdDeviation="10"/><feColorMatrix values="0 0 0 0 0.122344 0 0 0 0 0.237341 0 0 0 0 0.3375 0 0 0 0.26 0"/><feBlend in2="BackgroundImageFix" result="effect1_dropShadow"/><feBlend in="SourceGraphic" in2="effect1_dropShadow" result="shape"/></filter><filter id="filter1_d" x="53.631" y="44.574" width="67.595" height="75.743" filterUnits="userSpaceOnUse" color-interpolation-filters="sRGB"><feFlood flood-opacity="0" result="BackgroundImageFix"/><feColorMatrix in="SourceAlpha" values="0 0 0 0 0 0 0 0 0 0 0 0 0 0 0 0 0 0 127 0"/><feOffset dy="10"/><feGaussianBlur stdDeviation="10"/><feColorMatrix values="0 0 0 0 0.122344 0 0 0 0 0.237341 0 0 0 0 0.3375 0 0 0 0.26 0"/><feBlend in2="BackgroundImageFix" result="effect1_dropShadow"/><feBlend in="SourceGraphic" in2="effect1_dropShadow" result="shape"/></filter><filter id="filter2_d" x="62.631" y="58.673" width="52.457" height="49.97" filterUnits="userSpaceOnUse" color-interpolation-filters="sRGB"><feFlood flood-opacity="0" result="BackgroundImageFix"/><feColorMatrix in="SourceAlpha" values="0 0 0 0 0 0 0 0 0 0 0 0 0 0 0 0 0 0 127 0"/><feOffset dy="10"/><feGaussianBlur stdDeviation="10"/><feColorMatrix values="0 0 0 0 0.122344 0 0 0 0 0.237341 0 0 0 0 0.3375 0 0 0 0.26 0"/><feBlend in2="BackgroundImageFix" result="effect1_dropShadow"/><feBlend in="SourceGraphic" in2="effect1_dropShadow" result="shape"/></filter></defs></svg>