<svg viewBox="0 0 116.4 100.2" xmlns="http://www.w3.org/2000/svg" xmlns:xlink="http://www.w3.org/1999/xlink"><linearGradient id="a" gradientTransform="matrix(.70710678 -.70710678 -.70710678 -.70710678 204.781426 -188.471904)" gradientUnits="userSpaceOnUse" x1="-172.491" x2="-305.315" y1="-75.035" y2="-55.3"><stop offset="0" stop-color="#5cdbdd" stop-opacity=".03"/><stop offset="1" stop-color="#5cdbdd" stop-opacity=".21"/></linearGradient><linearGradient id="b"><stop offset="0" stop-color="#1f3d56"/><stop offset="1" stop-color="#335878"/></linearGradient><linearGradient id="c" gradientTransform="matrix(1 0 0 -1 0 101.092)" gradientUnits="userSpaceOnUse" x1="103.026" x2="19.57" xlink:href="#b" y1="77.405" y2="30.098"/><linearGradient id="d" gradientTransform="matrix(1 0 0 -1 0 101.092)" gradientUnits="userSpaceOnUse" x1="100.829" x2="66.367" xlink:href="#b" y1="41.042" y2="25.96"/><linearGradient id="e" gradientTransform="matrix(1 0 0 -1 0 101.092)" gradientUnits="userSpaceOnUse" x1="90.497" x2="78.153" xlink:href="#b" y1="36.657" y2="27.914"/><circle cx="82.7" cy="64.2" r="32.1" style="fill:none;stroke:#e9ecee;stroke-width:3;stroke-linecap:round;stroke-linejoin:round;stroke-dasharray:5 10"/><path d="m2.9 43 40.1-40.1c4-3.9 10.3-3.9 14.2 0l40.1 40.1c3.9 3.9 3.9 10.2 0 14.1l-40.1 40.2c-3.9 3.9-10.2 3.9-14.1 0l-40.2-40.1c-3.9-3.9-3.9-10.2 0-14.2z" fill="url(#a)"/><path d="m67.2 82.2c-1.4.3-2.7.5-4.1.7-1.1.1-2.1-.8-2.1-2v-9.4c0-1.1.9-2 2-1.9.4 0 .8.1 1.2.1h.2c.9 0 1.6-.7 1.6-1.6 0-.8-.6-1.5-1.4-1.6-.5-.1-1-.1-1.5-.1-1.1-.1-1.9-.9-1.9-2v-11.6c0-1.1.9-2 2-2h15.9c.9 0 1.6-.7 1.6-1.6 0-6.3-1-12.6-2.9-18.5-.3-1 .2-2.2 1.2-2.6 1.2-.5 2.5-1.1 3.7-1.7.8-.4 1.8-.3 2.4.4 5.5 6.2 8.6 14.2 8.6 22.5 0 .9.7 1.6 1.6 1.6s1.6-.7 1.6-1.6c0-10-4-19.5-11.1-26.5l-.2-.2c0-.1-.1-.1-.2-.1-.1-.1-.2-.1-.2-.2-4.7-4.4-10.4-7.5-16.7-9-.1 0-.2-.1-.3-.1-2.7-.6-5.5-1-8.3-1h-.1c-2.8 0-5.6.3-8.3 1-.1 0-.2 0-.3.1-6.2 1.5-12 4.6-16.6 9-.1.1-.2.1-.3.2-.1 0-.1.1-.1.1l-.2.2c-7.1 6.9-11.1 16.5-11.1 26.4 0 10 4.1 19.6 11.3 26.6l.3.3c4.7 4.5 10.5 7.6 16.9 9.2h.2c2.7.6 5.5 1 8.3 1h.1c2.8 0 5.7-.3 8.4-1 .7-.1 1.3-.8 1.3-1.5 0-.9-.7-1.6-1.6-1.6-.6-.1-.8 0-.9 0zm-15 .1c-2-2.8-3.7-5.7-5.2-8.8-.5-1.1.1-2.3 1.2-2.6 2.5-.6 5-1 7.5-1.2 1.1-.1 2.1.8 2.1 2v10.8c0 .3-.3.6-.6.6-1.6-.2-3.3-.4-5-.8zm-4.7-1.4c-2.8-1.1-5.5-2.5-8-4.3-.9-.7-.8-2.1.3-2.6.5-.3 1.1-.5 1.6-.7 1-.4 2.1.1 2.6 1 1 2.3 2.2 4.5 3.5 6.6zm4.3-64.2c.3-.4.7-.7 1.2-.8.9-.2 1.9-.3 2.8-.4 1.1-.1 2.1.8 2.1 1.9v9.3c0 1.1-.9 2-2.1 2-2.5-.2-5-.6-7.5-1.2-1.2-.3-1.7-1.6-1.2-2.6 1.3-2.9 2.9-5.6 4.7-8.2zm-7.9 7.4c-.4 1-1.6 1.5-2.6 1-.4-.2-.8-.3-1.2-.5-1.3-.6-1.5-2.3-.3-3.1.7-.5 1.5-1 2.3-1.5 1.6-1 3.3.9 2.4 2.6-.1.5-.4 1-.6 1.5zm22-8.2c.5.1.9.4 1.2.8 1.8 2.6 3.4 5.3 4.7 8.1.5 1.1-.1 2.3-1.2 2.6-2.5.6-5 1-7.5 1.2-1.1.1-2.1-.8-2.1-2v-9.3c0-1.1 1-2.1 2.1-1.9.9.2 1.9.3 2.8.5zm-10 16c1.1.1 1.9 1 1.9 2v11.7c0 1.1-.9 2-2 2h-12.2c-1.1 0-2-.9-2-2 .3-4.7 1.2-9.4 2.7-13.9.3-1 1.4-1.5 2.4-1.3 3.1.8 6.1 1.3 9.2 1.5zm0 18.9c1.1 0 2 .9 2 2v11.7c0 1.1-.9 2-1.9 2-3.1.2-6.1.7-9.1 1.5-1 .3-2.1-.3-2.4-1.3-1.5-4.5-2.4-9.2-2.7-13.9-.1-1.1.8-2 2-2zm21.3-5.2c.1 1.1-.8 2-2 2h-12.2c-1.1 0-2-.9-2-2v-11.7c0-1.1.9-2 1.9-2 3.1-.2 6.1-.7 9.1-1.5 1-.3 2.1.3 2.4 1.3 1.6 4.4 2.5 9.1 2.8 13.9zm-3-23c-.8-1.7.8-3.6 2.4-2.6.8.5 1.6 1 2.3 1.5 1.2.8 1 2.5-.3 3.1-.4.2-.8.4-1.2.5-1 .4-2.1-.1-2.6-1-.1-.5-.3-1-.6-1.5zm-39.1 3c1.7 1 3.5 1.9 5.4 2.6.8.3 1.2 1.2.9 2.1-1.7 5-2.6 10.1-2.9 15.4-.1 1.1-.9 2-2 2h-8.8c-1.1 0-2.1-1-1.9-2.1.7-7.6 4-14.6 9.3-20zm-9.4 27.3c-.1-1.1.8-2.1 1.9-2.1h8.8c1.1 0 2 .9 2 2 .3 5.1 1.2 10.1 2.8 15 .3 1-.2 2.2-1.2 2.6-1.2.5-2.5 1.1-3.7 1.8-.8.4-1.8.3-2.4-.4-4.5-5.4-7.4-11.9-8.2-18.9z" fill="url(#c)"/><path d="m94.9 62.6c-.9 0-1.6.7-1.6 1.6v1c0 6.3-3.2 12.3-8.4 15.8-1.3.9-3.1.9-4.4 0-5.3-3.5-8.4-9.4-8.4-15.7v-3.4c0-1.1.8-2.1 1.9-2.3 3.1-.6 5.9-2.2 8-4.5.4-.4 1.1-.4 1.4 0 2.1 2.4 4.9 4 8 4.5l3.2.6h.3c.9 0 1.6-.7 1.6-1.6 0-.8-.5-1.4-1.3-1.6l-3.2-.7c-2.4-.4-4.6-1.7-6.2-3.5l-1.9-2.2c-.3-.3-.7-.5-1.2-.5s-.9.2-1.2.5l-1.9 2.2c-1.6 1.8-3.8 3.1-6.2 3.5l-3.2.6c-.8.1-1.3.8-1.3 1.6v6.7c0 7.4 3.7 14.3 9.8 18.4l3.1 2.1c.5.4 1.2.4 1.8 0l3.1-2.1c6.2-4.1 9.8-11 9.8-18.4v-1c0-.9-.7-1.6-1.6-1.6z" fill="url(#d)"/><path d="m87.7 64.6-4.4 4.4c-.7.7-2 .7-2.7 0-.3-.3-.7-.5-1.1-.5-.9 0-1.6.7-1.6 1.6 0 .4.2.8.5 1.1l2.5 2.5c.3.3.7.5 1.1.5s.8-.2 1.1-.5l6.9-6.9c.3-.3.4-.7.4-1.1 0-.9-.7-1.6-1.6-1.6-.4.1-.8.3-1.1.5z" fill="url(#e)"/></svg>