<svg xmlns="http://www.w3.org/2000/svg" viewBox="0 0 132.5 97.9"><circle cx="88" cy="60" r="36.3" fill="none" stroke="#e9ecee" stroke-width="3" stroke-linecap="round" stroke-linejoin="round" stroke-dasharray="5,10"/><linearGradient id="a" gradientUnits="userSpaceOnUse" x1="188.659" y1="31.997" x2="18.332" y2="57.305" gradientTransform="matrix(1 0 0 -1 0 100.698)"><stop offset="0" stop-color="#5cdbdd" stop-opacity=".03"/><stop offset="1" stop-color="#5cdbdd" stop-opacity=".21"/></linearGradient><path d="M51.3.5c1.2-.7 2.8-.7 4 0l38.6 22.3c1.2.7 2 2 2 3.5v44.6c0 1.4-.8 2.7-2 3.5L55.3 96.6c-1.2.7-2.8.7-4 0L12.7 74.3c-1.2-.7-2-2-2-3.5V26.3c0-1.4.8-2.7 2-3.5L51.3.5z" fill="url(#a)"/><linearGradient id="b" gradientUnits="userSpaceOnUse" x1="61.548" y1="62.304" x2="51.587" y2="59.936" gradientTransform="matrix(1 0 0 -1 0 100.698)"><stop offset="0" stop-color="#1f3d56"/><stop offset="1" stop-color="#335878"/></linearGradient><path d="M55.6 31.6c-1 .6-1.3 1.7-.7 2.7 3.2 5.6-1.3 10.3-1.5 10.6-.7.8-.7 2 0 2.8.4.4.8.6 1.4.6s1-.1 1.4-.6c2.4-2.5 5.9-8.8 2.1-15.2-.6-1-1.9-1.4-2.7-.9z" fill="url(#b)"/><linearGradient id="c" gradientUnits="userSpaceOnUse" x1="62.013" y1="81.983" x2="52.232" y2="79.122" gradientTransform="matrix(1 0 0 -1 0 100.698)"><stop offset="0" stop-color="#1f3d56"/><stop offset="1" stop-color="#335878"/></linearGradient><path d="M59.3 16.5c1-.6 1.3-1.7.7-2.7-.6-1-1.7-1.3-2.7-.7-.4.3-3.9 2.5-4.2 6.1-.1 2.5 1.1 4.7 3.6 7 .4.3.8.4 1.3.4.6 0 1.1-.3 1.5-.7.7-.8.6-2.1-.3-2.8-1.1-.8-2.4-2.2-2.2-3.6.1-1.3 1.8-2.5 2.3-3z" fill="url(#c)"/><linearGradient id="d" gradientUnits="userSpaceOnUse" x1="105.084" y1="84.299" x2="31.278" y2="46.184" gradientTransform="matrix(1 0 0 -1 0 100.698)"><stop offset="0" stop-color="#1f3d56"/><stop offset="1" stop-color="#335878"/></linearGradient><path d="M93.5 19.2c-1.1-.9-2-2-2.4-3.4-1.3-4.5-5-8-9.6-9-1.2-.3-2.4-.9-3.3-1.8-1.9-2-4.6-3.2-7.4-3.2-.9 0-1.8.1-2.6.4-1.4.4-2.8.4-4.2 0-.9-.2-1.7-.4-2.6-.4C58.6 1.8 56 3 54 5c-.9.9-2 1.6-3.3 1.8-4.5 1-8.2 4.4-9.6 9-.4 1.3-1.3 2.5-2.4 3.4-2.5 2-4.1 5.1-4.1 8.6 0 1.6.3 3.1.9 4.5.6 1.4.7 2.9.3 4.3-.3.9-.4 1.9-.4 2.9 0 2.9 1.1 5.6 2.9 7.7.7.8 1.3 1.9 1.4 3 .8 4.7 3.7 8.8 7.8 10.8 1.2.6 2.1 1.6 2.7 2.8 2.1 4.2 6.3 7 11 7 1.1 0 2.1-.2 3-.5 1.1-.3 2.3-.3 3.4 0 1 .3 2 .5 3 .5 4.7 0 8.9-2.7 11-7 .6-1.2 1.5-2.2 2.7-2.8 4-2.1 7-6.1 7.8-10.8.2-1.1.7-2.2 1.5-3.1 1.8-2.1 2.9-4.8 2.9-7.7 0-.9-.1-1.9-.3-2.7-.4-1.5-.2-3.2.4-4.7.5-1.3.8-2.8.8-4.3.3-3.4-1.3-6.5-3.9-8.5zM64 66.2s0 .1 0 0c-4.4 1.7-9.1-1.2-10.5-5.6-.1-.6-.3-1.1-.3-1.8-.1-.7.2-1.2.5-1.5.3-.3.7-.6 1.1-.6.5-.1 1.2 0 1.8.3l1.1.8c.8.7 2.1.6 2.7-.3.7-.8.6-2.1-.3-2.7L59 54c-2-1.5-4.5-1.7-6.6-.6-2.2 1.2-5.2 2.8-6.7.7-1.2-1.6-1.9-3.6-2.1-5.6 0-.3 0-.6.1-.8.6-3 2.6-4.9 5.6-5.7 1-.3 1.7-1.3 1.4-2.4-.3-1-1.3-1.7-2.4-1.4-1.6.4-3 1-4.2 1.9-1.9 1.4-4.8 1.4-4.8-.9 0-1.5.4-3.1 1.3-4.3.6-.7.4-1.8-.3-2.4-1.3-1.3-2-3.1-2-4.9 0-.4 0-.9.1-1.3.5-2.6 3.6-1.9 5.5 0 1.3 1.3 2.9 2.5 5.2 3.4.3.1.4.1.7.1.8 0 1.5-.4 1.8-1.3.4-1-.1-2.1-1.1-2.5-3.3-1.3-5.4-3.6-6.1-6.8-.1-.3-.1-.6 0-.9.5-4.5 4.2-8.1 8.6-8.1h.4c.8 0 1.5-.4 1.8-1.1 1.1-2.4 3.4-3.8 5.9-3.8h.4c1.5.1 2.4 1.6 2.4 3.2l.1 57.7c-.1 0 0 0 0 0zm27.6-31.1c.8 1.3 1.3 2.8 1.3 4.3 0 2.2-2.9 2.2-4.7.9-1.2-.8-2.6-1.5-4.2-1.9-1-.3-2.1.4-2.4 1.4s.4 2.1 1.4 2.4c3 .8 4.8 2.6 5.6 5.5.1.3.1.7.1 1-.2 2-.9 4-2 5.6-1.5 2.1-4.4.6-6.6-.6-2.1-1.1-4.7-1-6.6.6l-1.1.8c-.8.7-1 1.8-.3 2.7.7.8 1.8 1 2.7.3l1.1-.8c.8-.7 1.7-.6 2.4-.1.3.1 1.1.7 1 2 0 .6-.1 1.3-.3 1.8-1.1 3.6-4.5 6.1-8 6.1-1.7 0-2.7-1.6-2.7-3.3v-55c0-1.5.9-3 2.4-3.2h.4c2.5 0 4.7 1.4 5.9 3.8.3.7 1.1 1.1 1.8 1.1h.6c4.4 0 8.1 3.5 8.6 8 0 .3 0 .7-.1 1-.8 3.2-2.8 5.4-6 6.8-1 .4-1.5 1.5-1.1 2.5.3.7 1 1.3 1.8 1.3.3 0 .4 0 .7-.1 2.3-.9 4-2.1 5.3-3.5 1.8-1.9 4.8-2.7 5.3-.1.1.5.1 1 .1 1.5 0 1.8-.7 3.6-2 4.9-.8.6-1 1.6-.4 2.3z" fill="url(#d)"/><linearGradient id="e" gradientUnits="userSpaceOnUse" x1="81.401" y1="62.124" x2="71.316" y2="59.676" gradientTransform="matrix(1 0 0 -1 0 100.698)"><stop offset="0" stop-color="#1f3d56"/><stop offset="1" stop-color="#335878"/></linearGradient><path d="M77.5 34.3c.6-1 .3-2.1-.7-2.7-1-.6-2.1-.3-2.7.7-3.8 6.4-.3 12.8 2.1 15.2.4.4.8.6 1.4.6.4 0 1-.1 1.4-.6.4-.3.6-.8.6-1.3 0-1.1-1.1-1.9-1.7-2.8-1.1-1.7-2.6-5.3-.4-9.1z" fill="url(#e)"/><linearGradient id="f" gradientUnits="userSpaceOnUse" x1="80.658" y1="82.799" x2="70.845" y2="79.917" gradientTransform="matrix(1 0 0 -1 0 100.698)"><stop offset="0" stop-color="#1f3d56"/><stop offset="1" stop-color="#335878"/></linearGradient><path d="M74.3 26.7c.4 0 .8-.1 1.3-.4 2.7-2.1 3.9-4.5 3.6-7-.3-3.8-3.9-6-4.2-6.1-1-.6-2.1-.3-2.7.7-.6 1-.3 2.1.7 2.7.6.4 2.2 1.7 2.4 3.2.1 1.4-1.3 2.8-2.2 3.6-.8.7-1 2-.3 2.8.3.4.8.5 1.4.5z" fill="url(#f)"/><linearGradient id="g" gradientUnits="userSpaceOnUse" x1="130.633" y1="76.59" x2="109.762" y2="56.56" gradientTransform="matrix(1 0 0 -1 0 100.698)"><stop offset="0" stop-color="#1f3d56"/><stop offset="1" stop-color="#335878"/></linearGradient><path d="M124.5 26c-2.6 0-4.9 1.3-6.3 3.2-1.1 1.5-2.6 2.8-4.5 2.8h-6.2c-1.1 0-2 .8-2 2 0 1.1.8 2 2 2h6.2c1.8 0 3.4 1.4 4.5 2.8 1.5 1.9 3.8 3.2 6.3 3.2 4.5 0 8-3.6 8-8 0-4.3-3.6-8-8-8zm0 12.2c-2.2 0-4.2-1.8-4.2-4.2 0-2.2 1.8-4.2 4.2-4.2 2.2 0 4.2 1.8 4.2 4.2-.1 2.4-1.9 4.2-4.2 4.2z" fill="url(#g)"/><linearGradient id="h" gradientUnits="userSpaceOnUse" x1="124.053" y1="95.638" x2="99.39" y2="81.68" gradientTransform="matrix(1 0 0 -1 0 100.698)"><stop offset="0" stop-color="#1f3d56"/><stop offset="1" stop-color="#335878"/></linearGradient><path d="M102.6 24.4c.6 0 1-.1 1.4-.6l4.4-4.4c1.3-1.3 3.2-1.4 5-1.1.4.1.8.1 1.2.1 4.5 0 8-3.6 8-8 0-4.3-3.6-8-8-8-4.5 0-8 3.6-8 8 0 .4 0 .7.1 1.1.2 1.8.1 3.9-1.2 5.2l-4.3 4.3c-.7.7-.7 2 0 2.8.4.4.9.6 1.4.6zm12-18.2c2.2 0 4.2 1.8 4.2 4.2 0 2.2-1.8 4.2-4.2 4.2-2.2 0-4.2-1.8-4.2-4.2.2-2.2 2-4.2 4.2-4.2z" fill="url(#h)"/><linearGradient id="i" gradientUnits="userSpaceOnUse" x1="124.064" y1="54.273" x2="99.418" y2="40.299" gradientTransform="matrix(1 0 0 -1 0 100.698)"><stop offset="0" stop-color="#1f3d56"/><stop offset="1" stop-color="#335878"/></linearGradient><path d="M114.6 49.8c-.4 0-.7 0-1.1.1-1.8.2-3.9.1-5.2-1.2l-4.3-4.3c-.7-.7-2-.7-2.8 0-.7.7-.7 2 0 2.8l4.4 4.4c1.3 1.3 1.4 3.2 1.1 5-.1.4-.1.8-.1 1.2 0 4.5 3.6 8 8 8 4.5 0 8-3.6 8-8 .1-4.4-3.5-8-8-8zm0 12.1c-2.2 0-4.2-1.8-4.2-4.2 0-2.2 1.8-4.2 4.2-4.2 2.2 0 4.2 1.8 4.2 4.2 0 2.4-1.8 4.2-4.2 4.2z" fill="url(#i)"/><linearGradient id="j" gradientUnits="userSpaceOnUse" x1="23.829" y1="77.908" x2="2.951" y2="57.879" gradientTransform="matrix(1 0 0 -1 0 100.698)"><stop offset="0" stop-color="#1f3d56"/><stop offset="1" stop-color="#335878"/></linearGradient><path d="M14.3 38.7c1-1.5 2.5-2.7 4.3-2.7H25c1.1 0 2-.8 2-2 0-1.1-.8-2-2-2h-6.2c-1.8 0-3.4-1.4-4.5-2.8C12.8 27.3 10.5 26 8 26c-4.5 0-8 3.6-8 8 0 4.5 3.6 8 8 8 2.6.1 4.9-1.3 6.3-3.3zm-6.5-.5c-2.2 0-4.2-1.8-4.2-4.2 0-2.2 1.8-4.2 4.2-4.2 2.4 0 4.2 1.8 4.2 4.2 0 2.4-1.8 4.2-4.2 4.2z" fill="url(#j)"/><linearGradient id="k" gradientUnits="userSpaceOnUse" x1="34.235" y1="52.345" x2="9.591" y2="38.376" gradientTransform="matrix(1 0 0 -1 0 100.698)"><stop offset="0" stop-color="#1f3d56"/><stop offset="1" stop-color="#335878"/></linearGradient><path d="M28.3 44.3l-4.4 4.4c-1.3 1.3-3.2 1.4-5 1.1-.4-.1-.8-.1-1.2-.1-4.5 0-8 3.6-8 8 0 4.5 3.6 8 8 8 4.3 0 8-3.6 8-8 0-.4 0-.7-.1-1.1-.2-1.8-.1-3.9 1.2-5.2l4.3-4.3c.7-.7.7-2 0-2.8-.7-.7-1.9-.7-2.8 0zM17.7 61.9c-2.2 0-4.2-1.8-4.2-4.2 0-2.2 1.8-4.2 4.2-4.2 2.4 0 4.2 1.8 4.2 4.2-.1 2.4-1.9 4.2-4.2 4.2z" fill="url(#k)"/><linearGradient id="l" gradientUnits="userSpaceOnUse" x1="34.252" y1="93.666" x2="9.589" y2="79.708" gradientTransform="matrix(1 0 0 -1 0 100.698)"><stop offset="0" stop-color="#1f3d56"/><stop offset="1" stop-color="#335878"/></linearGradient><path d="M26.7 16.6c-1.3-1.3-1.4-3.2-1.1-5 .1-.4.1-.8.1-1.2 0-4.5-3.6-8-8-8-4.3 0-8 3.6-8 8 0 4.3 3.6 8 8 8 .4 0 .7 0 1.1-.1 1.8-.2 3.9-.1 5.2 1.2l4.3 4.3c.4.4.8.6 1.4.6.6 0 1-.1 1.4-.6.7-.7.7-2 0-2.8l-4.4-4.4zm-13.2-6.2c0-2.2 1.8-4.2 4.2-4.2 2.4 0 4.2 1.8 4.2 4.2 0 2.2-1.8 4.2-4.2 4.2-2.3 0-4.2-2-4.2-4.2z" fill="url(#l)"/></svg>