<?xml version="1.0" encoding="utf-8"?>
<svg width="174" height="110" fill="none" xmlns="http://www.w3.org/2000/svg"><circle cx="108.756" cy="68.637" r="36.264" transform="rotate(-86.45 108.756 68.637)" stroke="#E9ECEE" stroke-width="3" stroke-linecap="round" stroke-linejoin="round" stroke-dasharray="5 10"/><path d="M72.042 9.187a4 4 0 014 0l38.611 22.292a4 4 0 012 3.464v44.584a4 4 0 01-2 3.464l-38.61 22.292a3.998 3.998 0 01-4 0L33.43 82.991a4 4 0 01-2-3.464V34.943a4 4 0 012-3.464L72.042 9.187z" fill="url(#paint0_linear)"/><g filter="url(#filter0_d)"><path d="M76.334 40.27c-.978.559-1.257 1.676-.698 2.653 3.21 5.584-1.257 10.33-1.536 10.61-.698.838-.698 1.954 0 2.792.419.419.838.558 1.396.558.558 0 .977-.14 1.396-.558 2.373-2.513 5.863-8.795 2.094-15.217-.558-.977-1.815-1.396-2.652-.837z" fill="url(#paint1_linear)"/><path d="M80.103 25.194c.977-.559 1.256-1.676.698-2.653-.558-.977-1.675-1.256-2.653-.698-.418.28-3.908 2.513-4.188 6.143-.14 2.513 1.117 4.746 3.63 6.98.419.28.838.419 1.257.419.558 0 1.116-.28 1.535-.698.698-.838.559-2.094-.279-2.792-1.117-.838-2.373-2.234-2.234-3.63 0-1.396 1.676-2.652 2.234-3.071z" fill="url(#paint2_linear)"/><path d="M114.28 27.894c-1.112-.852-1.978-2.031-2.371-3.376-1.327-4.53-5.039-8.007-9.557-8.977a6.51 6.51 0 01-3.277-1.833c-1.939-1.993-4.571-3.173-7.385-3.173-.897 0-1.793.12-2.647.36-1.366.384-2.846.411-4.207.014a9.328 9.328 0 00-2.639-.374c-2.814 0-5.446 1.18-7.385 3.173a6.511 6.511 0 01-3.277 1.833c-4.518.97-8.23 4.447-9.556 8.977-.394 1.345-1.261 2.523-2.368 3.382-2.521 1.957-4.078 5.096-4.078 8.601 0 1.564.303 3.068.909 4.47a6.6 6.6 0 01.317 4.334c-.26.947-.389 1.914-.389 2.923 0 2.897 1.058 5.601 2.934 7.714a5.932 5.932 0 011.436 2.962c.768 4.686 3.717 8.771 7.774 10.847a6.174 6.174 0 012.717 2.79c2.05 4.21 6.35 6.958 10.966 6.958 1.06 0 2.065-.168 3.05-.468a5.821 5.821 0 013.394 0c.984.3 1.988.468 3.049.468 4.737 0 8.946-2.748 10.971-6.956a6.125 6.125 0 012.712-2.792c4.035-2.065 6.975-6.118 7.761-10.772.194-1.144.75-2.202 1.522-3.07 1.83-2.057 2.861-4.822 2.861-7.68 0-.926-.109-1.851-.327-2.739a7.758 7.758 0 01.352-4.688c.541-1.343.812-2.822.812-4.3a10.393 10.393 0 00-4.074-8.608zM84.755 74.892c.05 0 .062.068.015.085-4.406 1.634-9.157-1.274-10.53-5.669-.14-.558-.28-1.117-.28-1.815-.087-.697.207-1.176.508-1.506.29-.318.662-.57 1.084-.65a2.372 2.372 0 011.759.341l1.117.838c.837.698 2.094.559 2.652-.279.698-.838.559-2.094-.279-2.652l-1.117-.838c-1.954-1.536-4.467-1.675-6.561-.559-2.247 1.226-5.176 2.764-6.686.698-1.175-1.609-1.93-3.55-2.086-5.586a2.862 2.862 0 01.057-.826c.65-2.98 2.571-4.932 5.644-5.733.977-.28 1.675-1.257 1.395-2.373-.279-.977-1.256-1.675-2.373-1.396-1.58.395-2.972 1.038-4.165 1.9-1.894 1.369-4.77 1.414-4.77-.923 0-1.536.42-3.071 1.257-4.328.559-.698.419-1.815-.28-2.373-1.256-1.256-1.954-3.071-1.954-4.886 0-.44.039-.869.111-1.285.46-2.62 3.637-1.886 5.483.028 1.26 1.305 2.931 2.474 5.156 3.35.28.14.419.14.698.14.838 0 1.535-.418 1.815-1.256.419-.977-.14-2.094-1.117-2.513-3.345-1.338-5.408-3.573-6.065-6.83a2.862 2.862 0 01-.042-.864c.476-4.54 4.155-8.081 8.62-8.081h.419c.837 0 1.535-.419 1.814-1.117 1.117-2.373 3.35-3.77 5.864-3.77.143 0 .287.007.43.018 1.51.123 2.362 1.638 2.362 3.153v57.512c0 .025.02.045.046.045zm27.596-31.131c.838 1.256 1.257 2.792 1.257 4.328 0 2.227-2.895 2.184-4.708.891-1.188-.846-2.601-1.479-4.227-1.869-.977-.279-2.094.42-2.373 1.396-.279.977.419 2.094 1.396 2.374 3.045.794 4.834 2.592 5.606 5.514.085.322.115.658.088.99a11.133 11.133 0 01-2.036 5.555c-1.472 2.051-4.374.597-6.59-.612-2.094-1.117-4.746-.977-6.561.558l-1.117.838c-.838.698-.977 1.815-.28 2.653.699.837 1.816.977 2.653.279l1.117-.838c.838-.698 1.675-.558 2.373-.14.28.14 1.117.699.978 1.955 0 .558-.14 1.256-.28 1.815-1.115 3.569-4.458 6.069-8.036 6.075-1.667.003-2.713-1.596-2.713-3.263V17.475c0-1.516.851-3.03 2.361-3.153.144-.011.287-.017.431-.017 2.513 0 4.746 1.396 5.863 3.769.28.698 1.117 1.117 1.815 1.117h.559c4.439 0 8.101 3.5 8.611 8.002.038.34.014.685-.068 1.017-.793 3.216-2.844 5.428-6.031 6.756-.977.419-1.535 1.535-1.116 2.513.279.698.977 1.256 1.815 1.256.279 0 .418 0 .698-.14 2.308-.909 4.021-2.134 5.295-3.499 1.773-1.897 4.831-2.66 5.315-.11.092.488.139.995.139 1.515 0 1.815-.698 3.63-1.954 4.887-.698.698-.838 1.675-.28 2.373z" fill="url(#paint3_linear)"/><path d="M98.251 42.923c.559-.977.28-2.094-.698-2.652-.977-.559-2.094-.28-2.652.698-3.77 6.422-.28 12.843 2.094 15.217.419.419.838.558 1.396.558.419 0 .977-.14 1.396-.558.409-.34.618-.814.628-1.307.021-1.06-1.09-1.875-1.674-2.76-1.194-1.81-2.709-5.337-.49-9.196z" fill="url(#paint4_linear)"/><path d="M95.04 35.385c.418 0 .837-.14 1.256-.42 2.652-2.093 3.909-4.466 3.63-6.98-.28-3.768-3.91-6.002-4.189-6.142-.977-.558-2.094-.279-2.652.698-.558.977-.28 2.094.698 2.653.558.419 2.234 1.675 2.373 3.21.14 1.397-1.256 2.793-2.234 3.63-.837.698-.977 1.955-.279 2.792.28.42.838.559 1.396.559z" fill="url(#paint5_linear)"/><path d="M145.297 34.687c-2.626 0-4.914 1.287-6.343 3.202-1.098 1.47-2.623 2.8-4.458 2.8h-6.231c-1.117 0-1.954.838-1.954 1.955s.837 1.954 1.954 1.954h6.2c1.85 0 3.38 1.354 4.492 2.832a7.967 7.967 0 006.34 3.171c4.467 0 7.957-3.63 7.957-7.957 0-4.328-3.629-7.957-7.957-7.957zm0 12.145c-2.234 0-4.188-1.815-4.188-4.188 0-2.234 1.815-4.188 4.188-4.188 2.234 0 4.188 1.815 4.188 4.188-.14 2.373-1.954 4.188-4.188 4.188z" fill="url(#paint6_linear)"/><path d="M123.38 33.011c.558 0 .977-.14 1.396-.558l4.427-4.428c1.263-1.263 3.2-1.417 4.961-1.12.405.068.813.104 1.221.104 4.468 0 7.958-3.63 7.958-7.958s-3.63-7.957-7.958-7.957c-4.467 0-7.957 3.63-7.957 7.957 0 .365.024.722.069 1.07.242 1.847.115 3.912-1.202 5.229l-4.312 4.311c-.698.698-.698 1.954 0 2.792.419.419.838.558 1.397.558zm12.005-18.148c2.234 0 4.189 1.815 4.189 4.188 0 2.234-1.815 4.188-4.189 4.188-2.233 0-4.188-1.815-4.188-4.188.14-2.233 1.955-4.188 4.188-4.188z" fill="url(#paint7_linear)"/><path d="M135.385 58.42a8.24 8.24 0 00-1.069.068c-1.847.242-3.912.115-5.229-1.202l-4.311-4.311c-.698-.698-1.955-.698-2.793 0-.698.698-.698 1.954 0 2.792l4.428 4.428c1.263 1.263 1.418 3.199 1.121 4.96a7.375 7.375 0 00-.104 1.222c0 4.467 3.63 7.957 7.957 7.957 4.468 0 7.958-3.63 7.958-7.957.139-4.328-3.49-7.958-7.958-7.958zm0 12.145c-2.233 0-4.188-1.815-4.188-4.188 0-2.234 1.815-4.188 4.188-4.188 2.234 0 4.189 1.814 4.189 4.188 0 2.373-1.815 4.188-4.189 4.188z" fill="url(#paint8_linear)"/><path d="M35.104 47.322c1.043-1.46 2.543-2.724 4.336-2.724h6.32c1.117 0 1.955-.837 1.955-1.954s-.838-1.954-1.955-1.954h-6.2c-1.85 0-3.38-1.354-4.492-2.832a7.967 7.967 0 00-6.34-3.171c-4.467 0-7.957 3.63-7.957 7.957 0 4.467 3.63 7.957 7.957 7.957 2.6.1 4.914-1.232 6.376-3.28zm-6.515-.49c-2.234 0-4.188-1.815-4.188-4.188 0-2.234 1.814-4.188 4.188-4.188 2.373 0 4.188 1.815 4.188 4.188 0 2.373-1.815 4.188-4.188 4.188z" fill="url(#paint9_linear)"/><path d="M49.11 52.975l-4.427 4.428c-1.263 1.262-3.2 1.417-4.96 1.12a7.355 7.355 0 00-1.222-.104c-4.468 0-7.958 3.63-7.958 7.958 0 4.467 3.63 7.957 7.958 7.957 4.327 0 7.957-3.63 7.957-7.957 0-.365-.024-.723-.07-1.07-.24-1.847-.114-3.912 1.203-5.229l4.312-4.311c.698-.698.698-1.955 0-2.792-.698-.698-1.955-.698-2.792 0zM38.5 70.565c-2.233 0-4.188-1.815-4.188-4.188 0-2.234 1.815-4.188 4.189-4.188 2.373 0 4.188 1.814 4.188 4.188-.14 2.373-1.955 4.188-4.188 4.188z" fill="url(#paint10_linear)"/><path d="M47.475 25.233c-1.263-1.263-1.418-3.2-1.121-4.96.068-.405.104-.814.104-1.222 0-4.467-3.63-7.957-7.957-7.957-4.328 0-7.958 3.63-7.958 7.957 0 4.328 3.63 7.958 7.958 7.958.365 0 .722-.024 1.07-.07 1.846-.241 3.911-.114 5.228 1.203l4.312 4.311c.418.419.837.558 1.396.558.558 0 .977-.14 1.396-.558.698-.698.698-1.954 0-2.792l-4.428-4.428zm-13.163-6.182c0-2.233 1.815-4.188 4.189-4.188 2.373 0 4.188 1.815 4.188 4.188 0 2.234-1.815 4.188-4.188 4.188-2.374 0-4.188-1.954-4.188-4.188z" fill="url(#paint11_linear)"/></g><defs><linearGradient id="paint0_linear" x1="215.966" y1="33.361" x2="45.639" y2="8.054" gradientUnits="userSpaceOnUse"><stop stop-color="#5CDBDD" stop-opacity=".03"/><stop offset="1" stop-color="#5CDBDD" stop-opacity=".21"/></linearGradient><linearGradient id="paint1_linear" x1="80.649" y1="40.02" x2="70.688" y2="42.389" gradientUnits="userSpaceOnUse"><stop stop-color="#1F3D56"/><stop offset="1" stop-color="#335878"/></linearGradient><linearGradient id="paint2_linear" x1="81.086" y1="21.559" x2="71.305" y2="24.42" gradientUnits="userSpaceOnUse"><stop stop-color="#1F3D56"/><stop offset="1" stop-color="#335878"/></linearGradient><linearGradient id="paint3_linear" x1="118.36" y1="10.535" x2="44.553" y2="48.65" gradientUnits="userSpaceOnUse"><stop stop-color="#1F3D56"/><stop offset="1" stop-color="#335878"/></linearGradient><linearGradient id="paint4_linear" x1="100.415" y1="39.986" x2="90.33" y2="42.435" gradientUnits="userSpaceOnUse"><stop stop-color="#1F3D56"/><stop offset="1" stop-color="#335878"/></linearGradient><linearGradient id="paint5_linear" x1="99.964" y1="21.559" x2="90.151" y2="24.441" gradientUnits="userSpaceOnUse"><stop stop-color="#1F3D56"/><stop offset="1" stop-color="#335878"/></linearGradient><linearGradient id="paint6_linear" x1="153.254" y1="34.687" x2="132.383" y2="54.716" gradientUnits="userSpaceOnUse"><stop stop-color="#1F3D56"/><stop offset="1" stop-color="#335878"/></linearGradient><linearGradient id="paint7_linear" x1="143.343" y1="11.094" x2="118.68" y2="25.052" gradientUnits="userSpaceOnUse"><stop stop-color="#1F3D56"/><stop offset="1" stop-color="#335878"/></linearGradient><linearGradient id="paint8_linear" x1="143.347" y1="52.451" x2="118.701" y2="66.424" gradientUnits="userSpaceOnUse"><stop stop-color="#1F3D56"/><stop offset="1" stop-color="#335878"/></linearGradient><linearGradient id="paint9_linear" x1="47.715" y1="34.687" x2="26.837" y2="54.716" gradientUnits="userSpaceOnUse"><stop stop-color="#1F3D56"/><stop offset="1" stop-color="#335878"/></linearGradient><linearGradient id="paint10_linear" x1="52.426" y1="52.451" x2="27.782" y2="66.421" gradientUnits="userSpaceOnUse"><stop stop-color="#1F3D56"/><stop offset="1" stop-color="#335878"/></linearGradient><linearGradient id="paint11_linear" x1="52.426" y1="11.094" x2="27.763" y2="25.052" gradientUnits="userSpaceOnUse"><stop stop-color="#1F3D56"/><stop offset="1" stop-color="#335878"/></linearGradient><filter id="filter0_d" x=".771" y=".535" width="172.483" height="108.964" filterUnits="userSpaceOnUse" color-interpolation-filters="sRGB"><feFlood flood-opacity="0" result="BackgroundImageFix"/><feColorMatrix in="SourceAlpha" values="0 0 0 0 0 0 0 0 0 0 0 0 0 0 0 0 0 0 127 0"/><feOffset dy="10"/><feGaussianBlur stdDeviation="10"/><feColorMatrix values="0 0 0 0 0.122344 0 0 0 0 0.237341 0 0 0 0 0.3375 0 0 0 0.26 0"/><feBlend in2="BackgroundImageFix" result="effect1_dropShadow"/><feBlend in="SourceGraphic" in2="effect1_dropShadow" result="shape"/></filter></defs></svg>