<svg version="1.1" id="Layer_1" xmlns="http://www.w3.org/2000/svg" x="0" y="0" viewBox="0 0 117.5 98.2" xml:space="preserve"><style>.st4{fill:#294b68}</style><circle cx="48.7" cy="60.9" r="35.7" fill="none" stroke="#e9ecee" stroke-width="3" stroke-linecap="round" stroke-linejoin="round" stroke-dasharray="5,10"/><linearGradient id="SVGID_1_" gradientUnits="userSpaceOnUse" x1="188.068" y1="38.854" x2="35.714" y2="61.491" gradientTransform="matrix(1 0 0 -1 0 101.491)"><stop offset="0" stop-color="#5cdbdd" stop-opacity=".03"/><stop offset="1" stop-color="#5cdbdd" stop-opacity=".21"/></linearGradient><circle cx="67" cy="44.6" r="44" fill="url(#SVGID_1_)"/><linearGradient id="SVGID_2_" gradientUnits="userSpaceOnUse" x1="59.097" y1="82.068" x2=".019" y2="41.458" gradientTransform="matrix(1 0 0 -1 0 101.491)"><stop offset="0" stop-color="#1f3d56"/><stop offset="1" stop-color="#335878"/></linearGradient><path d="M39.7 23.5c-7.7.3-15.3-.2-22.9-1.4-.8-.1-4.2-1.3-6.2-2.1l-3.7-1.4c-.3-.1-.5-.1-.8-.1-.3 0-.5.1-.8.2-.3.1-.5.3-.7.5-.2.2-.3.5-.4.7-.2.5-.2 1.1 0 1.6s.6.9 1.1 1.1L9 23.9c.9.3 5.5 2.1 6.9 2.3 7.8 1.2 15.8 1.7 23.7 1.5 5.9 0 12.6 0 13.9 1.3 1.2 1.3.7 3.3.4 5.5-.2 1.1-.3 2.3-.3 3.4V42c0 4 .1 10.5-.6 12.4-.1.3-.3.5-.5.6-.3.1-.6.1-1 .1-1.1 0-2-.7-2.9-1.3-.2-.1-.4-.3-.6-.4-.7-.4-1.5-.6-2.3-.7-2.2-.5-4.3-1.2-6.3-2.3-.4-.2-.7-.7-.8-1.1 0-.3-.1-.6-.1-.9 0-.1 0-.2.1-.3l.1-.1c1.2-1.1 3.2-.8 4.4.3.9.9 2 1.7 3.2 2.3l.2.1c.3.2.7.3 1.1.3.4 0 .7-.1 1-.3.3-.2.6-.4.8-.7.1-.2.2-.5.3-.8v-.8c-.1-.3-.2-.5-.3-.7l-.6-.6-.2-.1c-4.1-2.5-4-3.8-3.5-4.6.4-.7.5-1.5.9-2.2.4-.7.7-1.6.8-2.4 0-.5-.2-1.1-.6-1.5-.4-.4-.9-.6-1.5-.6-.5 0-1 .2-1.4.6-.1.1-.3.3-.4.5-.3.5-.4 1.2-.8 1.7-1.1 1.5-2.3 3-3.6 4.3-.2.2-.6.1-.7-.2-.2-.4-.5-.7-.9-.9-.4-.2-.8-.3-1.2-.2s-.8.2-1.1.5c-.3.3-.5.7-.6 1.1-.1.4-.1.8 0 1.2.2 1 .4 2.1.4 3.2.1 1.4.3 2.8.7 4.1 1.3 3 9.6 5 10.4 5.1.5.1.8.2 1 .3.3.2.4.5.4.8 0 .4 0 .7-.1 1.1-.1.5-.3 1-.6 1.4-1.9 2.7-1.9 2.7-9 .5l-2.2-.4c-4-1.2-8-2.8-11.8-4.6-2.1-.9-4.1-4.6-6.2-8.1-1.5-2.9-3.4-5.6-5.5-8.1-1.4-1.6-3.2-2.6-5.3-3-.3 0-.5 0-.8.1-.3.1-.5.2-.7.4-.2.2-.4.4-.5.6-.2.3-.3.5-.3.8-.1.6-.5 1.3-1 1.2h-.7c-.5 0-1.1.2-1.5.5-.4.4-.7.9-.7 1.4 0 .5.2 1 .6 1.4s.9.6 1.4.6l6.2.4c1.2.1 2.3.7 3 1.7.8 1.3 1.6 2.6 2.3 3.9 2.4 4.3 4.8 8.3 8 9.8 4 1.9 8.1 3.5 12.3 4.7l1.9.6c2.5 1 5.2 1.6 7.8 1.9 2.3 0 3.8-1.1 5.8-3.9.6-.9 1.1-2 1.3-3.1.1-.4.4-.7.8-.7 1.5.1 3-.4 4.1-1.3 2.3-2.1 2.4-7.4 2.3-16v-4c0-1 .1-1.9.2-2.9.4-2.9.8-6.2-1.4-8.8-2.1-2.4-8.2-2.4-16.9-2.4z" fill="url(#SVGID_2_)"/><linearGradient id="SVGID_3_" gradientUnits="userSpaceOnUse" x1="116.43" y1="84.438" x2="57.174" y2="43.944" gradientTransform="matrix(1 0 0 -1 0 101.491)"><stop offset="0" stop-color="#1f3d56"/><stop offset="1" stop-color="#335878"/></linearGradient><path d="M113.9 39.9c-.2 0-.4-.3-.3-.5.1-.2.1-.5.1-.8 0-.3-.1-.5-.2-.8s-.3-.5-.5-.6c-.2-.2-.5-.3-.7-.4-.3-.1-.5-.1-.8-.1-2.1.3-3.9 1.4-5.3 3-2.2 2.5-4 5.2-5.5 8.1-2.1 3.5-4.1 7.1-6.1 8.1-3.8 1.8-7.8 3.3-11.8 4.6l-1.9.6c-7.2 2.3-7.2 2.3-9.1-.5-.3-.4-.5-.9-.6-1.4-.1-.4-.1-.8-.1-1.1 0-.3.1-.6.3-.8.2-.1.5-.3 1.1-.3.7 0 9-2.1 10.4-5.1.4-1.3.6-2.7.7-4.1 0-.9.1-1.9.2-2.8 0-.3.1-.5.2-.8v-.8c0-.3-.2-.7-.4-.9-.2-.3-.5-.5-.8-.6-.2-.1-.5-.2-.8-.2-.3 0-.5 0-.8.1-.3.1-.5.2-.7.4-.2.2-.4.4-.5.7-.1.3-.5.4-.7.2-1.4-1.3-2.6-2.7-3.6-4.3-.4-.5-.5-1.2-.8-1.7-.1-.2-.2-.3-.4-.5-.4-.4-.9-.6-1.4-.6-.5 0-1.1.2-1.5.6-.4.4-.6.9-.6 1.5.1.9.4 1.7.8 2.4s.5 1.5.9 2.2c.4.8.5 2.1-3.5 4.6l-.2.1c-.2.1-.4.3-.6.6-.2.2-.3.5-.3.7-.1.3-.1.5 0 .8 0 .3.1.5.3.8.2.3.4.5.8.7.3.2.7.3 1 .3.4 0 .8-.1 1.1-.3l.2-.1c1.1-.6 2.1-1.3 3-2.2 1.3-1.2 3.1-1.2 4.6-.4.1.1.2.2.2.3 0 .3-.1.6-.1.9-.1.5-.4.9-.8 1.1-2 1.1-4.1 1.9-6.3 2.3-.8.1-1.6.3-2.3.7-.2.1-.4.2-.6.4-.9.6-1.8 1.3-2.9 1.3-.4 0-.7 0-.9-.1-.3-.1-.5-.3-.6-.6-.8-1.9-.7-8.5-.7-12.5V38c0-1.1-.1-2.3-.3-3.4-.3-2.3-.6-4.4.4-5.5 1-1.2 7.9-1.4 13.9-1.3 8 .3 15.9-.3 23.8-1.5 1.4-.3 6-1.9 6.9-2.3l3.7-1.4c.5-.2.9-.6 1.1-1 .2-.5.3-1 .1-1.5-.1-.3-.2-.5-.4-.7-.2-.2-.4-.4-.7-.5-.2-.1-.5-.2-.8-.2-.3 0-.5 0-.8.1l-3.7 1.4c-2.1.8-5.5 1.9-6.2 2.1-7.6 1.2-15.2 1.7-22.9 1.4-8.8 0-14.5 0-17 2.8s-1.8 5.9-1.4 8.8c.1 1 .2 1.9.2 2.9v4c0 8.7 0 14.1 2.3 16 1.2.9 2.6 1.4 4.1 1.3.4 0 .7.3.8.7.2 1.1.7 2.1 1.3 3.1 2.1 2.8 3.5 3.9 5.8 3.9 2.7-.3 5.3-.9 7.8-1.9l1.9-.6c4.2-1.3 8.2-3 12.1-4.9 3.2-1.5 5.5-5.5 8-9.8.8-1.3 1.5-2.7 2.3-3.9.6-1 1.8-1.6 3-1.7l6.2-.4c.5 0 1.1-.3 1.4-.7.4-.4.6-.9.5-1.5 0-.5-.3-1.1-.7-1.4-.4-.4-.9-.5-1.5-.5h-1.4z" fill="url(#SVGID_3_)"/><path class="st4" d="M60.5 11.2V2.1c0-.5-.2-1.1-.6-1.5-.4-.4-.9-.6-1.5-.6s-1 .2-1.4.6c-.4.4-.6.9-.6 1.5v9.1c0 .5.2 1.1.6 1.5.4.4.9.6 1.5.6.5 0 1.1-.2 1.5-.6.3-.5.5-1 .5-1.5zM43.5 4.9c-.2.2-.4.4-.5.6-.1.2-.2.5-.3.8v.8c.1.3.2.5.3.7l4.7 6.4c.2.3.4.5.7.6.3.1.6.2.9.2.4 0 .9-.1 1.2-.4l.6-.6c.1-.2.2-.5.3-.8v-.8c-.1-.3-.2-.5-.4-.7l-4.8-6.4c-.2-.4-.7-.7-1.2-.8-.5-.1-1.1.1-1.5.4zM71.4 5.1l-5.9 5.3c-.4.4-.7.9-.7 1.4 0 .5.2 1.1.5 1.5.4.4.9.7 1.4.7.5 0 1.1-.1 1.5-.5l5.9-5.3c.4-.4.7-.9.7-1.4 0-.5-.1-1.1-.5-1.5-.2-.2-.4-.4-.6-.5-.2-.1-.5-.2-.8-.2-.3 0-.5 0-.8.1-.2.1-.5.3-.7.4z"/><linearGradient id="SVGID_4_" gradientUnits="userSpaceOnUse" x1="142.35" y1="59.041" x2="142.35" y2="59.041"><stop offset="0" stop-color="#1f3d56"/><stop offset="1" stop-color="#335878"/></linearGradient></svg>