<?xml version="1.0" encoding="utf-8"?>
<svg width="158" height="101" fill="none" xmlns="http://www.w3.org/2000/svg"><circle cx="68.922" cy="61.196" r="35.658" transform="rotate(-86.45 68.922 61.196)" stroke="#E9ECEE" stroke-width="3" stroke-linecap="round" stroke-linejoin="round" stroke-dasharray="5 10"/><circle cx="87.235" cy="44.898" r="44.011" fill="url(#paint0_linear)"/><g filter="url(#filter0_d)"><path d="M59.938 23.773a120.49 120.49 0 01-22.9-1.408c-.765-.145-4.14-1.304-6.21-2.07l-3.706-1.429a2.072 2.072 0 00-2.65 1.325 2.07 2.07 0 001.18 2.671l3.685 1.325c.91.331 5.507 2.07 6.874 2.257a124.728 124.728 0 0023.686 1.47c5.92 0 12.63 0 13.85 1.346 1.222 1.346.725 3.271.436 5.528a26.899 26.899 0 00-.29 3.416v4.14c0 4.009.106 10.52-.618 12.414a.949.949 0 01-.547.563c-.273.1-.615.142-.996.147-1.084.015-2.022-.665-2.903-1.297a5.737 5.737 0 00-2.928-1.06 22.13 22.13 0 01-6.273-2.328 1.573 1.573 0 01-.8-1.138c-.043-.29-.076-.582-.1-.874a.287.287 0 01.136-.265.27.27 0 00.034-.026l.129-.111c1.25-1.088 3.203-.823 4.386.337a12.94 12.94 0 003.192 2.293l.186.125c.33.204.71.311 1.097.31a2.07 2.07 0 001.098-3.83l-.207-.124c-4.141-2.485-3.976-3.83-3.54-4.617.356-.704.521-1.53.903-2.221a6.542 6.542 0 00.773-2.417 2.07 2.07 0 00-2.07-2.07 2.07 2.07 0 00-1.794 1.029c-.318.548-.45 1.2-.807 1.724a26.92 26.92 0 01-3.628 4.274c-.215.205-.572.099-.687-.175a2.071 2.071 0 00-3.871.518c-.104.38-.104.78 0 1.16.234 1.041.38 2.101.435 3.167.063 1.404.299 2.795.704 4.141 1.262 3.044 9.606 5.031 10.352 5.093.498.058.806.178.999.302.275.178.372.522.4.848a3.728 3.728 0 01-.716 2.536c-1.925 2.712-1.925 2.712-9.027.455l-1.946-.62a87.586 87.586 0 01-11.802-4.556c-2.07-.931-4.14-4.555-6.211-8.075a41.409 41.409 0 00-5.508-8.095 8.779 8.779 0 00-5.28-2.96 2.07 2.07 0 00-2.277 1.842c-.062.553-.486 1.255-1.041 1.222l-.698-.042a2.07 2.07 0 00-2.174 1.946 2.07 2.07 0 001.947 2.07l6.239.366c1.2.07 2.314.672 2.961 1.686.803 1.257 1.582 2.614 2.332 3.912 2.443 4.285 4.762 8.282 7.971 9.793a92.008 92.008 0 0012.278 4.741l1.946.621a29.71 29.71 0 007.847 1.884c2.257 0 3.789-1.076 5.797-3.892a8.674 8.674 0 001.326-3.055c.087-.393.424-.693.827-.693a6.21 6.21 0 004.141-1.304c2.34-2.07 2.402-7.37 2.298-16.025v-4.037c.03-.97.112-1.938.249-2.899.372-2.899.807-6.211-1.408-8.758-2.215-2.547-8.344-2.547-17.081-2.526z" fill="url(#paint1_linear)"/></g><g filter="url(#filter1_d)"><path d="M135.602 40.037c.007.003.005.012-.002.013l-1.447.087c-.239.014-.402-.266-.332-.495.077-.248.102-.512.073-.775a2.08 2.08 0 00-.757-1.393 2.075 2.075 0 00-1.521-.45 8.776 8.776 0 00-5.279 2.962 41.378 41.378 0 00-5.508 8.095c-2.07 3.52-4.141 7.143-6.107 8.075a87.558 87.558 0 01-11.802 4.555l-1.946.62c-7.185 2.34-7.185 2.34-9.11-.455a3.728 3.728 0 01-.712-2.59c.03-.29.092-.604.333-.767.198-.133.528-.267 1.062-.328.663 0 9.007-2.07 10.352-5.093.405-1.346.641-2.737.704-4.141-.004-.938.064-1.875.203-2.803.041-.27.131-.532.179-.802a2.07 2.07 0 00-.009-.785 2.076 2.076 0 00-1.159-1.573 2.072 2.072 0 00-2.733 1.056c-.115.273-.472.379-.687.174a26.917 26.917 0 01-3.628-4.274c-.357-.523-.489-1.176-.807-1.724a2.074 2.074 0 00-3.864 1.041 6.54 6.54 0 00.773 2.417c.382.69.547 1.517.904 2.22.435.788.517 2.071-3.54 4.618l-.208.124a2.07 2.07 0 001.098 3.83 2.07 2.07 0 001.097-.31l.186-.124a12.94 12.94 0 002.983-2.175c1.25-1.22 3.074-1.153 4.637-.372a.322.322 0 01.151.298c-.023.286-.055.57-.098.853-.072.483-.372.9-.8 1.138a22.134 22.134 0 01-6.272 2.328 5.735 5.735 0 00-2.928 1.06c-.88.632-1.82 1.305-2.903 1.304-.353 0-.668-.03-.919-.106a.92.92 0 01-.572-.553c-.782-1.932-.708-8.457-.67-12.471v-4.141a26.934 26.934 0 00-.29-3.416c-.29-2.257-.559-4.369.435-5.528.994-1.16 7.93-1.367 13.851-1.346a124.72 124.72 0 0023.769-1.511c1.366-.27 5.963-1.926 6.915-2.257l3.706-1.429a2.069 2.069 0 001.18-2.526 2.068 2.068 0 00-2.671-1.2l-3.664 1.407c-2.071.766-5.466 1.926-6.212 2.07a120.502 120.502 0 01-22.899 1.409c-8.758 0-14.493 0-16.998 2.774-2.505 2.774-1.78 5.86-1.408 8.758.137.96.22 1.929.249 2.899v4.037c0 8.654 0 14.058 2.298 16.025a6.21 6.21 0 004.14 1.304c.404 0 .741.3.828.693.24 1.092.69 2.13 1.326 3.055 2.07 2.816 3.54 3.892 5.797 3.892a30.578 30.578 0 007.847-1.884l1.946-.62a92.009 92.009 0 0012.133-4.887c3.209-1.49 5.528-5.508 7.971-9.793.75-1.297 1.529-2.655 2.332-3.912.647-1.014 1.761-1.616 2.962-1.686l6.239-.365a2.072 2.072 0 001.269-3.615 2.073 2.073 0 00-1.464-.528c-.007 0-.009.01-.002.012z" fill="url(#paint2_linear)"/></g><path d="M80.787 11.414v-9.09a2.07 2.07 0 10-4.14 0v9.069a2.07 2.07 0 004.14.02zM63.747 5.12a2.071 2.071 0 00-.434 2.898l4.74 6.419a2.07 2.07 0 001.657.848 2.07 2.07 0 001.242-.414 2.07 2.07 0 00.435-2.96l-4.782-6.357a2.07 2.07 0 00-2.858-.434zM91.698 5.387l-5.942 5.3a2.07 2.07 0 00-.166 2.92 2.07 2.07 0 002.92.186l5.942-5.3a2.07 2.07 0 00.186-2.92 2.07 2.07 0 00-2.94-.186z" fill="#294B68"/><defs><linearGradient id="paint0_linear" x1="214.183" y1="23.543" x2="61.829" y2=".906" gradientUnits="userSpaceOnUse"><stop stop-color="#5CDBDD" stop-opacity=".03"/><stop offset="1" stop-color="#5CDBDD" stop-opacity=".21"/></linearGradient><linearGradient id="paint1_linear" x1="78.73" y1="18.752" x2="19.652" y2="59.362" gradientUnits="userSpaceOnUse"><stop stop-color="#1F3D56"/><stop offset="1" stop-color="#335878"/></linearGradient><linearGradient id="paint2_linear" x1="137.758" y1="18.856" x2="78.501" y2="59.35" gradientUnits="userSpaceOnUse"><stop stop-color="#1F3D56"/><stop offset="1" stop-color="#335878"/></linearGradient><filter id="filter0_d" x=".268" y="8.752" width="98.462" height="88.21" filterUnits="userSpaceOnUse" color-interpolation-filters="sRGB"><feFlood flood-opacity="0" result="BackgroundImageFix"/><feColorMatrix in="SourceAlpha" values="0 0 0 0 0 0 0 0 0 0 0 0 0 0 0 0 0 0 127 0"/><feOffset dy="10"/><feGaussianBlur stdDeviation="10"/><feColorMatrix values="0 0 0 0 0.122344 0 0 0 0 0.237341 0 0 0 0 0.3375 0 0 0 0.26 0"/><feBlend in2="BackgroundImageFix" result="effect1_dropShadow"/><feBlend in="SourceGraphic" in2="effect1_dropShadow" result="shape"/></filter><filter id="filter1_d" x="59.34" y="8.856" width="98.418" height="88.459" filterUnits="userSpaceOnUse" color-interpolation-filters="sRGB"><feFlood flood-opacity="0" result="BackgroundImageFix"/><feColorMatrix in="SourceAlpha" values="0 0 0 0 0 0 0 0 0 0 0 0 0 0 0 0 0 0 127 0"/><feOffset dy="10"/><feGaussianBlur stdDeviation="10"/><feColorMatrix values="0 0 0 0 0.122344 0 0 0 0 0.237341 0 0 0 0 0.3375 0 0 0 0.26 0"/><feBlend in2="BackgroundImageFix" result="effect1_dropShadow"/><feBlend in="SourceGraphic" in2="effect1_dropShadow" result="shape"/></filter></defs></svg>