<svg width="93" height="94" fill="none" xmlns="http://www.w3.org/2000/svg"><g opacity=".6"><path d="M92 .188H1a1 1 0 00-1 1v91a1 1 0 001 1h91a1 1 0 001-1v-91a1 1 0 00-1-1z" fill="#1F3D56"/><path d="M62.473 72.844c1.873 3.059 4.31 5.307 8.62 5.307 3.622 0 5.935-1.81 5.935-4.31 0-2.997-2.377-4.058-6.362-5.802l-2.185-.937c-6.306-2.687-10.496-6.052-10.496-13.168 0-6.554 4.994-11.543 12.799-11.543 5.556 0 9.55 1.933 12.43 6.997l-6.806 4.37c-1.498-2.687-3.115-3.746-5.624-3.746-2.56 0-4.182 1.624-4.182 3.745 0 2.622 1.623 3.683 5.373 5.307L74.16 60c7.425 3.184 11.617 6.43 11.617 13.729 0 7.868-6.18 12.178-14.481 12.178-8.116 0-13.36-3.867-15.925-8.937l7.102-4.126zm-30.872.758c1.373 2.435 2.622 4.495 5.625 4.495 2.87 0 4.682-1.124 4.682-5.492V42.89h8.74v29.833c0 9.05-5.306 13.168-13.05 13.168-6.998 0-11.05-3.621-13.11-7.983l7.113-4.306z" fill="#fff"/></g></svg>