<svg fill="none" height="93" width="152" xmlns="http://www.w3.org/2000/svg" xmlns:xlink="http://www.w3.org/1999/xlink"><linearGradient id="a"><stop offset="0" stop-color="#1f3d56"/><stop offset=".995" stop-color="#335878"/></linearGradient><linearGradient id="b" gradientUnits="userSpaceOnUse" x1="38.928" x2="73.406" xlink:href="#a" y1="39.814" y2="39.814"/><linearGradient id="c" gradientUnits="userSpaceOnUse" x1="39.301" x2="72.878" xlink:href="#a" y1="39.838" y2="39.838"/><linearGradient id="d" gradientUnits="userSpaceOnUse" x1="39.979" x2="73.238" xlink:href="#a" y1="39.793" y2="39.793"/><g opacity=".6"><g fill="#1f3d56"><path d="m75.372 92.915c-.5 0-.996-.13-1.434-.383l-4.566-2.7c-.68-.38-.349-.518-.123-.596.91-.315 1.092-.387 2.064-.938.102-.058.236-.034.339.027l3.508 2.081a.444.444 0 0 0 .424 0l13.673-7.892a.431.431 0 0 0 .209-.37v-15.778a.443.443 0 0 0 -.212-.376l-13.666-7.886a.42.42 0 0 0 -.421 0l-13.663 7.89a.437.437 0 0 0 -.216.372v15.778c0 .15.086.294.216.366l3.744 2.163c2.033 1.017 3.275-.18 3.275-1.382v-15.581c0-.219.178-.393.398-.393h1.735c.215 0 .397.174.397.393v15.58c0 2.71-1.479 4.268-4.05 4.268-.79 0-1.413 0-3.148-.856l-3.587-2.064a2.887 2.887 0 0 1 -1.434-2.495v-15.777c0-1.026.548-1.981 1.434-2.491l13.673-7.9c.866-.489 2.016-.489 2.875 0l13.673 7.9a2.889 2.889 0 0 1 1.438 2.491v15.778a2.894 2.894 0 0 1 -1.438 2.495l-13.673 7.893a2.895 2.895 0 0 1 -1.444.383z"/><path d="m79.596 82.041c-5.983 0-7.236-2.745-7.236-5.051 0-.22.175-.394.394-.394h1.766c.199 0 .363.14.394.335.266 1.8 1.06 2.708 4.682 2.708 2.881 0 4.107-.65 4.107-2.18 0-.88-.35-1.534-4.826-1.975-3.741-.37-6.055-1.198-6.055-4.19 0-2.758 2.324-4.404 6.226-4.404 4.38 0 6.547 1.52 6.821 4.78a.4.4 0 0 1 -.397.431h-1.772a.392.392 0 0 1 -.383-.307c-.425-1.892-1.462-2.498-4.271-2.498-3.146 0-3.512 1.095-3.512 1.916 0 .996.431 1.284 4.679 1.845 4.203.555 6.198 1.342 6.198 4.295 0 2.985-2.481 4.69-6.814 4.69zm19.714-16.547a2.64 2.64 0 0 1 -2.636 2.635 2.64 2.64 0 0 1 -2.635-2.635c0-1.493 1.228-2.636 2.635-2.636a2.632 2.632 0 0 1 2.635 2.636zm-4.844-.007a2.21 2.21 0 0 0 2.205 2.218 2.226 2.226 0 0 0 2.217-2.218 2.212 2.212 0 0 0 -4.422 0zm1.219-1.472h1.02c.349 0 1.033 0 1.033.78 0 .545-.349.654-.558.726.404.028.432.294.49.671.027.236.072.64.154.78h-.626c-.014-.14-.113-.893-.113-.934-.041-.168-.1-.25-.308-.25h-.517v1.184h-.575zm.558 1.297h.458c.377 0 .445-.263.445-.417 0-.404-.28-.404-.431-.404h-.472z"/><path clip-rule="evenodd" d="m33.032 31.18c0-.63-.332-1.208-.876-1.523l-14.498-8.34a1.705 1.705 0 0 0 -.798-.23h-.15c-.277.01-.551.085-.801.23l-14.495 8.34c-.54.315-.876.893-.876 1.523l.032 22.465c0 .312.161.603.438.757.27.16.603.16.87 0l8.614-4.932c.544-.325.876-.893.876-1.52v-10.493c0-.626.332-1.205.873-1.516l3.669-2.112c.274-.157.571-.236.876-.236.298 0 .606.079.87.236l3.665 2.112c.544.311.876.89.876 1.516v10.493c0 .623.336 1.198.876 1.52l8.611 4.932c.27.16.606.16.877 0a.877.877 0 0 0 .434-.757l.038-22.465zm69.748-30.882a.877.877 0 0 0 -1.301.767v22.245a.614.614 0 0 1 -.304.53.613.613 0 0 1 -.613 0l-3.631-2.09a1.754 1.754 0 0 0 -1.75 0l-14.5 8.367a1.75 1.75 0 0 0 -.877 1.517v16.743c0 .626.336 1.205.876 1.516l14.502 8.375a1.76 1.76 0 0 0 1.752 0l14.505-8.375c.54-.315.876-.89.876-1.516v-41.734c0-.633-.342-1.218-.897-1.53zm-1.345 42.58a.435.435 0 0 1 -.219.38l-4.98 2.871a.436.436 0 0 1 -.438 0l-4.98-2.871a.435.435 0 0 1 -.22-.38v-5.75c0-.158.083-.301.22-.38l4.98-2.875a.436.436 0 0 1 .438 0l4.98 2.875a.444.444 0 0 1 .219.38zm49.637-5.901a1.75 1.75 0 0 0 .873-1.512v-4.06c0-.622-.332-1.2-.873-1.516l-14.409-8.364a1.759 1.759 0 0 0 -1.756-.004l-14.498 8.368c-.54.312-.876.89-.876 1.517v16.736c0 .63.339 1.211.883 1.523l14.406 8.21c.53.305 1.18.309 1.718.01l8.714-4.842a.879.879 0 0 0 .013-1.527l-14.59-8.371a.874.874 0 0 1 -.442-.76v-5.247c0-.311.168-.602.439-.76l4.541-2.618a.866.866 0 0 1 .873 0l4.542 2.619c.27.157.438.444.438.76v4.127a.872.872 0 0 0 1.314.756z" fill-rule="evenodd"/><path clip-rule="evenodd" d="m135.571 36.194a.329.329 0 0 1 .336 0l2.782 1.605a.34.34 0 0 1 .168.29v3.215a.34.34 0 0 1 -.168.29l-2.782 1.606a.329.329 0 0 1 -.336 0l-2.779-1.606a.341.341 0 0 1 -.167-.29v-3.214c0-.12.065-.23.167-.291z" fill-rule="evenodd"/></g><path clip-rule="evenodd" d="m55.453 21.7a1.728 1.728 0 0 1 1.735 0l14.385 8.3c.538.31.87.882.87 1.505v16.616c0 .62-.332 1.195-.87 1.506l-14.385 8.307a1.734 1.734 0 0 1 -1.738 0l-14.382-8.307a1.739 1.739 0 0 1 -.87-1.506v-16.616c0-.62.333-1.194.87-1.506l14.385-8.3z" fill="url(#b)" fill-opacity=".7" fill-rule="evenodd"/><path d="m71.502 30.003-14.32-8.303a1.86 1.86 0 0 0 -.456-.181l-16.188 27.691c.137.165.301.308.49.414l14.405 8.307c.428.246.927.294 1.382.147l15.125-27.692a1.441 1.441 0 0 0 -.438-.383z" fill="url(#c)" opacity=".66"/><path d="m57.157 57.934 14.35-8.307c.538-.311.801-.883.801-1.506v-.065l-15.525-26.521a1.733 1.733 0 0 0 -1.345.168l-14.234 8.207 15.487 28.212c.157-.041.315-.103.466-.188z" fill="url(#d)"/></g></svg>