<svg width="89" height="79" fill="none" xmlns="http://www.w3.org/2000/svg"><path opacity=".6" fill-rule="evenodd" clip-rule="evenodd" d="M58.71 5.199c-2.759 1.009-6.03 3.007-9.467 5.987a55.07 55.07 0 00-2.026 1.85c2.532 2.718 5.037 5.843 7.438 9.25 4.179.39 8.144 1.017 11.776 1.85a49.14 49.14 0 00.392-1.732c.984-4.76 1.118-8.842.601-11.92-.528-3.148-1.663-4.879-2.843-5.557h-.002l-.002-.001c-1.11-.642-3.045-.76-5.867.273zm6.71 22.548a83.681 83.681 0 00-8.033-1.395c.915 1.427 1.81 2.892 2.678 4.386.883 1.518 1.73 3.044 2.536 4.568a79.797 79.797 0 002.82-7.558zm-.641 11.89c1.745-3.746 3.197-7.44 4.287-10.957.9.26 1.77.532 2.608.818 4.308 1.477 7.679 3.302 9.933 5.178 2.306 1.918 3.172 3.648 3.172 4.926 0 1.357-.937 3.199-3.411 5.227-2.418 1.982-6.034 3.906-10.666 5.44M60.61 39.654a122.545 122.545 0 00-3.797-7.039 113.184 113.184 0 00-4.243-6.748c-2.6-.197-5.286-.3-8.028-.3-2.73 0-5.414.102-8.018.298a104.528 104.528 0 00-4.263 6.768 106.281 106.281 0 00-3.744 7.069 106.146 106.146 0 008.05 13.852c2.585.167 5.252.25 7.967.25 2.752 0 5.458-.095 8.081-.282a122.872 122.872 0 004.21-6.766 112.829 112.829 0 003.785-7.102zm-3.218 13.414c.917-1.447 1.815-2.93 2.69-4.44a118.876 118.876 0 002.556-4.65c1.164 2.644 2.158 5.225 2.95 7.697a80.139 80.139 0 01-8.196 1.393zm-7.525 4.364a119.8 119.8 0 01-5.333.117c-1.732 0-3.451-.032-5.15-.099a84.188 84.188 0 005.306 6.326c1.74-1.908 3.474-4.038 5.177-6.344zm-2.541 9.023c2.522-2.748 5.004-5.908 7.387-9.344 4.22-.373 8.24-.984 11.907-1.829.18.724.34 1.435.478 2.132.917 4.611.982 8.577.424 11.572-.57 3.062-1.715 4.77-2.88 5.443m5.614-20.097a53.257 53.257 0 001.63-.508h.001c4.93-1.633 8.997-3.747 11.87-6.103 2.818-2.31 4.782-5.107 4.782-8.118 0-2.913-1.867-5.594-4.521-7.802-2.706-2.25-6.521-4.268-11.12-5.844l-.002-.001c-.908-.31-1.85-.605-2.823-.884.158-.646.303-1.284.433-1.912 1.048-5.07 1.241-9.635.627-13.293-.602-3.586-2.055-6.679-4.672-8.183-2.533-1.461-5.8-1.189-9.046-.001-3.31 1.21-6.972 3.498-10.64 6.678a58.81 58.81 0 00-2.191 2.002 53.38 53.38 0 00-1.457-1.34c-3.885-3.436-7.76-5.884-11.247-7.182-3.42-1.272-6.835-1.564-9.451-.058h-.002l-.001.001c-2.53 1.463-3.922 4.42-4.509 7.815-.598 3.462-.437 7.764.496 12.518.186.946.403 1.915.65 2.902a58.23 58.23 0 00-3.255 1.018h-.002c-4.538 1.578-8.266 3.588-10.898 5.832-2.59 2.208-4.369 4.869-4.369 7.74 0 2.945 1.875 5.737 4.598 8.06 2.774 2.369 6.706 4.5 11.488 6.122.772.263 1.57.511 2.39.745a57.238 57.238 0 00-.693 3.14c-.897 4.708-1.012 8.93-.376 12.322.626 3.337 2.051 6.199 4.547 7.633 2.56 1.47 5.923 1.244 9.303.055 3.445-1.213 7.266-3.54 11.074-6.856a50.177 50.177 0 001.838-1.687c.797.764 1.59 1.486 2.38 2.162 3.641 3.123 7.255 5.33 10.523 6.475 3.215 1.127 6.417 1.328 8.91-.107l.002-.002c2.557-1.475 4.041-4.49 4.695-8.002.667-3.58.55-8.04-.432-12.982a49.557 49.557 0 00-.53-2.355zM69.23 50.73c-1.131-3.564-2.645-7.302-4.451-11.093l4.45 11.093zm1.472-.46c-.48.158-.97.312-1.472.46l1.472-.46zm-28.63 16.203c-2.562-2.738-5.117-5.878-7.566-9.312-4.19-.339-8.189-.902-11.848-1.707-.249 1-.464 1.974-.644 2.92-.838 4.402-.9 8.133-.373 10.937.535 2.857 1.609 4.433 2.728 5.076 1.167.67 3.225.806 6.174-.232 2.883-1.014 6.299-3.05 9.852-6.144.557-.486 1.117-1 1.677-1.538zm-18.4-14.632c2.528.548 5.246.979 8.102 1.296a110.822 110.822 0 01-5.252-9.03 83.95 83.95 0 00-2.85 7.734zm2.847-16.544a110.84 110.84 0 015.179-8.951 85.24 85.24 0 00-7.977 1.364 82.64 82.64 0 002.798 7.587zm-6.448-6.67c1.095 3.549 2.536 7.281 4.29 11.078-1.772 3.844-3.234 7.632-4.34 11.224a46.27 46.27 0 01-2.183-.682h-.003c-4.459-1.512-7.933-3.44-10.254-5.42-2.373-2.026-3.284-3.873-3.284-5.217 0-1.288.835-3.003 3.054-4.894 2.176-1.855 5.45-3.666 9.691-5.14a54.56 54.56 0 013.03-.949zm2.634-4.528c3.625-.817 7.585-1.433 11.741-1.817 2.429-3.415 4.96-6.526 7.503-9.245-.441-.42-.881-.825-1.32-1.213-3.648-3.227-7.131-5.381-10.065-6.473-3.002-1.117-5.074-1.003-6.254-.325-1.112.643-2.179 2.26-2.689 5.21-.499 2.886-.394 6.708.48 11.163.173.878.374 1.779.604 2.7zm21.878-8.385a82.737 82.737 0 00-5.226 6.228 111.71 111.71 0 0110.404.002 80.332 80.332 0 00-5.178-6.23zm2.742 50.743a53.71 53.71 0 002.213 2.01c3.403 2.919 6.617 4.835 9.319 5.781 2.754.966 4.664.827 5.783.182M44.541 33.656c-3.302 0-5.979 2.667-5.979 5.957s2.677 5.956 5.98 5.956c3.301 0 5.978-2.667 5.978-5.956 0-3.29-2.677-5.957-5.979-5.957zm-9.738 5.957c0-5.359 4.36-9.703 9.738-9.703 5.378 0 9.738 4.344 9.738 9.703 0 5.358-4.36 9.702-9.738 9.702-5.378 0-9.738-4.344-9.738-9.702z" fill="#1F3D56"/></svg>