<svg width="84" height="79" fill="none" xmlns="http://www.w3.org/2000/svg"><g opacity=".6" fill="#1F3D56"><path d="M57.694 55.222a5.895 5.895 0 00-.634-11.755h-.212a5.875 5.875 0 00-5.667 6.088 6.026 6.026 0 001.68 3.884c-3.57 7.033-9.028 12.176-17.213 16.479-5.557 2.935-11.33 3.992-17.102 3.252-4.724-.635-8.397-2.73-10.706-6.194-3.357-5.142-3.673-10.705-.845-16.268 1.994-3.989 5.142-6.928 7.136-8.397-.423-1.364-1.057-3.673-1.364-5.352C-2.457 47.979-.878 62.883 3.74 69.916c3.464 5.248 10.497 8.502 18.263 8.502a25.796 25.796 0 006.297-.734c13.442-2.624 23.621-10.602 29.394-22.462z"/><path d="M76.166 42.21C68.19 32.868 56.434 27.726 43 27.726h-1.668a5.766 5.766 0 00-5.143-3.149h-.211a5.88 5.88 0 00.211 11.755h.212a5.92 5.92 0 005.142-3.57h1.889c7.975 0 15.533 2.31 22.356 6.822 5.248 3.463 9.027 7.976 11.124 13.433 1.785 4.409 1.68 8.712-.21 12.385-2.94 5.563-7.873 8.606-14.38 8.606-4.197 0-8.187-1.269-10.285-2.203-1.154 1.057-3.254 2.73-4.723 3.778 4.512 2.1 9.13 3.254 13.532 3.254 10.076 0 17.528-5.563 20.361-11.124 3.05-6.088 2.838-16.582-5.04-25.503z"/><path d="M22.85 57.007a5.895 5.895 0 005.878 5.667h.211a5.88 5.88 0 00-.211-11.755h-.212c-.25-.016-.5.02-.734.106-4.303-7.136-6.087-14.903-5.457-23.3.419-6.297 2.514-11.752 6.191-16.269 3.043-3.884 8.921-5.772 12.91-5.878 11.123-.211 15.858 13.645 16.162 19.206 1.364.315 3.673 1.057 5.249 1.575C61.578 9.357 51.082.537 41.007.537c-9.446 0-18.158 6.821-21.621 16.897-4.828 13.433-1.68 26.345 4.197 36.524a4.716 4.716 0 00-.734 3.049z"/></g></svg>