<svg width="93" height="93" fill="none" xmlns="http://www.w3.org/2000/svg"><path opacity=".6" d="M.561 46.213v44.975a1 1 0 001 1h89.954a1 1 0 001-1V1.234a1 1 0 00-1-1H1.561a1 1 0 00-1 1v44.979zm74.103-3.664c2.335.583 4.116 1.62 5.751 3.313.848.905 2.102 2.555 2.204 2.948.029.115-3.97 2.802-6.394 4.306-.086.058-.438-.32-.833-.905-1.182-1.724-2.422-2.467-4.32-2.597-2.787-.19-4.598 1.27-4.569 3.706 0 .716.1 1.138.394 1.724.613 1.27 1.753 2.03 5.327 3.578 6.583 2.83 9.4 4.698 11.15 7.356 1.953 2.963 2.393 7.692 1.065 11.21-1.46 3.824-5.078 6.422-10.172 7.284-1.576.277-5.313.234-7.005-.072-3.693-.657-7.196-2.482-9.356-4.875-.848-.934-2.496-3.372-2.394-3.549.043-.057.424-.291.848-.54l3.415-1.968 2.644-1.533.554.819c.773 1.182 2.467 2.801 3.488 3.341 2.934 1.548 6.963 1.328 8.947-.452.848-.773 1.197-1.576 1.197-2.759 0-1.066-.13-1.533-.686-2.334-.715-1.02-2.175-1.882-6.321-3.678-4.744-2.043-6.787-3.313-8.655-5.328-1.08-1.168-2.102-3.036-2.526-4.597-.35-1.3-.438-4.555-.16-5.868.976-4.598 4.436-7.78 9.429-8.728 1.62-.306 5.387-.19 6.976.204l.002-.006zm-21.587 3.836l.029 3.764H41.138v34.008h-8.466V50.149H20.704v-3.692l.1-3.793c.044-.057 7.328-.086 16.158-.072l16.07.043.045 3.75z" fill="#1F3D56"/></svg>