<svg width="25" height="24" fill="none" xmlns="http://www.w3.org/2000/svg"><path d="M10.772 17.975a8 8 0 018-8 7.972 7.972 0 016 2.721V1.975a.998.998 0 00-.385-.788.987.987 0 00-.857-.182l-7.718 1.929-5.724-1.907a.985.985 0 00-.559-.021l-8 2a.998.998 0 00-.757.969v18a.998.998 0 001.242.97l7.718-1.929 1.946.648a7.95 7.95 0 01-.906-3.689z" fill="#1F3D56"></path><path d="M24.772 18.975v-2h-2.141a3.954 3.954 0 00-.424-1.02l1.515-1.515-1.414-1.414-1.515 1.515a3.954 3.954 0 00-1.02-.424v-2.142h-2v2.141a3.954 3.954 0 00-1.02.424l-1.515-1.515-1.414 1.414 1.515 1.515c-.186.316-.33.656-.424 1.02h-2.143v2h2.141c.094.364.238.704.424 1.02l-1.515 1.515 1.414 1.414 1.515-1.515c.316.186.656.33 1.02.424v2.143h2v-2.14a3.954 3.954 0 001.02-.425l1.515 1.515 1.414-1.414-1.515-1.515c.186-.316.33-.656.424-1.02h2.143zm-6 0a1 1 0 110-2 1 1 0 010 2z" fill="#1F3D56"></path></svg>
