<svg xmlns="http://www.w3.org/2000/svg" width="29" height="22" fill="none"><path d="M28.73 18.857a.761.761 0 00.077-.844l-2.684-4.828A9.839 9.839 0 0010.99 2.114h-.098a9.649 9.649 0 00-8.235 14.683L.962 20.75a.76.76 0 00.989 1.004l4.03-1.658a9.634 9.634 0 0010.128-.228 6.7 6.7 0 00.676 0 9.809 9.809 0 006.258-2.28l4.874 1.46a.761.761 0 00.814-.19zm-15.724-6.47h7.604a.76.76 0 110 1.52h-7.604a.76.76 0 010-1.52zm-.76-2.282a.76.76 0 01.76-.76h7.604a.76.76 0 110 1.52h-7.604a.76.76 0 01-.76-.76zm8.364-2.28h-7.604a.76.76 0 010-1.521h7.604a.76.76 0 110 1.52zM6.46 18.574a.76.76 0 00-.7-.068L3.1 19.61l1.118-2.585a.76.76 0 00-.069-.76A8.128 8.128 0 019.19 3.816a9.84 9.84 0 004.486 15.58 8.12 8.12 0 01-7.215-.814v-.007z" fill="#1F3D56"/></svg>