<svg fill="none" height="29" width="28" xmlns="http://www.w3.org/2000/svg"><path d="m28 5.218c0-2.7-2.2-4.9-4.9-4.9-1 0-2.9.4-5.7 1.4-2.2.7-4.6.7-6.8 0-2.8-1-4.7-1.4-5.7-1.4-2.7 0-4.9 2.2-4.9 4.9 0 2 1 5.7 1.3 6.6l-1.3 13c0 1.9 1.6 3.5 3.5 3.5 1 0 2-.5 2.9-1.6l5-5.9c.6-.7 1.5-1.6 2.6-1.6.9 0 1.7.5 2.6 1.6l5 5.9c.5.6 1.5 1.6 2.9 1.6 1.9 0 3.5-1.6 3.5-3.6l-1.3-12.9c.3-.9 1.3-4.6 1.3-6.6zm-9.9 3.7c-1.3.3-2.7.5-4.1.5s-2.8-.2-4.1-.5c-.5-.1-.9-.7-.7-1.2.1-.5.7-.9 1.2-.7 1.1.3 2.4.4 3.6.4s2.5-.1 3.7-.4c.5-.1 1.1.2 1.2.7.1.6-.2 1.1-.8 1.2z" fill="#1f3d56"/></svg>