<svg width="25" height="25" fill="none" xmlns="http://www.w3.org/2000/svg"><path d="M14.196 22.162a1.992 1.992 0 00-1-1.723v-4.277h-2v4.277a2 2 0 103 1.723zM6.196 14.17v2.587l-1.488 1.488a2.033 2.033 0 101.414 1.414l1.78-1.781a1 1 0 00.294-.707v-3h-2zM18.196 14.17v2.587l1.488 1.488a2.033 2.033 0 11-1.414 1.414l-1.781-1.781a1 1 0 01-.293-.707v-3h2zM.196 10.17v2h8a4 4 0 118 0h8v-2l-3.338-.416a8.937 8.937 0 00-.826-2L22.096 5.1l-2.83-2.83-2.652 2.065a8.934 8.934 0 00-2-.826L14.196.17h-4l-.417 3.338c-.698.193-1.37.47-2 .826L5.125 2.27 2.295 5.1 4.36 7.753a8.936 8.936 0 00-.826 2l-3.338.418z" fill="#1F3D56"></path></svg>
