<svg xmlns="http://www.w3.org/2000/svg" width="29" height="27" fill="none"><path d="M19.199 10.197c-.452-.361-1.107-.293-1.513.113l-4.697 4.697-2.077-2.077c-.407-.407-1.084-.497-1.513-.113a1.117 1.117 0 00-.09 1.648l3.116 3.116a.818.818 0 001.151 0l5.713-5.735c.452-.475.43-1.22-.09-1.649z" fill="#1F3D56"/><path d="M28.276 12.41c-.023-.315-.18-.519-.497-.632-1.693-.61-2.935-1.693-3.793-3.364-.542-1.039-.858-2.032-.926-2.98a5.792 5.792 0 01.023-1.085c.022-.225.067-.474.113-.722.022-.045.022-.09.022-.136v-.203c-.023-.248-.158-.451-.429-.61-.316-.18-.61-.36-.926-.564L21.683 2a37.542 37.542 0 01-1.49-.903.924.924 0 00-.904-.045c-.068.045-.158.09-.248.158l-.09.067c-.294.226-.633.497-.972.7-.158.09-.293.136-.429.204-1.31.451-2.506.655-3.613.587-1.512-.09-2.845-.655-4.064-1.739C9.466.669 9.128.737 8.812.917A73.07 73.07 0 016.17 2.385c-.204.113-.339.248-.407.406-.022.068-.045.113-.045.181-.023.113 0 .226.023.361.045.316.09.633.09.949v.022c.023.384 0 .768-.045 1.13-.045.406-.136.79-.271 1.173-.452 1.4-1.423 2.665-2.89 3.84a3.17 3.17 0 01-.407.27 6.69 6.69 0 01-1.106.452l-.09.045a.755.755 0 00-.272.113.781.781 0 00-.384.429c-.022.068-.045.113-.045.18v.655c0 .271 0 .565-.022.836v.541c0 .362-.023.746-.023 1.107v.249c.045.338.226.542.587.677 1.513.52 2.665 1.535 3.636 3.184.813 1.4 1.129 2.8.97 4.268a4.312 4.312 0 01-.135.745c0 .022-.022.067-.022.09-.046.316.09.565.406.745.994.61 1.852 1.13 2.71 1.626.09.045.248.136.406.136a.715.715 0 00.361-.09 1.58 1.58 0 00.226-.181 5.002 5.002 0 011.016-.768c1.152-.632 2.733-.926 4.313-.768 1.604.158 3.003.745 3.839 1.649.136.135.339.316.61.338h.067c.159 0 .34-.045.565-.18.474-.271.926-.52 1.242-.7.316-.181.768-.43 1.264-.7a.95.95 0 00.475-.475c.022-.067.045-.113.045-.18a.903.903 0 00-.045-.43c-.046-.18-.068-.338-.113-.519a6.257 6.257 0 01-.023-.925c.023-.362.09-.746.18-1.13a7.31 7.31 0 01.588-1.558c.7-1.422 1.784-2.619 2.935-3.251.384-.226.79-.361 1.197-.452.18-.045.43-.135.542-.406a.42.42 0 00.045-.158c0-.023.023-.045.023-.09 0-.046 0-.09.022-.136 0-.248.023-.474.023-.723.022-.835.022-1.648.022-2.416.023-.045.023-.09.023-.135zm-5.826 2.53c-.09.7-.27 1.377-.542 2.032a8.277 8.277 0 01-3.613 4.064c-1.4.746-2.958 1.107-4.516 1.017A8.084 8.084 0 017.276 18.1a8.478 8.478 0 01-1.129-5.352c.045-.36.113-.7.203-1.038.113-.407.249-.79.407-1.175.045-.112.09-.225.158-.338 0-.023.022-.023.022-.045.723-1.446 1.897-2.665 3.388-3.5a8.125 8.125 0 014.448-1.016 8.83 8.83 0 011.874.338 8.36 8.36 0 014.99 4.2 7.875 7.875 0 01.813 4.765z" fill="#1F3D56"/></svg>