<svg width="25" height="19" fill="none" xmlns="http://www.w3.org/2000/svg"><path d="M5.398 3.872h5M14.398 3.872h5" stroke="#1F3D56" stroke-width="2" stroke-miterlimit="10" stroke-linecap="square"></path><path d="M14.398 5.072c4 .9 7 4.5 7 8.8M3.398 13.872c0-4.3 3-7.9 7-8.8" stroke="#1F3D56" stroke-width="2" stroke-miterlimit="10"></path><path d="M3.398 5.872a2 2 0 100-4 2 2 0 000 4zM21.398 5.872a2 2 0 100-4 2 2 0 000 4zM14.398 1.872h-4v4h4v-4zM5.398 13.872h-4v4h4v-4zM23.398 13.872h-4v4h4v-4z" stroke="#1F3D56" stroke-width="2" stroke-miterlimit="10" stroke-linecap="square"></path></svg>
