<svg width="25" height="19" fill="none" xmlns="http://www.w3.org/2000/svg"><path d="M5.398 3.872h5m4 0h5" stroke="#1F3D56" stroke-width="2" stroke-miterlimit="10" stroke-linecap="square"/><path d="M14.398 5.072c4 .9 7 4.5 7 8.8m-18 0c0-4.3 3-7.9 7-8.8" stroke="#1F3D56" stroke-width="2" stroke-miterlimit="10"/><path d="M3.398 5.872a2 2 0 100-4 2 2 0 000 4zm18 0a2 2 0 100-4 2 2 0 000 4zm-7-4h-4v4h4v-4zm-9 12h-4v4h4v-4zm18 0h-4v4h4v-4z" stroke="#1F3D56" stroke-width="2" stroke-miterlimit="10" stroke-linecap="square"/></svg>