<svg width="33" height="36" viewBox="0 0 33 36" fill="none" xmlns="http://www.w3.org/2000/svg">
<path d="M0.103376 8.29527H12.7521V5.01431C12.7521 4.41061 13.2661 3.92065 13.902 3.92065H26.5508C27.1867 3.92065 27.7007 4.41061 27.7007 5.01431V20.3255C27.7007 20.9292 27.1867 21.4191 26.5508 21.4191H18.6396L24.251 25.7937H0.103376L4.70293 17.0445L0.103376 8.29527Z" fill="#1F3D56"></path>
<path d="M31.1502 0.639648C31.786 0.639648 32.3 1.12961 32.3 1.7333V34.5429C32.3 35.1466 31.786 35.6366 31.1502 35.6366C30.5143 35.6366 30.0003 35.1466 30.0003 34.5429V1.7333C30.0003 1.12961 30.5143 0.639648 31.1502 0.639648Z" fill="#1F3D56"></path>
</svg>
