<svg xmlns="http://www.w3.org/2000/svg" width="29" height="28" fill="none"><path d="M16.243 20.088v4.847h1.653a.57.57 0 01.57.57v1.925a.57.57 0 01-.57.57h-6.338a.57.57 0 01-.57-.57V25.5a.57.57 0 01.57-.57h1.654v-4.666l3.03-.176zM5.978 8.22a.593.593 0 00.445.24l17.895.992a.59.59 0 00.51-.94l-1.62-2.22a.151.151 0 010-.19l1.874-2.01a.59.59 0 00-.402-.993l-8.437-.464V.76A.758.758 0 0015.49 0h-1.528a.758.758 0 00-.75.761v1.711L6.779 2.11a.59.59 0 00-.47.191L4.028 4.767a.59.59 0 00-.043.75L5.978 8.22zm17.678 9.94l1.996-2.703a.59.59 0 00-.043-.75l-2.28-2.466a.59.59 0 00-.469-.191l-6.617.365v-2.11l-3.037-.168v2.446l-8.249.456a.59.59 0 00-.405.992l1.856 2.02a.151.151 0 010 .19l-1.622 2.21a.59.59 0 00.51.94l17.895-.991a.59.59 0 00.465-.24z" fill="#1F3D56"/></svg>