<svg width="29" height="28" fill="none" xmlns="http://www.w3.org/2000/svg"><path d="M26.2 24.17H2.8c-.54 0-.9.36-.9.9v1.8c0 .54.36.9.9.9h23.4c.54 0 .9-.36.9-.9v-1.8c0-.54-.36-.9-.9-.9zM28 4.37h-7.2v-2.7c0-.54-.36-.9-.9-.9H9.1c-.54 0-.9.36-.9.9v2.7H1c-.54 0-.9.36-.9.9v16.2c0 .54.36.9.9.9h27c.54 0 .9-.36.9-.9V5.27c0-.54-.36-.9-.9-.9zm-9 9.9c0 .54-.36.9-.9.9h-1.8v1.8c0 .54-.36.9-.9.9h-1.8c-.54 0-.9-.36-.9-.9v-1.8h-1.8c-.54 0-.9-.36-.9-.9v-1.8c0-.54.36-.9.9-.9h1.8v-1.8c0-.54.36-.9.9-.9h1.8c.54 0 .9.36.9.9v1.8h1.8c.54 0 .9.36.9.9v1.8zm0-9.9h-9v-1.8h9v1.8z" fill="#1F3D56"/></svg>