<svg xmlns="http://www.w3.org/2000/svg" width="29" height="30" fill="none"><path d="M27.616 14.848h-3.175a.686.686 0 100 1.371h3.175a.686.686 0 000-1.371zM23.342 11.284a.682.682 0 00.354-.09l2.75-1.588a.693.693 0 00-.7-1.197l-2.748 1.597a.685.685 0 00.344 1.281v-.003zM22.162 3.4a.686.686 0 00-.94.178l-1.79 2.624a.685.685 0 101.133.767l1.778-2.63a.686.686 0 00-.181-.94zM8.61 7.267a.686.686 0 00.566-1.074L7.385 3.569a.686.686 0 10-1.134.77l1.788 2.63a.686.686 0 00.57.298zM5.578 10.007L2.826 8.41a.686.686 0 00-.686 1.187l2.75 1.587a.686.686 0 10.685-1.187l.003.01zM26.433 21.33l-2.737-1.588a.691.691 0 00-.698 1.193l2.749 1.588a.685.685 0 00.686-1.187v-.006zM4.892 19.742l-2.749 1.587a.685.685 0 10.686 1.187l2.75-1.581a.686.686 0 00-.687-1.187v-.006zM4.849 15.533a.686.686 0 00-.686-.685H.988a.686.686 0 100 1.371h3.175a.687.687 0 00.686-.686zM14.277 5.441a.686.686 0 00.686-.686V1.58a.686.686 0 10-1.372 0v3.175a.687.687 0 00.686.686zM17.004 23.831H11.55a.686.686 0 000 1.372h5.454a.685.685 0 100-1.372zM12.862 27.921v.376a.78.78 0 00.776.78h1.109a.78.78 0 00.776-.777v-.363a1.691 1.691 0 001.597-1.679h-5.702a1.69 1.69 0 001.444 1.663zM14.277 8.278c-3.808 0-6.889 3.17-6.889 7.074a7.202 7.202 0 001.82 4.79l1.75 2.69h6.644l1.75-2.69a7.1 7.1 0 001.316-2.135 7.2 7.2 0 00.504-2.655c0-3.908-3.087-7.074-6.895-7.074zm-.313 2.606a4.577 4.577 0 00-2.054.626c-1.312.78-1.995 2.192-2.03 4.155a.686.686 0 01-.685.673.687.687 0 01-.673-.698c.053-3.131 1.53-4.638 2.761-5.345a5.906 5.906 0 012.693-.774.686.686 0 110 1.372l-.012-.01z" fill="#1F3D56"/></svg>