<svg xmlns="http://www.w3.org/2000/svg" width="29" height="30" viewBox="0 0 29 30" fill="none"><path d="M27.6163 14.8477H24.4411C24.2592 14.8477 24.0848 14.9199 23.9562 15.0485C23.8276 15.1771 23.7554 15.3515 23.7554 15.5334C23.7554 15.7153 23.8276 15.8897 23.9562 16.0183C24.0848 16.1469 24.2592 16.2192 24.4411 16.2192H27.6163C27.7981 16.2192 27.9725 16.1469 28.1012 16.0183C28.2298 15.8897 28.302 15.7153 28.302 15.5334C28.302 15.3515 28.2298 15.1771 28.1012 15.0485C27.9725 14.9199 27.7981 14.8477 27.6163 14.8477V14.8477Z" fill="#1F3D56"></path><path d="M23.342 11.2839C23.466 11.2864 23.5883 11.255 23.6959 11.1931L26.4451 9.60555C26.6037 9.51295 26.7191 9.36113 26.7658 9.1835C26.8125 9.00586 26.7867 8.81695 26.6941 8.65833C26.6015 8.49971 26.4497 8.38437 26.272 8.33769C26.0944 8.291 25.9055 8.3168 25.7469 8.40939L22.9976 10.0064C22.8662 10.0817 22.7634 10.1983 22.7053 10.3382C22.6472 10.478 22.637 10.6332 22.6764 10.7794C22.7157 10.9256 22.8023 11.0548 22.9227 11.1466C23.0432 11.2384 23.1906 11.2878 23.342 11.287V11.2839Z" fill="#1F3D56"></path><path d="M22.1616 3.39968C22.0126 3.30127 21.8311 3.26486 21.6556 3.29819C21.4802 3.33152 21.3247 3.43196 21.2222 3.57816L19.4311 6.20218C19.3737 6.27631 19.3322 6.3614 19.309 6.45221C19.2858 6.54303 19.2815 6.63763 19.2963 6.73018C19.3111 6.82273 19.3447 6.91126 19.395 6.99031C19.4454 7.06935 19.5114 7.13724 19.5891 7.18977C19.6667 7.24231 19.7542 7.27837 19.8463 7.29574C19.9384 7.31311 20.0331 7.31141 20.1245 7.29075C20.216 7.2701 20.3022 7.23092 20.3779 7.17564C20.4536 7.12036 20.5171 7.05015 20.5646 6.96935L22.3432 4.33906C22.4413 4.18969 22.4772 4.00792 22.4433 3.83246C22.4093 3.65701 22.3083 3.50172 22.1616 3.39968V3.39968Z" fill="#1F3D56"></path><path d="M8.6093 7.26658C8.73435 7.26685 8.85711 7.23293 8.96428 7.16847C9.07145 7.10401 9.15894 7.01147 9.21731 6.90087C9.27568 6.79026 9.30269 6.6658 9.29541 6.54095C9.28814 6.41611 9.24687 6.29562 9.17606 6.19254L7.38496 3.56852C7.33607 3.49026 7.27189 3.42267 7.19626 3.3698C7.12063 3.31694 7.03511 3.27988 6.94482 3.26084C6.85453 3.24181 6.76133 3.24119 6.67079 3.25903C6.58026 3.27687 6.49425 3.3128 6.41793 3.36466C6.34161 3.41653 6.27654 3.48326 6.22662 3.56087C6.17671 3.63848 6.14296 3.72536 6.12742 3.81631C6.11187 3.90727 6.11484 4.00043 6.13615 4.09021C6.15746 4.17999 6.19667 4.26455 6.25143 4.33882L8.0394 6.9691C8.10285 7.06148 8.18798 7.1369 8.28733 7.18876C8.38668 7.24062 8.49723 7.26733 8.6093 7.26658V7.26658Z" fill="#1F3D56"></path><path d="M5.57821 10.0067L2.82581 8.40978C2.66893 8.32641 2.48582 8.30719 2.31504 8.35615C2.14426 8.4051 1.99915 8.51843 1.91027 8.67225C1.82138 8.82607 1.79567 9.00839 1.83853 9.18079C1.88139 9.3532 1.98949 9.50225 2.14006 9.59654L4.88933 11.1841C4.96739 11.233 5.0545 11.2656 5.14546 11.2801C5.23642 11.2946 5.32936 11.2906 5.41875 11.2684C5.50813 11.2462 5.59212 11.2062 5.66571 11.1508C5.73929 11.0954 5.80097 11.0257 5.84705 10.946C5.89313 10.8663 5.92268 10.778 5.93392 10.6866C5.94516 10.5952 5.93788 10.5025 5.91249 10.4139C5.88711 10.3254 5.84415 10.2429 5.78618 10.1713C5.72821 10.0997 5.65642 10.0406 5.57508 9.99734L5.57821 10.0067Z" fill="#1F3D56"></path><path d="M26.4326 21.3297L23.6959 19.7421C23.5377 19.6495 23.3492 19.6236 23.1718 19.67C22.9945 19.7164 22.8428 19.8313 22.7502 19.9895C22.6576 20.1477 22.6317 20.3362 22.678 20.5136C22.7244 20.6909 22.8394 20.8426 22.9976 20.9351L25.7469 22.5227C25.9037 22.6061 26.0869 22.6253 26.2576 22.5763C26.4284 22.5274 26.5735 22.4141 26.6624 22.2602C26.7513 22.1064 26.777 21.9241 26.7341 21.7517C26.6913 21.5793 26.5832 21.4302 26.4326 21.336V21.3297Z" fill="#1F3D56"></path><path d="M4.89247 19.7419L2.1432 21.3295C2.06187 21.3727 1.99007 21.4318 1.9321 21.5034C1.87413 21.575 1.83117 21.6575 1.80579 21.746C1.78041 21.8346 1.77312 21.9273 1.78436 22.0187C1.79561 22.1102 1.82515 22.1984 1.87123 22.2781C1.91732 22.3579 1.97899 22.4275 2.05258 22.4829C2.12616 22.5383 2.21015 22.5783 2.29954 22.6005C2.38892 22.6227 2.48187 22.6267 2.57282 22.6122C2.66378 22.5978 2.75089 22.5651 2.82895 22.5162L5.57823 20.9349C5.72879 20.8406 5.83689 20.6916 5.87976 20.5192C5.92262 20.3468 5.8969 20.1645 5.80802 20.0106C5.71913 19.8568 5.57402 19.7435 5.40324 19.6945C5.23247 19.6456 5.04936 19.6648 4.89247 19.7482V19.7419Z" fill="#1F3D56"></path><path d="M4.84864 15.5334C4.84864 15.3515 4.77639 15.1771 4.64778 15.0485C4.51918 14.9199 4.34476 14.8477 4.16288 14.8477H0.987755C0.805882 14.8477 0.631458 14.9199 0.502854 15.0485C0.374251 15.1771 0.302002 15.3515 0.302002 15.5334C0.302002 15.7153 0.374251 15.8897 0.502854 16.0183C0.631458 16.1469 0.805882 16.2192 0.987755 16.2192H4.16288C4.25294 16.2192 4.34211 16.2014 4.42531 16.167C4.50851 16.1325 4.58411 16.082 4.64778 16.0183C4.71146 15.9546 4.76197 15.879 4.79644 15.7958C4.8309 15.7126 4.84864 15.6235 4.84864 15.5334Z" fill="#1F3D56"></path><path d="M14.277 5.44117C14.367 5.44117 14.4562 5.42343 14.5394 5.38897C14.6226 5.3545 14.6982 5.30399 14.7619 5.24031C14.8255 5.17664 14.8761 5.10104 14.9105 5.01784C14.945 4.93464 14.9627 4.84547 14.9627 4.75541V1.58028C14.9627 1.39841 14.8905 1.22399 14.7619 1.09538C14.6333 0.96678 14.4588 0.894531 14.277 0.894531C14.0951 0.894531 13.9207 0.96678 13.7921 1.09538C13.6635 1.22399 13.5912 1.39841 13.5912 1.58028V4.75541C13.5912 4.84547 13.609 4.93464 13.6434 5.01784C13.6779 5.10104 13.7284 5.17664 13.7921 5.24031C13.8557 5.30399 13.9313 5.3545 14.0145 5.38897C14.0977 5.42343 14.1869 5.44117 14.277 5.44117V5.44117Z" fill="#1F3D56"></path><path d="M17.0043 23.8315H11.5496C11.3677 23.8315 11.1933 23.9038 11.0647 24.0324C10.9361 24.161 10.8638 24.3354 10.8638 24.5173C10.8638 24.6992 10.9361 24.8736 11.0647 25.0022C11.1933 25.1308 11.3677 25.203 11.5496 25.203H17.0043C17.0943 25.203 17.1835 25.1853 17.2667 25.1508C17.3499 25.1164 17.4255 25.0659 17.4892 25.0022C17.5529 24.9385 17.6034 24.8629 17.6378 24.7797C17.6723 24.6965 17.69 24.6074 17.69 24.5173C17.69 24.4272 17.6723 24.3381 17.6378 24.2549C17.6034 24.1717 17.5529 24.0961 17.4892 24.0324C17.4255 23.9687 17.3499 23.9182 17.2667 23.8837C17.1835 23.8493 17.0943 23.8315 17.0043 23.8315V23.8315Z" fill="#1F3D56"></path><path d="M12.8616 27.921V28.2968C12.8616 28.503 12.9433 28.7009 13.0889 28.847C13.2344 28.9931 13.4319 29.0756 13.6382 29.0765H14.7467C14.9524 29.0756 15.1494 28.9936 15.2949 28.8481C15.4403 28.7026 15.5224 28.5056 15.5232 28.2999V27.9367C15.953 27.9128 16.3575 27.7258 16.6543 27.414C16.951 27.1021 17.1176 26.6888 17.1202 26.2583H11.4181C11.4205 26.6622 11.5673 27.0518 11.8321 27.3568C12.0969 27.6618 12.4621 27.8619 12.8616 27.921Z" fill="#1F3D56"></path><path d="M14.2769 8.27832C10.4693 8.27832 7.3881 11.4472 7.3881 15.3519C7.38707 16.2609 7.55812 17.1619 7.89223 18.0072C7.93399 18.1116 7.97782 18.216 8.02375 18.3204C8.32242 18.985 8.72164 19.5997 9.20738 20.1428L10.9578 22.8326H17.6024L19.3528 20.1428C19.8385 19.5997 20.2377 18.985 20.5364 18.3204C20.5823 18.2181 20.6261 18.1137 20.6679 18.0072C21.002 17.1619 21.1731 16.2609 21.172 15.3519C21.172 11.4441 18.0846 8.27832 14.2769 8.27832ZM13.9638 10.8836C13.2391 10.9265 12.5351 11.1411 11.9097 11.5098C10.5977 12.2895 9.91505 13.7017 9.8806 15.665C9.87732 15.8447 9.80363 16.016 9.67538 16.1419C9.54713 16.2678 9.37457 16.3383 9.19485 16.3383V16.3383C9.10479 16.3366 9.01594 16.3173 8.93336 16.2813C8.85078 16.2453 8.7761 16.1934 8.71359 16.1286C8.65107 16.0637 8.60194 15.9872 8.569 15.9034C8.53606 15.8195 8.51996 15.73 8.52162 15.64C8.57486 12.5087 10.0528 11.0025 11.2834 10.2949C12.106 9.82478 13.0297 9.55951 13.9763 9.52144C14.1582 9.52144 14.3326 9.59369 14.4612 9.7223C14.5898 9.8509 14.6621 10.0253 14.6621 10.2072C14.6621 10.3891 14.5898 10.5635 14.4612 10.6921C14.3326 10.8207 14.1582 10.8929 13.9763 10.8929L13.9638 10.8836Z" fill="#1F3D56"></path></svg>
