<?xml version="1.0" encoding="utf-8"?>
<svg width="30" height="30" viewBox="0 0 30 30" fill="none" xmlns="http://www.w3.org/2000/svg">
<path d="M21.375 0.211077C20.1658 0.204085 18.9695 0.459781 17.8688 0.960488C16.7682 1.46119 15.7893 2.19497 15 3.11108C14.2108 2.19497 13.2319 1.46119 12.1312 0.960488C11.0306 0.459781 9.83425 0.204085 8.62504 0.211077C6.32846 0.223776 4.13068 1.14685 2.51377 2.77781C0.896865 4.40878 -0.00714222 6.61447 4.25006e-05 8.91108C4.25006e-05 17.0501 13.781 28.5561 14.437 29.0241C14.5111 29.0951 14.6001 29.1487 14.6975 29.1811C14.7948 29.2134 14.8982 29.2237 15 29.2111C15.2022 29.2064 15.3983 29.1413 15.563 29.0241C16.219 28.5561 30 16.9561 30 8.91108C30.0072 6.61447 29.1032 4.40878 27.4863 2.77781C25.8694 1.14685 23.6716 0.223776 21.375 0.211077Z" fill="#1F3D56"/>
</svg>
