<svg width="34" height="31" fill="none" xmlns="http://www.w3.org/2000/svg"><path d="M19.252 24.968c-.04-.369.006-.742.136-1.092.13-.35.34-.67.615-.937.275-.266.608-.473.977-.605a2.865 2.865 0 011.158-.16 2.405 2.405 0 01.08-1.177c.124-.38.34-.73.634-1.017a2.737 2.737 0 011.052-.64c.4-.134.827-.178 1.247-.128-.01-.348.056-.694.193-1.018.137-.323.342-.617.604-.864.255-.24.558-.43.892-.56a2.904 2.904 0 012.104 0c.334.13.637.32.892.56l.556.522c.389.364.652.83.757 1.336.105.507.046 1.03-.17 1.505a2.629 2.629 0 01-1.038 1.157 2.877 2.877 0 01-1.55.411 2.41 2.41 0 01-.136 1.172 2.543 2.543 0 01-.682.99c-.306.274-.676.479-1.081.595a2.882 2.882 0 01-1.251.076c.026.356-.027.713-.156 1.048a2.53 2.53 0 01-.595.9c-.263.256-.58.459-.931.594a2.868 2.868 0 01-1.108.188 2.215 2.215 0 01-.713 1.608 2.52 2.52 0 01-1.725.671 2.521 2.521 0 01-1.725-.671l-.597-.562a2.25 2.25 0 01-.663-1.135c-.1-.43-.065-.88.1-1.291.166-.413.454-.771.831-1.033a2.528 2.528 0 011.294-.443h-.002z" fill="#1F3D56"/><path d="M1.412.786h10.477a8.462 8.462 0 015.084 1.674A8.462 8.462 0 0122.056.786h10.477c.275 0 .54.105.734.291.194.187.304.44.304.703v12.925c0 .264-.11.517-.304.703a1.06 1.06 0 01-.734.292 1.06 1.06 0 01-.733-.292.974.974 0 01-.304-.703V2.775h-9.44a6.366 6.366 0 00-3.543 1.063l5.71 5.475c.459.435.73 1.019.764 1.636a2.42 2.42 0 01-.585 1.704c-.41.478-.99.793-1.628.883a2.683 2.683 0 01-1.824-.397l-7.372-4.71-9.616 9.216a1.463 1.463 0 00-.332.476 1.414 1.414 0 00.332 1.598c.291.267.678.416 1.081.416.403 0 .79-.15 1.082-.416l2.852-2.734c.196-.18.458-.281.73-.279.272.002.532.107.725.291a.974.974 0 01.303.695.972.972 0 01-.29.699l-3.139 3.008a1.437 1.437 0 00-.448 1.037c0 .389.161.762.448 1.037.287.275.676.43 1.082.43s.795-.155 1.082-.43l3.138-3.008c.196-.181.458-.281.73-.279.272.002.532.107.724.291a.974.974 0 01.304.695.973.973 0 01-.29.699l-2.334 2.237c-.214.205-.36.466-.419.75-.059.285-.029.58.087.848.116.268.312.497.563.658.252.161.547.247.85.247.275 0 .539.105.733.292.195.186.304.439.304.703 0 .263-.109.516-.303.703a1.061 1.061 0 01-.734.291 3.686 3.686 0 01-2.308-.8 3.414 3.414 0 01-1.233-2.033 3.78 3.78 0 01-.894.122c-.473 0-.942-.089-1.38-.262a3.617 3.617 0 01-1.17-.749c-.334-.32-.6-.701-.78-1.12a3.328 3.328 0 01-.275-1.322c0-.109.022-.213.032-.32a3.646 3.646 0 01-2.322-.994 3.387 3.387 0 01-1.054-2.443c0-.915.379-1.794 1.054-2.442l.013-.013-1.84-1.817a.973.973 0 01-.292-.696V1.781c0-.265.11-.517.304-.704a1.06 1.06 0 01.734-.291z" fill="#1F3D56"/></svg>