<svg width="32" height="33" fill="none" xmlns="http://www.w3.org/2000/svg"><path d="M31 .568H1a1 1 0 00-1 1v22a1 1 0 001 1h15v-4H7.953v-1c0-1.71-1.29-3-3-3h-1v-8h1c1.71 0 3-1.29 3-3v-1h16v1c0 1.71 1.29 3 3 3h1v6.24c1.638.276 3.021.783 4.047 1.473V1.568a1 1 0 00-1-1z" fill="#1F3D56"/><path d="M22.05 6.568H9.856a4.92 4.92 0 01-3.904 3.904v4.191a4.922 4.922 0 013.904 3.905h6.213c.53-2.284 4.274-4 8.93-4 .324 0 .64.011.952.026v-4.122a4.92 4.92 0 01-3.903-3.904zm-6.05 8A2 2 0 1116 10.57 2 2 0 0116 14.568zM25 24.567c-2.951 0-5.403-.639-7-1.712v1.712c0 1.657 3.134 3 7 3s7-1.343 7-3v-1.712c-1.597 1.073-4.049 1.712-7 1.712zM25 29.567c-2.951 0-5.403-.639-7-1.712v1.712c0 1.657 3.134 3 7 3s7-1.343 7-3v-1.712c-1.597 1.073-4.049 1.712-7 1.712zM25 22.568c3.866 0 7-1.343 7-3s-3.134-3-7-3-7 1.343-7 3 3.134 3 7 3z" fill="#1F3D56"/></svg>