<svg width="35" height="35" fill="none" xmlns="http://www.w3.org/2000/svg"><path d="M17.369 0c6.83 0 12.388 5.286 12.388 11.783 0 6.496-5.558 11.782-12.388 11.782S4.981 18.279 4.981 11.782C4.98 5.287 10.539 0 17.369 0zm0 16.067c2.488 0 4.505-1.918 4.505-4.284 0-2.367-2.017-4.285-4.505-4.285s-4.505 1.918-4.505 4.285c0 2.366 2.017 4.284 4.505 4.284zM28.87 20.37l5.15 10.026-7.166-1.364-4.083 5.177-4.18-8.56c4.165-.33 7.834-2.323 10.28-5.28zM5.867 20.37c2.446 2.956 6.114 4.948 10.28 5.278l-4.18 8.56-4.083-5.176-7.166 1.364L5.867 20.37z" fill="#1F3D56"/></svg>