<svg fill="none" height="35" width="35" xmlns="http://www.w3.org/2000/svg"><path d="m17.369 0c6.83 0 12.388 5.286 12.388 11.783 0 6.496-5.558 11.782-12.388 11.782s-12.388-5.286-12.388-11.783c-.001-6.495 5.558-11.782 12.388-11.782zm0 16.067c2.488 0 4.505-1.918 4.505-4.284 0-2.367-2.017-4.285-4.505-4.285s-4.505 1.918-4.505 4.285c0 2.366 2.017 4.284 4.505 4.284zm11.501 4.303 5.15 10.026-7.166-1.364-4.083 5.177-4.18-8.56c4.165-.33 7.834-2.323 10.28-5.28zm-23.003 0c2.446 2.956 6.114 4.948 10.28 5.278l-4.18 8.56-4.083-5.176-7.166 1.364z" fill="#1f3d56"/></svg>