<svg width="35" height="35" viewBox="0 0 35 35" fill="none" xmlns="http://www.w3.org/2000/svg">
<path d="M17.369 0C24.1995 0 29.7573 5.28605 29.7573 11.7825C29.7573 18.2789 24.1995 23.565 17.369 23.565C10.5385 23.565 4.98069 18.2789 4.98069 11.7825C4.98069 5.28605 10.5385 0 17.369 0ZM17.369 16.067C19.8568 16.067 21.8738 14.1486 21.8738 11.7825C21.8738 9.41634 19.8568 7.49794 17.369 7.49794C14.8812 7.49794 12.8642 9.41634 12.8642 11.7825C12.8642 14.1486 14.8812 16.067 17.369 16.067Z" fill="#1F3D56"></path>
<path d="M28.8707 20.3699L34.0198 30.3957L26.8537 29.0321L22.7712 34.2089L18.5907 25.6484C22.7565 25.3185 26.4246 23.3262 28.8707 20.3699Z" fill="#1F3D56"></path>
<path d="M5.86692 20.3699C8.31305 23.3262 11.9811 25.3185 16.147 25.6484L11.9665 34.2089L7.88396 29.0321L0.717885 30.3957L5.86692 20.3699Z" fill="#1F3D56"></path>
</svg>
