<svg fill="none" height="35" width="37" xmlns="http://www.w3.org/2000/svg"><g fill="#1f3d56"><path d="m21.43 34.306c8.073 0 14.641-6.247 14.641-13.924 0-7.678-6.568-13.925-14.64-13.925-1.24 0-2.472.148-3.663.439l-1.091.268.562 2.075 1.09-.267a13.026 13.026 0 0 1 3.101-.373c6.83 0 12.389 5.286 12.389 11.782 0 6.497-5.558 11.783-12.389 11.783-6.83 0-12.388-5.286-12.388-11.783 0-.999.132-1.99.39-2.95l.282-1.037-2.181-.535-.28 1.038a13.308 13.308 0 0 0 -.463 3.485c0 7.677 6.568 13.924 14.64 13.924z"/><path d="m21.43 28.95c4.968 0 9.01-3.844 9.01-8.568 0-4.725-4.043-8.57-9.01-8.57-4.968 0-9.01 3.845-9.01 8.57 0 4.724 4.042 8.569 9.01 8.569zm0-14.995c3.726 0 6.757 2.882 6.757 6.427 0 3.544-3.03 6.426-6.757 6.426s-6.758-2.882-6.758-6.426c0-3.545 3.031-6.427 6.758-6.427z"/><path d="m6.42 14.047-6.42-6.107 5.631-1.07-3.017-2.87a1.033 1.033 0 0 1 0-1.515 1.166 1.166 0 0 1 1.592 0l3.018 2.87 1.126-5.355 6.42 6.104-1.127 5.356 6.34 6.03a3.49 3.49 0 0 1 1.448-.322c1.862 0 3.378 1.442 3.378 3.213 0 1.772-1.516 3.214-3.378 3.214-1.863 0-3.379-1.442-3.379-3.213 0-.495.127-.958.34-1.377l-6.34-6.03-5.633 1.072z"/></g></svg>