<svg width="25" height="25" fill="none" xmlns="http://www.w3.org/2000/svg"><path d="M11.624 9.572L7.478 5.426l1.293-1.293-4-4-4 4 4 4L6.064 6.84l3.896 3.896 1.664-1.164zm8.088 4.501c-.31.036-.622.06-.94.06-.305 0-.608-.018-.912-.053l-3.641 4.499 4.518 4.518a3.535 3.535 0 105-5l-4.025-4.024z" fill="#1F3D56"/><path d="M21.043 6.904L18 3.862 21.209.654a5.97 5.97 0 00-2.437-.521 6 6 0 00-5.75 7.708l-10.79 8.73a4.335 4.335 0 00-1.458 3.106 4.335 4.335 0 001.264 3.19 4.325 4.325 0 006.296-.195l8.73-10.79a6 6 0 007.708-5.75c0-.868-.19-1.691-.521-2.437l-3.208 3.209z" fill="#1F3D56"/></svg>