<svg fill="none" height="25" width="25" xmlns="http://www.w3.org/2000/svg"><g fill="#1f3d56"><path d="m11.624 9.572-4.146-4.146 1.293-1.293-4-4-4 4 4 4 1.293-1.293 3.896 3.896zm8.088 4.501c-.31.036-.622.06-.94.06-.305 0-.608-.018-.912-.053l-3.641 4.499 4.518 4.518a3.535 3.535 0 1 0 5-5z"/><path d="m21.043 6.904-3.043-3.042 3.209-3.208a5.97 5.97 0 0 0 -2.437-.521 6 6 0 0 0 -5.75 7.708l-10.79 8.73a4.335 4.335 0 0 0 -1.458 3.106 4.335 4.335 0 0 0 1.264 3.19 4.325 4.325 0 0 0 6.296-.195l8.73-10.79a6 6 0 0 0 7.708-5.75c0-.868-.19-1.691-.521-2.437z"/></g></svg>