<svg fill="none" height="123" width="262" xmlns="http://www.w3.org/2000/svg"><g fill="#1f3d56"><path d="m112.643.003h148.392v16.62h-148.392v-16.621zm0 34.427h148.392v16.62h-148.392zm0 34.431h148.392v16.62h-148.392v-16.621zm0 34.431h148.392v16.619h-148.392z"/><path clip-rule="evenodd" d="m84.406 0v87.714c-5.905 14.224-20.3 22.977-34.693 22.977-21.868 0-36.724-18.51-36.724-37.019 0-20.059 16.424-36.289 36.724-36.289 9.504 0 17.623 3.283 23.805 8.297l2.215-13.767c-7.474-4.377-16.332-6.93-26.02-6.93-20.3 0-45.213 12.127-49.18 41.669-.462 3.647-.923 4.285 0 14.68.092 1.55.83 4.65 1.568 6.929 7.843 24.709 30.45 34.739 47.612 34.739 13.102 0 25.559-5.197 34.693-13.859v11.215h15.594v-120.356z" fill-rule="evenodd"/></g></svg>