<svg height="318.15" width="375.02" xmlns="http://www.w3.org/2000/svg" xmlns:xlink="http://www.w3.org/1999/xlink"><linearGradient id="a" gradientTransform="matrix(.92441296 .38139308 -.38139308 .92441296 53.779967 -488.110101)" gradientUnits="userSpaceOnUse" x1="754.81" x2="280.89" y1="612.28" y2="527.5"><stop offset="0" stop-color="#5cdbdd" stop-opacity=".03"/><stop offset="1" stop-color="#5cdbdd" stop-opacity=".21"/></linearGradient><linearGradient id="b" gradientUnits="userSpaceOnUse" x1="97.98" x2="97.98" y1="232.6" y2="203.13"><stop offset="0" stop-color="#fffa8f"/><stop offset="1" stop-color="#fb784b"/></linearGradient><linearGradient id="c" gradientUnits="userSpaceOnUse" x1="317.62" x2="328.5" y1="103.35" y2="94.41"><stop offset="0" stop-color="#5bcb99"/><stop offset="1" stop-color="#85a8e8"/></linearGradient><linearGradient id="d" gradientUnits="userSpaceOnUse" x1="111.78" x2="450.67" y1="211.39" y2="35.55"><stop offset="0" stop-color="#34e28b"/><stop offset="1"/></linearGradient><linearGradient id="e" gradientUnits="userSpaceOnUse" x1="174" x2="200.65" y1="245.4" y2="245.4"><stop offset="0" stop-color="#c297ff"/><stop offset="1" stop-color="#ae31bb"/></linearGradient><linearGradient id="f" gradientUnits="userSpaceOnUse" x1="65.4" x2="402.37" y1="373.81" y2="111"><stop offset="0"/><stop offset="1" stop-color="#d23de2"/></linearGradient><linearGradient id="g" gradientUnits="userSpaceOnUse" x1="314.55" x2="300.91" y1="88.43" y2="134.48"><stop offset="0"/><stop offset="1" stop-opacity="0"/></linearGradient><linearGradient id="h" gradientUnits="userSpaceOnUse" x1="189.92" x2="285.74" y1="266.62" y2="289.83"><stop offset="0" stop-color="#2db5f9"/><stop offset="1"/></linearGradient><linearGradient id="i" gradientUnits="userSpaceOnUse" x1="114.96" x2="51.66" y1="25.33" y2="199.24"><stop offset="0"/><stop offset=".21" stop-color="#48080a"/><stop offset=".42" stop-color="#891014"/><stop offset=".61" stop-color="#bc151b"/><stop offset=".78" stop-color="#e01a21"/><stop offset=".91" stop-color="#f71c24"/><stop offset="1" stop-color="#ff1d25"/></linearGradient><path d="m239.27 53.66c70.62 29.06 108.23 100.21 83.92 158.88s-101 82.56-171.64 53.37-107.96-100.22-83.79-158.91 100.9-82.4 171.51-53.34z" fill="url(#a)"/><ellipse cx="194.04" cy="158.86" rx="120.99" ry="145.57" style="stroke-dasharray:5 10;fill:none;stroke:#e9ecee;stroke-linecap:round;stroke-linejoin:round;stroke-width:3" transform="matrix(.38139308 -.92441296 .92441296 .38139308 -26.819598 277.650233)"/><ellipse cx="193.93" cy="159.07" rx="152.63" ry="183.73" style="stroke-dasharray:1 12;fill:none;stroke:#e9ecee;stroke-linecap:round;stroke-linejoin:round;stroke-width:3" transform="matrix(.38139308 -.92441296 .92441296 .38139308 -27.07961 277.679686)"/><ellipse cx="76.65" cy="264.67" fill="#0191fb" rx="7.2" ry="8.56" transform="matrix(.38139308 -.92441296 .92441296 .38139308 -197.250013 234.580173)"/><path d="m45.22 197.87 1 1.36a97.43 97.43 0 0 0 15.89 17.52 77.25 77.25 0 0 0 49.16 17.52h3.39a115 115 0 0 0 36.12-9 98.69 98.69 0 0 1 -15.48 1.36 64 64 0 0 1 -25.66-5.43 61.61 61.61 0 0 1 -21.24-15.45 116.57 116.57 0 0 1 -43.18-7.88z" fill="url(#b)"/><path d="m111.08 78.91a78.1 78.1 0 0 1 66.54 37.48 64.3 64.3 0 0 0 -28.38-14.8 62.08 62.08 0 0 0 -31.91 1c14.26 6.93 33.68 12.09 60.43 14 0 0-1.36-25.39-33.82-38.7-45.62-18.61-52-14.94-63.55-34.22a51.35 51.35 0 0 0 10.32 37.82 80.07 80.07 0 0 1 20.37-2.58z" fill="#f15a24"/><path d="m143.81 77.83c-15.62-6.25-26.48-10-34.77-13a63.13 63.13 0 0 0 8.56 14.53 76.37 76.37 0 0 1 34.49 11.41 78.49 78.49 0 0 1 25.53 25.8 64.06 64.06 0 0 0 -35.17-16 178 178 0 0 0 34.22 15.88h1c.09-.06-1.27-25.31-33.86-38.62z" fill="#ed1c24"/><path d="m177.62 116.53h.14c.54-2.85 3.53-24.71-21.19-44-36.93-28.65-44.13-31.37-45.9-46.53a47.33 47.33 0 0 0 -4.89 19.15 46.19 46.19 0 0 0 3.4 19.56c8.15 2.85 19.15 6.65 34.76 13 32.46 13.45 33.82 38.84 33.68 38.84z" fill="#c1272d"/><path d="m289.79 91.54a57.59 57.59 0 0 1 37.75 14.13 50.61 50.61 0 0 1 32.46 13.58s-31.1-45.09-85.83-26.35a67.51 67.51 0 0 0 -14 6.93 57 57 0 0 1 29.62-8.29z" fill="url(#c)"/><path d="m289.79 91.54a58.24 58.24 0 0 0 -29.61 8.15l1.63-1c-44.27 26.07-98.45 106.19-173.68 107.14a63 63 0 0 0 21.32 15.35 64.52 64.52 0 0 0 25.67 5.43 117 117 0 0 0 15.48-1.36c48.88-20.09 95.87-68.3 117.19-91.66 19.83-21.73 41.42-29.06 59.75-28a56.22 56.22 0 0 0 -37.75-14.05z" fill="url(#d)"/><path d="m175.58 246.76a42.21 42.21 0 0 0 -1.63 9.91 37.26 37.26 0 0 0 1.77 11.54 27.69 27.69 0 0 1 1.49-13.71 28.82 28.82 0 0 1 7.88-11.41l.27-.81a34.94 34.94 0 0 1 15.21-19.69 58.27 58.27 0 0 0 -6.79 2.58 35 35 0 0 0 -11.41 9 35.72 35.72 0 0 0 -6.79 12.59z" fill="url(#e)"/><path d="m373.57 161.48a72.86 72.86 0 0 0 -13.57-42.37 50.46 50.46 0 0 0 -32.45-13.44 57.27 57.27 0 0 1 20 43.72c0 19.42-7.06 41.56-29.87 53.51-33.27 17.38-84.2 9.09-117.2 20a34.62 34.62 0 0 0 -15.2 19.55l-.28.82c9.65-8.56 28.79-14.67 66-9.78 26.62 3.4 47.8 4.35 65.86-.81a70.81 70.81 0 0 0 43.14-29.1 72.36 72.36 0 0 0 13.57-42.1z" fill="url(#f)"/><path d="m373.57 161.48a72.86 72.86 0 0 0 -13.57-42.37 50.46 50.46 0 0 0 -32.45-13.44 57.27 57.27 0 0 1 20 43.72c0 19.42-7.06 41.56-29.87 53.51-33.27 17.38-84.2 9.09-117.2 20a34.62 34.62 0 0 0 -15.2 19.55l-.28.82c9.65-8.56 28.79-14.67 66-9.78 26.62 3.4 47.8 4.35 65.86-.81a70.81 70.81 0 0 0 43.14-29.1 72.36 72.36 0 0 0 13.57-42.1z" fill="url(#g)" opacity=".49"/><path d="m208.58 285.87a35.72 35.72 0 0 1 -20.5-16.71 35.18 35.18 0 0 1 -3-26.2 28.79 28.79 0 0 0 -7.88 11.4 27.73 27.73 0 0 0 -1.49 13.72 35.13 35.13 0 0 0 9.23 14.8 36.33 36.33 0 0 0 15.21 8.69 34.77 34.77 0 0 0 17.52.41 35.53 35.53 0 0 0 15.62-7.88 33.86 33.86 0 0 1 -24.71 1.77z" fill="url(#h)"/><path d="m220.8 283.29c3.67-10.59 15.35-26.89 28-19.42 0 0 10.18 5.7 12.36-10.46 0 0 7.6 38.16-29.2 36.8 0 0 8.28-6.11 8.28-12.35a42 42 0 0 1 -19.44 5.43z" fill="#2db5f9"/><path d="m235.47 260.07a13.5 13.5 0 0 1 6.79-2.31 14.12 14.12 0 0 1 7.06 1.49c5.16 2.31 11.82-6.65 6.11-14.8 0 0 .41 8.28-6.38 8.28a15.19 15.19 0 0 0 -7.74 1.77 14.27 14.27 0 0 0 -5.84 5.57z" fill="#5fd2ff"/><path d="m272.54 138.8c-8.82 12.09-21.86 22.14-23.35 24.58s2.58 10.46 8.55 11 1.36-2.31.95-5.16 1.77 1.76 9 .68-2.58-3.8-1.9-7.47 8.15-10.59 11.14-17.52 8 0 5.43 5.43c-1.09 2.18 8.28-6.11 3.53-12.35s-8.19-6.25-13.35.81zm-25.12 26.35c-1.36 1.22-5.16 4.07-5.16 4.07s3.8 5.16 8.56 5.16c0 0 1.08-.54-.41-2a13.39 13.39 0 0 1 -2.99-7.23z" fill="#219058"/><path d="m117.33 102.54a71.6 71.6 0 0 1 -26.62-20.91 77.6 77.6 0 0 0 -57 82.16 75.5 75.5 0 0 0 11.54 34 113.71 113.71 0 0 0 42.91 8 63.13 63.13 0 0 1 2-87 62.45 62.45 0 0 1 27.17-16.25z" fill="url(#i)"/><path d="m117.46 79.19c3.4 5 13.31 13.58 25 21.32a61.86 61.86 0 0 1 35 16 78.38 78.38 0 0 0 -60-37.34z" fill="#f7b852"/><path d="m117.46 79.19c-2.17-.14-4.21-.28-6.38-.28a73.91 73.91 0 0 0 -20.37 2.86 71.6 71.6 0 0 0 26.62 20.91 60.47 60.47 0 0 1 25.12-2c-11.54-7.91-21.45-16.47-24.99-21.49z" fill="#ff8431"/><path d="m160.65 96.84a56.54 56.54 0 0 0 -20.92-12.49c5.03 9.65 9.37 12.49 20.92 12.49z" fill="#fffb69"/><path d="m138.65 56.37a91.61 91.61 0 0 1 11.13 7.88c.82.68-1.63-6.11-4.48-7.33a11.2 11.2 0 0 0 -6.65-.55zm13.85 9.63a105.37 105.37 0 0 1 11.13 8c1 .68-1.49-6.11-4.34-7.47a14.71 14.71 0 0 0 -6.79-.53zm12.9 9.66a35.21 35.21 0 0 1 6 7.46c.41.68 0-4.34-1.63-5.83a8 8 0 0 0 -4.37-1.63z" fill="#c1272d"/><path d="m105.51 198.82c-.4-1.08 4.08-2.58 5.16-2.58a23.13 23.13 0 0 1 6.11 2 29.76 29.76 0 0 1 -8.41 1.76 12.37 12.37 0 0 1 -2.86-1.18zm15.76-3.82c-.41-.81 3-2.31 3.93-2.44a20.58 20.58 0 0 1 5 1.08 21.7 21.7 0 0 1 -6.52 2.18 7.4 7.4 0 0 1 -2.41-.82zm13.17-4.73c-.41-.68 2.31-2.18 3-2.45a14.59 14.59 0 0 1 4.21.41 17.46 17.46 0 0 1 -5.17 2.31 3.61 3.61 0 0 1 -2.04-.27zm10.45-4.76c-.4-.54 1.91-2.17 2.58-2.44a9.68 9.68 0 0 1 3.94 0 15 15 0 0 1 -4.61 2.44 4.38 4.38 0 0 1 -1.91 0zm9.78-5.29c-.41-.54 1.5-1.9 2.17-2.17a13.81 13.81 0 0 1 3.4 0 18.55 18.55 0 0 1 -3.8 2.44c-.68-.14-1.36-.14-1.77-.27zm-64.91 19.78c-.13-1.22 4.62-2 6-1.9a21.71 21.71 0 0 1 6.11 3.13 25.6 25.6 0 0 1 -9.1.4 6.43 6.43 0 0 1 -3.01-1.63z" fill="#44c688"/><path d="m92.75 53.11a28.88 28.88 0 0 0 11.41 6.39 34.6 34.6 0 0 1 -1.63-12.9c0-.28-9.78-.14-11.41-8.29-.27-1.49-1.77 11 1.63 14.8z" fill="#c1272d"/><g fill="#f15a24"><path d="m59.34 239.29a8.59 8.59 0 0 1 1.22-3.67 8.74 8.74 0 0 1 2.59-2.85l.27-.13-2.42-.41c-11.68-1.77-14.66 5.29-15.34 13v1.36a14.06 14.06 0 0 1 5.7-5.56 16.35 16.35 0 0 1 8-1.77z"/><path d="m73.6 236.71c-11.68-7.06-18.2-7.6-20.78 12.22 0 0 12.23-9.64 18.07-3.26 6.24 6.93 14.8.55 10.32-3.53a31.08 31.08 0 0 0 -7.61-5.43z"/><path d="m68.85 239.15c-6.66 4.35-6.66 14.67-6.66 14.67s12.09-6.52 11.14-10.59a4.71 4.71 0 0 0 -4.48-4.08zm-54.73-81.47a8.49 8.49 0 0 1 3.67-1.36 9.58 9.58 0 0 1 3.94.27h.4c-.4-.68-.81-1.49-1.22-2.17-6.11-10-13.44-8-19.82-3.67-.41.27-.68.54-1.09.82a14.09 14.09 0 0 1 7.88 1 14.76 14.76 0 0 1 6.11 5z"/><path d="m26.48 169.9c-4.21-16.84-7.6-23.36-23.9-11.68 0 0 13.85-3.94 15.48 15.75.68 9.37 9.78 11.27 9.64 5.16a35.39 35.39 0 0 0 -1.22-9.23z"/><path d="m20.51 160.94c-7.75-1.94-15.21 5.16-15.21 5.16s11.81-.41 13.3 6.79c.82 4.11 1.91-11.95 1.91-11.95z"/></g><path d="m267.79 133.5a93.62 93.62 0 0 1 26.48-21.32 71.25 71.25 0 0 1 31.64-7.87l3.12 2.85h-1.63a65.85 65.85 0 0 0 -32.59 6.38 95.1 95.1 0 0 0 -27.02 19.96z" fill="#29b36e"/><path d="m327.13 104.31a59 59 0 0 1 17.93 4.62 47.47 47.47 0 0 1 15.07 10.18 47 47 0 0 0 -15.75-9.1 75 75 0 0 0 -15.38-3.12l-3.09-2.89z" fill="#6fd191"/><path d="m185.9 240.65a57.45 57.45 0 0 1 5.3-3.26c1.36-.68 2.58-1.22 3.94-1.77s2.85-1 4.07-1.49a77.92 77.92 0 0 1 16.84-3.13 167.15 167.15 0 0 1 33.95 1.36c11.14 1.63 22.41 2.72 33.68 3.26a116 116 0 0 0 33.54-3.26 111.65 111.65 0 0 1 -33.54 3.94c-11.27-.27-22.54-1.22-33.82-2.58a153.56 153.56 0 0 0 -33.54-.54 82.22 82.22 0 0 0 -16.32 3.26 23.46 23.46 0 0 0 -3.94 1.49 31.91 31.91 0 0 0 -3.67 1.77 32.62 32.62 0 0 0 -6.65 4.61l-1 .82a16.49 16.49 0 0 1 1.16-4.48z" fill="#c83ad7"/><path d="m119.5 107.57c-10.86 2.44-9.23 11-9.23 11s3.39-4.21 22.4-6.39a88.92 88.92 0 0 1 -13.17-4.61z" fill="#c1272d"/><path d="m175.72 268.21a25.57 25.57 0 0 1 -.14-7.19 33.26 33.26 0 0 1 1.63-7.2 36.82 36.82 0 0 1 3.13-6.65 37.2 37.2 0 0 1 4.75-5.71l.81-.68s-1.08 3.4-1.22 4.35a30.9 30.9 0 0 0 -8.55 16 30.5 30.5 0 0 0 -.41 7.08z" fill="#fba9ff"/><path d="m85.69 205.75a64.55 64.55 0 0 1 -13.58-27.7 59.45 59.45 0 0 1 -1.36-16.3l.27-4.07.54-4.08a18.61 18.61 0 0 1 .82-3.94 20.6 20.6 0 0 1 1.09-3.93 59.93 59.93 0 0 1 6.53-14.81 73.91 73.91 0 0 1 4.62-6.65l2.58-3.12a28.4 28.4 0 0 1 2.8-2.85 63.12 63.12 0 0 1 12.77-9.78 71.39 71.39 0 0 1 14.8-6.25 66.31 66.31 0 0 0 -14.53 6.66 67.28 67.28 0 0 0 -12.36 9.91c-.95 1-1.9 1.9-2.71 2.85l-2.58 3.12a71 71 0 0 0 -4.35 6.66 63.64 63.64 0 0 0 -6 14.53c-.41 1.22-.68 2.58-1 3.8s-.4 2.58-.54 3.94l-.41 3.94v3.93a59.31 59.31 0 0 0 1.91 15.49 61.89 61.89 0 0 0 14.67 27l1.08 1.22c.1.43-4.11.56-5.06.43z" fill="#ff737d"/><path d="m150.6 225.3a79.75 79.75 0 0 1 -17.11 1.9 60.59 60.59 0 0 1 -17.11-2.85 82.06 82.06 0 0 1 -15.89-6.65 58.48 58.48 0 0 1 -13.85-10.59l-1.22-1.23h5a53.57 53.57 0 0 0 11.41 9.37 83 83 0 0 0 15.34 7.2 62.57 62.57 0 0 0 16.45 3.55 78.2 78.2 0 0 0 16.98-.7z" fill="#fff4c0"/><path d="m351.71 48.9a3.94 3.94 0 0 0 -5.57-5.56l-3.53 3.53-3.53-3.53a3.94 3.94 0 1 0 -5.57 5.56l3.54 3.53-3.54 3.57a3.94 3.94 0 1 0 5.57 5.56l3.53-3.56 3.53 3.53a3.94 3.94 0 0 0 5.57-5.53l-3.53-3.54z" fill="#9a8af9" fill-rule="evenodd"/></svg>