<svg id="Layer_1" data-name="Layer 1" xmlns="http://www.w3.org/2000/svg" width="258.98" height="120" viewBox="0 0 258.98 120"><defs><style>.cls-1,.cls-2{fill:#1f3d56;}.cls-1{fill-rule:evenodd;}</style></defs><title>illus-dojo</title><path class="cls-1" d="M66,30.34V69.17A29.7,29.7,0,0,1,38.9,87.29c-17.1,0-28.72-14.6-28.72-29.2A28.65,28.65,0,0,1,38.9,29.48,29.12,29.12,0,0,1,57.52,36l1.73-10.86A39.82,39.82,0,0,0,38.9,19.7C23,19.7,3.54,29.26.43,52.56c-.36,2.87-.72,3.38,0,11.57A28.72,28.72,0,0,0,1.66,69.6C7.8,89.08,25.48,97,38.9,97A39.44,39.44,0,0,0,66,86.06v8.85h12.2V0H66Z" transform="translate(-0.02)"/><path class="cls-1" d="M120.73,20.56c-15.87,0-36.3,9.42-38.46,32.86a54.29,54.29,0,0,0,0,11.58,35.36,35.36,0,0,0,1.22,5.46C89.63,90,107.31,97.85,120.73,97.85a38.84,38.84,0,0,0,39-38.89C159.77,38.25,143.32,20.56,120.73,20.56Zm0,67.59C103.63,88.15,92,73.55,92,59a28.66,28.66,0,0,1,28.72-28.62A29.13,29.13,0,0,1,150,59C150,76.57,135.38,88.15,120.73,88.15Z" transform="translate(-0.02)"/><path class="cls-1" d="M136.61,10.28c.58-.65,1.23-.65,1.23-2.44,0-1.23-.65-1.23-.65-1.87H105.43c-.57.64-1.22.64-1.22,1.87,0,1.79.65,1.79.65,2.44Z" transform="translate(-0.02)"/><rect class="cls-2" x="165.89" y="3.16" width="9.82" height="14.6"/><path class="cls-1" d="M175.72,22.58H166l.07,69.16a27.24,27.24,0,0,1-11,19.42l6.35,8.84s15-16,14.36-27.61Z" transform="translate(-0.02)"/><path class="cls-1" d="M220,20.56c-15.88,0-36.3,9.42-38.47,32.86a55.67,55.67,0,0,0,0,11.58,35.53,35.53,0,0,0,1.23,5.46C188.86,90,206.54,97.85,220,97.85A38.85,38.85,0,0,0,259,59C259,38.25,242.55,20.56,220,20.56Zm0,67.59c-17.1,0-28.72-14.6-28.72-29.19A28.65,28.65,0,0,1,220,30.34,29.13,29.13,0,0,1,249.26,59C249.26,76.57,234.61,88.15,220,88.15Z" transform="translate(-0.02)"/><path class="cls-1" d="M235.84,10.28c.57-.65,1.22-.65,1.22-2.44,0-1.23-.65-1.23-.65-1.87H204.66c-.58.64-1.23.64-1.23,1.87,0,1.79.65,1.79.65,2.44Z" transform="translate(-0.02)"/></svg>