<svg id="Layer_1" data-name="Layer 1" xmlns="http://www.w3.org/2000/svg" xmlns:xlink="http://www.w3.org/1999/xlink" width="375.02" height="318.15" viewBox="0 0 375.02 318.15"><defs><style>.cls-1{fill:url(#linear-gradient);}.cls-2,.cls-3{fill:none;stroke:#e9ecee;stroke-linecap:round;stroke-linejoin:round;stroke-width:3px;}.cls-2{stroke-dasharray:5 10;}.cls-3{stroke-dasharray:1 12;}.cls-4{fill:#0191fb;}.cls-5{fill:url(#linear-gradient-2);}.cls-6{fill:#f15a24;}.cls-7{fill:#ed1c24;}.cls-8{fill:#c1272d;}.cls-9{fill:url(#linear-gradient-3);}.cls-10{fill:url(#linear-gradient-4);}.cls-11{fill:url(#linear-gradient-5);}.cls-12{fill:url(#linear-gradient-6);}.cls-13{opacity:0.49;isolation:isolate;fill:url(#linear-gradient-7);}.cls-14{fill:url(#linear-gradient-8);}.cls-15{fill:#2db5f9;}.cls-16{fill:#5fd2ff;}.cls-17{fill:#219058;}.cls-18{fill:url(#linear-gradient-9);}.cls-19{fill:#f7b852;}.cls-20{fill:#ff8431;}.cls-21{fill:#fffb69;}.cls-22{fill:#44c688;}.cls-23{fill:#29b36e;}.cls-24{fill:#6fd191;}.cls-25{fill:#c83ad7;}.cls-26{fill:#fba9ff;}.cls-27{fill:#ff737d;}.cls-28{fill:#fff4c0;}.cls-29{fill:#9a8af9;fill-rule:evenodd;}</style><linearGradient id="linear-gradient" x1="754.81" y1="612.28" x2="280.89" y2="527.5" gradientTransform="translate(53.78 -488.11) rotate(22.42)" gradientUnits="userSpaceOnUse"><stop offset="0" stop-color="#5cdbdd" stop-opacity="0.03"/><stop offset="1" stop-color="#5cdbdd" stop-opacity="0.21"/></linearGradient><linearGradient id="linear-gradient-2" x1="97.98" y1="788.53" x2="97.98" y2="759.06" gradientTransform="translate(0 -555.93)" gradientUnits="userSpaceOnUse"><stop offset="0" stop-color="#fffa8f"/><stop offset="1" stop-color="#fb784b"/></linearGradient><linearGradient id="linear-gradient-3" x1="317.62" y1="659.28" x2="328.5" y2="650.34" gradientTransform="translate(0 -555.93)" gradientUnits="userSpaceOnUse"><stop offset="0" stop-color="#5bcb99"/><stop offset="1" stop-color="#85a8e8"/></linearGradient><linearGradient id="linear-gradient-4" x1="111.78" y1="767.32" x2="450.67" y2="591.48" gradientTransform="translate(0 -555.93)" gradientUnits="userSpaceOnUse"><stop offset="0" stop-color="#34e28b"/><stop offset="1"/></linearGradient><linearGradient id="linear-gradient-5" x1="174" y1="801.33" x2="200.65" y2="801.33" gradientTransform="translate(0 -555.93)" gradientUnits="userSpaceOnUse"><stop offset="0" stop-color="#c297ff"/><stop offset="1" stop-color="#ae31bb"/></linearGradient><linearGradient id="linear-gradient-6" x1="65.4" y1="929.74" x2="402.37" y2="666.93" gradientTransform="translate(0 -555.93)" gradientUnits="userSpaceOnUse"><stop offset="0"/><stop offset="1" stop-color="#d23de2"/></linearGradient><linearGradient id="linear-gradient-7" x1="314.55" y1="644.36" x2="300.91" y2="690.41" gradientTransform="translate(0 -555.93)" gradientUnits="userSpaceOnUse"><stop offset="0"/><stop offset="1" stop-opacity="0"/></linearGradient><linearGradient id="linear-gradient-8" x1="189.92" y1="822.55" x2="285.74" y2="845.76" gradientTransform="translate(0 -555.93)" gradientUnits="userSpaceOnUse"><stop offset="0" stop-color="#2db5f9"/><stop offset="1"/></linearGradient><linearGradient id="linear-gradient-9" x1="114.96" y1="581.26" x2="51.66" y2="755.17" gradientTransform="translate(0 -555.93)" gradientUnits="userSpaceOnUse"><stop offset="0"/><stop offset="0.21" stop-color="#48080a"/><stop offset="0.42" stop-color="#891014"/><stop offset="0.61" stop-color="#bc151b"/><stop offset="0.78" stop-color="#e01a21"/><stop offset="0.91" stop-color="#f71c24"/><stop offset="1" stop-color="#ff1d25"/></linearGradient></defs><title>illus-dojo-mark</title><path class="cls-1" d="M239.27,53.66c70.62,29.06,108.23,100.21,83.92,158.88s-101,82.56-171.64,53.37S43.59,165.69,67.76,107,168.66,24.6,239.27,53.66Z"/><ellipse class="cls-2" cx="194.04" cy="158.86" rx="120.99" ry="145.57" transform="translate(-26.82 277.65) rotate(-67.58)"/><ellipse class="cls-3" cx="193.93" cy="159.07" rx="152.63" ry="183.73" transform="translate(-27.08 277.68) rotate(-67.58)"/><ellipse class="cls-4" cx="76.65" cy="264.67" rx="7.2" ry="8.56" transform="translate(-197.25 234.58) rotate(-67.58)"/><path class="cls-5" d="M45.22,197.87l1,1.36a97.43,97.43,0,0,0,15.89,17.52,77.25,77.25,0,0,0,49.16,17.52h3.39a115,115,0,0,0,36.12-9,98.69,98.69,0,0,1-15.48,1.36,64,64,0,0,1-25.66-5.43A61.61,61.61,0,0,1,88.4,205.75,116.57,116.57,0,0,1,45.22,197.87Z"/><path class="cls-6" d="M111.08,78.91a78.1,78.1,0,0,1,66.54,37.48,64.3,64.3,0,0,0-28.38-14.8,62.08,62.08,0,0,0-31.91,1c14.26,6.93,33.68,12.09,60.43,14,0,0-1.36-25.39-33.82-38.7-45.62-18.61-52-14.94-63.55-34.22A51.35,51.35,0,0,0,90.71,81.49,80.07,80.07,0,0,1,111.08,78.91Z"/><path class="cls-7" d="M143.81,77.83c-15.62-6.25-26.48-10-34.77-13a63.13,63.13,0,0,0,8.56,14.53,76.37,76.37,0,0,1,34.49,11.41,78.49,78.49,0,0,1,25.53,25.8,64.06,64.06,0,0,0-35.17-16,178,178,0,0,0,34.22,15.88h1C177.76,116.39,176.4,91.14,143.81,77.83Z"/><path class="cls-8" d="M177.62,116.53h.14c.54-2.85,3.53-24.71-21.19-44C119.64,43.88,112.44,41.16,110.67,26a47.33,47.33,0,0,0-4.89,19.15,46.19,46.19,0,0,0,3.4,19.56c8.15,2.85,19.15,6.65,34.76,13,32.46,13.45,33.82,38.84,33.68,38.84Z"/><path class="cls-9" d="M289.79,91.54a57.59,57.59,0,0,1,37.75,14.13A50.61,50.61,0,0,1,360,119.25S328.9,74.16,274.17,92.9a67.51,67.51,0,0,0-14,6.93A57,57,0,0,1,289.79,91.54Z"/><path class="cls-10" d="M289.79,91.54a58.24,58.24,0,0,0-29.61,8.15l1.63-1c-44.27,26.07-98.45,106.19-173.68,107.14a63,63,0,0,0,21.32,15.35,64.52,64.52,0,0,0,25.67,5.43,117,117,0,0,0,15.48-1.36c48.88-20.09,95.87-68.3,117.19-91.66,19.83-21.73,41.42-29.06,59.75-28A56.22,56.22,0,0,0,289.79,91.54Z"/><path class="cls-11" d="M175.58,246.76a42.21,42.21,0,0,0-1.63,9.91,37.26,37.26,0,0,0,1.77,11.54,27.69,27.69,0,0,1,1.49-13.71,28.82,28.82,0,0,1,7.88-11.41l.27-.81a34.94,34.94,0,0,1,15.21-19.69,58.27,58.27,0,0,0-6.79,2.58,35,35,0,0,0-11.41,9A35.72,35.72,0,0,0,175.58,246.76Z"/><path class="cls-12" d="M373.57,161.48A72.86,72.86,0,0,0,360,119.11a50.46,50.46,0,0,0-32.45-13.44,57.27,57.27,0,0,1,20,43.72c0,19.42-7.06,41.56-29.87,53.51-33.27,17.38-84.2,9.09-117.2,20a34.62,34.62,0,0,0-15.2,19.55l-.28.82c9.65-8.56,28.79-14.67,66-9.78,26.62,3.4,47.8,4.35,65.86-.81A70.81,70.81,0,0,0,360,203.58,72.36,72.36,0,0,0,373.57,161.48Z"/><path class="cls-13" d="M373.57,161.48A72.86,72.86,0,0,0,360,119.11a50.46,50.46,0,0,0-32.45-13.44,57.27,57.27,0,0,1,20,43.72c0,19.42-7.06,41.56-29.87,53.51-33.27,17.38-84.2,9.09-117.2,20a34.62,34.62,0,0,0-15.2,19.55l-.28.82c9.65-8.56,28.79-14.67,66-9.78,26.62,3.4,47.8,4.35,65.86-.81A70.81,70.81,0,0,0,360,203.58,72.36,72.36,0,0,0,373.57,161.48Z"/><path class="cls-14" d="M208.58,285.87a35.72,35.72,0,0,1-20.5-16.71,35.18,35.18,0,0,1-3-26.2,28.79,28.79,0,0,0-7.88,11.4,27.73,27.73,0,0,0-1.49,13.72,35.13,35.13,0,0,0,9.23,14.8,36.33,36.33,0,0,0,15.21,8.69,34.77,34.77,0,0,0,17.52.41,35.53,35.53,0,0,0,15.62-7.88A33.86,33.86,0,0,1,208.58,285.87Z"/><path class="cls-15" d="M220.8,283.29c3.67-10.59,15.35-26.89,28-19.42,0,0,10.18,5.7,12.36-10.46,0,0,7.6,38.16-29.2,36.8,0,0,8.28-6.11,8.28-12.35A42,42,0,0,1,220.8,283.29Z"/><path class="cls-16" d="M235.47,260.07a13.5,13.5,0,0,1,6.79-2.31,14.12,14.12,0,0,1,7.06,1.49c5.16,2.31,11.82-6.65,6.11-14.8,0,0,.41,8.28-6.38,8.28a15.19,15.19,0,0,0-7.74,1.77A14.27,14.27,0,0,0,235.47,260.07Z"/><path class="cls-17" d="M272.54,138.8c-8.82,12.09-21.86,22.14-23.35,24.58s2.58,10.46,8.55,11,1.36-2.31.95-5.16,1.77,1.76,9,.68-2.58-3.8-1.9-7.47,8.15-10.59,11.14-17.52,8,0,5.43,5.43c-1.09,2.18,8.28-6.11,3.53-12.35S277.7,131.74,272.54,138.8Z"/><path class="cls-17" d="M247.42,165.15c-1.36,1.22-5.16,4.07-5.16,4.07s3.8,5.16,8.56,5.16c0,0,1.08-.54-.41-2A13.39,13.39,0,0,1,247.42,165.15Z"/><path class="cls-18" d="M117.33,102.54A71.6,71.6,0,0,1,90.71,81.63a77.6,77.6,0,0,0-57,82.16,75.5,75.5,0,0,0,11.54,34,113.71,113.71,0,0,0,42.91,8,63.13,63.13,0,0,1,2-87A62.45,62.45,0,0,1,117.33,102.54Z"/><path class="cls-19" d="M117.46,79.19c3.4,5,13.31,13.58,25,21.32a61.86,61.86,0,0,1,35,16,78.38,78.38,0,0,0-60-37.34Z"/><path class="cls-20" d="M117.46,79.19c-2.17-.14-4.21-.28-6.38-.28a73.91,73.91,0,0,0-20.37,2.86,71.6,71.6,0,0,0,26.62,20.91,60.47,60.47,0,0,1,25.12-2C130.91,92.77,121,84.21,117.46,79.19Z"/><path class="cls-21" d="M160.65,96.84a56.54,56.54,0,0,0-20.92-12.49C144.76,94,149.1,96.84,160.65,96.84Z"/><path class="cls-8" d="M138.65,56.37a91.61,91.61,0,0,1,11.13,7.88c.82.68-1.63-6.11-4.48-7.33A11.2,11.2,0,0,0,138.65,56.37Z"/><path class="cls-8" d="M152.5,66a105.37,105.37,0,0,1,11.13,8c1,.68-1.49-6.11-4.34-7.47A14.71,14.71,0,0,0,152.5,66Z"/><path class="cls-8" d="M165.4,75.66a35.21,35.21,0,0,1,6,7.46c.41.68,0-4.34-1.63-5.83A8,8,0,0,0,165.4,75.66Z"/><path class="cls-22" d="M105.51,198.82c-.4-1.08,4.08-2.58,5.16-2.58a23.13,23.13,0,0,1,6.11,2,29.76,29.76,0,0,1-8.41,1.76A12.37,12.37,0,0,1,105.51,198.82Z"/><path class="cls-22" d="M121.27,195c-.41-.81,3-2.31,3.93-2.44a20.58,20.58,0,0,1,5,1.08,21.7,21.7,0,0,1-6.52,2.18A7.4,7.4,0,0,1,121.27,195Z"/><path class="cls-22" d="M134.44,190.27c-.41-.68,2.31-2.18,3-2.45a14.59,14.59,0,0,1,4.21.41,17.46,17.46,0,0,1-5.17,2.31A3.61,3.61,0,0,1,134.44,190.27Z"/><path class="cls-22" d="M144.89,185.51c-.4-.54,1.91-2.17,2.58-2.44a9.68,9.68,0,0,1,3.94,0,15,15,0,0,1-4.61,2.44A4.38,4.38,0,0,1,144.89,185.51Z"/><path class="cls-22" d="M154.67,180.22c-.41-.54,1.5-1.9,2.17-2.17a13.81,13.81,0,0,1,3.4,0,18.55,18.55,0,0,1-3.8,2.44C155.76,180.35,155.08,180.35,154.67,180.22Z"/><path class="cls-22" d="M89.76,200c-.13-1.22,4.62-2,6-1.9a21.71,21.71,0,0,1,6.11,3.13,25.6,25.6,0,0,1-9.1.4A6.43,6.43,0,0,1,89.76,200Z"/><path class="cls-8" d="M92.75,53.11a28.88,28.88,0,0,0,11.41,6.39,34.6,34.6,0,0,1-1.63-12.9c0-.28-9.78-.14-11.41-8.29C90.85,36.82,89.35,49.31,92.75,53.11Z"/><path class="cls-6" d="M59.34,239.29a8.59,8.59,0,0,1,1.22-3.67,8.74,8.74,0,0,1,2.59-2.85l.27-.13L61,232.23c-11.68-1.77-14.66,5.29-15.34,13v1.36a14.06,14.06,0,0,1,5.7-5.56,16.35,16.35,0,0,1,8-1.77Z"/><path class="cls-6" d="M73.6,236.71c-11.68-7.06-18.2-7.6-20.78,12.22,0,0,12.23-9.64,18.07-3.26,6.24,6.93,14.8.55,10.32-3.53A31.08,31.08,0,0,0,73.6,236.71Z"/><path class="cls-6" d="M68.85,239.15c-6.66,4.35-6.66,14.67-6.66,14.67s12.09-6.52,11.14-10.59a4.71,4.71,0,0,0-4.48-4.08Z"/><path class="cls-6" d="M14.12,157.68a8.49,8.49,0,0,1,3.67-1.36,9.58,9.58,0,0,1,3.94.27h.4c-.4-.68-.81-1.49-1.22-2.17-6.11-10-13.44-8-19.82-3.67-.41.27-.68.54-1.09.82a14.09,14.09,0,0,1,7.88,1,14.76,14.76,0,0,1,6.11,5Z"/><path class="cls-6" d="M26.48,169.9c-4.21-16.84-7.6-23.36-23.9-11.68,0,0,13.85-3.94,15.48,15.75.68,9.37,9.78,11.27,9.64,5.16A35.39,35.39,0,0,0,26.48,169.9Z"/><path class="cls-6" d="M20.51,160.94C12.76,159,5.3,166.1,5.3,166.1s11.81-.41,13.3,6.79C19.42,177,20.51,160.94,20.51,160.94Z"/><path class="cls-23" d="M267.79,133.5a93.62,93.62,0,0,1,26.48-21.32,71.25,71.25,0,0,1,31.64-7.87l3.12,2.85H327.4a65.85,65.85,0,0,0-32.59,6.38A95.1,95.1,0,0,0,267.79,133.5Z"/><path class="cls-24" d="M327.13,104.31a59,59,0,0,1,17.93,4.62,47.47,47.47,0,0,1,15.07,10.18,47,47,0,0,0-15.75-9.1A75,75,0,0,0,329,106.89L325.91,104Z"/><path class="cls-25" d="M185.9,240.65a57.45,57.45,0,0,1,5.3-3.26c1.36-.68,2.58-1.22,3.94-1.77s2.85-1,4.07-1.49A77.92,77.92,0,0,1,216.05,231,167.15,167.15,0,0,1,250,232.36c11.14,1.63,22.41,2.72,33.68,3.26a116,116,0,0,0,33.54-3.26,111.65,111.65,0,0,1-33.54,3.94c-11.27-.27-22.54-1.22-33.82-2.58a153.56,153.56,0,0,0-33.54-.54A82.22,82.22,0,0,0,200,236.44a23.46,23.46,0,0,0-3.94,1.49,31.91,31.91,0,0,0-3.67,1.77,32.62,32.62,0,0,0-6.65,4.61l-1,.82A16.49,16.49,0,0,1,185.9,240.65Z"/><path class="cls-8" d="M119.5,107.57c-10.86,2.44-9.23,11-9.23,11s3.39-4.21,22.4-6.39A88.92,88.92,0,0,1,119.5,107.57Z"/><path class="cls-26" d="M175.72,268.21a25.57,25.57,0,0,1-.14-7.19,33.26,33.26,0,0,1,1.63-7.2,36.82,36.82,0,0,1,3.13-6.65,37.2,37.2,0,0,1,4.75-5.71l.81-.68s-1.08,3.4-1.22,4.35a30.9,30.9,0,0,0-8.55,16A30.5,30.5,0,0,0,175.72,268.21Z"/><path class="cls-27" d="M85.69,205.75a64.55,64.55,0,0,1-13.58-27.7,59.45,59.45,0,0,1-1.36-16.3l.27-4.07.54-4.08a18.61,18.61,0,0,1,.82-3.94,20.6,20.6,0,0,1,1.09-3.93A59.93,59.93,0,0,1,80,130.92a73.91,73.91,0,0,1,4.62-6.65l2.58-3.12A28.4,28.4,0,0,1,90,118.3a63.12,63.12,0,0,1,12.77-9.78,71.39,71.39,0,0,1,14.8-6.25,66.31,66.31,0,0,0-14.53,6.66,67.28,67.28,0,0,0-12.36,9.91c-.95,1-1.9,1.9-2.71,2.85l-2.58,3.12a71,71,0,0,0-4.35,6.66,63.64,63.64,0,0,0-6,14.53c-.41,1.22-.68,2.58-1,3.8s-.4,2.58-.54,3.94l-.41,3.94v3.93A59.31,59.31,0,0,0,75,177.1a61.89,61.89,0,0,0,14.67,27l1.08,1.22C90.85,205.75,86.64,205.88,85.69,205.75Z"/><path class="cls-28" d="M150.6,225.3a79.75,79.75,0,0,1-17.11,1.9,60.59,60.59,0,0,1-17.11-2.85,82.06,82.06,0,0,1-15.89-6.65,58.48,58.48,0,0,1-13.85-10.59l-1.22-1.23h5a53.57,53.57,0,0,0,11.41,9.37,83,83,0,0,0,15.34,7.2A62.57,62.57,0,0,0,133.62,226,78.2,78.2,0,0,0,150.6,225.3Z"/><path class="cls-29" d="M351.71,48.9a3.94,3.94,0,0,0-5.57-5.56l-3.53,3.53-3.53-3.53a3.94,3.94,0,1,0-5.57,5.56l3.54,3.53L333.51,56a3.94,3.94,0,1,0,5.57,5.56L342.61,58l3.53,3.53A3.94,3.94,0,0,0,351.71,56l-3.53-3.54Z"/></svg>