<svg id="Layer_1" data-name="Layer 1" xmlns="http://www.w3.org/2000/svg" xmlns:xlink="http://www.w3.org/1999/xlink" viewBox="0 0 332.06 301.25"><defs><style>.cls-1{fill:none;}.cls-2{fill:url(#linear-gradient);}.cls-3{fill:#fff;}.cls-4{fill:url(#linear-gradient-2);}.cls-5{fill:url(#linear-gradient-3);}.cls-6{fill:url(#linear-gradient-4);}.cls-7{fill:url(#linear-gradient-5);}.cls-8{fill:url(#linear-gradient-6);}.cls-9{fill:url(#linear-gradient-7);}.cls-10{fill:url(#linear-gradient-8);}.cls-11{fill:url(#linear-gradient-9);}.cls-12{clip-path:url(#clip-path);}.cls-13{fill:#5b6268;}.cls-14{fill:#5cdbdd;}.cls-15{fill:#90c5d2;}.cls-16{fill:#1f3d56;}</style><linearGradient id="linear-gradient" x1="331.31" y1="212.66" x2="241.92" y2="225.94" gradientTransform="matrix(1, 0, 0, -1, 0, 303.38)" gradientUnits="userSpaceOnUse"><stop offset="0" stop-color="#5cdbdd" stop-opacity="0.03"/><stop offset="1" stop-color="#5cdbdd" stop-opacity="0.44"/></linearGradient><linearGradient id="linear-gradient-2" x1="300.34" y1="240.38" x2="145.48" y2="263.39" xlink:href="#linear-gradient"/><linearGradient id="linear-gradient-3" x1="80.99" y1="163.28" x2="51.19" y2="167.71" xlink:href="#linear-gradient"/><linearGradient id="linear-gradient-4" x1="263.33" y1="287.86" x2="233.53" y2="292.29" xlink:href="#linear-gradient"/><linearGradient id="linear-gradient-5" x1="170.49" y1="213.79" x2="81.1" y2="227.07" xlink:href="#linear-gradient"/><linearGradient id="linear-gradient-6" x1="92.89" y1="192.22" x2="39.57" y2="200.14" xlink:href="#linear-gradient"/><linearGradient id="linear-gradient-7" x1="359.04" y1="219.4" x2="305.72" y2="227.32" xlink:href="#linear-gradient"/><linearGradient id="linear-gradient-8" x1="113.41" y1="174.48" x2="77.73" y2="179.78" xlink:href="#linear-gradient"/><linearGradient id="linear-gradient-9" x1="308.21" y1="268.48" x2="272.53" y2="273.78" xlink:href="#linear-gradient"/><clipPath id="clip-path"><rect class="cls-1" y="155.16" width="125.71" height="146.1"/></clipPath></defs><title>illus-intern</title><path class="cls-2" d="M234.43,80.18A25.83,25.83,0,1,1,260.26,106,25.82,25.82,0,0,1,234.43,80.18Z"/><path class="cls-3" d="M240.1,81.77A12.32,12.32,0,0,0,240,80.3V78.6a17.81,17.81,0,0,1,.23-2.27,12.38,12.38,0,0,1,.68-2.6A14.27,14.27,0,0,1,242,71a21.89,21.89,0,0,1,1.7-2.72,15.17,15.17,0,0,1,2.15-2.49,23.28,23.28,0,0,1,2.49-2.15c.91-.68,1.82-1.13,2.72-1.7a13.65,13.65,0,0,1,2.72-1.13,12.46,12.46,0,0,1,2.61-.68,7.93,7.93,0,0,1,2.26-.23h1.7a8.56,8.56,0,0,1,1.47.11s-.57.12-1.47.23a23.46,23.46,0,0,0-3.74.91,19.87,19.87,0,0,0-2.38.9c-.79.34-1.58.8-2.49,1.25a17.68,17.68,0,0,0-2.38,1.7,19,19,0,0,0-2.26,2c-.68.79-1.47,1.47-2,2.26s-1.13,1.59-1.7,2.38-.9,1.7-1.25,2.49a26,26,0,0,0-1.81,6.12C240.21,81.2,240.1,81.77,240.1,81.77Z"/><path class="cls-4" d="M132.51,44.73a44.74,44.74,0,1,1,44.73,44.74A44.71,44.71,0,0,1,132.51,44.73Z"/><path class="cls-3" d="M142.32,47.48a22.37,22.37,0,0,0-.2-2.55V42a30.68,30.68,0,0,1,.39-3.93,22.19,22.19,0,0,1,1.18-4.51,24.15,24.15,0,0,1,2-4.71,39.3,39.3,0,0,1,2.94-4.71,26,26,0,0,1,3.73-4.31,39.46,39.46,0,0,1,4.32-3.73c1.57-1.18,3.14-2,4.71-2.94a24.2,24.2,0,0,1,4.71-2A22.12,22.12,0,0,1,170.57,10a13.75,13.75,0,0,1,3.92-.4h2.95a14.06,14.06,0,0,1,2.55.2s-1,.2-2.55.39A43.91,43.91,0,0,0,171,11.77a35.37,35.37,0,0,0-4.12,1.57c-1.37.59-2.75,1.38-4.32,2.16a31.47,31.47,0,0,0-4.11,2.94A33.07,33.07,0,0,0,154.48,22c-1.18,1.37-2.55,2.55-3.53,3.92-1.18,1.37-2,2.75-2.94,4.12-.79,1.57-1.57,2.94-2.16,4.32a34.06,34.06,0,0,0-1.57,4.12,36.92,36.92,0,0,0-1.57,6.47C142.51,46.5,142.32,47.48,142.32,47.48Z"/><path class="cls-5" d="M48.7,136.58a8.61,8.61,0,1,1,8.61,8.61A8.6,8.6,0,0,1,48.7,136.58Z"/><path class="cls-6" d="M231,12a8.61,8.61,0,1,1,8.6,8.61A8.6,8.6,0,0,1,231,12Z"/><path class="cls-7" d="M73.61,79.05a25.83,25.83,0,1,1,25.83,25.82A25.82,25.82,0,0,1,73.61,79.05Z"/><path class="cls-3" d="M79.28,80.64a12.55,12.55,0,0,0-.12-1.48V77.47a17.63,17.63,0,0,1,.23-2.27,12.38,12.38,0,0,1,.68-2.6,14,14,0,0,1,1.13-2.72,21.89,21.89,0,0,1,1.7-2.72,14.77,14.77,0,0,1,2.15-2.49,23.13,23.13,0,0,1,2.49-2.15c.91-.68,1.82-1.14,2.72-1.7A13.7,13.7,0,0,1,93,59.68,12.4,12.4,0,0,1,95.59,59a7.93,7.93,0,0,1,2.26-.23h1.7a8.41,8.41,0,0,1,1.47.11s-.56.12-1.47.23a24.39,24.39,0,0,0-3.74.9,21.84,21.84,0,0,0-2.38.91c-.79.34-1.58.79-2.49,1.25a18.55,18.55,0,0,0-2.38,1.69,19.92,19.92,0,0,0-2.26,2c-.68.8-1.47,1.48-2,2.27s-1.13,1.58-1.7,2.38-.9,1.7-1.24,2.49a20.37,20.37,0,0,0-.91,2.38,22.78,22.78,0,0,0-.91,3.73C79.39,80.07,79.28,80.64,79.28,80.64Z"/><path class="cls-8" d="M35.11,104.87a15.4,15.4,0,1,1,15.4,15.4A15.42,15.42,0,0,1,35.11,104.87Z"/><path class="cls-3" d="M38.51,104.87a3.4,3.4,0,0,0-.12-.79v-.91a4.75,4.75,0,0,1,.12-1.24c.11-.46.22-.91.34-1.47a9.15,9.15,0,0,1,.56-1.59c.34-.45.57-1,.91-1.47s.79-.91,1.13-1.36a12.32,12.32,0,0,1,1.36-1.13A10.66,10.66,0,0,1,44.28,94a9.2,9.2,0,0,1,1.59-.57,3.58,3.58,0,0,1,1.47-.34A5.24,5.24,0,0,1,48.59,93h.9a2,2,0,0,1,.79.11,2.62,2.62,0,0,1-.79.12,9.35,9.35,0,0,0-2,.56c-.45.12-.9.34-1.24.46s-.91.45-1.36.68-.91.56-1.36.9a6.12,6.12,0,0,0-1.25,1.13c-.34.46-.79.8-1.13,1.25a8.87,8.87,0,0,0-.9,1.36l-.57,1.13a7.74,7.74,0,0,0-.45,1.25c-.23.79-.46,1.47-.57,2A5.18,5.18,0,0,0,38.51,104.87Z"/><path class="cls-9" d="M301.25,77.69a15.41,15.41,0,1,1,15.41,15.4A15.42,15.42,0,0,1,301.25,77.69Z"/><path class="cls-3" d="M304.65,77.69a3.69,3.69,0,0,0-.11-.79V76a5.17,5.17,0,0,1,.11-1.24c.11-.46.23-.91.34-1.48a8.61,8.61,0,0,1,.57-1.58c.34-.45.56-1,.9-1.47s.8-.91,1.14-1.36A11.23,11.23,0,0,1,309,67.73a10.75,10.75,0,0,1,1.48-.91,9.11,9.11,0,0,1,1.58-.57,3.61,3.61,0,0,1,1.47-.34,5.29,5.29,0,0,1,1.25-.11h.91a2,2,0,0,1,.79.11,2.62,2.62,0,0,1-.79.12,9.07,9.07,0,0,0-2,.56c-.45.12-.91.34-1.25.46l-1.36.68c-.45.34-.9.56-1.36.9a6.07,6.07,0,0,0-1.24,1.13c-.34.46-.79.8-1.13,1.25a9.77,9.77,0,0,0-.91,1.36l-.57,1.13a8.84,8.84,0,0,0-.45,1.25c-.23.79-.45,1.47-.57,2A5.18,5.18,0,0,0,304.65,77.69Z"/><path class="cls-10" d="M74.75,124.69A10.31,10.31,0,1,1,85.05,135,10.34,10.34,0,0,1,74.75,124.69Z"/><path class="cls-3" d="M77,124.69v-1.24a1.86,1.86,0,0,1,.12-.8,2.13,2.13,0,0,1,.22-.9,4.13,4.13,0,0,1,.45-1c.23-.34.34-.68.57-1a7.49,7.49,0,0,1,.79-.91c.34-.22.57-.56.91-.79l1-.68c.34-.11.68-.34,1-.45a3.29,3.29,0,0,1,.9-.23,2.3,2.3,0,0,1,.8-.11h1.24a2,2,0,0,0-.56.11,3.81,3.81,0,0,0-1.36.34,8.13,8.13,0,0,1-.91.34c-.34.11-.56.34-.9.45a4.89,4.89,0,0,0-.91.68,5.93,5.93,0,0,0-.91.8,6.66,6.66,0,0,0-.79.9c-.23.34-.45.57-.68.91s-.34.56-.45.9-.23.57-.34.91a3.86,3.86,0,0,0-.34,1.36A1.16,1.16,0,0,1,77,124.69Z"/><path class="cls-11" d="M269.54,30.69A10.31,10.31,0,1,1,279.85,41,10.35,10.35,0,0,1,269.54,30.69Z"/><path class="cls-3" d="M271.81,30.69V29.45a2,2,0,0,1,.11-.8,2,2,0,0,1,.23-.9,3.79,3.79,0,0,1,.45-1c.23-.34.34-.68.57-1a6.08,6.08,0,0,1,.79-.91c.34-.22.57-.56.91-.79l1-.68c.35-.11.68-.34,1-.45a3.26,3.26,0,0,1,.91-.23,2.28,2.28,0,0,1,.79-.11h1.25a2,2,0,0,0-.57.11,3.86,3.86,0,0,0-1.36.34,7.23,7.23,0,0,1-.9.34c-.34.11-.57.34-.91.45a4.84,4.84,0,0,0-.9.68,5.93,5.93,0,0,0-.91.8,5.52,5.52,0,0,0-.79.9c-.23.34-.46.57-.68.91s-.34.56-.46.9-.22.57-.34.91a4.1,4.1,0,0,0-.34,1.36A1.08,1.08,0,0,1,271.81,30.69Z"/><g class="cls-12"><path class="cls-13" d="M113.19,301.25H12.52C5.29,301.25,0,297.11,0,291.32a17.27,17.27,0,0,1,2.64-9.4L43.72,211V165.17c-3.74-3.83-5.06-6.34-4.36-8.14.24-.62,1-1.72,3.19-1.72H43a11.88,11.88,0,0,1,1.87-.15,14.42,14.42,0,0,1,2.64.23H78.18a14.46,14.46,0,0,1,2.65-.23,11.64,11.64,0,0,1,1.86.15h.47c2.18,0,3,1.1,3.19,1.72.78,1.8-.62,4.31-4.36,8.14v45.94L123.07,282a16.88,16.88,0,0,1,2.64,9.39C125.71,297.11,120.42,301.25,113.19,301.25ZM41.7,158.05s-.16,1.33,4.2,5.71l.39.4v47.73L4.75,283.41a14.87,14.87,0,0,0-2.18,7.91c0,5.08,5.13,7.35,10,7.35H113.19c4.82,0,10-2.27,10-7.35a14.59,14.59,0,0,0-2.17-7.91l-.08-.08L79.43,211.81V164.08l.38-.39c4.44-4.46,4.2-5.72,4.13-5.72a3.53,3.53,0,0,0-.86-.07h-.62l-.23-.08a5,5,0,0,0-1.48-.16,19.79,19.79,0,0,0-2.34.16H47.14a19.74,19.74,0,0,0-2.33-.16,5,5,0,0,0-1.48.16l-.23.08h-.63C42,157.9,41.7,158,41.7,158.05Z"/><path class="cls-14" d="M36.41,238.65,11.05,281s-2.73,5.16-1.48,8.92,2.18,6.18,13.77,6.18h83.47s7.62.23,9.1-5.87-.86-9-5.45-16.28S90.7,241.7,90.7,241.7s-6.37,3.6-12.36,3.52-15.48,1.49-20.93-.39S38.58,236.15,36.41,238.65Z"/><path class="cls-3" d="M76.13,231.86a8.8,8.8,0,1,0-11.94,3.47A8.76,8.76,0,0,0,76.13,231.86Z"/><path class="cls-15" d="M68.46,236.7a9.16,9.16,0,1,1,9.1-9.16A9.15,9.15,0,0,1,68.46,236.7Zm0-17.61a8.45,8.45,0,1,0,8.4,8.45A8.44,8.44,0,0,0,68.46,219.09Z"/><path class="cls-3" d="M74.37,227.54a5.93,5.93,0,0,0-5.91-5.95Z"/><path class="cls-15" d="M74.37,227.93a.33.33,0,0,1-.31-.31,5.6,5.6,0,0,0-5.6-5.64.31.31,0,0,1,0-.62,6.26,6.26,0,0,1,6.22,6.26A.29.29,0,0,1,74.37,227.93Z"/><path class="cls-3" d="M62.39,240.61a6.3,6.3,0,1,0-6.3,6.34A6.3,6.3,0,0,0,62.39,240.61Z"/><path class="cls-15" d="M56.09,247.26a6.65,6.65,0,1,1,6.61-6.65A6.62,6.62,0,0,1,56.09,247.26Zm0-12.68a6,6,0,1,0,6,6A6,6,0,0,0,56.09,234.58Z"/><path class="cls-3" d="M60.37,240.61a4.34,4.34,0,0,0-4.28-4.31Z"/><path class="cls-15" d="M60.37,240.92a.34.34,0,0,1-.32-.31,4,4,0,0,0-4-4,.32.32,0,0,1,0-.63,4.62,4.62,0,0,1,4.59,4.62A.34.34,0,0,1,60.37,240.92Z"/><path class="cls-3" d="M72,251.33a6,6,0,1,0-6,6A6,6,0,0,0,72,251.33Z"/><path class="cls-15" d="M66,257.67a6.34,6.34,0,1,1,6.31-6.34A6.35,6.35,0,0,1,66,257.67Zm0-12a5.64,5.64,0,1,0,5.61,5.64A5.6,5.6,0,0,0,66,245.69Z"/><path class="cls-3" d="M70.09,251.33a4,4,0,0,0-4-4.07Z"/><path class="cls-15" d="M70.09,251.64a.33.33,0,0,1-.31-.31A3.74,3.74,0,0,0,66,247.57a.31.31,0,0,1,0-.62,4.36,4.36,0,0,1,4.36,4.38A.33.33,0,0,1,70.09,251.64Z"/><path class="cls-3" d="M57.72,259A3.74,3.74,0,0,0,54,255.24,3.7,3.7,0,0,0,50.25,259a3.74,3.74,0,1,0,7.47,0Z"/><path class="cls-15" d="M54,263.07A4.07,4.07,0,1,1,58,259,4,4,0,0,1,54,263.07Zm0-7.52A3.45,3.45,0,1,0,57.41,259,3.42,3.42,0,0,0,54,255.55Z"/><path class="cls-3" d="M56.55,259a2.51,2.51,0,0,0-2.49-2.51Z"/><path class="cls-15" d="M56.55,259.31a.34.34,0,0,1-.31-.31,2.18,2.18,0,0,0-2.17-2.19.32.32,0,1,1,0-.63,2.82,2.82,0,0,1,2.8,2.9A.36.36,0,0,1,56.55,259.31Z"/></g><path class="cls-16" d="M165.85,185.05a20.69,20.69,0,1,1-20.69-20.62A20.68,20.68,0,0,1,165.85,185.05Z"/><path class="cls-16" d="M234.05,187.51l-2.82-1.76c-23.87-10.9-45.15,0-45.15,0l-2.94,2.58v4.92l2.94-.94s21.28-10.9,45.15,0l3.65,1.88Z"/><path class="cls-16" d="M251.45,152.36a40.61,40.61,0,0,1,47.39,5,5.7,5.7,0,0,1,.82.23s50.45-77.09-14.34-46.28c0,0-72.31-99.7-146.39-47.56,0,0,11.29,6.09,15.28,11.6,0,0-54.55,3-63.61,29.87,0,0,16-1.64,15.76,2.35,0,0-20.93,3,4.94,56.82a40.64,40.64,0,0,1,64.43-4.1c10-1.76,22.22-5.39,30.1-12.66C206,147.56,265.45,134.79,251.45,152.36Z"/><path class="cls-16" d="M145.16,144.63a40.3,40.3,0,1,0,40.45,40.3A40.37,40.37,0,0,0,145.16,144.63Zm-.59,72.28a31.75,31.75,0,1,1,31.87-31.75A31.83,31.83,0,0,1,144.57,216.91Z"/><path class="cls-16" d="M271.56,145.33A40.31,40.31,0,1,0,312,185.63,40.37,40.37,0,0,0,271.56,145.33ZM271,217.62a31.75,31.75,0,1,1,31.87-31.75A31.76,31.76,0,0,1,271,217.62Z"/><path class="cls-16" d="M292.26,185.75a20.7,20.7,0,1,1-20.7-20.62A20.69,20.69,0,0,1,292.26,185.75Z"/><path class="cls-16" d="M247.22,217.62l38.1,3s28.45,43.12-81.13,55.54l-28-4.46C176.2,271.86,264.62,250.89,247.22,217.62Z"/></svg>