<svg viewBox="0 0 332.06 301.25" xmlns="http://www.w3.org/2000/svg" xmlns:xlink="http://www.w3.org/1999/xlink"><linearGradient id="a" gradientTransform="matrix(1 0 0 -1 0 303.38)" gradientUnits="userSpaceOnUse" x1="331.31" x2="241.92" y1="212.66" y2="225.94"><stop offset="0" stop-color="#5cdbdd" stop-opacity=".03"/><stop offset="1" stop-color="#5cdbdd" stop-opacity=".44"/></linearGradient><linearGradient id="b" x1="300.34" x2="145.48" xlink:href="#a" y1="240.38" y2="263.39"/><linearGradient id="c" x1="80.99" x2="51.19" xlink:href="#a" y1="163.28" y2="167.71"/><linearGradient id="d" x1="263.33" x2="233.53" xlink:href="#a" y1="287.86" y2="292.29"/><linearGradient id="e" x1="170.49" x2="81.1" xlink:href="#a" y1="213.79" y2="227.07"/><linearGradient id="f" x1="92.89" x2="39.57" xlink:href="#a" y1="192.22" y2="200.14"/><linearGradient id="g" x1="359.04" x2="305.72" xlink:href="#a" y1="219.4" y2="227.32"/><linearGradient id="h" x1="113.41" x2="77.73" xlink:href="#a" y1="174.48" y2="179.78"/><linearGradient id="i" x1="308.21" x2="272.53" xlink:href="#a" y1="268.48" y2="273.78"/><clipPath id="j"><path d="m0 155.16h125.71v146.1h-125.71z"/></clipPath><path d="m234.43 80.18a25.83 25.83 0 1 1 25.83 25.82 25.82 25.82 0 0 1 -25.83-25.82z" fill="url(#a)"/><path d="m240.1 81.77a12.32 12.32 0 0 0 -.1-1.47v-1.7a17.81 17.81 0 0 1 .23-2.27 12.38 12.38 0 0 1 .68-2.6 14.27 14.27 0 0 1 1.09-2.73 21.89 21.89 0 0 1 1.7-2.72 15.17 15.17 0 0 1 2.15-2.49 23.28 23.28 0 0 1 2.49-2.15c.91-.68 1.82-1.13 2.72-1.7a13.65 13.65 0 0 1 2.72-1.13 12.46 12.46 0 0 1 2.61-.68 7.93 7.93 0 0 1 2.26-.23h1.7a8.56 8.56 0 0 1 1.47.11s-.57.12-1.47.23a23.46 23.46 0 0 0 -3.74.91 19.87 19.87 0 0 0 -2.38.9c-.79.34-1.58.8-2.49 1.25a17.68 17.68 0 0 0 -2.38 1.7 19 19 0 0 0 -2.26 2c-.68.79-1.47 1.47-2 2.26s-1.13 1.59-1.7 2.38-.9 1.7-1.25 2.49a26 26 0 0 0 -1.81 6.12c-.13.95-.24 1.52-.24 1.52z" fill="#fff"/><path d="m132.51 44.73a44.74 44.74 0 1 1 44.73 44.74 44.71 44.71 0 0 1 -44.73-44.74z" fill="url(#b)"/><path d="m142.32 47.48a22.37 22.37 0 0 0 -.2-2.55v-2.93a30.68 30.68 0 0 1 .39-3.93 22.19 22.19 0 0 1 1.18-4.51 24.15 24.15 0 0 1 2-4.71 39.3 39.3 0 0 1 2.94-4.71 26 26 0 0 1 3.73-4.31 39.46 39.46 0 0 1 4.32-3.73c1.57-1.18 3.14-2 4.71-2.94a24.2 24.2 0 0 1 4.71-2 22.12 22.12 0 0 1 4.47-1.16 13.75 13.75 0 0 1 3.92-.4h2.95a14.06 14.06 0 0 1 2.55.2s-1 .2-2.55.39a43.91 43.91 0 0 0 -6.44 1.58 35.37 35.37 0 0 0 -4.12 1.57c-1.37.59-2.75 1.38-4.32 2.16a31.47 31.47 0 0 0 -4.11 2.94 33.07 33.07 0 0 0 -3.97 3.56c-1.18 1.37-2.55 2.55-3.53 3.92-1.18 1.37-2 2.75-2.94 4.12-.79 1.57-1.57 2.94-2.16 4.32a34.06 34.06 0 0 0 -1.57 4.12 36.92 36.92 0 0 0 -1.57 6.47c-.2 1.55-.39 2.53-.39 2.53z" fill="#fff"/><path d="m48.7 136.58a8.61 8.61 0 1 1 8.61 8.61 8.6 8.6 0 0 1 -8.61-8.61z" fill="url(#c)"/><path d="m231 12a8.61 8.61 0 1 1 8.6 8.61 8.6 8.6 0 0 1 -8.6-8.61z" fill="url(#d)"/><path d="m73.61 79.05a25.83 25.83 0 1 1 25.83 25.82 25.82 25.82 0 0 1 -25.83-25.82z" fill="url(#e)"/><path d="m79.28 80.64a12.55 12.55 0 0 0 -.12-1.48v-1.69a17.63 17.63 0 0 1 .23-2.27 12.38 12.38 0 0 1 .68-2.6 14 14 0 0 1 1.13-2.72 21.89 21.89 0 0 1 1.7-2.72 14.77 14.77 0 0 1 2.15-2.49 23.13 23.13 0 0 1 2.49-2.15c.91-.68 1.82-1.14 2.72-1.7a13.7 13.7 0 0 1 2.74-1.14 12.4 12.4 0 0 1 2.59-.68 7.93 7.93 0 0 1 2.26-.23h1.7a8.41 8.41 0 0 1 1.47.11s-.56.12-1.47.23a24.39 24.39 0 0 0 -3.74.9 21.84 21.84 0 0 0 -2.38.91c-.79.34-1.58.79-2.49 1.25a18.55 18.55 0 0 0 -2.38 1.69 19.92 19.92 0 0 0 -2.26 2c-.68.8-1.47 1.48-2 2.27s-1.13 1.58-1.7 2.38-.9 1.7-1.24 2.49a20.37 20.37 0 0 0 -.91 2.38 22.78 22.78 0 0 0 -.91 3.73c-.15.96-.26 1.53-.26 1.53z" fill="#fff"/><path d="m35.11 104.87a15.4 15.4 0 1 1 15.4 15.4 15.42 15.42 0 0 1 -15.4-15.4z" fill="url(#f)"/><path d="m38.51 104.87a3.4 3.4 0 0 0 -.12-.79v-.91a4.75 4.75 0 0 1 .12-1.24c.11-.46.22-.91.34-1.47a9.15 9.15 0 0 1 .56-1.59c.34-.45.57-1 .91-1.47s.79-.91 1.13-1.36a12.32 12.32 0 0 1 1.36-1.13 10.66 10.66 0 0 1 1.47-.91 9.2 9.2 0 0 1 1.59-.57 3.58 3.58 0 0 1 1.47-.34 5.24 5.24 0 0 1 1.25-.09h.9a2 2 0 0 1 .79.11 2.62 2.62 0 0 1 -.79.12 9.35 9.35 0 0 0 -2 .56c-.45.12-.9.34-1.24.46s-.91.45-1.36.68-.91.56-1.36.9a6.12 6.12 0 0 0 -1.25 1.13c-.34.46-.79.8-1.13 1.25a8.87 8.87 0 0 0 -.9 1.36l-.57 1.13a7.74 7.74 0 0 0 -.45 1.25c-.23.79-.46 1.47-.57 2a5.18 5.18 0 0 0 -.15.92z" fill="#fff"/><path d="m301.25 77.69a15.41 15.41 0 1 1 15.41 15.4 15.42 15.42 0 0 1 -15.41-15.4z" fill="url(#g)"/><path d="m304.65 77.69a3.69 3.69 0 0 0 -.11-.79v-.9a5.17 5.17 0 0 1 .11-1.24c.11-.46.23-.91.34-1.48a8.61 8.61 0 0 1 .57-1.58c.34-.45.56-1 .9-1.47s.8-.91 1.14-1.36a11.23 11.23 0 0 1 1.4-1.14 10.75 10.75 0 0 1 1.48-.91 9.11 9.11 0 0 1 1.58-.57 3.61 3.61 0 0 1 1.47-.34 5.29 5.29 0 0 1 1.25-.11h.91a2 2 0 0 1 .79.11 2.62 2.62 0 0 1 -.79.12 9.07 9.07 0 0 0 -2 .56c-.45.12-.91.34-1.25.46l-1.36.68c-.45.34-.9.56-1.36.9a6.07 6.07 0 0 0 -1.24 1.13c-.34.46-.79.8-1.13 1.25a9.77 9.77 0 0 0 -.91 1.36l-.57 1.13a8.84 8.84 0 0 0 -.45 1.25c-.23.79-.45 1.47-.57 2a5.18 5.18 0 0 0 -.2.94z" fill="#fff"/><path d="m74.75 124.69a10.31 10.31 0 1 1 10.3 10.31 10.34 10.34 0 0 1 -10.3-10.31z" fill="url(#h)"/><path d="m77 124.69v-1.24a1.86 1.86 0 0 1 .12-.8 2.13 2.13 0 0 1 .22-.9 4.13 4.13 0 0 1 .45-1c.23-.34.34-.68.57-1a7.49 7.49 0 0 1 .79-.91c.34-.22.57-.56.91-.79l1-.68c.34-.11.68-.34 1-.45a3.29 3.29 0 0 1 .9-.23 2.3 2.3 0 0 1 .8-.11h1.24a2 2 0 0 0 -.56.11 3.81 3.81 0 0 0 -1.36.34 8.13 8.13 0 0 1 -.91.34c-.34.11-.56.34-.9.45a4.89 4.89 0 0 0 -.91.68 5.93 5.93 0 0 0 -.91.8 6.66 6.66 0 0 0 -.79.9c-.23.34-.45.57-.68.91s-.34.56-.45.9-.23.57-.34.91a3.86 3.86 0 0 0 -.34 1.36 1.16 1.16 0 0 1 .15.41z" fill="#fff"/><path d="m269.54 30.69a10.31 10.31 0 1 1 10.31 10.31 10.35 10.35 0 0 1 -10.31-10.31z" fill="url(#i)"/><path d="m271.81 30.69v-1.24a2 2 0 0 1 .11-.8 2 2 0 0 1 .23-.9 3.79 3.79 0 0 1 .45-1c.23-.34.34-.68.57-1a6.08 6.08 0 0 1 .79-.91c.34-.22.57-.56.91-.79l1-.68c.35-.11.68-.34 1-.45a3.26 3.26 0 0 1 .91-.23 2.28 2.28 0 0 1 .79-.11h1.25a2 2 0 0 0 -.57.11 3.86 3.86 0 0 0 -1.36.34 7.23 7.23 0 0 1 -.9.34c-.34.11-.57.34-.91.45a4.84 4.84 0 0 0 -.9.68 5.93 5.93 0 0 0 -.91.8 5.52 5.52 0 0 0 -.79.9c-.23.34-.46.57-.68.91s-.34.56-.46.9-.22.57-.34.91a4.1 4.1 0 0 0 -.34 1.36 1.08 1.08 0 0 1 .15.41z" fill="#fff"/><g clip-path="url(#j)"><path d="m113.19 301.25h-100.67c-7.23 0-12.52-4.14-12.52-9.93a17.27 17.27 0 0 1 2.64-9.4l41.08-70.92v-45.83c-3.74-3.83-5.06-6.34-4.36-8.14.24-.62 1-1.72 3.19-1.72h.45a11.88 11.88 0 0 1 1.87-.15 14.42 14.42 0 0 1 2.64.23h30.67a14.46 14.46 0 0 1 2.65-.23 11.64 11.64 0 0 1 1.86.15h.47c2.18 0 3 1.1 3.19 1.72.78 1.8-.62 4.31-4.36 8.14v45.94l41.08 70.89a16.88 16.88 0 0 1 2.64 9.39c0 5.72-5.29 9.86-12.52 9.86zm-71.49-143.2s-.16 1.33 4.2 5.71l.39.4v47.73l-41.54 71.52a14.87 14.87 0 0 0 -2.18 7.91c0 5.08 5.13 7.35 10 7.35h100.62c4.82 0 10-2.27 10-7.35a14.59 14.59 0 0 0 -2.17-7.91l-.08-.08-41.51-71.52v-47.73l.38-.39c4.44-4.46 4.2-5.72 4.13-5.72a3.53 3.53 0 0 0 -.86-.07h-.62l-.23-.08a5 5 0 0 0 -1.48-.16 19.79 19.79 0 0 0 -2.34.16h-31.27a19.74 19.74 0 0 0 -2.33-.16 5 5 0 0 0 -1.48.16l-.23.08h-.63c-.47 0-.77.1-.77.15z" fill="#5b6268"/><path d="m36.41 238.65-25.36 42.35s-2.73 5.16-1.48 8.92 2.18 6.18 13.77 6.18h83.47s7.62.23 9.1-5.87-.86-9-5.45-16.28-19.76-32.25-19.76-32.25-6.37 3.6-12.36 3.52-15.48 1.49-20.93-.39-18.83-8.68-21-6.18z" fill="#5cdbdd"/><path d="m76.13 231.86a8.8 8.8 0 1 0 -11.94 3.47 8.76 8.76 0 0 0 11.94-3.47z" fill="#fff"/><path d="m68.46 236.7a9.16 9.16 0 1 1 9.1-9.16 9.15 9.15 0 0 1 -9.1 9.16zm0-17.61a8.45 8.45 0 1 0 8.4 8.45 8.44 8.44 0 0 0 -8.4-8.45z" fill="#90c5d2"/><path d="m74.37 227.54a5.93 5.93 0 0 0 -5.91-5.95z" fill="#fff"/><path d="m74.37 227.93a.33.33 0 0 1 -.31-.31 5.6 5.6 0 0 0 -5.6-5.64.31.31 0 0 1 0-.62 6.26 6.26 0 0 1 6.22 6.26.29.29 0 0 1 -.31.31z" fill="#90c5d2"/><path d="m62.39 240.61a6.3 6.3 0 1 0 -6.3 6.34 6.3 6.3 0 0 0 6.3-6.34z" fill="#fff"/><path d="m56.09 247.26a6.65 6.65 0 1 1 6.61-6.65 6.62 6.62 0 0 1 -6.61 6.65zm0-12.68a6 6 0 1 0 6 6 6 6 0 0 0 -6-6z" fill="#90c5d2"/><path d="m60.37 240.61a4.34 4.34 0 0 0 -4.28-4.31z" fill="#fff"/><path d="m60.37 240.92a.34.34 0 0 1 -.32-.31 4 4 0 0 0 -4-4 .32.32 0 0 1 0-.63 4.62 4.62 0 0 1 4.59 4.62.34.34 0 0 1 -.27.32z" fill="#90c5d2"/><path d="m72 251.33a6 6 0 1 0 -6 6 6 6 0 0 0 6-6z" fill="#fff"/><path d="m66 257.67a6.34 6.34 0 1 1 6.31-6.34 6.35 6.35 0 0 1 -6.31 6.34zm0-12a5.64 5.64 0 1 0 5.61 5.64 5.6 5.6 0 0 0 -5.61-5.62z" fill="#90c5d2"/><path d="m70.09 251.33a4 4 0 0 0 -4-4.07z" fill="#fff"/><path d="m70.09 251.64a.33.33 0 0 1 -.31-.31 3.74 3.74 0 0 0 -3.78-3.76.31.31 0 0 1 0-.62 4.36 4.36 0 0 1 4.36 4.38.33.33 0 0 1 -.27.31z" fill="#90c5d2"/><path d="m57.72 259a3.74 3.74 0 0 0 -3.72-3.76 3.7 3.7 0 0 0 -3.75 3.76 3.74 3.74 0 1 0 7.47 0z" fill="#fff"/><path d="m54 263.07a4.07 4.07 0 1 1 4-4.07 4 4 0 0 1 -4 4.07zm0-7.52a3.45 3.45 0 1 0 3.41 3.45 3.42 3.42 0 0 0 -3.41-3.45z" fill="#90c5d2"/><path d="m56.55 259a2.51 2.51 0 0 0 -2.49-2.51z" fill="#fff"/><path d="m56.55 259.31a.34.34 0 0 1 -.31-.31 2.18 2.18 0 0 0 -2.17-2.19.32.32 0 1 1 0-.63 2.82 2.82 0 0 1 2.8 2.9.36.36 0 0 1 -.32.23z" fill="#90c5d2"/></g><g fill="#1f3d56"><path d="m165.85 185.05a20.69 20.69 0 1 1 -20.69-20.62 20.68 20.68 0 0 1 20.69 20.62zm68.2 2.46-2.82-1.76c-23.87-10.9-45.15 0-45.15 0l-2.94 2.58v4.92l2.94-.94s21.28-10.9 45.15 0l3.65 1.88zm17.4-35.15a40.61 40.61 0 0 1 47.39 5 5.7 5.7 0 0 1 .82.23s50.45-77.09-14.34-46.28c0 0-72.31-99.7-146.39-47.56 0 0 11.29 6.09 15.28 11.6 0 0-54.55 3-63.61 29.87 0 0 16-1.64 15.76 2.35 0 0-20.93 3 4.94 56.82a40.64 40.64 0 0 1 64.43-4.1c10-1.76 22.22-5.39 30.1-12.66.17-.07 59.62-12.84 45.62 4.73z"/><path d="m145.16 144.63a40.3 40.3 0 1 0 40.45 40.3 40.37 40.37 0 0 0 -40.45-40.3zm-.59 72.28a31.75 31.75 0 1 1 31.87-31.75 31.83 31.83 0 0 1 -31.87 31.75zm126.99-71.58a40.31 40.31 0 1 0 40.44 40.3 40.37 40.37 0 0 0 -40.44-40.3zm-.56 72.29a31.75 31.75 0 1 1 31.87-31.75 31.76 31.76 0 0 1 -31.87 31.75z"/><path d="m292.26 185.75a20.7 20.7 0 1 1 -20.7-20.62 20.69 20.69 0 0 1 20.7 20.62zm-45.04 31.87 38.1 3s28.45 43.12-81.13 55.54l-28-4.46c.01.16 88.43-20.81 71.03-54.08z"/></g></svg>