<svg id="Layer_1" data-name="Layer 1" xmlns="http://www.w3.org/2000/svg" xmlns:xlink="http://www.w3.org/1999/xlink" viewBox="0 0 332.06 301.25"><defs><linearGradient id="linear-gradient" x1="331.31" y1="212.66" x2="241.92" y2="225.94" gradientTransform="matrix(1 0 0 -1 0 303.38)" gradientUnits="userSpaceOnUse"><stop offset="0" stop-color="#5cdbdd" stop-opacity=".03"/><stop offset="1" stop-color="#5cdbdd" stop-opacity=".44"/></linearGradient><linearGradient id="linear-gradient-2" x1="300.34" y1="240.38" x2="145.48" y2="263.39" xlink:href="#linear-gradient"/><linearGradient id="linear-gradient-3" x1="80.99" y1="163.28" x2="51.19" y2="167.71" xlink:href="#linear-gradient"/><linearGradient id="linear-gradient-4" x1="263.33" y1="287.86" x2="233.53" y2="292.29" xlink:href="#linear-gradient"/><linearGradient id="linear-gradient-5" x1="170.49" y1="213.79" x2="81.1" y2="227.07" xlink:href="#linear-gradient"/><linearGradient id="linear-gradient-6" x1="92.89" y1="192.22" x2="39.57" y2="200.14" xlink:href="#linear-gradient"/><linearGradient id="linear-gradient-7" x1="359.04" y1="219.4" x2="305.72" y2="227.32" xlink:href="#linear-gradient"/><linearGradient id="linear-gradient-8" x1="113.41" y1="174.48" x2="77.73" y2="179.78" xlink:href="#linear-gradient"/><linearGradient id="linear-gradient-9" x1="308.21" y1="268.48" x2="272.53" y2="273.78" xlink:href="#linear-gradient"/><clipPath id="clip-path"><path fill="none" d="M0 155.16h125.71v146.1H0z"/></clipPath><style>.cls-3{fill:#fff}.cls-15{fill:#90c5d2}.cls-16{fill:#1f3d56}</style></defs><path d="M234.43 80.18A25.83 25.83 0 11260.26 106a25.82 25.82 0 01-25.83-25.82z" fill="url(#linear-gradient)"/><path class="cls-3" d="M240.1 81.77a12.32 12.32 0 00-.1-1.47v-1.7a17.81 17.81 0 01.23-2.27 12.38 12.38 0 01.68-2.6A14.27 14.27 0 01242 71a21.89 21.89 0 011.7-2.72 15.17 15.17 0 012.15-2.49 23.28 23.28 0 012.49-2.15c.91-.68 1.82-1.13 2.72-1.7a13.65 13.65 0 012.72-1.13 12.46 12.46 0 012.61-.68 7.93 7.93 0 012.26-.23h1.7a8.56 8.56 0 011.47.11s-.57.12-1.47.23a23.46 23.46 0 00-3.74.91 19.87 19.87 0 00-2.38.9c-.79.34-1.58.8-2.49 1.25a17.68 17.68 0 00-2.38 1.7 19 19 0 00-2.26 2c-.68.79-1.47 1.47-2 2.26s-1.13 1.59-1.7 2.38-.9 1.7-1.25 2.49a26 26 0 00-1.81 6.12c-.13.95-.24 1.52-.24 1.52z"/><path d="M132.51 44.73a44.74 44.74 0 1144.73 44.74 44.71 44.71 0 01-44.73-44.74z" fill="url(#linear-gradient-2)"/><path class="cls-3" d="M142.32 47.48a22.37 22.37 0 00-.2-2.55V42a30.68 30.68 0 01.39-3.93 22.19 22.19 0 011.18-4.51 24.15 24.15 0 012-4.71 39.3 39.3 0 012.94-4.71 26 26 0 013.73-4.31 39.46 39.46 0 014.32-3.73c1.57-1.18 3.14-2 4.71-2.94a24.2 24.2 0 014.71-2 22.12 22.12 0 014.47-1.16 13.75 13.75 0 013.92-.4h2.95a14.06 14.06 0 012.55.2s-1 .2-2.55.39a43.91 43.91 0 00-6.44 1.58 35.37 35.37 0 00-4.12 1.57c-1.37.59-2.75 1.38-4.32 2.16a31.47 31.47 0 00-4.11 2.94 33.07 33.07 0 00-3.97 3.56c-1.18 1.37-2.55 2.55-3.53 3.92-1.18 1.37-2 2.75-2.94 4.12-.79 1.57-1.57 2.94-2.16 4.32a34.06 34.06 0 00-1.57 4.12 36.92 36.92 0 00-1.57 6.47c-.2 1.55-.39 2.53-.39 2.53z"/><path d="M48.7 136.58a8.61 8.61 0 118.61 8.61 8.6 8.6 0 01-8.61-8.61z" fill="url(#linear-gradient-3)"/><path d="M231 12a8.61 8.61 0 118.6 8.61A8.6 8.6 0 01231 12z" fill="url(#linear-gradient-4)"/><path d="M73.61 79.05a25.83 25.83 0 1125.83 25.82 25.82 25.82 0 01-25.83-25.82z" fill="url(#linear-gradient-5)"/><path class="cls-3" d="M79.28 80.64a12.55 12.55 0 00-.12-1.48v-1.69a17.63 17.63 0 01.23-2.27 12.38 12.38 0 01.68-2.6 14 14 0 011.13-2.72 21.89 21.89 0 011.7-2.72 14.77 14.77 0 012.15-2.49 23.13 23.13 0 012.49-2.15c.91-.68 1.82-1.14 2.72-1.7A13.7 13.7 0 0193 59.68a12.4 12.4 0 012.59-.68 7.93 7.93 0 012.26-.23h1.7a8.41 8.41 0 011.47.11s-.56.12-1.47.23a24.39 24.39 0 00-3.74.9 21.84 21.84 0 00-2.38.91c-.79.34-1.58.79-2.49 1.25a18.55 18.55 0 00-2.38 1.69 19.92 19.92 0 00-2.26 2c-.68.8-1.47 1.48-2 2.27s-1.13 1.58-1.7 2.38-.9 1.7-1.24 2.49a20.37 20.37 0 00-.91 2.38 22.78 22.78 0 00-.91 3.73c-.15.96-.26 1.53-.26 1.53z"/><path d="M35.11 104.87a15.4 15.4 0 1115.4 15.4 15.42 15.42 0 01-15.4-15.4z" fill="url(#linear-gradient-6)"/><path class="cls-3" d="M38.51 104.87a3.4 3.4 0 00-.12-.79v-.91a4.75 4.75 0 01.12-1.24c.11-.46.22-.91.34-1.47a9.15 9.15 0 01.56-1.59c.34-.45.57-1 .91-1.47s.79-.91 1.13-1.36a12.32 12.32 0 011.36-1.13 10.66 10.66 0 011.47-.91 9.2 9.2 0 011.59-.57 3.58 3.58 0 011.47-.34 5.24 5.24 0 011.25-.09h.9a2 2 0 01.79.11 2.62 2.62 0 01-.79.12 9.35 9.35 0 00-2 .56c-.45.12-.9.34-1.24.46s-.91.45-1.36.68-.91.56-1.36.9a6.12 6.12 0 00-1.25 1.13c-.34.46-.79.8-1.13 1.25a8.87 8.87 0 00-.9 1.36l-.57 1.13a7.74 7.74 0 00-.45 1.25c-.23.79-.46 1.47-.57 2a5.18 5.18 0 00-.15.92z"/><path d="M301.25 77.69a15.41 15.41 0 1115.41 15.4 15.42 15.42 0 01-15.41-15.4z" fill="url(#linear-gradient-7)"/><path class="cls-3" d="M304.65 77.69a3.69 3.69 0 00-.11-.79V76a5.17 5.17 0 01.11-1.24c.11-.46.23-.91.34-1.48a8.61 8.61 0 01.57-1.58c.34-.45.56-1 .9-1.47s.8-.91 1.14-1.36a11.23 11.23 0 011.4-1.14 10.75 10.75 0 011.48-.91 9.11 9.11 0 011.58-.57 3.61 3.61 0 011.47-.34 5.29 5.29 0 011.25-.11h.91a2 2 0 01.79.11 2.62 2.62 0 01-.79.12 9.07 9.07 0 00-2 .56c-.45.12-.91.34-1.25.46l-1.36.68c-.45.34-.9.56-1.36.9a6.07 6.07 0 00-1.24 1.13c-.34.46-.79.8-1.13 1.25a9.77 9.77 0 00-.91 1.36l-.57 1.13a8.84 8.84 0 00-.45 1.25c-.23.79-.45 1.47-.57 2a5.18 5.18 0 00-.2.94z"/><path d="M74.75 124.69A10.31 10.31 0 1185.05 135a10.34 10.34 0 01-10.3-10.31z" fill="url(#linear-gradient-8)"/><path class="cls-3" d="M77 124.69v-1.24a1.86 1.86 0 01.12-.8 2.13 2.13 0 01.22-.9 4.13 4.13 0 01.45-1c.23-.34.34-.68.57-1a7.49 7.49 0 01.79-.91c.34-.22.57-.56.91-.79l1-.68c.34-.11.68-.34 1-.45a3.29 3.29 0 01.9-.23 2.3 2.3 0 01.8-.11H85a2 2 0 00-.56.11 3.81 3.81 0 00-1.36.34 8.13 8.13 0 01-.91.34c-.34.11-.56.34-.9.45a4.89 4.89 0 00-.91.68 5.93 5.93 0 00-.91.8 6.66 6.66 0 00-.79.9c-.23.34-.45.57-.68.91s-.34.56-.45.9-.23.57-.34.91a3.86 3.86 0 00-.34 1.36 1.16 1.16 0 01.15.41z"/><path d="M269.54 30.69A10.31 10.31 0 11279.85 41a10.35 10.35 0 01-10.31-10.31z" fill="url(#linear-gradient-9)"/><path class="cls-3" d="M271.81 30.69v-1.24a2 2 0 01.11-.8 2 2 0 01.23-.9 3.79 3.79 0 01.45-1c.23-.34.34-.68.57-1a6.08 6.08 0 01.79-.91c.34-.22.57-.56.91-.79l1-.68c.35-.11.68-.34 1-.45a3.26 3.26 0 01.91-.23 2.28 2.28 0 01.79-.11h1.25a2 2 0 00-.57.11 3.86 3.86 0 00-1.36.34 7.23 7.23 0 01-.9.34c-.34.11-.57.34-.91.45a4.84 4.84 0 00-.9.68 5.93 5.93 0 00-.91.8 5.52 5.52 0 00-.79.9c-.23.34-.46.57-.68.91s-.34.56-.46.9-.22.57-.34.91a4.1 4.1 0 00-.34 1.36 1.08 1.08 0 01.15.41z"/><g clip-path="url(#clip-path)"><path d="M113.19 301.25H12.52c-7.23 0-12.52-4.14-12.52-9.93a17.27 17.27 0 012.64-9.4L43.72 211v-45.83c-3.74-3.83-5.06-6.34-4.36-8.14.24-.62 1-1.72 3.19-1.72H43a11.88 11.88 0 011.87-.15 14.42 14.42 0 012.64.23h30.67a14.46 14.46 0 012.65-.23 11.64 11.64 0 011.86.15h.47c2.18 0 3 1.1 3.19 1.72.78 1.8-.62 4.31-4.36 8.14v45.94L123.07 282a16.88 16.88 0 012.64 9.39c0 5.72-5.29 9.86-12.52 9.86zM41.7 158.05s-.16 1.33 4.2 5.71l.39.4v47.73L4.75 283.41a14.87 14.87 0 00-2.18 7.91c0 5.08 5.13 7.35 10 7.35h100.62c4.82 0 10-2.27 10-7.35a14.59 14.59 0 00-2.17-7.91l-.08-.08-41.51-71.52v-47.73l.38-.39c4.44-4.46 4.2-5.72 4.13-5.72a3.53 3.53 0 00-.86-.07h-.62l-.23-.08a5 5 0 00-1.48-.16 19.79 19.79 0 00-2.34.16H47.14a19.74 19.74 0 00-2.33-.16 5 5 0 00-1.48.16l-.23.08h-.63c-.47 0-.77.1-.77.15z" fill="#5b6268"/><path d="M36.41 238.65L11.05 281s-2.73 5.16-1.48 8.92 2.18 6.18 13.77 6.18h83.47s7.62.23 9.1-5.87-.86-9-5.45-16.28S90.7 241.7 90.7 241.7s-6.37 3.6-12.36 3.52-15.48 1.49-20.93-.39-18.83-8.68-21-6.18z" fill="#5cdbdd"/><path class="cls-3" d="M76.13 231.86a8.8 8.8 0 10-11.94 3.47 8.76 8.76 0 0011.94-3.47z"/><path class="cls-15" d="M68.46 236.7a9.16 9.16 0 119.1-9.16 9.15 9.15 0 01-9.1 9.16zm0-17.61a8.45 8.45 0 108.4 8.45 8.44 8.44 0 00-8.4-8.45z"/><path class="cls-3" d="M74.37 227.54a5.93 5.93 0 00-5.91-5.95z"/><path class="cls-15" d="M74.37 227.93a.33.33 0 01-.31-.31 5.6 5.6 0 00-5.6-5.64.31.31 0 010-.62 6.26 6.26 0 016.22 6.26.29.29 0 01-.31.31z"/><path class="cls-3" d="M62.39 240.61a6.3 6.3 0 10-6.3 6.34 6.3 6.3 0 006.3-6.34z"/><path class="cls-15" d="M56.09 247.26a6.65 6.65 0 116.61-6.65 6.62 6.62 0 01-6.61 6.65zm0-12.68a6 6 0 106 6 6 6 0 00-6-6z"/><path class="cls-3" d="M60.37 240.61a4.34 4.34 0 00-4.28-4.31z"/><path class="cls-15" d="M60.37 240.92a.34.34 0 01-.32-.31 4 4 0 00-4-4 .32.32 0 010-.63 4.62 4.62 0 014.59 4.62.34.34 0 01-.27.32z"/><path class="cls-3" d="M72 251.33a6 6 0 10-6 6 6 6 0 006-6z"/><path class="cls-15" d="M66 257.67a6.34 6.34 0 116.31-6.34 6.35 6.35 0 01-6.31 6.34zm0-12a5.64 5.64 0 105.61 5.64 5.6 5.6 0 00-5.61-5.62z"/><path class="cls-3" d="M70.09 251.33a4 4 0 00-4-4.07z"/><path class="cls-15" d="M70.09 251.64a.33.33 0 01-.31-.31 3.74 3.74 0 00-3.78-3.76.31.31 0 010-.62 4.36 4.36 0 014.36 4.38.33.33 0 01-.27.31z"/><path class="cls-3" d="M57.72 259a3.74 3.74 0 00-3.72-3.76 3.7 3.7 0 00-3.75 3.76 3.74 3.74 0 107.47 0z"/><path class="cls-15" d="M54 263.07a4.07 4.07 0 114-4.07 4 4 0 01-4 4.07zm0-7.52a3.45 3.45 0 103.41 3.45 3.42 3.42 0 00-3.41-3.45z"/><path class="cls-3" d="M56.55 259a2.51 2.51 0 00-2.49-2.51z"/><path class="cls-15" d="M56.55 259.31a.34.34 0 01-.31-.31 2.18 2.18 0 00-2.17-2.19.32.32 0 110-.63 2.82 2.82 0 012.8 2.9.36.36 0 01-.32.23z"/></g><path class="cls-16" d="M165.85 185.05a20.69 20.69 0 11-20.69-20.62 20.68 20.68 0 0120.69 20.62zM234.05 187.51l-2.82-1.76c-23.87-10.9-45.15 0-45.15 0l-2.94 2.58v4.92l2.94-.94s21.28-10.9 45.15 0l3.65 1.88zM251.45 152.36a40.61 40.61 0 0147.39 5 5.7 5.7 0 01.82.23s50.45-77.09-14.34-46.28c0 0-72.31-99.7-146.39-47.56 0 0 11.29 6.09 15.28 11.6 0 0-54.55 3-63.61 29.87 0 0 16-1.64 15.76 2.35 0 0-20.93 3 4.94 56.82a40.64 40.64 0 0164.43-4.1c10-1.76 22.22-5.39 30.1-12.66.17-.07 59.62-12.84 45.62 4.73z"/><path class="cls-16" d="M145.16 144.63a40.3 40.3 0 1040.45 40.3 40.37 40.37 0 00-40.45-40.3zm-.59 72.28a31.75 31.75 0 1131.87-31.75 31.83 31.83 0 01-31.87 31.75zM271.56 145.33a40.31 40.31 0 1040.44 40.3 40.37 40.37 0 00-40.44-40.3zm-.56 72.29a31.75 31.75 0 1131.87-31.75A31.76 31.76 0 01271 217.62z"/><path class="cls-16" d="M292.26 185.75a20.7 20.7 0 11-20.7-20.62 20.69 20.69 0 0120.7 20.62zM247.22 217.62l38.1 3s28.45 43.12-81.13 55.54l-28-4.46c.01.16 88.43-20.81 71.03-54.08z"/></svg>