<svg width="210" height="209" fill="none" xmlns="http://www.w3.org/2000/svg"><path d="M.934 104.934V209h208.132V.868H.934v104.066z" fill="#007ACC"/><path d="M168.662 96.642c5.286 1.321 9.316 3.667 13.016 7.499 1.916 2.049 4.758 5.782 4.989 6.674.066.264-8.986 6.343-14.47 9.746-.199.132-.991-.727-1.883-2.049-2.676-3.898-5.485-5.583-9.779-5.88-6.31-.43-10.374 2.874-10.341 8.391 0 1.619.231 2.577.892 3.898 1.388 2.875 3.965 4.593 12.059 8.094 14.899 6.41 21.275 10.638 25.24 16.651 4.427 6.706 5.418 17.41 2.411 25.372-3.303 8.656-11.496 14.536-23.026 16.486-3.568.627-12.026.528-15.858-.166-8.358-1.486-16.287-5.616-21.176-11.034-1.917-2.114-5.65-7.631-5.418-8.028.099-.132.958-.661 1.916-1.222.925-.529 4.427-2.544 7.73-4.46l5.98-3.469 1.255 1.85c1.751 2.676 5.584 6.343 7.896 7.565 6.64 3.502 15.759 3.007 20.252-1.024 1.916-1.751 2.709-3.568 2.709-6.244 0-2.411-.298-3.469-1.553-5.286-1.619-2.312-4.923-4.261-14.305-8.325-10.737-4.625-15.362-7.499-19.591-12.058-2.445-2.643-4.757-6.872-5.715-10.407-.793-2.94-.991-10.307-.364-13.281 2.214-10.373 10.044-17.608 21.342-19.756 3.667-.693 12.191-.429 15.792.463zM119.8 105.331l.066 8.523h-27.09v76.976H73.615v-76.976h-27.09v-8.358c0-4.625.099-8.49.231-8.59.1-.132 16.585-.198 36.572-.165l36.373.1.099 8.49z" fill="#fff"/></svg>