<svg width="294" height="215" viewBox="0 0 294 215" fill="none" xmlns="http://www.w3.org/2000/svg">
<path d="M0 0H294V215H0V0Z" fill="white"/>
<rect x="0.5" y="0.5" width="293" height="213.93" rx="3.5" fill="#FBFBFB" stroke="#E2E2E2"/>
<path d="M135.104 68.0018H231.409V78.7875H135.104V68.0018Z" fill="#0191FB"/>
<path d="M135.104 90.3451H231.409V101.131H135.104V90.3451Z" fill="#0191FB"/>
<path d="M135.104 112.69H231.409V123.476H135.104V112.69Z" fill="#0191FB"/>
<path d="M135.104 135.035H231.409V145.821H135.104V135.035Z" fill="#0191FB"/>
<path fill-rule="evenodd" clip-rule="evenodd" d="M116.779 67.9999V92.9713V107.173V124.925C112.946 134.157 103.605 139.837 94.263 139.837C80.0709 139.837 70.4298 127.825 70.4298 115.813C70.4298 102.794 81.0889 92.2613 94.263 92.2613C100.431 92.2613 105.701 94.3915 109.713 97.6461L111.15 88.7108C106.299 85.8705 100.551 84.2136 94.263 84.2136C81.0889 84.2136 64.9206 92.0837 62.3457 111.256C62.0463 113.623 61.7468 114.037 62.3457 120.783C62.4056 121.789 62.8846 123.801 63.3637 125.28C68.4537 141.317 83.1249 147.826 94.263 147.826C102.766 147.826 110.85 144.453 116.779 138.831V146.11H126.899V67.9999H116.779Z" fill="#0191FB"/>
</svg>
