<svg width="294" height="215" viewBox="0 0 294 215" fill="none" xmlns="http://www.w3.org/2000/svg">
<path d="M0 0H294V215H0V0Z" fill="white"/>
<rect x="0.5" y="0.5" width="293" height="213.93" rx="3.5" fill="#FBFBFB" stroke="#E2E2E2"/>
<g clip-path="url(#clip0)">
<path fill-rule="evenodd" clip-rule="evenodd" d="M91.3648 56V82.296V97.251V115.945C87.3526 125.666 77.5727 131.648 67.7928 131.648C52.9349 131.648 42.8416 118.998 42.8416 106.349C42.8416 92.6399 54.0007 81.5482 67.7928 81.5482C74.25 81.5482 79.7669 83.7915 83.9672 87.2187L85.4718 77.8095C80.3938 74.8185 74.3754 73.0737 67.7928 73.0737C54.0007 73.0737 37.0739 81.3613 34.3782 101.551C34.0647 104.043 33.7513 104.479 34.3782 111.583C34.4409 112.642 34.9424 114.761 35.444 116.319C40.7727 133.206 56.1322 140.06 67.7928 140.06C76.695 140.06 85.1584 136.508 91.3648 130.588V138.253H101.96V56H91.3648Z" fill="#1F3D56"/>
<path fill-rule="evenodd" clip-rule="evenodd" d="M138.883 73.8214C125.091 73.8214 107.349 81.9844 105.468 102.298C105.218 104.791 105.03 107.47 105.468 112.331C105.594 113.39 106.033 115.509 106.534 117.066C111.863 133.953 127.222 140.808 138.883 140.808C156.938 140.808 172.799 126.538 172.799 107.096C172.799 89.1503 158.505 73.8214 138.883 73.8214ZM138.883 132.395C124.025 132.395 113.932 119.746 113.932 107.096C113.932 93.3876 125.091 82.2959 138.883 82.2959C154.242 82.2959 164.336 94.9454 164.336 107.096C164.336 122.363 151.609 132.395 138.883 132.395Z" fill="#1F3D56"/>
<path fill-rule="evenodd" clip-rule="evenodd" d="M153.177 61.172H125.592C125.091 61.7328 124.527 61.7328 124.527 62.7921C124.527 64.3499 125.091 64.3499 125.091 64.9108H152.675C153.177 64.3499 153.741 64.3499 153.741 62.7921C153.741 61.7328 153.177 61.7328 153.177 61.172Z" fill="#1F3D56"/>
<path fill-rule="evenodd" clip-rule="evenodd" d="M178.128 71.3913H186.654V58.7418H178.128" fill="#1F3D56"/>
<path fill-rule="evenodd" clip-rule="evenodd" d="M186.654 75.5662H178.191L178.253 135.511C178.065 139.25 175.808 147.226 168.661 152.335L174.178 160C174.178 160 187.218 146.104 186.654 136.072" fill="#1F3D56"/>
<path fill-rule="evenodd" clip-rule="evenodd" d="M225.084 73.8214C211.292 73.8214 193.55 81.9844 191.669 102.298C191.419 104.791 191.23 107.47 191.669 112.331C191.795 113.39 192.234 115.509 192.735 117.066C198.064 133.953 213.423 140.808 225.084 140.808C243.139 140.808 259 126.538 259 107.096C259 89.1503 244.706 73.8214 225.084 73.8214ZM225.084 132.395C210.226 132.395 200.133 119.746 200.133 107.096C200.133 93.3876 211.292 82.2959 225.084 82.2959C240.443 82.2959 250.537 94.9454 250.537 107.096C250.537 122.363 237.81 132.395 225.084 132.395Z" fill="#1F3D56"/>
<path fill-rule="evenodd" clip-rule="evenodd" d="M239.378 61.172H211.793C211.292 61.7328 210.727 61.7328 210.727 62.7921C210.727 64.3499 211.292 64.3499 211.292 64.9108H238.876C239.378 64.3499 239.942 64.3499 239.942 62.7921C239.942 61.7328 239.378 61.7328 239.378 61.172Z" fill="#1F3D56"/>
</g>
<defs>
<clipPath id="clip0">
<rect x="34" y="56" width="225" height="104" fill="white"/>
</clipPath>
</defs>
</svg>
