<svg width="294" height="215" viewBox="0 0 294 215" fill="none" xmlns="http://www.w3.org/2000/svg">
<path d="M0 0H294V215H0V0Z" fill="white"/>
<rect x="0.5" y="0.5" width="293" height="213.93" rx="3.5" fill="#FBFBFB" stroke="#E2E2E2"/>
<path d="M81.5672 121.99L81.9782 122.639C84.1001 125.65 86.5746 128.396 89.3488 130.819C95.8016 136.104 103.889 138.985 112.23 138.971H113.807C119.599 138.5 125.277 137.09 130.616 134.796C128.221 135.18 125.803 135.401 123.378 135.458C119.256 135.455 115.181 134.585 111.417 132.904C107.653 131.223 104.285 128.769 101.532 125.702C94.7001 125.758 87.9219 124.498 81.5672 121.99Z" fill="url(#paint0_linear)"/>
<path d="M112.216 66.644C118.445 66.6385 124.569 68.2432 129.995 71.3022C135.421 74.3611 139.964 78.7706 143.183 84.1028C139.45 80.717 134.911 78.3455 130 77.2152C125.089 76.0849 119.97 76.2335 115.133 77.6469C121.761 80.8417 130.788 83.2809 143.223 84.1293C143.223 84.1293 142.613 72.2912 127.461 66.1005C106.251 57.4705 103.321 59.1805 97.9521 50.1926C97.1593 56.4729 98.8846 62.8117 102.751 67.8238C105.84 67.0146 109.023 66.6179 112.216 66.644Z" fill="#F15A24"/>
<path d="M127.461 66.1004C120.21 63.2105 115.106 61.4076 111.288 60.0289C112.275 62.4574 113.615 64.7267 115.265 66.7632C120.967 67.2339 126.476 69.0511 131.338 72.0655C136.201 75.0799 140.279 79.2054 143.237 84.1028C138.699 79.9769 132.983 77.3762 126.891 76.6659C131.929 79.6718 137.259 82.159 142.799 84.0895H143.263C143.263 84.0895 142.627 72.2912 127.461 66.1004Z" fill="#ED1C24"/>
<path d="M143.197 84.1292H143.276C143.515 82.8036 144.933 72.6093 133.4 63.6612C116.193 50.3118 112.839 49.0657 112.017 42C110.637 44.7855 109.858 47.8305 109.733 50.9368C109.607 54.0431 110.137 57.141 111.288 60.0289C115.093 61.3545 120.21 63.1442 127.448 66.1004C142.627 72.2912 143.223 84.1292 143.223 84.1292H143.197Z" fill="#C1272D"/>
<path d="M195.414 72.49C201.872 72.4821 208.114 74.8078 212.993 79.0387C218.632 79.2831 224 81.5297 228.132 85.3753C228.132 85.3753 213.669 64.3638 188.176 73.0998C185.892 73.9232 183.705 74.9945 181.654 76.2946C185.812 73.8046 190.568 72.4896 195.414 72.49Z" fill="url(#paint1_linear)"/>
<path d="M195.414 72.49C190.569 72.485 185.813 73.7953 181.654 76.2814L182.396 75.8307C161.796 87.9604 136.542 125.238 101.532 125.702C104.291 128.757 107.662 131.199 111.425 132.868C115.189 134.537 119.261 135.397 123.378 135.392C125.803 135.335 128.221 135.114 130.616 134.729C153.391 125.344 175.264 102.914 185.193 92.0301C194.393 81.9419 204.482 78.5085 213.032 79.0255C208.142 74.7904 201.884 72.4688 195.414 72.49Z" fill="url(#paint2_linear)"/>
<path d="M142.229 144.738C141.768 146.242 141.523 147.805 141.5 149.378C141.496 151.199 141.773 153.01 142.322 154.747C142.028 152.582 142.273 150.378 143.037 148.332C143.8 146.285 145.057 144.458 146.696 143.015L146.802 142.617C147.964 138.797 150.494 135.54 153.908 133.47C152.83 133.817 151.772 134.224 150.74 134.69C148.711 135.696 146.91 137.106 145.446 138.834C143.982 140.562 142.888 142.571 142.229 144.738Z" fill="url(#paint3_linear)"/>
<path d="M234.415 105.035C234.423 97.9639 232.211 91.0689 228.092 85.3223C223.961 81.5057 218.611 79.279 212.992 79.0387C215.912 81.5635 218.252 84.6884 219.853 88.2001C221.455 91.7119 222.28 95.5278 222.272 99.3875C222.272 108.415 218.998 118.742 208.379 124.296C192.922 132.383 169.206 128.539 153.802 133.576C150.396 135.645 147.871 138.897 146.71 142.71L146.604 143.107C151.111 139.13 160.006 136.307 177.359 138.547C189.754 140.138 199.59 140.575 208.048 138.15C216.224 136.365 223.409 131.523 228.131 124.615C232.211 118.9 234.407 112.056 234.415 105.035Z" fill="url(#paint4_linear)"/>
<path opacity="0.49" d="M234.415 105.035C234.423 97.9639 232.211 91.0689 228.092 85.3223C223.961 81.5057 218.611 79.279 212.992 79.0387C215.912 81.5635 218.252 84.6884 219.853 88.2001C221.455 91.7119 222.28 95.5278 222.272 99.3875C222.272 108.415 218.998 118.742 208.379 124.296C192.922 132.383 169.206 128.539 153.802 133.576C150.396 135.645 147.871 138.897 146.71 142.71L146.604 143.107C151.111 139.13 160.006 136.307 177.359 138.547C189.754 140.138 199.59 140.575 208.048 138.15C216.224 136.365 223.409 131.523 228.131 124.615C232.211 118.9 234.407 112.056 234.415 105.035Z" fill="url(#paint5_linear)"/>
<path d="M157.62 162.966C153.551 161.719 150.132 158.929 148.095 155.192C146.058 151.456 145.566 147.07 146.723 142.975C145.084 144.419 143.826 146.245 143.063 148.292C142.3 150.339 142.054 152.543 142.348 154.707C143.188 157.334 144.666 159.712 146.651 161.627C148.635 163.542 151.064 164.935 153.72 165.68C156.375 166.425 159.174 166.499 161.866 165.896C164.557 165.292 167.056 164.031 169.14 162.224C165.521 163.876 161.421 164.14 157.62 162.966Z" fill="url(#paint6_linear)"/>
<g style="mix-blend-mode:screen">
<path d="M163.267 161.786C164.951 156.868 170.412 149.285 176.259 152.758C176.259 152.758 181.018 155.41 182.012 147.893C182.012 147.893 185.578 165.63 168.397 165.034C168.397 165.034 172.268 162.21 172.229 159.307C169.482 160.837 166.409 161.687 163.267 161.786Z" fill="#2DB5F9"/>
</g>
<g style="mix-blend-mode:screen">
<path d="M170.134 150.929C171.074 150.294 172.168 149.927 173.301 149.866C174.433 149.805 175.561 150.053 176.563 150.584C178.989 151.658 182.038 147.456 179.4 143.691C179.4 143.691 179.573 147.575 176.444 147.535C175.184 147.481 173.933 147.768 172.823 148.365C171.712 148.962 170.783 149.848 170.134 150.929Z" fill="#5FD2FF"/>
</g>
<path d="M187.394 94.4958C183.284 100.103 177.239 104.796 176.537 105.949C175.834 107.103 177.73 110.815 180.514 111.08C183.298 111.345 181.163 110.006 180.925 108.694C180.686 107.381 181.76 109.529 185.127 109.025C188.494 108.521 183.907 107.275 184.226 105.578C184.544 103.881 188.004 100.66 189.382 97.4255C190.761 94.1909 193.121 97.4255 191.914 99.9575C191.437 100.965 195.746 97.1338 193.572 94.2174C191.397 91.3009 189.793 91.2214 187.394 94.4958Z" fill="#219058"/>
<path d="M175.662 106.758C175.052 107.341 173.276 108.641 173.276 108.641C173.276 108.641 175.026 111.067 177.253 111.027C177.253 111.027 177.73 110.801 177.041 110.086C176.273 109.131 175.794 107.976 175.662 106.758Z" fill="#219058"/>
<path d="M115.133 77.6469C110.287 75.4397 106.045 72.0976 102.764 67.9033C97.3131 69.3789 92.2832 72.1106 88.0775 75.8796C83.8719 79.6487 80.6074 84.3504 78.5456 89.608C76.4838 94.8656 75.682 100.533 76.2044 106.156C76.7268 111.779 78.5589 117.202 81.5539 121.99C87.9128 124.499 94.6957 125.76 101.531 125.702C98.1831 121.999 95.8302 117.506 94.6936 112.645C93.557 107.784 93.674 102.714 95.0336 97.9104C96.3931 93.1068 98.9507 88.7274 102.466 85.1831C105.982 81.6387 110.34 79.0455 115.133 77.6469Z" fill="url(#paint7_linear)"/>
<path d="M115.199 66.7632C116.803 69.0831 121.416 73.0865 126.851 76.6658C132.938 77.3788 138.649 79.9794 143.183 84.1027C140.224 79.2036 136.144 75.077 131.279 72.0626C126.414 69.0481 120.903 67.2318 115.199 66.7632Z" fill="#F7B852"/>
<path d="M115.199 66.7631C114.218 66.6836 113.224 66.6438 112.229 66.6438C109.03 66.6653 105.847 67.1111 102.764 67.9695C106.044 72.1637 110.287 75.5059 115.133 77.713C118.933 76.6 122.92 76.2707 126.851 76.7453C121.416 73.0865 116.803 69.083 115.199 66.7631Z" fill="#FF8431"/>
<path d="M135.269 74.9956C132.486 72.3832 129.172 70.4026 125.552 69.1892C127.886 73.6301 129.901 74.9956 135.269 74.9956Z" fill="#FFFB69"/>
<path d="M125.035 56.1048C126.847 57.2089 128.587 58.4265 130.245 59.7504C130.656 60.0685 129.503 56.9267 128.164 56.3302C127.16 55.9774 126.08 55.8995 125.035 56.1048Z" fill="#C1272D"/>
<path d="M131.465 60.6519C133.257 61.7864 134.983 63.0213 136.635 64.3505C137.059 64.6554 135.919 61.5136 134.58 60.9038C133.583 60.5444 132.507 60.4575 131.465 60.6519Z" fill="#C1272D"/>
<path d="M137.51 65.1063C138.606 66.1321 139.548 67.3109 140.307 68.606C140.519 68.9109 140.307 66.5513 139.578 65.8752C138.969 65.4393 138.255 65.1739 137.51 65.1063Z" fill="#C1272D"/>
<path d="M109.645 122.427C109.486 121.91 111.514 121.247 112.057 121.221C113.047 121.383 114.004 121.7 114.894 122.162C113.645 122.634 112.33 122.912 110.997 122.984C110.512 122.894 110.052 122.705 109.645 122.427Z" fill="#44C688"/>
<path d="M116.949 120.691C116.777 120.293 118.341 119.59 118.778 119.524C119.583 119.571 120.375 119.746 121.125 120.041C120.165 120.522 119.136 120.853 118.076 121.022C117.681 120.991 117.297 120.878 116.949 120.691Z" fill="#44C688"/>
<path d="M123.073 118.45C122.901 118.132 124.12 117.43 124.465 117.324C125.131 117.29 125.797 117.361 126.44 117.536C125.709 118.016 124.909 118.382 124.067 118.623C123.727 118.638 123.388 118.579 123.073 118.45Z" fill="#44C688"/>
<path d="M127.939 116.236C127.753 115.958 128.827 115.229 129.132 115.11C129.733 115.014 130.346 115.014 130.948 115.11C130.3 115.601 129.58 115.99 128.814 116.263C128.523 116.314 128.225 116.305 127.939 116.236Z" fill="#44C688"/>
<path d="M132.472 113.758C132.3 113.532 133.188 112.843 133.453 112.724C133.976 112.64 134.508 112.64 135.031 112.724C134.495 113.184 133.891 113.56 133.241 113.837C132.982 113.864 132.72 113.837 132.472 113.758Z" fill="#44C688"/>
<path d="M102.313 123.011C102.234 122.427 104.488 122.083 105.071 122.149C106.089 122.491 107.046 122.992 107.908 123.634C106.508 123.922 105.073 123.993 103.652 123.846C103.153 123.664 102.696 123.38 102.313 123.011Z" fill="#44C688"/>
<path d="M103.706 54.6467C105.241 56.007 107.048 57.0239 109.008 57.6295C108.356 55.6897 108.103 53.6378 108.266 51.5977C108.266 51.4519 103.692 51.5182 102.963 47.7666C102.764 47.011 102.115 52.8439 103.706 54.6467Z" fill="#C1272D"/>
<path d="M88.1425 141.318C88.2068 140.706 88.3995 140.115 88.7079 139.583C89.0162 139.051 89.4334 138.589 89.9321 138.229L90.0779 138.15C89.7016 138.064 89.3211 137.997 88.9378 137.951C83.4894 137.142 82.0975 140.39 81.8191 144.036C81.8191 144.248 81.8191 144.46 81.8191 144.659C82.4404 143.562 83.3616 142.665 84.4745 142.074C85.5875 141.482 86.8461 141.22 88.1027 141.318H88.1425Z" fill="#F15A24"/>
<path d="M94.784 140.098C89.362 136.81 86.313 136.572 85.1067 145.785C85.1067 145.785 90.807 141.278 93.5113 144.261C96.441 147.508 100.418 144.512 98.3367 142.63C97.2827 141.617 96.0857 140.764 94.784 140.098Z" fill="#F15A24"/>
<path d="M92.5437 141.198C89.4681 143.24 89.4681 148.052 89.4681 148.052C89.4681 148.052 95.0756 145.016 94.6382 143.121C94.5496 142.614 94.2962 142.151 93.9175 141.804C93.5387 141.456 93.0558 141.243 92.5437 141.198Z" fill="#F15A24"/>
<path d="M67.0645 103.325C67.5811 102.992 68.1621 102.771 68.7697 102.677C69.3773 102.584 69.9978 102.619 70.5908 102.781H70.7499C70.5817 102.436 70.3959 102.1 70.1931 101.774C67.3562 97.0677 63.9625 98.0222 60.94 100.077C60.7544 100.196 60.5954 100.329 60.4363 100.461C61.6801 100.26 62.9555 100.418 64.113 100.915C65.2705 101.413 66.2622 102.231 66.9717 103.272L67.0645 103.325Z" fill="#F15A24"/>
<path d="M72.8178 108.985C70.8426 101.164 69.2518 98.1413 61.6956 103.55C61.6956 103.55 68.1647 101.694 68.9071 110.894C69.2518 115.242 73.4408 116.117 73.3878 113.307C73.4101 111.846 73.218 110.39 72.8178 108.985Z" fill="#F15A24"/>
<path d="M70.0604 104.796C66.4679 103.948 62.9417 107.235 62.9417 107.235C62.9417 107.235 68.4696 107.05 69.1324 110.39C69.5169 112.26 70.0604 104.796 70.0604 104.796Z" fill="#F15A24"/>
<path d="M185.193 92.0433C188.668 88.0075 192.845 84.6345 197.522 82.0877C202.084 79.7494 207.124 78.4929 212.25 78.4156L213.721 79.7413H212.953C207.723 79.4005 202.494 80.4333 197.787 82.7373C193.064 85.0566 188.797 88.2091 185.193 92.0433Z" fill="#29B36E"/>
<path d="M212.807 78.4687C215.677 78.7389 218.486 79.4592 221.132 80.603C223.759 81.7201 226.141 83.3414 228.145 85.3754C226.012 83.4979 223.53 82.0607 220.84 81.1465C218.508 80.4094 216.104 79.9206 213.668 79.6883L212.197 78.3627L212.807 78.4687Z" fill="#6FD191"/>
<path d="M147.041 141.941C147.833 141.383 148.661 140.878 149.52 140.43C150.12 140.125 150.735 139.851 151.363 139.608C151.986 139.343 152.688 139.144 153.258 138.932C155.807 138.151 158.435 137.653 161.093 137.447C166.368 137.106 171.663 137.315 176.895 138.07C182.085 138.834 187.31 139.334 192.551 139.568C197.799 139.835 203.058 139.317 208.154 138.03C203.073 139.413 197.814 140.03 192.551 139.86C187.293 139.724 182.045 139.322 176.828 138.653C171.638 138.019 166.396 137.925 161.186 138.375C158.605 138.608 156.058 139.123 153.59 139.913C152.98 140.125 152.37 140.324 151.787 140.589C151.195 140.833 150.615 141.108 150.05 141.411C148.931 142.008 147.881 142.728 146.922 143.558L146.497 143.929C146.632 143.255 146.813 142.59 147.041 141.941Z" fill="#C83AD7"/>
<path d="M116.114 79.98C111.05 81.0935 111.832 85.1102 111.832 85.1102C111.832 85.1102 113.436 83.1748 122.251 82.1275C120.153 81.5726 118.101 80.8546 116.114 79.98Z" fill="#C1272D"/>
<path d="M142.322 154.773C142.154 153.658 142.132 152.527 142.255 151.406C142.368 150.264 142.613 149.138 142.985 148.052C143.358 146.96 143.856 145.915 144.469 144.937C145.108 143.975 145.85 143.086 146.683 142.286L147.041 141.954C147.041 141.954 146.537 143.558 146.484 143.956C146.009 144.439 145.566 144.952 145.159 145.494C143.824 147.249 142.916 149.292 142.507 151.459C142.303 152.551 142.241 153.665 142.322 154.773Z" fill="#FBA9FF"/>
<path d="M100.365 125.702C97.237 121.982 95.0662 117.554 94.0417 112.803C93.4985 110.323 93.2802 107.783 93.3921 105.247L93.4982 103.351L93.7633 101.469C93.8549 100.844 93.9788 100.225 94.1345 99.6128C94.2565 98.9939 94.4159 98.383 94.6117 97.7834C95.3177 95.3647 96.3431 93.0509 97.6607 90.9032C98.3095 89.8275 99.0222 88.7916 99.795 87.8012L101.015 86.3695C101.412 85.8923 101.89 85.4681 102.34 85.0439C104.125 83.2917 106.125 81.7728 108.292 80.5234C110.46 79.2981 112.765 78.3325 115.159 77.6467C112.797 78.4034 110.532 79.4357 108.412 80.7222C106.31 82.0206 104.382 83.5795 102.672 85.362C102.261 85.8127 101.81 86.237 101.426 86.6877L100.206 88.1591C99.4773 89.1522 98.8088 90.1881 98.2042 91.2612C96.9826 93.3901 96.0508 95.6728 95.4336 98.0485C95.2601 98.6361 95.1228 99.2337 95.0227 99.8381C94.9025 100.438 94.814 101.045 94.7575 101.654L94.5587 103.47V105.3C94.5269 107.735 94.8121 110.163 95.4071 112.525C96.5911 117.238 98.9489 121.575 102.261 125.132L102.791 125.702C102.791 125.702 100.803 125.741 100.365 125.702Z" fill="#FF737D"/>
<path d="M130.616 134.796C128.005 135.379 125.338 135.681 122.662 135.697C119.963 135.621 117.286 135.175 114.708 134.372C112.128 133.605 109.639 132.561 107.285 131.256C104.898 129.95 102.717 128.297 100.815 126.351L100.259 125.768H102.618C104.19 127.448 105.972 128.919 107.921 130.143C110.182 131.512 112.587 132.627 115.093 133.47C117.555 134.368 120.129 134.925 122.742 135.127C125.371 135.29 128.01 135.179 130.616 134.796Z" fill="#FFF4C0"/>
<defs>
<linearGradient id="paint0_linear" x1="106.092" y1="138.176" x2="106.092" y2="124.456" gradientUnits="userSpaceOnUse">
<stop stop-color="#FFFA8F"/>
<stop offset="1" stop-color="#FB784B"/>
</linearGradient>
<linearGradient id="paint1_linear" x1="208.34" y1="77.9782" x2="213.404" y2="73.8156" gradientUnits="userSpaceOnUse">
<stop stop-color="#5BCB99"/>
<stop offset="1" stop-color="#85A8E8"/>
</linearGradient>
<linearGradient id="paint2_linear" x1="112.521" y1="128.273" x2="270.287" y2="46.4145" gradientUnits="userSpaceOnUse">
<stop stop-color="#34E28B"/>
<stop offset="1"/>
</linearGradient>
<linearGradient id="paint3_linear" x1="141.5" y1="144.128" x2="153.908" y2="144.128" gradientUnits="userSpaceOnUse">
<stop stop-color="#C297FF"/>
<stop offset="1" stop-color="#AE31BB"/>
</linearGradient>
<linearGradient id="paint4_linear" x1="90.9396" y1="203.902" x2="247.804" y2="81.5574" gradientUnits="userSpaceOnUse">
<stop/>
<stop offset="1" stop-color="#D23DE2"/>
</linearGradient>
<linearGradient id="paint5_linear" x1="206.974" y1="71.0715" x2="200.624" y2="92.5073" gradientUnits="userSpaceOnUse">
<stop/>
<stop offset="1" stop-opacity="0"/>
</linearGradient>
<linearGradient id="paint6_linear" x1="148.91" y1="154.018" x2="193.518" y2="164.822" gradientUnits="userSpaceOnUse">
<stop stop-color="#2DB5F9"/>
<stop offset="1"/>
</linearGradient>
<linearGradient id="paint7_linear" x1="114.046" y1="41.6952" x2="84.5764" y2="122.653" gradientUnits="userSpaceOnUse">
<stop/>
<stop offset="0.21" stop-color="#48080A"/>
<stop offset="0.42" stop-color="#891014"/>
<stop offset="0.61" stop-color="#BC151B"/>
<stop offset="0.78" stop-color="#E01A21"/>
<stop offset="0.91" stop-color="#F71C24"/>
<stop offset="1" stop-color="#FF1D25"/>
</linearGradient>
</defs>
</svg>
