<svg width="294" height="215" viewBox="0 0 294 215" fill="none" xmlns="http://www.w3.org/2000/svg">
<path d="M0 0H294V215H0V0Z" fill="white"/>
<rect x="0.5" y="0.5" width="293" height="213.93" rx="3.5" fill="#FBFBFB" stroke="#E2E2E2"/>
<path d="M81.1585 115.456L80.3201 114.935C73.2904 111.689 67.0216 114.935 67.0216 114.935L66.1445 115.71V117.176L67.0216 116.903C67.0216 116.903 73.2904 113.657 80.3201 116.903L81.3907 117.45L81.1585 115.456Z" fill="#2B8765"/>
<path d="M61.0947 114.726C61.0947 118.121 58.3666 120.884 55.0001 120.884C51.6336 120.884 48.9055 118.128 48.9055 114.726C48.9055 111.324 51.6336 108.568 55.0001 108.568C58.3666 108.568 61.0947 111.324 61.0947 114.726Z" fill="#2B8765"/>
<path d="M86.3121 104.957C88.0598 103.934 90.0914 103.348 92.2583 103.348C95.3411 103.348 98.153 104.534 100.275 106.476C100.365 106.502 100.449 106.521 100.526 106.547C100.526 106.547 115.373 83.505 96.3149 92.7128C96.3149 92.7128 75.0194 62.9519 53.2143 78.4938C53.2143 78.4938 56.5485 80.3119 57.7352 81.9671C57.7352 81.9671 41.6571 82.8924 39 90.9013C39 90.9013 43.6951 90.3995 43.6241 91.5855C43.6241 91.5855 37.4522 92.4978 45.0752 108.542C47.21 105.283 50.8667 103.133 55.0201 103.133C58.6252 103.133 61.8563 104.755 64.0426 107.31C67.0029 106.782 70.5758 105.713 72.904 103.537C72.8975 103.543 90.4396 99.7181 86.3121 104.957Z" fill="#2B8765"/>
<path d="M55.0001 102.683C48.4154 102.683 43.0818 108.079 43.0818 114.726C43.0818 121.373 48.4154 126.768 55.0001 126.768C61.5848 126.768 66.9249 121.373 66.9249 114.726C66.9249 108.079 61.5848 102.683 55.0001 102.683ZM54.8195 124.247C49.6278 124.247 45.4229 119.998 45.4229 114.752C45.4229 109.506 49.6278 105.257 54.8195 105.257C60.0112 105.257 64.2161 109.513 64.2161 114.752C64.2226 119.998 60.0112 124.247 54.8195 124.247Z" fill="#2B8765"/>
<path d="M92.2384 102.892C85.6536 102.892 80.3201 108.288 80.3201 114.934C80.3201 121.588 85.6601 126.977 92.2384 126.977C98.8231 126.977 104.157 121.581 104.157 114.934C104.163 108.281 98.8231 102.892 92.2384 102.892ZM92.0642 124.462C86.8726 124.462 82.6676 120.213 82.6676 114.967C82.6676 109.721 86.8726 105.472 92.0642 105.472C97.2559 105.472 101.461 109.721 101.461 114.967C101.461 120.206 97.2559 124.462 92.0642 124.462Z" fill="#2B8765"/>
<path d="M98.333 114.934C98.333 118.33 95.6049 121.093 92.2384 121.093C88.8719 121.093 86.1438 118.336 86.1438 114.934C86.1438 111.533 88.8719 108.776 92.2384 108.776C95.6049 108.783 98.333 111.539 98.333 114.934Z" fill="#2B8765"/>
<path d="M85.0409 124.475L96.2755 125.4C96.2755 125.4 104.647 138.296 72.3873 142.004L64.1387 140.668C64.1322 140.668 90.181 134.393 85.0409 124.475Z" fill="#2B8765"/>
<path d="M121.402 139.274V136.55H124.246C124.524 136.55 124.711 136.472 124.814 136.309C124.911 136.146 124.962 135.84 124.962 135.383V111.97C124.962 111.513 124.911 111.207 124.814 111.064C124.711 110.92 124.524 110.849 124.246 110.849H121.402V108.125H132.94V110.849H130.096C129.818 110.849 129.631 110.92 129.528 111.064C129.425 111.207 129.38 111.513 129.38 111.97V135.383C129.38 135.84 129.431 136.152 129.528 136.309C129.625 136.472 129.818 136.55 130.096 136.55H132.94V139.274H121.402Z" fill="#2B8765"/>
<path d="M134.688 139.274V136.55H137.293C137.532 136.55 137.706 136.478 137.816 136.341C137.919 136.204 137.977 135.911 137.977 135.468V120.513C137.977 120.024 137.925 119.691 137.829 119.516C137.732 119.34 137.551 119.255 137.293 119.255H134.688V116.531H137.184C139.086 116.531 140.808 116.388 142.356 116.094V121.412C143.098 119.626 144.142 118.271 145.497 117.346C146.851 116.42 148.451 115.958 150.295 115.958C155.074 115.958 157.46 118.662 157.46 124.071V135.481C157.46 135.924 157.512 136.211 157.615 136.354C157.718 136.491 157.899 136.563 158.157 136.563H160.749V139.287H150.005V136.563H152.391C152.617 136.563 152.778 136.491 152.888 136.354C152.991 136.217 153.042 135.924 153.042 135.481V124.188C153.042 122.409 152.694 121.112 151.998 120.284C151.301 119.457 150.192 119.046 148.663 119.046C146.729 119.046 145.2 119.848 144.084 121.457C142.969 123.067 142.408 125.354 142.408 128.326V135.468C142.408 135.911 142.459 136.204 142.569 136.341C142.672 136.478 142.853 136.55 143.111 136.55H145.561V139.274H134.688Z" fill="#2B8765"/>
<path d="M161.762 119.249V116.798C161.794 116.798 161.833 116.798 161.878 116.798C161.923 116.798 162.013 116.792 162.136 116.785C162.265 116.779 162.394 116.772 162.523 116.759C162.652 116.753 162.794 116.74 162.955 116.727C163.116 116.714 163.258 116.701 163.387 116.694C163.516 116.688 163.632 116.681 163.735 116.681C163.838 116.681 163.916 116.675 163.961 116.668C164.006 116.661 164.019 116.655 164.006 116.655C164.657 116.564 165.141 116.375 165.47 116.082C165.793 115.788 165.986 115.326 166.05 114.687L166.457 110.562H169.565V116.518H174.396V119.242H169.43V133.155C169.43 134.426 169.681 135.338 170.191 135.885C170.7 136.433 171.5 136.706 172.603 136.706C173.209 136.706 173.996 136.563 174.963 136.276V139.202C173.783 139.6 172.603 139.802 171.429 139.802C169.159 139.802 167.521 139.3 166.515 138.303C165.509 137.306 165.012 135.644 165.012 133.318V119.249H161.762Z" fill="#2B8765"/>
<path d="M176.679 127.785C176.679 124.312 177.73 121.471 179.833 119.262C181.935 117.052 184.67 115.951 188.03 115.951C191.358 115.951 193.963 116.987 195.846 119.053C197.729 121.125 198.671 123.953 198.671 127.544V128.665H181.097C181.142 131.193 181.825 133.24 183.141 134.79C184.457 136.341 186.308 137.117 188.681 137.117C192.312 137.117 194.685 135.318 195.788 131.715L198.484 132.855C197.891 134.96 196.749 136.648 195.047 137.925C193.344 139.202 191.106 139.841 188.339 139.841C184.689 139.841 181.832 138.726 179.768 136.498C177.711 134.276 176.679 131.369 176.679 127.785ZM181.103 125.941H194.253C194.163 121.099 192.086 118.682 188.03 118.682C185.972 118.682 184.341 119.307 183.148 120.565C181.948 121.816 181.271 123.608 181.103 125.941Z" fill="#2B8765"/>
<path d="M200.6 119.249V116.525H203.095C205.03 116.525 206.772 116.381 208.313 116.088V121.406C208.874 119.542 209.693 118.167 210.783 117.281C211.873 116.394 213.118 115.951 214.524 115.951C216.097 115.951 217.323 116.407 218.206 117.313C219.09 118.219 219.535 119.411 219.535 120.878C219.535 122.07 219.232 123.022 218.619 123.738C218.006 124.455 217.2 124.814 216.207 124.814C215.543 124.814 214.962 124.579 214.472 124.11C213.982 123.641 213.737 123.087 213.737 122.442C213.737 121.888 213.917 121.386 214.279 120.93C214.64 120.474 215.111 120.18 215.685 120.044C215.549 119.776 215.304 119.542 214.962 119.34C214.62 119.138 214.175 119.04 213.647 119.04C211.925 119.04 210.622 119.829 209.738 121.419C208.855 123.002 208.41 125.159 208.41 127.883V135.475C208.41 135.911 208.461 136.205 208.571 136.341C208.674 136.478 208.842 136.543 209.068 136.543H211.879V139.267H200.703V136.543H203.308C203.547 136.543 203.721 136.472 203.831 136.335C203.934 136.198 203.992 135.905 203.992 135.462V120.513C203.992 120.024 203.94 119.692 203.844 119.516C203.747 119.34 203.566 119.255 203.308 119.255H200.6V119.249Z" fill="#2B8765"/>
<path d="M220.87 139.274V136.55H223.475C223.72 136.55 223.888 136.478 223.998 136.341C224.107 136.204 224.159 135.911 224.159 135.468V120.513C224.159 120.024 224.107 119.691 224.01 119.516C223.914 119.34 223.733 119.255 223.475 119.255H220.87V116.531H223.366C225.268 116.531 226.99 116.388 228.538 116.094V121.412C229.28 119.626 230.324 118.271 231.679 117.346C233.033 116.42 234.632 115.958 236.477 115.958C241.256 115.958 243.642 118.662 243.642 124.071V135.481C243.642 135.924 243.694 136.211 243.797 136.354C243.9 136.498 244.081 136.563 244.339 136.563H246.931V139.287H236.187V136.563H238.573C238.799 136.563 238.96 136.491 239.07 136.354C239.173 136.217 239.224 135.924 239.224 135.481V124.188C239.224 122.409 238.876 121.112 238.18 120.284C237.483 119.457 236.374 119.046 234.845 119.046C232.91 119.046 231.382 119.848 230.266 121.457C229.151 123.067 228.589 125.354 228.589 128.326V135.468C228.589 135.911 228.641 136.204 228.751 136.341C228.854 136.478 229.041 136.55 229.292 136.55H231.743V139.274H220.87Z" fill="#2B8765"/>
<path d="M249.917 139C249.375 138.433 249.098 137.716 249.098 136.85C249.098 135.983 249.369 135.26 249.917 134.686C250.465 134.113 251.162 133.826 252.026 133.826C252.89 133.826 253.6 134.113 254.154 134.686C254.709 135.26 254.993 135.983 254.993 136.85C254.993 137.716 254.715 138.44 254.154 139C253.593 139.56 252.884 139.847 252.026 139.847C251.168 139.847 250.459 139.567 249.917 139Z" fill="#2B8765"/>
</svg>
