<svg version="1.1" id="Layer_1" xmlns="http://www.w3.org/2000/svg" x="0" y="0" viewBox="0 0 1000 75" xml:space="preserve"><style>.st0{fill:#fff}</style><path class="st0" d="M126.6 14.6c12.6 0 22.8 10.4 22.8 23.2 0 12.8-10.2 23.4-22.8 23.4-12.8 0-23-10.6-23-23.4 0-12.8 10.2-23.2 23-23.2zM115.8 48h21.5v-7h-21.5v7zm10-17.4s-3.6-4.8-3.8-5c-.4-.6-1.1-.6-1.5 0-.4.2-4.7 5.9-4.7 5.9V41l4.5-6.1c.6-.7 1.3-.7 1.7 0 .2.2 3.8 5 3.8 5 .4.6 1.1.6 1.5 0 0 0 3.6-4.8 3.8-5 .4-.7 1.1-.7 1.7 0l4.5 6.1v-9.5l-4.7-5.9c-.4-.6-1.1-.6-1.5 0-.2.2-3.8 5-3.8 5-.2.4-.4.4-.6.4-.5 0-.7 0-.9-.4zm-92.6 4.3c0 2.3-1 3.6-3.8 3.6H27v-7.4h2.3c2.8 0 3.9 1.3 3.9 3.8zm5.6 8.9c0-3.6-3.1-4.8-6.6-4.8v-.3c3.1-.3 5.6-1.5 5.6-4.6 0-3.3-2.8-4.1-5.9-4.1-3.8 0-8.4.3-12 0v1c.8 0 2.5 0 2.5 1v15c0 1-2 1-2.5 1v1c3.6-.3 7.9 0 11.5 0 3.8.1 7.4-1.2 7.4-5.2zm-4.9-.3c0 3-1 4.6-4.6 4.6H27v-8.6h2.3c3.4 0 4.6 1 4.6 4zm30.2 6.4h-5v-1.1c.8 0 3 0 3-1.1V33.2l-7.8 16.9h-.8l-7.6-16.9v14.5c0 1.1 2.3 1.1 3 1.1v1.1c-2 0-4.8-.3-7.1 0v-1.1c1 0 2.8 0 2.8-1.1V32.2c0-.8-2-1.1-2.8-1.1V30c2.5.3 5 .3 7.3 0l6.6 14.3 6.3-14c2.3 0 4.8 0 7.1-.3v1.1c-.8 0-2.8 0-2.8 1.1v15.6c0 1.1 2 1.1 2.8 1.1V50h-5zM89 40.3c0 3.6-.3 8.9-5.6 8.9-5.4 0-5.9-5.2-5.9-8.9 0-3.9.5-9.1 5.9-9.1 5.3-.1 5.6 5.1 5.6 9.1zm5.2 0c0-6.5-3.9-10.2-10.9-10.2s-11.1 3.7-11.1 10.2c0 6.3 3.9 9.9 11.1 9.9 7.1 0 10.9-3.7 10.9-9.9zM614.4 48.6h3.5c.4 0 .6-.1.7-.4 0-.2 0-.4-.2-.5-.2-.1-.4-.1-.7-.1-.3 0-.6-.2-.6-.6V36l4.5 8.7c.2.4.7.4.9 0l4.4-8.8v11c0 .6-.8.8-1.3.8-.3 0-.5.4-.4.6.1.2.2.3.6.3h4.8c.3 0 .4-.1.5-.3.1-.2-.1-.6-.4-.6-.5 0-1.2-.2-1.2-.8V34.7c0-.2 0-.7.2-1 .1-.2.4-.4 1-.4.5 0 .7-.9-.1-.9h-3c-.2 0-.4.1-.4.2l-4.4 9-4.9-9c-.1-.1-.3-.2-.5-.2h-2.8c-.8 0-.7.9-.2.9.7 0 1.2.2 1.2.8V47c0 .4-.5.5-1.1.6-.3 0-.5.4-.4.6 0 .3.1.4.3.4zm-85.5-6.4l6.5 11.8v-7.6l-6.5-4.2zm13.4 0l-6.5 4.2V54l6.5-11.8zm-.2-.3H529l6.6 4.2 6.5-4.2zm-6.5 13.5l-7.7-13.9h15.3l-7.6 13.9zm-15-27.7l6.5 11.8v-7.6l-6.5-4.2zm7 4.2v7.6l6.5-11.8-6.5 4.2zm-6.8-4.5l6.6 4.2 6.6-4.2h-13.2zm6.6 13.5L519.7 27H535l-7.6 13.9zm-6.8 13.9l6.5-4.2V43l-6.5 11.8zm7-4.2l6.5 4.2-6.5-11.8v7.6zm-6.8 4.5h13.1l-6.6-4.2-6.5 4.2zm-1.1.4l7.6-13.9 7.6 13.9h-15.2zM535.4 36v-7.6l-6.5 11.8 6.5-4.2zm6.9 4.3l-6.5-11.8v7.6l6.5 4.2zm-13.3.3h13.1l-6.6-4.2-6.5 4.2zm6.6-13.5l7.6 13.9h-15.3l7.7-13.9zm-16.2 1.4v7.6l6.5 4.2-6.5-11.8zm-7 11.8l6.5-4.2v-7.6l-6.5 11.8zm6.7-3.9l-6.6 4.2h13.1l-6.5-4.2zm0-9.3l7.6 13.9h-15.3l7.7-13.9zm-.2 19.4l-6.5-4.2 6.5 11.8v-7.6zm6.9-4.3l-6.5 4.2V54l6.5-11.8zm-13.2-.3l6.6 4.2 6.6-4.2h-13.2zm-1.1-.4h15.3l-7.6 13.9-7.7-13.9zm44.5 4.3c0 .4.1 1.1.3 1.3.3.4.9.5 1.5.6.9.1 1.9-.1 2.6-.7 1.4-1.1 1.6-3.5.6-5.1-.4-.6-1-1.1-1.7-1.3-.5-.1-1.6-.2-1.8-.2-.4-.1-.6-.5-.5-.8.2-.4.7-.3 1.1-.4.7-.1 1.5-.3 2-.8.7-.6.9-1.6.7-2.5-.1-.7-.4-1.5-1-1.9-.8-.6-2-.7-2.9-.3-.5.2-1.1.6-1.1 1.2v10.9zm-3.5-12c.1-.4.6-.6 1-.8.7-.3 1.4-.5 2.1-.6 2.7-.5 5.7-.5 7.2 1.5 1 1.3 1 3.4-.1 4.7-.6.6-1.8 1.2-2.3 1.2.5 0 1 .2 1.5.4.4.2 1.2.7 1.8 1.3 1.1 1.3.9 3.5 0 5-.5.8-1.4 1.4-2.2 1.8-1.4.7-3.1.6-4.6.5-1.4-.1-2.7-.3-3.9-1-.2-.2-.5-.5-.4-.8.1-.4.6-.4.8-.5.2-.1.3-.2.3-.4V34.8c0-.2 0-.3-.1-.3-.6.1-1.2-.3-1.1-.7z"/><path class="st0" d="M635.4 48c-.8 1.6-1.8 3.2-2.8 4.6-.1.1-.1.3.1.3h1.7c.2 0 .3 0 .4-.3l5.3-12.9c.2-.5.5-.6 1-.6.3 0 .4-.7-.2-.7h-3.1c-.7 0-.5.7-.2.7.4 0 .6 0 .8.1.3.1.4.5.3.8l-2.1 5.5-2.4-5.6c-.1-.2-.1-.5.2-.6.2-.1.6-.1.7-.1.3 0 .5-.7-.2-.7h-3.8c-.7 0-.5.7-.2.7.6 0 .9.2 1.1.8l3.4 8zm59.4-2.4v-6.5c0-.2 0-.5-.2-.6-.2-.1-.4 0-.6.1l-2.1.8c-.4.1-.4.5-.2.7.1.1.3.1.5.1.3 0 .5.3.5.4v5.2c0 .9.2 1.6.7 2.2.7.7 1.8.8 2.8.8.9-.1 1.8-.5 2.5-1.1l.2 1h2.8c.7 0 .7-.8.1-.8-.4 0-.7-.2-.9-.4-.1-.1-.2-.3-.2-.7V39c0-.3-.2-.5-.3-.5-.2-.1-.5 0-.6.1l-2.1.9c-.4.2-.4.5-.3.7.1.1.2.1.3.1.5 0 .8.1.8.4v4.9c.1 2.4-3.7 2.9-3.7 0zm-15.6-4.4c-1.3-1.3-4.2-3.5-4.9-3.9-.7-.4-1.1-1.4-.9-2.2.1-.5.5-1 .9-1.2.6-.4 1.6-.3 2.1-.2 1.2.4 2.2 1.3 2.9 2.3.2.2.6.1.7-.2.1-.2.1-.4.1-.6 0-.9-.2-2-.6-2.8-.1-.2-.2-.5-.5-.5-.6 0-.4.5-1 .6-.1 0-.4-.1-.6-.1-.7-.2-1.5-.3-2.3-.3-1 0-2.1.3-2.9 1-1 .9-1.5 2.4-1.1 3.7.3 1.1 1.2 2 2 2.7 1.3 1.1 3 1.9 4.1 3.1.6.7 1 1.5.9 2.5 0 .7-.4 1.3-.9 1.8-.6.5-1.6.6-2.3.6-.8 0-1.7-.5-2.3-1.1-.4-.4-.7-1-1.2-1.4-.2-.2-.6-.3-.9 0-.2.2-.2.5-.1.7l.7 3c.1.3.3.4.5.4.5 0 .8-.6 1.3-.6.4 0 .7.2 1 .3 1.3.3 2.8.4 4.1-.2.9-.4 1.8-1.2 2.2-2.1.6-1.8.2-3.9-1-5.3zm38.3 4.6c.7-1.8.7-4.1-.5-5.6-.7-.9-1.8-1.7-2.9-1.7-.6 0-1.3 0-1.9.4-.3.2-.7.6-.5.9.1.1.2.2.4.2.3 0 .6-.2.9-.3.5-.1 1.1 0 1.6.3.9.7 1.1 2.4 1.1 3.3 0 .1 0 2.5-.7 3.5-.6.9-1.8 1.3-2.8.9-.5-.2-.9-.7-.9-1.2V32.7c0-.2-.1-.4-.2-.5-.1-.1-.3 0-.7.1l-2 .9c-.4.2-.5.4-.3.7.1.1.4.2.6.2.3 0 .6.3.6.6v12.1c0 .4-.7.2-.9.4-.2.1-.3.5-.1.7.1.1.3.2.4.3 1.4.7 3.1.9 4.7.8 1-.1 2.1-.4 2.9-1 .4-.6.9-1.4 1.2-2.2zm7.3-7.4c-.6 0-1.3 0-1.9.4-.3.2-.7.6-.5.9.1.1.2.2.4.2s.6-.2.9-.3c.5-.1 1.1 0 1.6.3.9.7 1 2.4 1.1 3.3 0 .1 0 2.4-.7 3.5-.6.9-1.8 1.3-2.8.9-.5-.2-.9-.7-.9-1.2V32.7c0-.2-.1-.4-.2-.5-.1-.1-.3 0-.7.1l-2 .9c-.4.2-.5.4-.3.7.1.1.4.2.6.2.3 0 .6.3.6.6v12.1c0 .3-.7.2-1 .4-.2.1-.2.5-.1.7.1.1.3.2.4.3 1.4.7 3.1.9 4.7.9 1-.1 2.1-.4 2.9-1 .7-.5 1.1-1.3 1.4-2.1.6-1.8.7-4.1-.5-5.7-.8-1.1-2.1-1.8-3-1.9zm-33.4 14.2c-.2-.2-.6 0-.9-.2l-.1-.1c-.1-.1-.1-.2-.1-.3v-9c0-1.5 0-3.1.3-4.6 0-.2-.2-.4-.4-.4s-.4.1-.6.2c-.3.2-.5.5-.6.9-1.9-1-4.5-1-6.1.6-.8.8-1.3 2.1-1.4 3.1-.2 1.5 0 3 .7 4.2.5.8 1.2 1.4 2.1 1.7.7.2 1.6.2 2.3 0 .6-.1 1.2-.6 1-1.1-.2-.4-.8-.1-1.2 0-.6.2-1.2 0-1.6-.3-.5-.4-.8-1.1-.9-1.6-.3-1.4-.4-3.2.3-4.6.2-.5.6-1 1.1-1.3.5-.2 1-.2 1.5-.1.4.1.6.2.9.5.2.3.4.8.4 1.1v10.5c0 .2-.1.5-.3.6-.3.2-.8-.1-1.1.2-.2.1-.2.4-.1.5.1.2.3.2.5.2h3.6c.3 0 .7 0 .8-.3.1-.1 0-.3-.1-.4zm-46.3-5.1c-.7-.2-1.3-.9-1.6-1.5-.6-1.4-.6-3.1-.1-4.5.2-.7.6-1.4 1.3-1.7.5-.2 1-.3 1.5-.1.5.2 1 .7 1.1 1.3.1.4-.2.9-.4 1.1l-2.6 1.7c-.3.2-.4.6-.2.9.2.2.6.2.8.1l3.8-2.3c.5-.3.9-.8.9-1.4-.1-.9-.8-1.6-1.6-2-1.6-.9-3.8-.7-5.2.4-1.7 1.3-2.2 3.6-1.8 5.7.3 1.6 1.5 3 3 3.5 1.1.4 2.4.4 3.5 0 .4-.1.8-.3 1.2-.5.5-.3.9-.6 1.2-1.1.1-.2.2-.4.1-.6-.1-.2-.4-.4-.6-.3-.5.1-1.1 1-1.7 1.2-1 .2-1.9.3-2.6.1zm15.4-5.8c-.2-.1-.6-.4-.7-.9-.1-.4.1-.8.4-1.1.6-.4 1.5-.2 2.1.2.5.4.8.9 1.1 1.3.1.3.7-.1.7-.3l-.4-2.1c0-.2-.2-.4-.4-.4-.4-.1-.6.4-.7.3-1.1-.4-2.4-.6-3.5-.1-.5.2-1 .6-1.3 1.1-.4.7-.4 1.6 0 2.3.2.4.5.7.8 1 .9.7 1.9 1.4 2.9 2 .7.4 1 1.4.5 2-.3.4-.9.6-1.4.6-.9-.1-1.6-.6-2.1-1.3-.3-.3-.5-.8-.9-.7-.2.1-.4.3-.3.7l.4 2.2c0 .2.2.3.3.3.3 0 .3-.2.6-.3.2-.1.4-.1.6-.1.3 0 .5.2.8.2 1.6.3 3.5-.1 4.3-1.6.4-.9.4-2-.2-2.8-1.4-1.7-1.9-1-3.6-2.5zm-81.4 4.8c-.3-.3-.5-.8-.9-.7-.2.1-.4.3-.3.7l.4 2.2c0 .2.2.3.3.3.3 0 .3-.2.6-.3.2-.1.4-.1.6-.1.3 0 .5.2.8.2 1.6.3 3.5-.1 4.3-1.6.4-.9.4-2-.2-2.8-1.2-1.7-1.8-1.2-3.5-2.6-.2-.1-.6-.4-.7-.9-.1-.4.1-.8.4-1.1.6-.4 1.5-.2 2.1.2.5.4.8.9 1.1 1.3.1.3.7-.1.7-.3l-.4-2.1c0-.2-.2-.3-.4-.4-.4 0-.6.4-.7.3-1.1-.4-2.4-.6-3.5-.1-1.4.6-2 2-1.3 3.4.2.4.5.7.8 1 .9.7 1.9 1.4 2.9 2 .7.4 1 1.4.5 2-.3.4-.9.6-1.4.6-.9 0-1.7-.5-2.2-1.2zm-9.3-8l-.4.1c-.6.2-1 .8-1.2 1.3v-1.2c0-.3-.2-.4-.6-.2l-2.4 1c-.3.1-.4.5-.2.6.1.1.3.2.5.2.3 0 .6 0 .6.4v6.7c0 .5-.7.3-1 .5-.2.1-.3.5-.1.6.1.1.1.1.3.1h3.8c.2 0 .4-.1.5-.3 0-.1 0-.3-.1-.4-.3-.2-.8 0-1-.3-.1-.1-.2-.2-.2-.3v-5c0-.8.3-1.6 1-1.9.2-.1.4-.1.6-.1.4 0 .8.2 1.1.4.1.1.2.1.3-.1l.7-1c.3-.5-.5-.9-1-1.1-.4-.1-.8-.1-1.2 0zm85.2 0l-.4.1c-.6.2-1 .8-1.2 1.3v-1.2c0-.3-.2-.4-.6-.2l-2.4 1c-.3.1-.4.5-.2.6.1.1.3.2.5.2.3 0 .6 0 .6.4v6.7c0 .5-.7.3-1 .5-.2.1-.3.5-.1.6.1.1.1.1.3.1h3.8c.2 0 .4-.1.5-.3 0-.1 0-.3-.1-.4-.3-.2-.8 0-1-.3-.1-.1-.2-.2-.2-.3v-5c0-.8.3-1.6 1-1.9.2-.1.4-.1.6-.1.4 0 .8.2 1.1.4.1.1.2.1.3-.1l.7-1c.3-.5-.5-.9-1-1.1-.5-.1-.8-.1-1.2 0zm-64 9.7c.1-.1.3-.4.2-.7-.1-.2-.2-.3-.4-.3-.5-.1-.7.3-1.3.3-.3 0-.6-.3-.6-.7v-6.7c0-.2.2-.4.4-.4h1.5c.4 0 .4-.9 0-.9H589v-3.9c0-.4-.2-.4-.4-.3l-1.5.8c-.1.1-.2.2-.2.3v3h-1.3c-.4 0-.4.9 0 .9h1c.2 0 .3.1.3.4v6.7c0 .7.4 1.6.9 1.8.6.3 1.5.3 2.1.1.5 0 .9-.2 1.1-.4zm22-3.6c.1 0 .2-.1.2-.2v-1.1c0-.1-.1-.2-.2-.2h-5.1c-.1 0-.2.1-.2.2v1.1c0 .1.1.2.2.2h5.1zm-10.5 4h3.9c.3 0 .4-.5.1-.7-.2-.1-.6-.1-.8-.2-.2-.1-.4-.3-.4-.4V32.5c0-.2-.2-.4-.7-.2l-2.2.9c-.4.1-.5.5-.3.7.1.1.2.1.3.1.6 0 .8.1.8.7v12.5c0 .2-.1.4-.3.4-.3.1-.8 0-.9.3-.1.4.1.7.5.7zm-25.5-.8c-.4 0-.6-.1-.7-.2-.1-.1-.3-.3-.3-.5v-8.4c0-.3-.3-.5-.7-.3l-2.5 1c-.2.1-.3.4-.1.6.1.1.2.1.3.1.3 0 .8.1.8.6V47c0 .2-.3.5-.6.5s-.6.2-.7.4c0 .2.2.4.4.4h3.8c.3 0 .4-.2.4-.3.2.1.2-.2-.1-.2zm129.2-.2c-.1-.1-.3-.3-.3-.5v-8.4c0-.3-.3-.5-.7-.3l-2.5 1c-.2.1-.3.4-.1.6.1.1.2.1.3.1.3 0 .8.1.8.6V47c0 .2-.3.5-.6.5s-.6.2-.7.4c0 .2.2.4.4.4h3.8c.3 0 .4-.2.4-.3 0-.2-.1-.4-.3-.5-.2.3-.3.2-.5.1zm-1.4-14.4c-.7 0-1.3.6-1.3 1.3 0 .8.6 1.4 1.3 1.4.7 0 1.3-.6 1.3-1.4 0-.7-.6-1.3-1.3-1.3zm-128.6 1.3c0-.7-.6-1.3-1.3-1.3-.8 0-1.4.6-1.4 1.3 0 .7.6 1.4 1.4 1.4.7 0 1.3-.6 1.3-1.4z"/><path class="st0" d="M594.2 40.6c-1 1.3-1.1 4.2-.2 5.9 1 1.9 3.4 1.8 4.5.1.9-1.5 1-4.2 0-5.8-1.1-1.6-3.1-1.9-4.3-.2zm4.5 7.8c-1.4.7-3.8.7-5.3-.2-1.4-.7-2.5-3.3-2.3-5 .2-2.4 1.3-3.7 2.7-4.3 1.9-.8 3.9-.5 5.1.1 1.5.8 2.5 2.3 2.5 4.1.2 1.8-.8 4.4-2.7 5.3zM350.3 46.2c-.3.5-1.5 1.9-2.9 1.9-1.9 0-2.3-1.4-2.3-2.5 0-1.9 1.4-2.7 5.1-3.7v4.3zm4.6 2.3c-.1-.1-.2-.2-.3-.2-.4.1-.8.1-1-.1-.3-.2-.5-.7-.5-1.6v-7.5c0-2.9-1.7-4.4-5.1-4.4-3 0-5.4 1.5-5.4 3.3 0 1 .6 1.6 1.4 1.8.5.1 1.1-.2 1.5-.6.7-.8.6-1.8-.3-2.8.5-.6 1.5-.9 2.5-.9 1.8 0 2.5 1.1 2.5 3.5v2c-.4.1-.8.3-1.5.4-1.4.3-3.4.8-4.8 1.6-1.2.7-1.8 1.7-1.8 3.2 0 1.6 1 3.4 3.8 3.4 1.6 0 3-.8 4.5-2.4.1 1.7.8 2.3 2.3 2.3.7 0 1.3-.2 2-.5.2-.1.3-.3.2-.5zm31.4-13.1c-1.7 0-3.7.8-3.7 6.7 0 4.5 1.3 6.7 4 6.7 2.6 0 3.7-2.1 3.7-6.7 0-4.5-1.3-6.7-4-6.7zm.2 14.2c-4 0-7-3.2-7-7.5 0-4.2 3.1-7.5 7-7.5s7 3.3 7 7.4c-.1 4.7-3.7 7.6-7 7.6zm-69.2-3v-5.4h2c3 0 5.4-.7 6.9-2 1.6-1.4 1.9-3.1 1.9-4.3 0-5-4.7-6-8.6-6h-8c-.2 0-.3.1-.3.3 0 .2.1.3.3.4.7.3 2.6-.1 2.6 2v14.9c0 1.1-.5 1.9-2.6 2.1-.2 0-.3.2-.3.3v.1c0 .2.1.3.3.3h8.5c.2 0 .3-.1.3-.3 0-.2-.1-.3-.3-.3-2.3-.2-2.7-.9-2.7-2.1v-5.4 5.4zm7.3-11.7c0 3.4-.8 5.3-5.1 5.3h-2.3V29.8h2.3c4.5 0 5.1 2.6 5.1 5.1zm6.4 5.4c.3-3.1 1.5-4.8 3.4-4.8.9 0 1.6.3 2.1.8.7.7 1 2.1.8 4H331zm3.6-5.7c-3.7 0-6.7 3.4-6.7 7.6 0 4.3 2.8 7.4 6.7 7.4 3.3 0 4.9-2 5.8-3.5.1-.1.1-.3-.1-.4-.1-.1-.3-.1-.4.1-1.2 1.5-2.3 2.4-4.1 2.4-2.3 0-4.8-1.6-4.8-6.2v-.7h9.4v-.1c.1-1.9-.4-3.5-1.5-4.7-1-1.3-2.5-1.9-4.3-1.9zm38.9 5.8c-2.6-.7-3.6-1.5-3.6-2.7 0-1.3 1-2.3 2.5-2.3 1.7 0 2.4.8 4.2 3.9h.2c.2 0 .3-.1.3-.3v-4.4-.1h-.3c-.1 0-.2 0-.3.1l-.6.7c-.7-.4-1.9-.8-3.1-.8-3 0-5 1.9-5 4.5 0 2.5 1.6 3.4 4.4 4.2 2.7.8 3.7 1.6 3.7 3 0 1.6-1.6 2.4-2.7 2.4-2.1 0-2.9-.8-4.9-4.4h-.2c-.2 0-.3.1-.3.3v4.9h.3c.1 0 .2 0 .2-.1l.9-.9c1.1.7 2.6 1 3.7 1 1.5 0 2.8-.5 3.7-1.4.8-.8 1.2-2 1.2-3.3.1-2.1-1.1-3.3-4.3-4.3zM358 47.6c0 .8-.2 1-1.4 1.1-.2 0-.3.2-.3.3 0 .2.1.3.3.3h5.8c.2 0 .3-.1.3-.3 0-.2-.1-.3-.3-.3-1.3-.1-1.7-.3-1.7-1.1v-8.7c1-1.6 1.6-2.5 2.8-2.7-.1.2-.1.5-.1.7 0 1.1.7 1.8 1.8 1.8 1 0 1.7-.7 1.7-1.8 0-1-.6-2.2-2.3-2.2-1.4 0-2.8.8-3.9 2.8v-2.2c0-.2-.2-.4-.4-.4l-3.7.1c-.2 0-.3.2-.3.3 0 .2.1.3.3.3 1.2.2 1.4.8 1.4 1.4v10.6zm40.2-12.8c.1 0 .2 0 .2.1.1.1.1.1.1.2v2.5s1.2-2.9 5.1-2.9c2.4 0 3.8 1.6 3.8 4.3v8.6c0 .8.2 1 1.4 1.1.2 0 .3.2.3.3 0 .2-.1.3-.3.3h-5.2c-.2 0-.3-.1-.3-.3 0-.2.1-.3.3-.3.9-.1 1.1-.3 1.1-1.1v-7.7c0-2.6-.7-3.6-2.5-3.6-1.2 0-2.2 1.1-2.9 2 0 0-.3.4-.7 1.2v8.1c0 .7.1 1 1.1 1.1.2 0 .3.2.3.3 0 .2-.1.3-.3.3h-5.2c-.2 0-.3-.1-.3-.3 0-.2.1-.3.3-.3 1.2-.1 1.4-.3 1.4-1.1V37c0-.6-.2-1.2-1.4-1.4-.2 0-.3-.2-.3-.3 0-.2.1-.3.3-.3l3.7-.2zM295.7 21.9c8.3 4.9 10.2 15.8 4.5 26.9-5.1 9.7-16.2 13.9-24.4 8.9-8.3-5-9.9-18.8-6.3-26.7 5.1-11.6 17.1-14.5 26.2-9.1zm-10.9 28.2c-.3-.2-.6-.4-.9-.4h-.3c-.6 0-1.2.3-1.6.9-.3.5-.4 1-.4 1.6.1.4.2.7.4.9.2.3.5.5.9.6.2.1.5.1.7.1.5 0 1-.2 1.3-.5.4-.4.6-.9.6-1.4.1-.7-.2-1.4-.7-1.8zm9.9-19.9c-3.1-3.6-7.3-3.9-10-3.8-3 .1-5.1 1.1-6.8 2.1-1.5.8-2.9 2.3-3.5 3-.4.5-1 1.4-.6 2.2.3.7 1.3.6 1.6.4.4-.3.8-.7 1.3-1.2 2.3-2 4.3-3.2 9.1-3.2s7.3 3.1 7.3 5.9c0 2.8-1.2 4.6-3.6 5.9-1.2.6-2.4 1.1-4 1.1.1-2.7.2-5.2.2-5.2 0-1.9.3-3.5-.9-3.8-1.2-.3-3.5 0-3.5 1.5-.1-.2.2 12 .3 12.3v.3c0 .3.1.6.3.8.2.2.5.4.8.4h.1c.3 0 .6 0 1-.2.5-.1.9-.4 1.2-.7.1-.2.2-.4.3-.7 0-.2.1-1.6.1-2.1 2.5 0 5-.5 6.9-1.7 2.4-1.5 3.9-3.9 4.2-6.4.2-2.5-.3-5.2-1.8-6.9zM880.3 47.4h-1.5v4.7h9.8v-4.5H887v-3.3l.1-.5v-.5l.1-.4.3-.8.1-.3.1-.4.3-.4.3-.1.3-.1.3-.1.5-.3h2.4l.3.1V34l-.3-.1h-1.2l-.3.1h-.3l-.4.1-.3.1-.4.1-.5.3-.1.1-.3.3-.3.1-.1.3-.1.3-.3.5-.1.3-.1.5-.1.3-.1.4v.4-3.6H879v4.1h1.5v8.8zM902.1 35.6l-.5-.5-.3-.1-.3-.3-.3-.1-.3-.1-.4-.1-.3-.1-.3-.1h-.3l-.3-.1h-.5l-.1-.1h-.8l-.4.1-.5.1-.4.1-.5.1-.4.3-.4.3-.4.4-.4.3-.3.4-.4.4-.3.5-.1.4-.3.5v.5l-.1.7v.8l.1.7v.5l.3 1.1.1.4.1.3.3.4.5.5.4.1.3.3.4.1.4.3.5.1.5.3 2.4.8.4.1.1.1.3.1.1.1.1.3v1.1l-.1.3-.1.1-.3.1-.3.1h-.1l-.3.1h-1.1l-.3-.1h-.1l-.3-.1-.3-.1-.1-.1-.1-.1-.1-.3-.1-.1-.1-.3-.1-.3v-1.1h-3.2V52h2.8v-1.9l.1.3.1.1.1.3.1.1.3.3.1.1.3.3.3.1.3.1.4.1.4.1.3.1.4.1h.9l.5.1.5-.1h.4l.5-.1.5-.1.4-.3.5-.1.7-.7.4-.4.3-.4.3-.5.3-.4.1-.5.3-1.4v-1.8l-.1-.5v-.5l-.1-.4-.1-.5-.3-.4-.1-.3-.3-.4-.3-.3-.4-.4-.4-.1-.4-.3-.4-.3-.5-.1-.5-.1-3.2-.8-.3-.3-.1-.1-.1-.1-.3-.3v-.7l.1-.1v-.3l.1-.1.3-.3.3-.1h.3l.5-.1.3.1h.4l.4.1.4.1.3.3.4.4.3.6.4.5h2.8V34H902v1.6zM917.8 52h8v-4.4h-1.3v-8.5l-.1-.8-.1-.7-.3-1.1-.3-.5-.3-.4-.3-.4-.4-.3-.3-.1-.4-.3-.4-.1-.4-.1-.4-.1h-1.7l-.5.1h-.4l-.4.1-.3.1-.4.1-.4.3-.3.1-.4.3-.3.3-.3.3-.3.3-.3.3-.3.3-.3.4V26H906v4.1h1.7v17.4H906V52h9.7v-4.4h-1.5v-6.2l.1-.4v-.3l.1-.3v-.1l.3-.5.1-.1.3-.3h.1l.1-.1h.8l.3.1h.1l.3.1.1.1.1.3v.1l.1.3.1.1v.3l.1.3v11zM929.2 32.9h6.5v-6.3h-6.5v6.3zM929.4 47.4h-1.9v4.4h10v-4.4h-1.7V34.5h-8.5v4.1h2.1v8.8zM950.9 51.8h8v-4.4h-1.3v-8.9l-.1-.7v-.5l-.1-.7-.3-.4-.3-.4-.3-.4-.4-.4-.4-.3-.4-.1-.4-.3-.5-.1-.4-.2-.4-.1h-2.3l-.3.1-.3.1-.4.1-.3.1-.4.3-.3.1-.4.3-.3.3-.3.3-.3.4-.3.3-.3.4-.1.4v-2.9h-8.4v4.4h1.7v8.8h-1.7v4.4h9.8v-4.4h-1.5v-6.7l.1-.5.3-.4.3-.3.3-.3.3-.1h.7l.3.1.3.1.3.1.3.3.4 1.2v10.9zM843.2 46.3V31.1H841v-5.6h13.6l.9.1.8.1.8.1.8.3 1.3.8.5.4.5.5.5.7.4.5.3.7.5 1.6.3 1.6v1.8l-.3 1.9-.3.7-.3.8-.4.7-.4.5-.5.5-.7.5-.7.4-.7.3-.8.3-.8.3-1.9.3h-3.9V46h2.3v6H841v-5.6h2.2zm7.6-8.9h1.7l.3-.1.4-.1.3-.1.3-.1.3-.1.3-.3.1-.3.1-.1.4-.8v-1.5l-.1-.1v-.4l-.1-.1-.3-.5-.3-.3-.1-.3-.3-.1-.3-.3-.3-.1-.3-.1-.3-.1h-1.9v5.9zm21.4 8.7h5.5l-.3.8-.1.7-.3.7-.4.7-.3.5-.4.5-.5.4-.4.6-.5.3-.5.4-.7.3-.5.1-.7.3-.7.1h-.7l-.7.1-1.1-.1-1.1-.1-.9-.1-.8-.4-.8-.3-.8-.5-.5-.5-.7-.5-.4-.7-.8-1.6-.5-1.6-.1-1v-1.1l-.1-1 .1-1.1.3-1.9.3-1 .3-.8.4-.7.4-.8.5-.7.7-.5.7-.5.7-.4.8-.4.8-.3.8-.3.9-.1h2l.9.1.9.3.8.3.8.4.5.5.7.5.5.5.4.8.4.7.4.8.3.8.3 1.9.1 1.1v2.2h-10.2v1.1l.1.4v.3l.1.4v.3l.4.8.3.1.3.3.1.1h.3l.4.1h.8l.4-.3.4-.3.3-.4.3-.3.3-.8v-.2zm-4.4-4.8h4.3v-1.1l-.1-.4v-.3l-.3-.5v-.3l-.1-.3-.3-.1-.1-.3-.5-.3-.3-.1h-.7l-.4.1-.3.1-.3.3-.3.1-.4.8-.1.4v.6l-.1.3v1zm102.2-5v-2.2h8v4.4h-1.5V51l-.1 1.1-.3 1.6-.4.8-.4.7-.5.7-.5.5-.5.4-.7.4-.7.4-.8.3-.8.3-.8.3-.8.1h-4.4l-.5-.1h-.4l-.4-.1h-.4l-.3-.1h-.5l-.1-.1h-.3l.4-5.2h.1v.1l.3.1.3.1.8.3.7.1.7.1h2l.1-.1h.3l.1-.1h.1l.3-.1.1-.1.1-.1.3-.3.1-.1.1-.3.1-.3.1-.3.1-.3.1-.4v-.5l.1-.3V50l.1-.1v-.3l-.3.3-.3.3-.1.1-.3.3-.5.3-.3.1-.1.1-.3.1-.3.1-.5.3h-.4l-.1.1h-.3l-.9-.1-.9-.1-.8-.4-.8-.3-.7-.4-1.1-1.1-.4-.5-.4-.7-.5-1.4-.3-.8-.1-.7v-.8l-.1-.7v-1.9l.3-1.9.3-1 .3-.8.4-.8.3-.7.5-.5.4-.5.5-.5.7-.4.5-.3.7-.3.8-.3.7-.1h1.7l.3.1.3.1h.3l.3.1.3.3.3.1.3.3.3.1.3.3.1.3.3.3.3.4-.1.2zm0 6.5v-.7l-.1-.3v-.4l-.1-.3v-.4l-.3-.5-.1-.3-.1-.3-.3-.3-.3-.3-.3-.1-.1-.1h-.5l-.3.1-.3.1-.3.1-.3.1-.3.5-.1.3-.1.4-.3.5v.7l-.1.3v1.2l.1.4v.7l.3.8v.3l.3.4.1.4.1.3.3.3.1.1.3.1.4.1h.5l.5-.3.1-.1.3-.3.3-.5.1-.4.1-.3.1-.4v-.8l.1-.3v-.8z"/></svg>