<?xml version="1.0" encoding="utf-8"?>
<svg width="1000" height="75" viewBox="0 0 1000 75" fill="none" xmlns="http://www.w3.org/2000/svg">
<path d="M110.271 55.6465H106.799C106.094 55.6465 105.553 55.2681 105.5 54.5656L105.445 53.2111C102.948 55.2162 99.965 56.2969 96.8188 56.2969C90.7446 56.2969 88.2508 52.4571 88.2508 46.6092V30.6016C88.2508 29.6811 88.7928 29.356 89.6579 29.356H93.4566C94.3253 29.356 94.8141 29.6253 94.8141 30.6016V45.4718C94.8141 48.4497 95.573 50.5051 98.8287 50.5051C100.887 50.5051 103.492 49.37 105.12 47.9086V30.6016C105.12 29.6811 105.609 29.356 106.474 29.356H110.325C111.194 29.356 111.683 29.6253 111.683 30.6016V54.1323C111.683 55.2681 111.355 55.6465 110.271 55.6465ZM22 30.4357C22 29.788 22.3261 29.3547 22.9759 29.3547H27.5644C28.2149 29.3547 28.5945 29.7339 28.5945 30.4357V54.2937C28.5945 55.2681 28.1587 55.6465 27.2387 55.6465H23.4107C22.4375 55.6465 22 55.2681 22 54.2937V30.4357ZM118.469 30.4357C118.469 29.788 118.797 29.3547 119.446 29.3547H124.034C124.686 29.3547 125.066 29.7339 125.066 30.4357V54.2937C125.066 55.2681 124.631 55.6465 123.708 55.6465H119.88C118.906 55.6465 118.469 55.2681 118.469 54.2937V30.4357ZM57.6696 55.6465H53.7648C52.7889 55.6465 52.4638 55.1602 52.4638 54.2389V39.5176C52.4638 36.5427 51.6516 34.4313 48.341 34.4313C46.2249 34.4313 43.6227 35.57 41.9414 37.0291V54.2934C41.9414 55.2159 41.5614 55.6462 40.6411 55.6462H36.68C35.8662 55.6462 35.3774 55.2159 35.3774 54.3478V30.7141C35.3774 29.8477 35.7597 29.3613 36.7346 29.3613H40.2585C41.0174 29.3613 41.5085 29.5768 41.5611 30.3885L41.6147 31.8331C44.1117 29.8322 47.2577 28.6965 50.4039 28.6965C56.4788 28.6965 58.9732 32.4841 58.9732 38.3832V54.2389C58.9729 55.1602 58.6485 55.6465 57.6696 55.6465ZM77.001 21.97C77.001 19.7776 75.2211 18 73.0235 18C70.8272 18 69.0447 19.7776 69.0447 21.97C69.0447 24.1624 70.8275 25.938 73.0235 25.938C75.2211 25.938 77.001 24.1624 77.001 21.97ZM82.662 29.3547C83.3125 29.3547 83.6925 29.5702 83.6925 30.2747V34.0859C83.6925 34.735 83.2593 35.1141 82.6071 35.1141H76.3209V54.2934C76.3209 55.2677 75.8874 55.6462 74.9102 55.6462H71.1358C70.1593 55.6462 69.7264 55.2677 69.7264 54.2934V35.1141H63.4385C62.788 35.1141 62.3541 34.735 62.3541 34.0859V30.2747C62.3541 29.5702 62.7335 29.3547 63.3849 29.3547H82.662ZM144.311 21.97C144.311 19.7776 142.529 18 140.332 18C138.136 18 136.354 19.7776 136.354 21.97C136.354 24.1624 138.136 25.938 140.332 25.938C142.529 25.938 144.311 24.1624 144.311 21.97ZM149.972 29.3547C150.621 29.3547 151 29.5702 151 30.2747V34.0859C151 34.735 150.568 35.1141 149.915 35.1141H143.629V54.2934C143.629 55.2677 143.197 55.6462 142.219 55.6462H138.444C137.467 55.6462 137.035 55.2677 137.035 54.2934L137.033 35.1141H130.749C130.097 35.1141 129.662 34.735 129.662 34.0859V30.2747C129.662 29.5702 130.043 29.3547 130.692 29.3547H149.972Z" fill="white"/>
<path d="M304.047 30.8856H297.536V44.4055H301.494V39.6157H304.878C308.784 39.6157 311.113 37.699 311.113 35.1883C311.113 32.3991 309.058 30.8856 304.047 30.8856ZM307.159 35.1324C307.159 36.0265 306.668 37.3429 304.324 37.3429H301.494V33.1355H304.324C306.668 33.1355 307.159 34.2548 307.159 35.1324ZM425.706 33.7244C424.212 33.7244 422.861 34.2751 422.052 35.0255H422V30.8856H418.685V44.4055H422V37.2398C422.765 36.3355 423.835 36.015 424.714 36.015C427.087 36.015 427.125 37.5425 427.125 39.5457V44.4042H430.443V38.4519C430.443 36.1422 429.828 33.7244 425.706 33.7244ZM395.144 33.7244C393.648 33.7244 392.204 34.2726 391.406 35.0255H391.356V33.9432H388.089V44.4055H391.406V37.2398C392.169 36.3355 393.24 36.015 394.123 36.015C396.49 36.015 396.529 37.5425 396.529 39.5457V44.4042H399.849V38.4519C399.849 36.1397 399.263 33.7244 395.144 33.7244ZM416.223 41.816C415.29 42.05 413.86 42.382 411.913 42.382C408.436 42.382 406.351 40.4844 406.351 37.7041C406.351 34.9632 408.498 33.0287 411.569 32.9028C413.017 32.8481 414.289 33.0796 415.224 33.3212L416.655 31.2557C415.082 30.8398 413.149 30.6885 411.336 30.6885C405.652 30.6885 402.258 33.5667 402.258 37.7053C402.258 42.499 406.8 44.5467 411.365 44.6662C412.748 44.6993 414.637 44.5085 416.223 44.1499V41.816Z" fill="white"/>
<path d="M323.289 40.5063L319.861 30.8862H313.553V44.406H317.369V33.7006H317.594L321.498 44.406H325.077L328.976 33.7006H329.207V44.406H333.034V30.8862H326.749L323.289 40.5063Z" fill="white"/>
<path d="M348.755 39.1631C348.755 35.4404 345.791 33.5886 341.983 33.5886C338.18 33.5886 335.212 35.4404 335.212 39.1631C335.212 42.8719 338.18 44.7364 341.983 44.7364C345.791 44.7364 348.755 42.8719 348.755 39.1631ZM345.218 39.1631C345.218 41.207 344.171 42.5997 341.983 42.5997C339.804 42.5997 338.745 41.207 338.745 39.1631C338.745 37.118 339.804 35.7151 341.983 35.7151C344.171 35.7151 345.218 37.1167 345.218 39.1631ZM365.699 42.3034C363.774 42.3034 362.848 40.7491 362.848 39.1542C362.848 37.5606 363.601 35.869 365.817 35.869C367.769 35.869 368.651 37.3164 368.651 39.097C368.651 40.6118 367.863 42.3034 365.699 42.3034ZM368.788 33.9383V34.9418H368.736C368.018 34.227 366.892 33.7234 364.922 33.7234C361.067 33.7234 359.39 36.5469 359.39 39.1059C359.39 42.1202 361.114 44.3892 364.69 44.5126C366.514 44.5927 367.926 43.7864 368.588 43.1542H368.633V43.5943C368.633 45.2083 368.009 46.7778 364.756 46.7778C363.453 46.7778 362 46.5565 360.62 45.8862V48.3129C361.978 48.7695 363.489 48.9361 365.247 48.9361C370.647 48.9361 371.919 45.9867 371.919 43.1708V33.9383H368.788ZM382.217 41.5886C381.161 42.3975 380.082 42.634 379.13 42.6735C377.993 42.7091 377.207 42.3453 377.207 41.2604C377.207 39.9809 379.049 39.7647 381.074 39.7647H382.217V41.5886ZM385.43 37.8226C385.43 35.1313 383.768 33.7234 379.99 33.7234C378.755 33.7234 376.975 33.862 375.42 34.2805V36.3739C376.633 35.9339 378.081 35.7138 379.255 35.7138C380.932 35.7138 382.217 35.9301 382.217 38.0286H380.589C379.201 38.0286 377.293 38.1635 376.256 38.5107C375.051 38.9151 373.904 39.78 373.904 41.3062C373.904 43.766 376.04 44.6499 378.439 44.6499C380.214 44.6499 381.455 44.2519 382.365 43.3526H382.413V44.4032H385.43V37.8226ZM440.739 41.5886C439.68 42.3975 438.602 42.634 437.64 42.6735C436.511 42.7091 435.719 42.3453 435.719 41.2604C435.719 39.9809 437.563 39.7647 439.592 39.7647H440.739V41.5886ZM443.952 37.8226C443.952 35.1313 442.291 33.7234 438.501 33.7234C437.274 33.7234 435.498 33.862 433.935 34.2805V36.3739C435.152 35.9339 436.601 35.7138 437.773 35.7138C439.458 35.7138 440.739 35.9301 440.739 38.0286H439.117C437.724 38.0286 435.818 38.1635 434.769 38.5107C433.575 38.9151 432.426 39.78 432.426 41.3062C432.426 43.766 434.557 44.6499 436.956 44.6499C438.734 44.6499 439.982 44.2519 440.879 43.3526H440.931V44.4032H443.952V37.8226ZM290.277 30.8859V39.1072C290.277 40.9641 289.429 42.1024 287.542 42.1317C286.936 42.1444 285.648 42.1037 284.523 41.8544V44.4248C285.659 44.6016 287.041 44.6512 288.166 44.6512C291.924 44.6512 294.232 42.648 294.232 39.5536V30.8859H290.277ZM467.739 42.0286C466.48 42.386 465.607 42.5463 464.277 42.5463C462.128 42.5463 460.661 41.7387 460.487 40.0534H468.968C469.015 39.607 469.008 38.9507 468.962 38.4382C468.718 35.7863 467.101 33.7234 463.185 33.7234C459.17 33.7234 457.376 36.4108 457.376 39.27C457.376 43.1313 460.22 44.6499 464 44.6499C465.566 44.6499 466.656 44.4312 467.739 44.1463V42.0286ZM463.375 35.7011C464.953 35.7011 465.712 36.6118 465.953 37.6878C465.99 37.8595 466.01 38.0439 466.002 38.2003H460.487C460.623 36.8725 461.56 35.7011 463.375 35.7011ZM451.365 33.7247C448.825 33.7247 446.267 34.5361 446.267 36.9412C446.267 38.9914 447.976 39.6248 449.895 40.1437C451.938 40.6945 452.656 40.8394 452.697 41.5504C452.736 42.3034 451.999 42.6773 450.206 42.6773C449.061 42.6773 447.456 42.3835 446.414 41.9269V44.1399C448.128 44.5851 449.434 44.6512 450.629 44.6512C453.496 44.6512 456.064 43.8334 456.064 41.338C456.064 39.2903 454.604 38.5094 452.252 37.9612C450.532 37.5517 449.569 37.3851 449.569 36.6614C449.569 35.9173 450.437 35.6477 451.876 35.6477C452.947 35.6477 453.995 35.9173 454.714 36.1488L455.944 34.3784C454.773 34.0057 453.242 33.7247 451.365 33.7247ZM357.569 33.7247C356.158 33.7247 354.837 34.0922 354.019 35.5345H353.968V33.9447H350.809V44.407H354.243V39.2941C354.243 38.1991 354.425 37.5377 354.652 37.1574C355.031 36.524 355.495 36.1768 356.399 36.0407C356.854 35.9784 357.518 36.0331 357.987 36.3027L359.523 34.0922C358.884 33.8455 358.345 33.7247 357.569 33.7247ZM259.375 24C258.873 24 258.467 24.4184 258.467 24.9339V31.485H275.268L267.618 24H259.375ZM277.135 33.3294C277.135 32.8263 276.718 32.4206 276.202 32.4206H269.668V49.2618L277.132 41.5929L277.135 33.3294ZM266.896 50.1974C267.395 50.1974 267.801 49.7805 267.801 49.262V42.7124H251L258.65 50.1959L266.896 50.1974ZM251 40.8666C251 41.3697 251.416 41.7768 251.93 41.7768H258.467V24.9356L251 32.6053V40.8666" fill="white"/>
<path d="M580.035 32.1143C579.763 31.9527 579.011 31.5818 578.42 31.6066C577.807 31.6309 577.289 31.7571 576.805 32.0678C576.601 31.9285 576.537 31.6518 576.668 31.3286C576.799 31.0068 576.988 30.9597 576.988 30.9597L576.815 27.936C576.815 27.936 577.653 27.3309 577.879 27.2622C578.106 27.1935 578.209 27.013 578.209 26.7827C578.58 27.0385 579.128 27.605 579.421 28.0296C579.695 28.4221 579.854 28.8591 579.877 29.3451C579.9 29.8286 579.905 30.4062 579.808 31.0068C579.995 31.1683 580.172 31.3064 580.194 31.5595C580.217 31.8153 580.127 31.9063 580.035 32.1143ZM607.204 41.5299C607.171 40.9399 606.496 39.3482 606.088 39.0015L613.165 35.8183L607.204 41.5299ZM587.788 29.6356L593.778 35.1477C593.2 35.4781 592.332 36.3652 592.094 37.0907L587.788 29.6356ZM591.293 40.5539C591.088 40.8784 591.015 41.072 590.947 41.4632C590.877 41.857 590.929 42.0749 590.976 42.398L589.137 41.1119C589.16 40.6749 589.046 39.9625 589.017 39.5903C589.015 39.5491 589.002 39.4843 588.991 39.4287L591.293 40.5539Z" fill="white"/>
<path d="M581.172 41.0902C581.058 40.8822 580.535 29.6669 580.513 29.2763L581.104 28.838V28.7222C580.672 28.6993 580.171 28.5378 580.013 28.2826L579.854 24.8456C579.26 24.7991 578.651 24.6087 578.424 24.3791C578.141 24.09 577.92 23.7367 578.239 23.1133C578.534 23.322 579.398 23.5758 580.148 23.5758C580.308 23.5758 580.642 23.9382 580.832 24.0147C581.049 24.1017 581.414 24.3065 581.586 24.383C581.741 24.4517 581.837 24.8213 581.883 24.9594C581.928 25.0981 587.405 39.5221 587.497 39.683C587.589 39.8446 587.909 42.2664 587.929 42.4522C587.954 42.6367 588.772 44.5737 588.931 44.7595C588.203 44.7373 587.011 45.1599 586.032 46.1313C585.077 47.0779 584.231 49.1589 584.039 50.1185C583.971 49.6096 581.287 41.2976 581.172 41.0902ZM588.134 54.8888C587.896 57.1059 587.364 59.0298 586.564 60.4029C586.05 61.2874 584.606 63.0805 584.1 63.7569C584.648 62.6507 585.07 59.9777 585.035 57.9C585.012 56.5518 584.608 53.5752 584.96 51.6022C585.34 49.4853 585.932 48.2953 587.329 46.9909C588.042 46.3263 589.5 45.4758 591.582 46.0495L593.268 49.2629C592.366 49.0882 591.175 49.2446 590.38 49.8647C588.885 51.0285 588.382 52.5972 588.134 54.8888Z" fill="white"/>
<path d="M588.298 59.2588C588.708 58.3233 589.246 55.6575 589.397 54.7652C589.593 53.621 589.772 51.9503 591.117 50.8257C591.778 50.2736 592.862 50.201 593.294 50.3292L595.2 54.2647C595.37 54.6815 595.93 54.8293 596.305 54.8064C594.519 55.3945 590.018 57.5618 588.298 59.2588ZM604.509 46.6919C604.202 47.1773 604.312 47.6431 604.481 47.9683C604.675 48.3346 605.683 50.2245 605.683 50.2245C606.001 51.0808 606.249 51.512 606.552 52.0647C607.099 52.0647 607.69 52.0503 608.314 52.0647C607.648 50.5516 606.127 47.6268 606.127 47.6268L606.017 45.2671C605.574 45.538 604.815 46.2078 604.509 46.6919ZM596.387 34.1624C597.137 34.025 598.837 34.1833 599.382 34.4601L597.656 24.5486L596.387 34.1624ZM581.883 24.9594C581.837 24.8213 581.743 24.4517 581.586 24.383C581.415 24.3059 581.049 24.1004 580.832 24.0128C580.644 23.9375 580.308 23.5758 580.149 23.5758C579.398 23.5758 578.534 23.322 578.239 23.1133C577.92 23.7367 578.141 24.09 578.424 24.3791C578.651 24.6087 579.26 24.7965 579.854 24.8456L580.013 28.2826C580.171 28.5378 580.672 28.698 581.104 28.7203V28.8354L580.513 29.2763C580.535 29.6669 581.058 40.8822 581.173 41.0902C581.287 41.2976 583.971 49.6096 584.039 50.1166C584.231 49.1589 585.077 47.076 586.032 46.13C587.011 45.1599 588.203 44.7373 588.931 44.7595C588.772 44.5737 587.954 42.6367 587.929 42.4522C587.909 42.2664 587.589 39.8446 587.499 39.683C587.407 39.5215 581.928 25.0981 581.883 24.9594Z" fill="white"/>
<path d="M578.384 20.3693C579.932 20.3726 580.665 21.0248 581.027 21.3709C581.073 20.8403 580.991 20.3726 580.504 19.9722C580.099 19.6392 579.389 19.3449 578.297 19.3449C577.569 19.3449 576.838 19.562 576.382 19.9532C575.965 20.3124 575.896 20.7193 575.986 21.3198C576.123 20.8815 577.11 20.3641 578.384 20.3693ZM575.613 12.1358C575.579 12.7344 575.736 13.3591 576.009 13.7287C576.164 13.9387 576.533 14.3436 576.805 14.3279C577.193 14.3031 577.556 13.5521 578.465 13.5887C579.056 13.6116 579.443 14.4594 579.945 14.4882C580.332 14.5124 580.536 14.1199 580.928 14.0774C581.262 14.0414 581.378 14.2122 581.583 14.4195C581.72 14.0977 581.917 13.8779 582.424 13.4971C583.038 13.0346 585.132 12.5963 586.02 11.7891C586.465 11.3848 586.565 10.6377 586.425 10.1346C586.088 10.6148 585.155 11.1205 584.246 11.1663C583.79 11.1892 582.697 10.9851 582.31 10.7777C582.504 10.4408 582.568 10.0568 582.408 9.68652C582.112 9.91745 580.833 10.0437 580.332 10.0437C579.831 10.0437 578.855 9.83699 578.098 9.87951C576.437 9.96913 575.668 11.1663 575.613 12.1358Z" fill="white"/>
<path d="M578.48 19.2132C582.075 19.2832 583.698 20.967 583.745 22.3519C583.927 21.9352 583.903 21.544 583.88 21.0822C583.862 20.7145 583.313 19.6757 583.289 19.329C583.266 18.9822 583.357 18.7526 583.425 18.4288C583.198 18.4746 582.403 18.7984 582.061 18.521C581.694 18.224 581.948 17.4835 581.469 17.299C580.991 17.1119 580.241 17.6902 579.763 17.6215C579.285 17.5515 578.876 16.8843 578.377 16.8843C577.874 16.8843 577.624 17.5057 577.01 17.6444C576.536 17.7517 575.963 17.4626 575.682 17.4835C575.372 17.5057 575.186 17.7504 575.049 18.05C574.913 18.3516 574.802 18.4746 574.439 18.5662C574.15 18.6408 573.734 18.3837 573.529 18.4288C573.688 18.5904 573.767 19.2472 573.624 19.6292C573.442 20.1133 573.052 20.6223 573.005 21.2267C572.967 21.7605 573.142 22.0065 573.28 22.3977C573.187 20.4365 575.34 19.1523 578.48 19.2132ZM576.213 26.2051C575.964 26.2515 575.44 26.6676 575.186 27.1C575.26 27.3793 575.554 28.0296 575.845 28.2082C575.911 27.9072 576.237 27.4074 576.398 27.291C576.623 27.1268 576.851 27.0143 577.033 26.9227C577.214 26.8298 577.282 26.7376 577.282 26.5269C577.282 26.3215 577.256 26.224 577.165 26.016C577.345 25.9938 577.682 26.0219 577.798 25.859C577.911 25.6987 577.966 25.49 577.966 25.2833C577.966 25.0746 577.874 25.0282 577.67 25.0059C577.464 24.9837 576.868 24.9673 576.573 24.9909C576.573 24.9909 577.033 24.7521 577.169 24.6815C577.305 24.6147 577.352 24.4754 577.375 24.3596C577.396 24.2445 577.392 23.9841 577.329 23.6681C576.646 23.6904 575.44 24.3132 575.122 24.5899L575.372 25.2146L574.916 25.1957C574.849 25.5116 574.894 25.999 575.031 26.2751C575.44 26.2051 575.917 26.1828 576.213 26.2051ZM605.642 40.6631C605.559 40.2157 604.45 38.8752 602.559 37.423C601.086 36.2866 598.924 35.166 597.144 35.1765C594.141 35.1942 592.901 37.2856 592.675 38.3774C592.538 39.0375 592.571 39.7518 592.708 40.1437C592.231 40.5591 592.049 40.894 591.957 41.367C591.892 41.7078 591.957 42.1965 592.265 42.4974C592.231 42.0467 592.532 41.5253 592.777 41.1819C593.051 40.8005 593.506 40.6527 593.917 40.4001L593.985 41.2329C593.596 41.4593 593.115 41.9434 593.084 42.1965L593.115 43.5716L594.148 42.9475L594.347 43.3636L593.972 45.786L594.552 45.6813L595.609 46.1249L594.585 46.9963V47.3443C594.585 47.3443 594.741 47.1297 595.101 47.1461C595.462 47.1631 596.394 47.5857 596.394 47.5857L596.36 47.7957H595.951H594.552C594.483 48.0371 594.695 48.2235 594.832 48.3262C595.069 48.2582 595.317 48.1332 595.453 48.1332C595.587 48.1332 595.903 48.215 596.176 48.2497L595.849 48.6945C595.849 48.6945 595.68 48.8253 595.371 48.7625C595.2 48.7285 595.03 48.9706 595.03 49.1681C595.03 49.3781 595.162 49.8975 595.162 49.8975C595.33 50.6773 596.115 50.5184 596.215 50.5105C596.714 50.4667 598.339 49.8714 598.339 49.8714L596.777 52.0923L597.46 54.4677C598.49 54.0379 601.568 52.9277 604.912 52.3723C604.547 51.7574 604.487 51.5121 604.038 50.5969L602.333 46.6168L602.572 46.0287C602.947 46.1667 603.526 45.8894 603.902 45.5786C604.278 45.2672 604.721 44.7125 604.891 44.3658C604.653 44.2291 604.45 44.2611 604.243 44.4018C604.038 44.5411 603.879 44.8074 603.595 44.6778C603.287 44.5411 603.438 44.1996 603.471 43.8869C603.506 43.5768 603.117 43.5716 602.845 43.8117C602.572 44.0537 601.991 43.951 601.615 43.5716C601.24 43.1896 599.433 41.666 598.784 41.2879C597.851 40.7436 596.6 40.6042 595.678 40.773C595.14 40.8698 594.756 41.1119 594.552 41.0085L593.876 39.9494L593.985 39.8814C594.223 39.9854 594.448 40.1784 594.756 40.075C595.062 39.971 596.051 39.742 596.94 39.7296C598.307 39.7061 599.967 40.2124 600.695 40.5264C600.728 41.4252 602.514 42.5674 603.322 42.6708C604.004 42.7572 604.416 42.5674 604.824 42.3241L603.083 40.773L604.005 39.5903C604.005 39.5903 605.473 41.0085 605.678 41.2879C605.744 41.1243 605.678 40.8548 605.642 40.6631ZM595.168 42.4634C595.168 42.4634 595.916 42.0264 596.623 41.8734C597.664 41.6477 598.817 42.2822 599.636 42.9338L599.48 43.1843L598.307 43.4656C598.078 43.2596 597.646 43.1673 597.179 43.1896C596.765 43.2105 596.429 43.3636 596.429 43.3636L596.661 43.743L596.121 43.8817C595.883 43.5716 595.507 43.1896 595.168 43.0862V42.4634ZM593.391 39.7296C593.084 38.6842 593.904 37.6513 594.278 37.2725L594.858 38.6214C594.416 38.8641 593.733 39.392 593.391 39.7296ZM598.784 38.5521C598.237 38.1713 596.429 38.24 595.678 38.4134L595.131 36.8192C595.543 36.5091 596.327 36.301 597.043 36.301C597.76 36.301 598.544 36.4764 599.09 36.7524L598.784 38.5521ZM602.333 40.1849C601.582 39.6949 600.113 38.9681 599.671 38.8281L600.318 37.1332C600.865 37.4112 602.879 38.6548 603.186 38.9681L602.333 40.1849ZM602.1 35.6783C602.775 35.921 604.203 37.139 604.545 37.4158L608.161 29.5957L602.1 35.6783ZM624.435 40.2268C624.435 41.4298 624.931 41.806 626.711 41.806C628.49 41.806 629.305 41.2558 630.469 38.8209H630.888L630.469 42.6348H619.416V42.2083C621.072 41.7818 621.245 41.4043 621.245 39.8245V30.4435C621.245 29.1397 620.924 28.7642 619.416 28.3868V27.9602H626.265V28.3868C624.831 28.7642 624.435 29.0638 624.435 30.3441V40.2268ZM635.538 40.6016C635.538 41.5548 636.008 42.082 637.046 42.2083V42.6348H631.184V42.2083C632.444 41.9564 632.743 41.6051 632.743 40.4021V35.3597C632.743 34.2057 632.421 33.8806 631.06 33.6032V33.1767L635.116 32.8267H635.538V40.6016ZM634.153 26.9325C635.043 26.9325 635.76 27.66 635.76 28.5621C635.76 29.4662 635.043 30.2191 634.153 30.2191C633.262 30.2191 632.52 29.4662 632.52 28.5621C632.52 27.66 633.262 26.9325 634.153 26.9325ZM641.621 35.2092C642.561 34.3306 643.054 34.0807 643.797 34.0807C645.452 34.0807 646.565 35.6861 646.565 37.9941C646.565 41.0785 645.181 42.3326 643.106 42.3326C641.99 42.3326 641.621 41.8302 641.621 40.7534V35.2092ZM641.621 26.9325H641.199L637.417 27.2086V27.6357C638.283 27.7862 638.826 28.2369 638.826 29.0396V42.6348C640.236 42.9096 641.621 43.009 643.376 43.009C647.927 43.009 649.656 40.6016 649.656 37.6912C649.656 34.9325 647.729 32.8018 645.207 32.8018C643.871 32.8018 642.732 33.3533 641.621 34.5334V26.9325ZM653.761 36.4881C653.835 34.6819 654.601 33.4789 655.74 33.4789C656.876 33.4789 657.717 34.733 657.816 36.4881H653.761ZM660.833 37.0651C660.487 34.4582 658.584 32.8018 655.937 32.8018C652.995 32.8018 650.744 35.0326 650.744 37.9685C650.744 40.8528 652.92 43.009 655.838 43.009C658.088 43.009 659.991 41.7556 660.833 39.7237H660.413C659.522 41.1034 658.434 41.7818 657.074 41.7818C655.344 41.7818 653.613 40.1744 653.761 37.0651H660.833ZM669.784 36.4633C668.968 35.6612 668.325 35.2347 667.682 35.2347C666.842 35.2347 666.321 35.5854 665.606 36.5882V40.4512C665.606 41.5809 665.827 41.9303 667.186 42.2083V42.6348H661.253V42.2083C662.491 41.9061 662.81 41.5299 662.81 40.4512V35.4598C662.81 34.2554 662.293 33.7039 661.106 33.6032V33.1767L665.184 32.8018H665.606V35.8117H665.654C666.569 33.7537 667.583 32.8018 668.747 32.8018C669.363 32.8018 669.957 33.0785 670.402 33.6032L669.784 36.4633ZM685.532 33.1767V33.6032C686.72 33.8537 686.991 34.6067 686.152 36.6144L684.864 39.6485L682.887 35.5108C682.316 34.3064 682.316 33.7537 683.38 33.6032V33.1767H675.119V29.5159H674.648C673.336 31.222 671.804 32.7272 670.642 33.454V33.9309H672.323V40.0017C672.323 42.1579 673.733 43.009 675.488 43.009C676.874 43.009 677.79 42.5079 678.48 41.3271L678.184 41.0524C677.739 41.5809 677.317 41.806 676.825 41.806C675.514 41.806 675.119 40.9039 675.119 39.3718V33.9309H677.619C678.978 33.9309 679.375 34.4327 679.968 35.7123L683.38 43.009C682.242 46.1196 681.254 47.3737 679.523 47.3737C679.151 47.3737 678.854 47.3489 678.261 47.148L677.692 50.0075C678.041 50.0578 678.237 50.0578 678.484 50.0578C680.413 50.0578 681.476 49.229 682.466 46.9223L687.163 36.0367C687.93 34.2809 688.227 33.9309 689.413 33.6032V33.1767H685.532ZM637.681 59.6494C637.854 60.9277 638.474 61.6545 639.882 61.9293V62.3558H632.735V61.9293C634.317 61.5296 634.59 60.6039 634.317 58.6982L633.131 50.3175H633.081L628.384 62.3558H627.863L623.214 50.3175H623.166L621.906 58.9468C621.657 60.6529 621.978 61.8056 623.611 61.9293V62.3558H618.37V61.9293C619.926 61.858 620.594 60.9519 620.94 58.6982L622.375 49.1145C621.806 48.5126 621.014 48.1371 620.273 48.111V47.6844H625.49L629.273 57.3663L633.105 47.6844H638.003V48.111C636.519 48.389 636.172 49.1387 636.37 50.4942L637.681 59.6494ZM641.017 54.9596C641.017 53.9051 640.671 53.5296 639.557 53.3287V52.9015L643.391 52.5241H643.811V59.497C643.811 60.6268 644.528 61.1534 645.544 61.1534C646.482 61.1534 647.05 60.7524 647.867 59.4466V54.7326C647.867 53.9548 647.371 53.5047 646.407 53.3287V52.9015L650.24 52.5241H650.661V60.0498C650.661 61.3032 650.909 61.6041 652.147 61.9293V62.3558L647.867 62.7326V60.4273H647.818C646.78 62.0307 645.616 62.7326 644.108 62.7326C642.181 62.7326 641.017 61.6545 641.017 59.849V54.9596ZM654.296 53.6539H652.614V53.1776C653.775 52.4508 655.31 50.9449 656.618 49.2407H657.091V52.9015H660.156V53.6539H657.091V59.0966C657.091 60.6268 657.485 61.5295 658.796 61.5295C659.289 61.5295 659.711 61.3032 660.156 60.7766L660.452 61.0533C659.76 62.2321 658.846 62.7326 657.459 62.7326C655.704 62.7326 654.296 61.8822 654.296 59.7227V53.6539ZM661.961 54.9596C661.961 53.9051 661.615 53.5296 660.501 53.3287V52.9015L664.334 52.5241H664.756V59.497C664.756 60.6268 665.472 61.1534 666.484 61.1534C667.425 61.1534 667.994 60.7524 668.81 59.4466V54.7326C668.81 53.9548 668.315 53.5047 667.351 53.3287V52.9015L671.183 52.5241H671.604V60.0498C671.604 61.3032 671.853 61.6041 673.089 61.9293V62.3558L668.81 62.7326V60.4273H668.761C667.722 62.0307 666.56 62.7326 665.05 62.7326C663.123 62.7326 661.961 61.6545 661.961 59.849V54.9596ZM679.468 60.7282C678.824 61.3804 678.28 61.7055 677.712 61.7055C676.945 61.7055 676.426 61.0271 676.426 60.0007C676.426 58.7225 677.141 58.1442 679.468 57.1406V60.7282ZM682.285 56.0612C682.285 53.4524 680.184 52.5241 678.18 52.5241C676.005 52.5241 674.496 53.7042 674.002 55.7361H674.375C674.966 54.6816 675.906 54.1569 677.167 54.1569C678.849 54.1569 679.492 54.9596 679.492 56.6402C677.217 57.4919 673.509 57.6928 673.509 60.2513C673.509 61.6303 674.769 62.7326 676.304 62.7326C677.439 62.7326 678.304 62.4578 679.244 61.6041L679.468 61.4046C679.936 62.3558 680.58 62.7326 681.716 62.7326C683.078 62.7326 683.894 62.0817 683.992 60.9035H683.597C683.497 61.4805 683.251 61.7794 682.855 61.7794C682.435 61.7794 682.285 61.4046 682.285 60.5273V56.0612ZM685.921 49.2407C685.921 47.9108 685.499 47.4339 684.164 47.3593V46.9334L688.295 46.6554H688.715V60.0498C688.715 61.3032 688.988 61.6041 690.37 61.9293V62.3558H684.164V61.9293C685.527 61.7055 685.921 61.2548 685.921 60.0498V49.2407Z" fill="white"/>
<path d="M690.714 62.3965H691.44V64.3137H691.731V62.3965H692.456V62.1353H690.714V62.3965Z" fill="white"/>
<path d="M694.721 64.3132V63.0271C694.721 62.9636 694.725 62.6875 694.725 62.4828H694.721L694.116 64.3132H693.828L693.225 62.4861H693.218C693.218 62.6875 693.225 62.9636 693.225 63.0271V64.3132H692.943V62.1348H693.359L693.973 63.9769H693.977L694.589 62.1348H695.001V64.3132H694.721Z" fill="white"/>
<path d="M972.243 46.1626C970.814 45.407 970.592 43.2719 970.624 38.0832L970.656 30.1288L967.945 30.124L968.554 28.6502H970.656V24.8836L975.693 23L975.691 28.525L978 28.5287L977.392 30.1608L975.693 30.1581L975.684 43.9251C975.794 45.0338 976.163 45.6864 976.689 46.1626H972.243ZM845.618 32.6266C846.13 34.0445 847.29 35.5088 846.465 37.1515C846.064 38.8176 844.505 40.1685 842.857 40.4387C841.142 40.597 839.494 40.3045 838.224 39.2459C837.31 34.4273 839.248 29.9689 843.013 27.3124L845.618 32.6266Z" fill="white"/>
<path d="M852.267 47.3062C851.409 50.2214 842.891 48.3073 840.217 43.5236C843.725 43.9178 847.68 40.7768 847.746 37.1978L852.267 47.3062ZM855.753 46.9289C856.143 46.7545 856.927 46.3598 857.122 45.5168L847.957 25.4216C847.344 25.3421 846.9 25.2862 846.12 25.8483L855.753 46.9289ZM859.873 42.5669C863.771 36.6003 860.486 26.8068 852.088 25.4324L859.873 42.5669ZM932.818 29.2655C933.738 28.4831 935.363 28.4634 936.415 28.9679C936.857 29.1907 937.28 29.4902 937.56 29.8813L935.528 33.0703C935.271 32.8655 935.086 32.7721 934.754 32.6045C933.748 32.1664 932.687 32.4227 932.079 32.9771V42.2842C932.066 43.8926 932.342 45.361 933.168 46.1254H928.556C927.596 45.3797 927.357 44.1855 927.264 43.1414L927.226 30.7674C927.269 29.7652 927.015 29.3224 926.617 28.7629L931.396 28.7807C931.783 29.0607 931.802 29.5465 932.004 29.9198L932.818 29.2655ZM938.647 32.3245C938.61 31.1489 938.869 29.7418 938.108 28.7257H942.54C942.835 28.9494 943.002 29.3224 943.093 29.6766C943.333 29.9935 943.315 30.4411 943.426 30.8143L943.463 43.9992C943.647 44.783 943.942 45.5754 944.515 46.1902L939.772 46.2004C938.222 44.6852 938.73 42.1905 938.61 39.6161L938.647 32.3245ZM950.27 41.7803C950.491 42.6009 950.917 43.608 951.894 43.7202C952.466 43.7381 952.89 43.2533 953.22 42.8435C954.255 40.791 954.107 38.5527 954.107 36.2229C953.776 34.4878 954.181 32.1203 952.336 31.0563C951.69 30.8137 951.192 31.2613 950.787 31.671C950.066 32.7714 949.984 34.0303 949.938 35.4304C949.699 37.6673 949.957 39.5233 950.27 41.7803ZM945.659 32.4553C946.138 31.1125 947.632 30.4402 948.719 29.7143C950.381 29.0983 952.207 27.5694 954.069 28.8185C955.62 29.8443 956.985 31 957.963 32.5864C958.204 33.2011 958.314 33.8905 958.48 34.5437C958.48 35.4206 958.664 36.0732 958.646 36.9495C958.702 37.9015 958.702 38.7595 958.646 39.6917C958.592 41.2756 957.853 42.6938 956.617 43.7931C954.772 45.4534 952.448 47.3381 949.938 46.0512C947.687 44.9869 945.029 42.8809 945.197 39.9902C945.105 37.9381 945.011 36.1664 945.289 34.1705C945.399 33.5922 945.343 32.9583 945.659 32.4553ZM961.93 46.1626C960.5 45.407 960.278 43.2719 960.311 38.0832L960.343 30.1288L957.631 30.124L958.241 28.6502H960.343V24.8836L965.381 23L965.377 28.525L967.687 28.5287L967.077 30.1608L965.381 30.1581L965.372 43.9251C965.482 45.0338 965.85 45.6864 966.377 46.1626H961.93ZM915.88 30.7675C915.849 29.7628 915.669 29.3225 915.271 28.7628L920.049 28.7808C920.437 29.0606 920.454 29.5464 920.659 29.9197L921.471 29.2656C922.392 28.483 924.016 28.4633 925.069 28.9678C925.511 29.1906 925.935 29.4903 926.213 29.8814L924.184 33.0704C923.925 32.8656 923.739 32.772 923.408 32.6043C922.402 32.1663 921.341 32.4228 920.733 32.977V42.2841C920.72 43.8925 920.996 45.3611 921.822 46.1252H917.208C916.249 45.3798 915.976 44.2676 915.918 43.1413L915.88 30.7675ZM879.737 35.6628L877.992 39.2736C876.806 41.4052 875.141 44.0172 872.59 44.6662C871.602 45.0158 870.73 44.7009 869.774 44.633L866.695 49.726C866.926 49.9764 867.252 50.1862 867.568 50.3092C872.985 52.3988 875.167 50.1509 880.502 37.967L885.541 48.8198H892.252L889.081 41.4955L890.877 37.7094L895.833 48.6526L902.255 48.6943L891.015 23.7268L885.839 26.3282L889.897 35.6441L888.118 39.307L880.683 23.0817L875.229 25.8904L879.737 35.6628ZM908.832 36.5489C908.795 35.849 908.298 35.7746 907.947 35.7746C906.803 35.9426 905.819 36.9107 905.272 37.901C904.783 38.7864 904.668 39.5329 904.625 40.307C904.622 41.1415 904.571 41.7611 904.903 42.3952C905.087 42.8064 905.493 42.9927 905.881 43.1043C906.618 43.2528 907.301 43.048 907.873 42.6565C909.22 41.8924 908.979 40.362 908.999 39.0016L908.832 36.5489ZM900.364 40.0638C900.492 38.2558 901.471 36.5572 903.131 35.6442C904.774 34.6186 906.693 34.2075 908.389 33.313C908.684 33.0704 909.054 32.7719 909.072 32.3808C909.091 31.8961 908.851 31.5228 908.426 31.3552C905.844 30.7957 903.703 32.4373 901.822 34.059C902.062 32.8656 902.246 31.56 902.8 30.4409C903.075 30.1427 903.242 29.7317 903.611 29.5082C905.437 28.5947 907.725 28.3341 909.773 28.4826C911.452 28.5947 913.002 29.8064 913.575 31.3552C913.869 32.0826 913.85 32.9032 913.907 33.648L913.926 43.7573C913.943 44.6331 914.349 45.4539 914.864 46.1632H910.086C909.515 45.6409 909.233 44.9879 909.072 44.1673C907.736 45.3611 904.943 47.1326 903.279 45.9584C901.554 45.174 899.976 42.5445 900.364 40.0638Z" fill="white"/>
</svg>
