<svg version="1.1" id="Layer_1" xmlns="http://www.w3.org/2000/svg" x="0" y="0" viewBox="0 0 1000 75" xml:space="preserve"><style>.st0{fill:#fff}</style><path class="st0" d="M110.3 54.6h-3.5c-.7 0-1.2-.4-1.3-1.1l-.1-1.4c-2.5 2-5.5 3.1-8.6 3.1-6.1 0-8.6-3.8-8.6-9.7v-16c0-.9.5-1.2 1.4-1.2h3.8c.9 0 1.4.3 1.4 1.2v14.9c0 3 .8 5 4 5 2.1 0 4.7-1.1 6.3-2.6V29.6c0-.9.5-1.2 1.4-1.2h3.9c.9 0 1.4.3 1.4 1.2v23.5c-.1 1.2-.4 1.5-1.5 1.5zM22 29.4c0-.6.3-1.1 1-1.1h4.6c.7 0 1 .4 1 1.1v23.9c0 1-.4 1.4-1.4 1.4h-3.8c-1 0-1.4-.4-1.4-1.4V29.4zm96.5 0c0-.6.3-1.1 1-1.1h4.6c.7 0 1 .4 1 1.1v23.9c0 1-.4 1.4-1.4 1.4h-3.8c-1 0-1.4-.4-1.4-1.4V29.4zM57.7 54.6h-3.9c-1 0-1.3-.5-1.3-1.4V38.5c0-3-.8-5.1-4.1-5.1-2.1 0-4.7 1.1-6.4 2.6v17.3c0 .9-.4 1.4-1.3 1.4h-4c-.8 0-1.3-.4-1.3-1.3V29.7c0-.9.4-1.4 1.4-1.4h3.5c.8 0 1.2.2 1.3 1l.1 1.4c2.5-2 5.6-3.1 8.8-3.1 6.1 0 8.6 3.8 8.6 9.7v15.9c-.1 1-.5 1.4-1.4 1.4zM77 21c0-2.2-1.8-4-4-4s-4 1.8-4 4 1.8 4 4 4c2.2-.1 4-1.8 4-4zm5.7 7.4c.7 0 1 .2 1 .9v3.8c0 .6-.4 1-1.1 1h-6.3v19.2c0 1-.4 1.4-1.4 1.4h-3.8c-1 0-1.4-.4-1.4-1.4V34.1h-6.3c-.7 0-1.1-.4-1.1-1v-3.8c0-.7.4-.9 1-.9h19.4zm61.6-7.4c0-2.2-1.8-4-4-4s-4 1.8-4 4 1.8 4 4 4c2.2-.1 4-1.8 4-4zm5.7 7.4c.6 0 1 .2 1 .9v3.8c0 .6-.4 1-1.1 1h-6.3v19.2c0 1-.4 1.4-1.4 1.4h-3.8c-1 0-1.4-.4-1.4-1.4V34.1h-6.3c-.7 0-1.1-.4-1.1-1v-3.8c0-.7.4-.9 1-.9H150zM332 33.9h-6.5v13.5h4v-4.8h3.4c3.9 0 6.2-1.9 6.2-4.4 0-2.8-2-4.3-7.1-4.3zm3.2 4.2c0 .9-.5 2.2-2.8 2.2h-2.8v-4.2h2.8c2.3 0 2.8 1.2 2.8 2zm118.5-1.4c-1.5 0-2.8.6-3.7 1.3v-4.1h-3.3v13.5h3.3v-7.2c.8-.9 1.8-1.2 2.7-1.2 2.4 0 2.4 1.5 2.4 3.5v4.9h3.3v-6c0-2.3-.6-4.7-4.7-4.7zm-30.6 0c-1.5 0-2.9.5-3.7 1.3h-.1v-1.1H416v10.5h3.3v-7.2c.8-.9 1.8-1.2 2.7-1.2 2.4 0 2.4 1.5 2.4 3.5v4.9h3.3v-6c.1-2.3-.4-4.7-4.6-4.7zm21.1 8.1c-.9.2-2.4.6-4.3.6-3.5 0-5.6-1.9-5.6-4.7 0-2.7 2.1-4.7 5.2-4.8 1.4-.1 2.7.2 3.7.4l1.4-2.1c-1.6-.4-3.5-.6-5.3-.6-5.7 0-9.1 2.9-9.1 7 0 4.8 4.5 6.8 9.1 7 1.4 0 3.3-.2 4.9-.5v-2.3zM351.3 43.5l-3.4-9.6h-6.3v13.5h3.8V36.7h.2l3.9 10.7h3.6l3.9-10.7h.2v10.7h3.8V33.9h-6.3l-3.4 9.6zM376.8 42.2c0-3.7-3-5.6-6.8-5.6s-6.8 1.9-6.8 5.6c0 3.7 3 5.6 6.8 5.6 3.8-.1 6.8-1.9 6.8-5.6zm-3.6 0c0 2-1 3.4-3.2 3.4s-3.2-1.4-3.2-3.4 1.1-3.4 3.2-3.4c2.2-.1 3.2 1.3 3.2 3.4zm20.5 3.1c-1.9 0-2.9-1.6-2.9-3.1 0-1.6.8-3.3 3-3.3 2 0 2.8 1.4 2.8 3.2.1 1.5-.7 3.2-2.9 3.2zm3.1-8.4v1h-.1c-.7-.7-1.8-1.2-3.8-1.2-3.9 0-5.5 2.8-5.5 5.4 0 3 1.7 5.3 5.3 5.4 1.8.1 3.2-.7 3.9-1.4v.4c0 1.6-.6 3.2-3.9 3.2-1.3 0-2.8-.2-4.1-.9v2.4c1.4.5 2.9.6 4.6.6 5.4 0 6.7-2.9 6.7-5.8v-9.2h-3.1zm13.4 7.7c-1.1.8-2.1 1-3.1 1.1-1.1 0-1.9-.3-1.9-1.4 0-1.3 1.8-1.5 3.9-1.5h1.1v1.8zm3.2-3.8c0-2.7-1.7-4.1-5.4-4.1-1.2 0-3 .1-4.6.6v2.1c1.2-.4 2.7-.7 3.8-.7 1.7 0 3 .2 3 2.3h-1.6c-1.4 0-3.3.1-4.3.5-1.2.4-2.4 1.3-2.4 2.8 0 2.5 2.1 3.3 4.5 3.3 1.8 0 3-.4 3.9-1.3v1.1h3v-6.6zm55.3 3.8c-1.1.8-2.1 1-3.1 1.1-1.1 0-1.9-.3-1.9-1.4 0-1.3 1.8-1.5 3.9-1.5h1.1v1.8zm3.3-3.8c0-2.7-1.7-4.1-5.5-4.1-1.2 0-3 .1-4.6.6v2.1c1.2-.4 2.7-.7 3.8-.7 1.7 0 3 .2 3 2.3h-1.6c-1.4 0-3.3.1-4.3.5-1.2.4-2.3 1.3-2.3 2.8 0 2.5 2.1 3.3 4.5 3.3 1.8 0 3-.4 3.9-1.3h.1v1.1h3v-6.6zm-153.7-6.9v8.2c0 1.9-.8 3-2.7 3-.6 0-1.9 0-3-.3v2.6c1.1.2 2.5.2 3.6.2 3.8 0 6.1-2 6.1-5.1v-8.7h-4zM495.7 45c-1.3.4-2.1.5-3.5.5-2.1 0-3.6-.8-3.8-2.5h8.5v-1.6c-.2-2.7-1.9-4.7-5.8-4.7-4 0-5.8 2.7-5.8 5.5 0 3.9 2.8 5.4 6.6 5.4 1.6 0 2.7-.2 3.7-.5V45zm-4.3-6.3c1.6 0 2.3.9 2.6 2 0 .2.1.4 0 .5h-5.5c.1-1.3 1.1-2.5 2.9-2.5zm-12-2c-2.5 0-5.1.8-5.1 3.2 0 2.1 1.7 2.7 3.6 3.2 2 .6 2.8.7 2.8 1.4 0 .8-.7 1.1-2.5 1.1-1.1 0-2.8-.3-3.8-.8V47c1.7.4 3 .5 4.2.5 2.9 0 5.4-.8 5.4-3.3 0-2-1.5-2.8-3.8-3.4-1.7-.4-2.7-.6-2.7-1.3 0-.7.9-1 2.3-1 1.1 0 2.1.3 2.8.5l1.2-1.8c-1-.2-2.6-.5-4.4-.5zm-93.8 0c-1.4 0-2.7.4-3.5 1.8h-.1v-1.6h-3.2v10.5h3.4v-5.1c0-1.1.2-1.8.4-2.1.4-.6.8-1 1.7-1.1.5-.1 1.1 0 1.6.3l1.5-2.2c-.5-.4-1.1-.5-1.8-.5zM287.4 27c-.5 0-.9.4-.9.9v6.6h16.8l-7.6-7.5h-8.3zm17.7 9.3c0-.5-.4-.9-.9-.9h-6.5v16.8l7.5-7.7-.1-8.2zm-10.2 16.9c.5 0 .9-.4.9-.9v-6.5H279l7.6 7.5 8.3-.1zM279 43.9c0 .5.4.9.9.9h6.5V27.9l-7.5 7.7v8.3M615.5 29.4c-.3-.1-.9-.5-1.5-.5s-1 .1-1.5.4c-.2-.1-.2-.4-.1-.7.1-.3.3-.3.3-.3l-.2-2.8s.8-.6 1-.6c.2-.1.3-.2.3-.4.3.2.8.8 1.1 1.1.3.4.4.8.4 1.2 0 .4 0 1-.1 1.5.2.1.3.3.4.5.1.3 0 .4-.1.6zm25 8.6c0-.5-.7-2-1-2.3l6.5-2.9-5.5 5.2zm-17.9-10.9l5.5 5.1c-.5.3-1.3 1.1-1.6 1.8l-3.9-6.9zm3.3 10c-.2.3-.3.5-.3.8-.1.4 0 .6 0 .9l-1.7-1.2c0-.4-.1-1.1-.1-1.4v-.1l2.1 1z"/><path class="st0" d="M616.5 37.6c-.1-.2-.6-10.5-.6-10.9l.5-.4v-.1c-.4 0-.9-.2-1-.4l-.1-3.2c-.5 0-1.1-.2-1.3-.4-.3-.3-.5-.6-.2-1.2.3.2 1.1.4 1.8.4.1 0 .5.3.6.4.2.1.5.3.7.3.1.1.2.4.3.5 0 .1 5.1 13.4 5.2 13.6.1.1.4 2.4.4 2.6 0 .2.8 2 .9 2.1-.7 0-1.8.4-2.7 1.3-.9.9-1.7 2.8-1.8 3.7-.1-.4-2.6-8.1-2.7-8.3zm6.5 12.8c-.2 2-.7 3.8-1.4 5.1-.5.8-1.8 2.5-2.3 3.1.5-1 .9-3.5.9-5.4 0-1.2-.4-4-.1-5.8.4-2 .9-3 2.2-4.3.7-.6 2-1.4 3.9-.9l1.6 3c-.8-.2-1.9 0-2.7.6-1.5 1-1.9 2.4-2.1 4.6z"/><path class="st0" d="M623.1 54.4c.4-.9.9-3.3 1-4.1.2-1.1.3-2.6 1.6-3.6.6-.5 1.6-.6 2-.5l1.8 3.6c.2.4.7.5 1 .5-1.7.5-5.8 2.5-7.4 4.1zM638 42.8c-.3.4-.2.9 0 1.2.2.3 1.1 2.1 1.1 2.1.3.8.5 1.2.8 1.7h1.6c-.6-1.4-2-4.1-2-4.1l-.1-2.2c-.4.2-1.1.9-1.4 1.3zm-7.4-11.6c.7-.1 2.3 0 2.8.3l-1.6-9.1-1.2 8.8zm-13.4-8.4c0-.1-.1-.5-.3-.5-.2-.1-.5-.3-.7-.3-.2-.1-.5-.4-.6-.4-.7 0-1.5-.2-1.8-.4-.3.6-.1.9.2 1.2.2.2.8.4 1.3.4l.1 3.2c.1.2.6.4 1 .4v.1l-.5.4c0 .4.5 10.7.6 10.9.1.2 2.6 7.9 2.6 8.3.2-.9 1-2.8 1.8-3.7.9-.9 2-1.3 2.7-1.3-.1-.2-.9-2-.9-2.1 0-.2-.3-2.4-.4-2.6 0-.2-5.1-13.5-5.1-13.6zM614 18.5c1.4 0 2.1.6 2.4.9 0-.5 0-.9-.5-1.3-.4-.3-1-.6-2-.6-.7 0-1.3.2-1.8.6-.4.3-.4.7-.4 1.3.2-.4 1.1-.9 2.3-.9zm-2.6-7.6c0 .6.1 1.1.4 1.5.1.2.5.6.7.6.4 0 .7-.7 1.5-.7.5 0 .9.8 1.4.8.4 0 .5-.3.9-.4.3 0 .4.1.6.3.1-.3.3-.5.8-.9.6-.4 2.5-.8 3.3-1.6.4-.4.5-1.1.4-1.5-.3.4-1.2.9-2 1-.4 0-1.4-.2-1.8-.4.2-.3.2-.7.1-1-.3.2-1.5.3-1.9.3-.5 0-1.4-.2-2.1-.2-1.5.2-2.2 1.4-2.3 2.2z"/><path class="st0" d="M614.1 17.5c3.3.1 4.8 1.6 4.9 2.9.2-.4.1-.7.1-1.2 0-.3-.5-1.3-.5-1.6 0-.3.1-.5.1-.8-.2 0-.9.3-1.3.1-.3-.3-.1-1-.5-1.1-.4-.2-1.1.4-1.6.3-.4-.1-.8-.7-1.3-.7s-.7.6-1.3.7c-.4.1-1-.2-1.2-.1-.3 0-.5.2-.6.5-.1.3-.2.4-.6.5-.3.1-.6-.2-.8-.1.1.1.2.8.1 1.1-.2.4-.5.9-.6 1.5 0 .5.1.7.3 1.1-.1-2 1.9-3.2 4.8-3.1zm-2.1 6.4c-.2 0-.7.4-.9.8.1.3.3.9.6 1 .1-.3.4-.7.5-.8.2-.2.4-.3.6-.3.2-.1.2-.2.2-.4s0-.3-.1-.5c.2 0 .5 0 .6-.1.1-.1.2-.3.2-.5s-.1-.2-.3-.3h-1s.4-.2.5-.3c.1-.1.2-.2.2-.3v-.6c-.6 0-1.7.6-2 .8l.2.6h-.4c-.1.3 0 .7.1 1 .2-.1.7-.1 1-.1zm27.1 13.3c-.1-.4-1.1-1.6-2.8-3-1.4-1-3.4-2.1-5-2.1-2.8 0-3.9 1.9-4.1 3-.1.6-.1 1.3 0 1.6-.4.4-.6.7-.7 1.1-.1.3 0 .8.3 1 0-.4.2-.9.5-1.2.3-.4.7-.5 1.1-.7l.1.8c-.4.2-.8.7-.8.9v1.3l1-.6.2.4-.3 2.2.5-.1 1 .4-.9.8v.3s.1-.2.5-.2c.3 0 1.2.4 1.2.4v.2H629.2c-.1.2.1.4.3.5.2-.1.4-.2.6-.2.1 0 .4.1.7.1l-.3.4s-.2.1-.4.1-.3.2-.3.4.1.7.1.7c.2.7.9.6 1 .6.5 0 2-.6 2-.6l-1.4 2 .6 2.2c.9-.4 3.8-1.4 6.9-1.9l-.8-1.6-1.6-3.7.2-.5c.3.1.9-.1 1.2-.4.3-.3.8-.8.9-1.1-.2-.1-.4-.1-.6 0-.2.1-.3.4-.6.3-.3-.1-.1-.4-.1-.7 0-.3-.3-.3-.6-.1-.3.2-.8.1-1.1-.2-.3-.4-2-1.8-2.6-2.1-.9-.5-2-.6-2.9-.5-.5.1-.8.3-1 .2l-.6-1 .1-.1c.2.1.4.3.7.2.3-.1 1.2-.3 2-.3 1.3 0 2.8.4 3.5.7 0 .8 1.7 1.9 2.4 2 .6.1 1-.1 1.4-.3l-1.6-1.4.8-1.1s1.4 1.3 1.5 1.6c-.4-.2-.5-.5-.5-.7zm-9.7 1.7s.7-.4 1.3-.5c1-.2 2 .4 2.8 1l-.1.2-1.1.3c-.2-.2-.6-.3-1-.3s-.7.2-.7.2l.2.3-.5.1c-.2-.3-.6-.6-.9-.7v-.6zm-1.6-2.5c-.3-1 .5-1.9.8-2.3l.5 1.2c-.4.3-1 .8-1.3 1.1zm5-1.1c-.5-.4-2.2-.3-2.9-.1l-.5-1.5c.4-.3 1.1-.5 1.8-.5s1.4.2 1.9.4l-.3 1.7zm3.2 1.5c-.7-.5-2-1.1-2.5-1.3l.6-1.6c.5.3 2.4 1.4 2.6 1.7l-.7 1.2zm-.2-4.2c.6.2 1.9 1.3 2.3 1.6l3.3-7.2-5.6 5.6zm20.6 4.2c0 1.1.5 1.5 2.1 1.5s2.4-.5 3.5-2.8h.4L662 39h-10.2v-.4c1.5-.4 1.7-.7 1.7-2.2v-8.6c0-1.2-.3-1.5-1.7-1.9v-.4h6.3v.4c-1.3.3-1.7.6-1.7 1.8v9.1zm10.2.4c0 .9.4 1.4 1.4 1.5v.4h-5.4v-.4c1.2-.2 1.4-.6 1.4-1.7v-4.6c0-1.1-.3-1.4-1.6-1.6v-.4l3.7-.3h.4v7.1zm-1.2-12.6c.8 0 1.5.7 1.5 1.5s-.7 1.5-1.5 1.5-1.5-.7-1.5-1.5.7-1.5 1.5-1.5zm6.9 7.6c.9-.8 1.3-1 2-1 1.5 0 2.6 1.5 2.6 3.6 0 2.8-1.3 4-3.2 4-1 0-1.4-.5-1.4-1.5v-5.1zm0-7.6h-.4l-3.5.3v.4c.8.1 1.3.6 1.3 1.3v12.5c1.3.3 2.6.3 4.2.3 4.2 0 5.8-2.2 5.8-4.9 0-2.5-1.8-4.5-4.1-4.5-1.2 0-2.3.5-3.3 1.6v-7zm11.1 8.8c.1-1.7.8-2.8 1.8-2.8s1.8 1.2 1.9 2.8h-3.7zm6.6.5c-.3-2.4-2.1-3.9-4.5-3.9-2.7 0-4.8 2.1-4.8 4.8 0 2.7 2 4.6 4.7 4.6 2.1 0 3.8-1.2 4.6-3h-.4c-.8 1.3-1.8 1.9-3.1 1.9-1.6 0-3.2-1.5-3.1-4.3h6.6zm8.2-.5c-.8-.7-1.3-1.1-1.9-1.1-.8 0-1.3.3-1.9 1.2V37c0 1 .2 1.4 1.5 1.6v.4h-5.5v-.4c1.1-.3 1.4-.6 1.4-1.6v-4.6c0-1.1-.5-1.6-1.6-1.7v-.4l3.8-.3h.4v2.8c.8-1.9 1.8-2.8 2.9-2.8.6 0 1.1.3 1.5.7l-.6 2.7zm14.5-3.1v.4c1.1.2 1.3.9.6 2.8l-1.2 2.8-1.8-3.8c-.5-1.1-.5-1.6.5-1.8v-.4h-7.6V27h-.4c-1.2 1.6-2.6 3-3.7 3.6v.4h1.5v5.6c0 2 1.3 2.8 2.9 2.8 1.3 0 2.1-.5 2.8-1.6l-.3-.3c-.4.5-.8.7-1.3.7-1.2 0-1.6-.8-1.6-2.2v-5h2.3c1.3 0 1.6.5 2.2 1.6l3.1 6.7c-1 2.9-2 4-3.6 4-.3 0-.6 0-1.2-.2l-.5 2.6h.7c1.8 0 2.8-.8 3.7-2.9l4.3-10c.7-1.6 1-1.9 2.1-2.2v-.4h-3.5zm-44.1 24.4c.2 1.2.7 1.8 2 2.1v.4H664v-.4c1.5-.4 1.7-1.2 1.5-3l-1.1-7.7-4.3 11.1h-.5l-4.3-11.1-1.2 8c-.2 1.6.1 2.6 1.6 2.7v.4h-4.8v-.4c1.4-.1 2.1-.9 2.4-3l1.3-8.8c-.5-.6-1.3-.9-1.9-.9v-.4h4.8l3.5 8.9 3.5-8.9h4.5v.4c-1.4.3-1.7.9-1.5 2.2l1.1 8.4zm3.1-4.3c0-1-.3-1.3-1.3-1.5v-.4l3.5-.3h.4v6.4c0 1 .7 1.5 1.6 1.5.9 0 1.4-.4 2.1-1.6v-4.3c0-.7-.5-1.1-1.3-1.3v-.4l3.5-.3h.4v6.9c0 1.2.2 1.4 1.4 1.7v.4l-3.9.3v-2.1c-1 1.5-2 2.1-3.4 2.1-1.8 0-2.8-1-2.8-2.7v-4.4zm12.2-1.2h-1.6v-.4c1.1-.7 2.5-2.1 3.7-3.6h.4v3.4h2.8v.7h-2.8v5c0 1.4.4 2.2 1.6 2.2.5 0 .8-.2 1.3-.7l.3.3c-.6 1.1-1.5 1.5-2.8 1.5-1.6 0-2.9-.8-2.9-2.8v-5.6zm7.1 1.2c0-1-.3-1.3-1.3-1.5v-.4l3.5-.3h.4v6.4c0 1 .7 1.5 1.6 1.5.9 0 1.4-.4 2.1-1.6v-4.3c0-.7-.5-1.1-1.3-1.3v-.4l3.5-.3h.4v6.9c0 1.2.2 1.4 1.4 1.7v.4l-3.9.3v-2.1c-1 1.5-2 2.1-3.4 2.1-1.8 0-2.8-1-2.8-2.7v-4.4zm16.1 5.3c-.6.6-1.1.9-1.6.9-.7 0-1.2-.6-1.2-1.6 0-1.2.7-1.7 2.8-2.6v3.3zm2.6-4.3c0-2.4-1.9-3.3-3.8-3.3-2 0-3.4 1.1-3.9 3h.3c.5-1 1.4-1.5 2.6-1.5 1.6 0 2.1.7 2.1 2.3-2.1.8-5.5 1-5.5 3.3 0 1.3 1.2 2.3 2.6 2.3 1 0 1.8-.3 2.7-1l.2-.2c.4.9 1 1.2 2.1 1.2 1.3 0 2-.6 2.1-1.7h-.2c-.1.5-.3.8-.7.8-.4 0-.5-.3-.5-1.2v-4zm3.4-6.3c0-1.2-.4-1.7-1.6-1.7V43l3.8-.3h.4V55c0 1.2.3 1.4 1.5 1.7v.4h-5.7v-.4c1.3-.2 1.6-.6 1.6-1.7v-9.9zM717.5 57.3h.7V59h.3v-1.8h.7V57h-1.6v.3zM721.2 59v-1.2-.5l-.6 1.7h-.3l-.6-1.7V59h-.3v-2h.4l.6 1.7.6-1.7h.4v2h-.2zM972.2 50.2c-1.4-.8-1.7-2.9-1.6-8.1v-8h-2.7l.6-1.5h2.1v-3.8l5-1.9v5.5h2.3l-.6 1.6h-1.7v13.8c.1 1.1.5 1.8 1 2.2h-4.4zM845.6 36.6c.5 1.4 1.7 2.9.8 4.5-.4 1.7-2 3-3.6 3.3-1.7.2-3.4-.1-4.6-1.2-.9-4.8 1-9.3 4.8-11.9l2.6 5.3z"/><path class="st0" d="M852.3 51.3c-.9 2.9-9.4 1-12.1-3.8 3.5.4 7.5-2.7 7.5-6.3l4.6 10.1zm3.5-.4c.4-.2 1.2-.6 1.4-1.4L848 29.4c-.6-.1-1.1-.1-1.8.4l9.6 21.1zm4.1-4.3c3.9-6 .6-15.8-7.8-17.1l7.8 17.1zm72.9-13.3c.9-.8 2.5-.8 3.6-.3.4.2.9.5 1.1.9l-2 3.2c-.3-.2-.4-.3-.8-.5-1-.4-2.1-.2-2.7.4v9.3c0 1.6.3 3.1 1.1 3.8h-4.6c-1-.7-1.2-1.9-1.3-3V34.7c0-1-.2-1.4-.6-2h4.8c.4.3.4.8.6 1.1l.8-.5zm5.8 3c0-1.2.2-2.6-.5-3.6h4.4c.3.2.5.6.6 1 .2.3.2.8.3 1.1V48c.2.8.5 1.6 1.1 2.2h-4.7c-1.5-1.5-1-4-1.2-6.6v-7.3zm11.7 9.5c.2.8.6 1.8 1.6 1.9.6 0 1-.5 1.3-.9 1-2.1.9-4.3.9-6.6-.3-1.7.1-4.1-1.8-5.2-.6-.2-1.1.2-1.5.6-.7 1.1-.8 2.4-.8 3.8-.3 2.3 0 4.1.3 6.4zm-4.6-9.3c.5-1.3 2-2 3.1-2.7 1.7-.6 3.5-2.1 5.3-.9 1.6 1 2.9 2.2 3.9 3.8.2.6.4 1.3.5 2 0 .9.2 1.5.2 2.4.1 1 .1 1.8 0 2.7-.1 1.6-.8 3-2 4.1-1.8 1.7-4.2 3.5-6.7 2.3-2.3-1.1-4.9-3.2-4.7-6.1-.1-2.1-.2-3.8.1-5.8 0-.7-.1-1.3.3-1.8zm16.2 13.7c-1.4-.8-1.7-2.9-1.6-8.1v-8h-2.7l.6-1.5h2.1v-3.8l5-1.9v5.5h2.3L967 34h-1.7v13.8c.1 1.1.5 1.8 1 2.2h-4.4zm-46-15.4c0-1-.2-1.4-.6-2h4.8c.4.3.4.8.6 1.1l.8-.7c.9-.8 2.5-.8 3.6-.3.4.2.9.5 1.1.9l-2 3.2c-.3-.2-.4-.3-.8-.5-1-.4-2.1-.2-2.7.4v9.3c0 1.6.3 3.1 1.1 3.8h-4.6c-1-.7-1.2-1.9-1.3-3V34.8zm-36.2 4.9l-1.7 3.6c-1.2 2.1-2.9 4.7-5.4 5.4-1 .3-1.9 0-2.8 0l-3.1 5.1c.2.3.6.5.9.6 5.4 2.1 7.6-.2 12.9-12.3l5 10.9h6.7l-3.2-7.3 1.8-3.8 5 10.9h6.4l-11.2-25-5.2 2.6 4.1 9.3-1.8 3.7-7.4-16.2-5.5 2.8 4.5 9.7zm29.1.8c0-.7-.5-.8-.9-.8-1.1.2-2.1 1.1-2.7 2.1-.5.9-.6 1.6-.6 2.4 0 .8-.1 1.5.3 2.1.2.4.6.6 1 .7.7.1 1.4-.1 2-.4 1.3-.8 1.1-2.3 1.1-3.7l-.2-2.4zm-8.4 3.6c.1-1.8 1.1-3.5 2.8-4.4 1.6-1 3.6-1.4 5.3-2.3.3-.2.7-.5.7-.9 0-.5-.2-.9-.6-1-2.6-.6-4.7 1.1-6.6 2.7.2-1.2.4-2.5 1-3.6.3-.3.4-.7.8-.9 1.8-.9 4.1-1.2 6.2-1 1.7.1 3.2 1.3 3.8 2.9.3.7.3 1.5.3 2.3V48c0 .9.4 1.7.9 2.4h-4.8c-.6-.5-.9-1.2-1-2-1.3 1.2-4.1 3-5.8 1.8-1.8-1-3.4-3.7-3-6.1z"/></svg>