<svg width="1000" height="75" fill="none" xmlns="http://www.w3.org/2000/svg"><path d="M329 24.5h15.417v5.13h-9.234v5.348h6.183v5.13h-6.183v5.523h9.234v5.347H329V24.5zM346.143 24.5h5.581v26.522h-5.581V24.5zM353.851 24.5h5.581v26.522h-5.581V24.5zM361.6 24.5h5.58v5.348h-5.58V24.5zm0 7.826h5.58v18.696h-5.58V32.326zm12.485 10.696c0 1.652.322 4.435 2.53 4.435 1.325 0 2.489-1.044 2.81-2.566l3.734 1.479c-.241.87-1.967 5.087-6.906 5.087-5.339 0-7.748-4.653-7.748-9.826 0-5.305 2.529-9.74 7.668-9.74 5.38 0 7.227 5 7.227 9.87v1.26h-9.315zm4.136-3.565c-.041-1.74-.161-3.783-2.088-3.783-1.566 0-2.048 2-2.048 3.783h4.136zM384.966 24.5h8.671l2.65 14.87h.08l3.132-14.87h8.431v26.522h-6.183V31.457h-.08l-4.216 19.565h-3.733l-3.895-20.261h-.08v20.26h-4.737V24.5h-.04zM417.966 37.892c0-1.13-.441-2.218-1.445-2.218-1.285 0-1.726 1.435-1.807 2.478l-4.857-1.087c.602-3.695 3.693-5.173 6.865-5.173 3.332 0 6.825 1.565 6.825 5.695v10.435c0 2.13.321 2.739.522 3h-5.741c-.121-.522-.121-1.174-.161-1.696-1.004 1.26-2.489 2.174-4.175 2.174-3.011 0-4.938-2.087-4.938-5.74 0-5.042 5.219-6.477 8.993-6.608v-1.26h-.081zm0 4.173c-2.127.218-3.412.653-3.412 3.392 0 1.304.602 2 1.606 2 .482 0 1.084-.348 1.806-1.174v-4.218z" fill="#fff"/><path d="M428.686 43.022c0 1.652.321 4.435 2.529 4.435 1.325 0 2.489-1.044 2.811-2.566l3.733 1.479c-.241.87-1.967 5.087-6.905 5.087-5.34 0-7.749-4.653-7.749-9.826 0-5.305 2.53-9.74 7.669-9.74 5.379 0 7.226 5 7.226 9.87v1.26h-9.314zm4.135-3.565c-.04-1.74-.16-3.783-2.088-3.783-1.565 0-2.047 2-2.047 3.783h4.135zM590.411 50.045v-2.108h3.012v-18.72h-3.012v-2.171h16.36v7.027h-2.244v-4.855h-8.505v8.56h4.252v-3.385h2.068v8.944h-2.068v-3.45h-4.252v8.114h3.544v2.044h-9.155zm26.933-3.258c-1.063 2.492-2.54 3.514-5.08 3.514-2.185 0-4.252-1.022-4.784-3.514-.177-.83-.177-1.341-.177-1.597 0-3.77 2.835-5.175 5.906-5.175h4.135v-1.533c-.118-1.214-.237-1.917-1.063-2.812-.591-.638-1.536-.894-2.304-.894-1.299 0-2.185.192-3.071 1.342-.414.575-.532 1.341-.591 1.98h-2.48c.118-2.428 1.24-4.152 3.366-4.92.886-.319 1.713-.383 2.658-.383 1.654 0 2.953.32 4.253 1.47 1.24 1.086 1.476 2.556 1.476 4.153v9.647h2.481v1.98h-4.666v-3.258h-.059zm-4.725 1.597c3.543 0 4.666-3.194 4.784-6.452-.768-.128-1.654-.128-2.363-.128-2.362 0-5.079.128-5.079 3.45-.059 1.853.886 3.13 2.658 3.13zm16.065-12.075c.827-2.427 2.244-3.514 4.666-3.514 2.362 0 3.957 1.087 4.666 3.514.118.767.118 1.406.118 2.173v9.583h2.422v1.98h-7.265v-2.044h2.421v-8.625c0-2.3-.472-4.536-3.071-4.536-.945 0-1.358 0-2.126.575-.65.447-1.004.958-1.3 1.661-.649 1.342-.649 2.875-.649 4.28v6.709h2.421v1.98h-7.383v-2.044h2.599V35.223h-2.54v-1.916h4.903v3.002h.118zm18.546 0c.827-2.427 2.244-3.514 4.666-3.514 2.362 0 3.957 1.087 4.666 3.514.118.767.118 1.406.118 2.173v9.583h2.421v1.98h-7.264v-2.044h2.421v-8.625c0-2.3-.472-4.536-3.071-4.536-.945 0-1.358 0-2.126.575-.65.447-1.004.958-1.3 1.661-.649 1.342-.649 2.875-.649 4.28v6.709h2.421v1.98h-7.383v-2.044h2.599V35.223h-2.54v-1.916h4.903v3.002h.118zm20.731 13.736h-7.265v-2.044h2.481V35.223h-2.481v-1.916h4.843V48h2.422v2.044zm-2.185-23v2.684H663v-2.683h2.776zm17.778 15.142h-11.518c.118 1.661.355 3.195 1.359 4.472 1.063 1.342 2.067 1.662 3.721 1.662 1.89 0 3.721-1.534 3.898-3.514h2.303c-.59 3.641-3.248 5.43-6.674 5.43-5.079 0-7.205-3.642-7.205-8.625 0-1.789.354-3.705 1.181-5.239 1.181-2.3 3.603-3.578 6.083-3.578 1.418 0 3.131.512 4.253 1.47 1.24 1.086 1.89 2.556 2.244 4.153.237 1.214.355 2.108.355 3.322v.447zm-2.599-1.916c-.059-2.684-1.418-5.559-4.253-5.559-2.894 0-4.37 2.811-4.548 5.558h8.801zm11.517 9.774v-2.108h3.072v-18.72h-3.072v-2.171h7.56l5.493 19.677 5.67-19.677h7.501v2.108h-3.012v18.783h3.012v2.108h-8.269v-2.108h2.717v-18.72h-.236l-6.261 20.828h-2.303l-6.32-20.891h-.236v18.783h2.776v2.108h-8.092zm37.624-3.258c-1.064 2.492-2.54 3.514-5.08 3.514-2.185 0-4.252-1.022-4.784-3.514-.177-.83-.177-1.341-.177-1.597 0-3.77 2.835-5.175 5.906-5.175h4.135v-1.533c-.119-1.214-.237-1.917-1.064-2.812-.59-.638-1.535-.894-2.303-.894-1.299 0-2.185.192-3.071 1.342-.414.575-.532 1.341-.591 1.98h-2.481c.118-2.428 1.241-4.152 3.367-4.92.886-.319 1.713-.383 2.658-.383 1.654 0 2.953.32 4.252 1.47 1.241 1.086 1.477 2.556 1.477 4.153v9.647h2.481v1.98h-4.666v-3.258h-.059zm-4.785 1.597c3.544 0 4.666-3.194 4.785-6.452-.768-.128-1.654-.128-2.363-.128-2.363 0-5.079.128-5.079 3.45 0 1.853.945 3.13 2.657 3.13zm24.571-6.197h-11.399c.118 1.661.354 3.195 1.358 4.472 1.063 1.342 2.067 1.662 3.662 1.662 1.89 0 3.662-1.534 3.898-3.514h2.304c-.591 3.641-3.249 5.43-6.556 5.43-5.021 0-7.088-3.642-7.088-8.625 0-1.789.354-3.705 1.181-5.239 1.181-2.3 3.603-3.578 6.025-3.578 1.417 0 3.13.512 4.193 1.47 1.241 1.086 1.89 2.556 2.186 4.153.236 1.214.354 2.108.354 3.322v.447h-.118zm-2.54-1.916c-.059-2.684-1.417-5.559-4.253-5.559-2.894 0-4.311 2.811-4.488 5.558h8.741zM553.263 16.352c10.808 0 19.55 9.52 19.55 21.147 0 11.692-8.801 21.147-19.55 21.147-10.809 0-19.55-9.52-19.55-21.147 0-11.692 8.741-21.147 19.55-21.147zm0-1.853C541.509 14.5 532 24.786 532 37.5s9.509 23 21.263 23c11.753 0 21.263-10.286 21.263-23s-9.51-23-21.263-23zm7.442 7.156l-11.281 4.216v-3.066h-5.021v4.983l-4.016 1.405-3.898 9.584c.059.128.413 2.555.413 2.555 1.949-.575 3.957-.83 6.084-.83 8.623 0 16.183 5.047 20.258 12.522l1.123-.767c-.709-1.277-1.477-2.491-2.363-3.577v-8.114l-4.961-.959v4.217c-3.485-2.62-7.619-4.28-12.108-4.6 6.91-2.236 12.639-7.539 15.593-14.503l5.847 14.503 1.535.32-7.205-17.89zm-2.363 19.613l2.363.448v5.366a27.344 27.344 0 00-2.363-2.3V41.27zm-20.495-2.3l3.485-8.625 4.312-1.597v-4.6h2.421v3.642l11.399-4.28c-3.543 9.072-11.989 15.269-21.617 15.46zm21.736-5.43l1.122.192v2.491l-1.122-.191v-2.492zm-1.3-1.661v5.303l3.721.702v-5.302l-3.721-.703zM856.565 36.427v-9.61c0-1.25-.596-2.63-3.495-2.63v-.818h11.031v.818c-2.895 0-3.489 1.38-3.489 2.63V48.45c0 1.248.594 2.627 3.489 2.627v.82H853.07v-.82c2.899 0 3.495-1.379 3.495-2.627V38.193H844.54V48.45c0 1.248.594 2.627 3.492 2.627v.82H837v-.82c2.897 0 3.492-1.379 3.492-2.627V26.817c0-1.25-.595-2.631-3.492-2.631v-.818h11.032v.818c-2.898 0-3.492 1.38-3.492 2.63v9.61h12.025zm8.467 6.809h.913c1.232 4.008 4.009 7.63 8.215 7.63 3.214 0 5.396-3.019 4.485-6.381-1.629-6.033-12.46-6.292-12.46-14.521 0-4.268 3.133-7.2 7.023-7.2 4.206 0 6.109 3.19 7.063 0h.832l.873 9.183h-.99c-.914-4.01-3.534-7.413-7.223-7.413-2.382 0-4.167 1.42-4.167 4.139 0 2.496 2.5 4.263 4.206 5.383 5.396 3.536 9.047 5.388 9.047 10.558 0 3.88-2.977 7.886-8.37 7.886-4.128 0-6.986-3.142-7.384 0h-.872l-1.191-9.264zm30.936-7.11c4.007 0 6.348-1.855 6.348-5.343 0-3.279-1.903-5.045-4.681-5.602-3.652-.261-4.923-.345-4.923 1.162v9.783h3.256zm-3.256 11.892c0 1.51.359 2.285 3.256 2.285 4.126 0 7.183-1.336 7.183-6.378 0-5.128-4.724-6.077-8.454-6.077h-1.985v10.17zm-4.046-21.2c0-1.25-.596-2.631-3.809-2.631v-.818h10.633c6.112 0 10.875 1.767 10.875 7.284 0 3.618-2.225 5.473-5.277 6.206v.086c3.41.688 6.624 2.97 6.624 7.11 0 5.172-4.125 7.841-10.355 7.841h-12.5v-.819c3.213 0 3.809-1.379 3.809-2.627V26.817zm42.864 5.425h-.952c-1.149-4.741-4.046-7.973-8.571-7.973-6.546 0-9.364 5.73-9.364 13.487 0 6.034 2.896 12.538 9.405 12.538 3.889 0 6.548-1.378 9.286-4.308l.674.863c-2.42 3.232-6.508 5.388-10.318 5.388-7.737 0-13.65-5.388-13.65-14.826 0-8.575 5.594-14.912 13.573-14.912 5.435 0 7.421 3.537 8.731.046h.831l.355 9.697zM952.964 22.57h26.69L966.31 37.061l-13.346-14.49zM952.964 51.553h26.69L966.31 37.062l-13.346 14.49z" fill="#fff"/><path d="M952.964 22.57v28.982l-13.346-14.49 13.346-14.492zM979.654 22.57v28.982L993 37.062 979.654 22.57z" fill="#fff"/><mask id="a" maskUnits="userSpaceOnUse" x="24" y="14" width="48" height="47"><path d="M71.647 60.395H24V14.5h47.647v45.895z" fill="#fff"/></mask><g mask="url(#a)"><path d="M49.879 46.43V28.814h-5.79v21.847s9.553.187 13.953 0c3.995-.124 6.657-2.614 7.7-6.722 1.1-4.419 1.158-8.9.173-13.382-.637-2.925-2.2-5.29-5.036-6.224-1.39-.436-2.837-.684-4.285-.684-8.915-.063-27.789 0-27.789 0v3.983h8.163v23.029h5.674v-23.03h12.332c2.778 0 4.226 1.246 4.863 4.109.636 2.676.579 5.415.347 8.09-.116 1.433-.521 2.864-.927 4.233-.463 1.308-1.447 2.241-2.778 2.428-2.432-.063-6.6-.063-6.6-.063zM24 14.5h47.647v45.934H24V14.5z" fill="#fff"/></g><path d="M104.906 45.026v-13.88h5.906V33.2c1.042-1.743 2.547-2.427 4.342-2.427 1.736 0 3.358.373 4.284 2.24 1.215-1.991 3.01-2.365 5.037-2.24 2.431.187 3.705 1.493 3.763 4.17.058 2.863.058 5.664.058 8.527v1.556h-6.311V36.374c-.058-.87-.463-1.307-1.158-1.307-.637.063-1.042.436-1.042 1.37v8.589h-6.31v-7.718c0-.374 0-.81-.058-1.182-.058-.685-.406-1.059-1.042-1.059-.637 0-.984.374-1.1 1.059-.058.373-.058.746-.058 1.12v7.842c-2.142-.062-4.227-.062-6.311-.062zm-14.59-8.59h3.88c-.637-2.054-1.216-3.983-1.853-5.975h-.173c-.637 1.93-1.216 3.921-1.853 5.975zm-8.741 8.652c.753-2.24 1.447-4.357 2.142-6.473 1.273-3.921 2.548-7.78 3.821-11.702.174-.497.347-.684.869-.684 2.837.062 5.731 0 8.625 0 2.085 6.224 4.111 12.448 6.254 18.797H96.859c-.463 0-.695-.124-.81-.622a24.086 24.086 0 00-.869-2.926c-.058-.249-.405-.498-.637-.498-1.563-.062-3.126 0-4.69-.062-.404 0-.578.124-.636.56-.231.996-.521 1.992-.81 2.988-.058.187-.29.498-.464.498-2.084.124-4.168.124-6.368.124zm137.904-7.157c-.116-.685-.231-1.432-.405-2.117-.174-.622-.695-.933-1.332-.933-.579 0-1.042.31-1.274.871a6.433 6.433 0 000 4.17c.232.623.695.933 1.332.933.637 0 1.1-.373 1.274-.995.231-.56.289-1.245.405-1.93zm5.963 7.157h-5.789v-2.24c-.116.061-.174.061-.232.061-.926 2.055-2.547 2.677-4.516 2.552-2.026-.124-3.589-1.12-4.458-3.111-1.1-2.615-1.157-5.353-.231-8.092 1.389-4.232 6.89-4.606 8.916-1.431v-7.905h6.31v20.166zm-23.678-6.286c-.927.186-1.853.249-2.664.498-.636.186-.81.809-.752 1.555.116.685.521.934 1.099 1.059 1.506.124 2.49-1.059 2.317-3.112zm0-2.676c-.116-.996-.579-1.557-1.679-1.744-1.795-.372-3.474-.062-5.153.685-.231.063-.405.187-.637.25-.058 0-.116 0-.174-.063v-3.361c0-.187.232-.436.406-.498 3.184-.934 6.368-1.058 9.495-.062 2.315.684 3.473 2.365 3.531 4.979.058 2.863 0 5.789 0 8.714h-5.848v-1.743h-.173c-1.563 2.178-3.705 2.427-6.021 1.805-1.506-.373-2.663-1.37-2.837-3.174-.231-1.992.232-3.672 1.968-4.793 1.216-.747 2.548-.995 3.937-1.058 1.042.063 2.084.063 3.185.063zm-62.468.56c-.058-.934-.058-1.868-.811-2.49-.521-.436-1.1-.374-1.621 0-.752.622-.868 1.494-.868 2.49h3.3zm5.558 2.987h-8.742c-.059.996.404 1.618 1.389 1.93 1.621.498 3.242.31 4.805-.063a28.89 28.89 0 001.447-.435v3.299c0 .124-.231.31-.347.373-2.952.747-5.963 1.058-8.916.187-2.837-.872-4.458-3.112-4.631-6.287-.058-.684-.058-1.431.058-2.116.289-2.49 1.563-4.232 3.763-5.104 1.968-.747 4.052-.871 6.079-.497 2.374.435 3.936 1.991 4.515 4.48.348 1.308.406 2.74.58 4.233zm88.404-3.05h3.3c-.058-.995 0-2.054-.926-2.49-.406-.249-1.158-.186-1.564.063-.81.498-.868 1.494-.81 2.427zm8.684 2.988h-8.568c-.058.996.463 1.805 1.563 1.93 1.158.186 2.316.186 3.473.124.869-.062 1.679-.374 2.606-.56v3.485c-3.3.747-6.658 1.307-9.958 0-2.432-.933-3.647-2.987-3.879-5.726-.058-.933-.058-1.93.116-2.863.289-2.117 1.389-3.61 3.242-4.419 2.315-1.058 4.747-1.245 7.237-.56 2.489.684 3.936 2.862 4.226 6.1 0 .809-.058 1.617-.058 2.489zm-65.537-8.527h2.837v3.983h-2.778c0 1.618-.059 3.05 0 4.544.057.87.637 1.307 1.447 1.307.405 0 .811-.125 1.331-.125v3.673c0 .124-.173.373-.347.373-1.737.56-3.473.81-5.268.498-1.968-.311-3.184-1.618-3.416-3.797-.174-1.742-.116-3.547-.116-5.29v-1.12h-2.2v-3.984h2.2v-2.738c0-.25.232-.623.405-.685 1.795-.623 3.59-1.183 5.385-1.805.116-.062.289-.062.52-.125v5.291zm-18.989-.25c0 .188.058.312.058.499v5.103c-.289-.062-.463-.062-.694-.124-2.201-.311-3.937 1.245-3.995 3.672v5.042h-6.253v-13.88h5.848v2.8c1.157-2.178 2.547-3.61 5.036-3.111zm29.989 14.192h-6.252V31.084h5.789v2.8c.059.063.116.063.116.126.985-2.18 2.374-3.735 4.922-3.175v5.54c-.232-.063-.464-.063-.637-.125-2.2-.312-3.938 1.307-3.938 3.672v5.104zM167 45.5h-7v-13h7v13zM160.14 31.087v-4.696h6.479v4.696h-6.479z" fill="#fff"/></svg>