<?xml version="1.0" encoding="utf-8"?>
<svg width="1000" height="75" viewBox="0 0 1000 75" fill="none" xmlns="http://www.w3.org/2000/svg">
<path d="M329 24.5H344.417V29.6305H335.183V34.9781H341.366V40.1086H335.183V45.631H344.417V50.9785H329V24.5Z" fill="white"/>
<path d="M346.143 24.5H351.724V51.0217H346.143V24.5Z" fill="white"/>
<path d="M353.851 24.5H359.432V51.0217H353.851V24.5Z" fill="white"/>
<path d="M361.6 24.5005H367.18V29.8482H361.6V24.5005ZM361.6 32.3264H367.18V51.0218H361.6V32.3264ZM374.085 43.0219C374.085 44.6741 374.407 47.4566 376.615 47.4566C377.94 47.4566 379.104 46.4132 379.425 44.8914L383.159 46.3697C382.918 47.2392 381.192 51.4566 376.253 51.4566C370.914 51.4566 368.505 46.8045 368.505 41.6306C368.505 36.3264 371.034 31.8917 376.173 31.8917C381.553 31.8917 383.4 36.8916 383.4 41.7611V43.0219H374.085ZM378.221 39.4568C378.18 37.7177 378.06 35.6742 376.133 35.6742C374.567 35.6742 374.085 37.6742 374.085 39.4568H378.221Z" fill="white"/>
<path d="M384.966 24.5H393.637L396.287 39.3701H396.367L399.499 24.5H407.93V51.0217H401.747V31.4573H401.667L397.451 51.0217H393.718L389.823 30.7609H389.743V51.0217H385.006V24.5H384.966Z" fill="white"/>
<path d="M417.966 37.8915C417.966 36.7611 417.525 35.6741 416.521 35.6741C415.236 35.6741 414.795 37.1089 414.714 38.1524L409.857 37.0654C410.459 33.3698 413.55 31.8916 416.722 31.8916C420.054 31.8916 423.547 33.4568 423.547 37.5872V48.0218C423.547 50.1522 423.868 50.7608 424.069 51.0217H418.328C418.207 50.5 418.207 49.8478 418.167 49.3261C417.163 50.5869 415.678 51.5 413.992 51.5C410.981 51.5 409.054 49.413 409.054 45.7609C409.054 40.7175 414.273 39.2828 418.047 39.1523V37.8915H417.966ZM417.966 42.0653C415.839 42.2827 414.554 42.7175 414.554 45.4566C414.554 46.7609 415.156 47.4566 416.16 47.4566C416.642 47.4566 417.244 47.1087 417.966 46.2827V42.0653Z" fill="white"/>
<path d="M428.686 43.0218C428.686 44.674 429.007 47.4566 431.215 47.4566C432.54 47.4566 433.704 46.4131 434.026 44.8914L437.759 46.3696C437.518 47.2392 435.792 51.4565 430.854 51.4565C425.514 51.4565 423.105 46.8044 423.105 41.6306C423.105 36.3263 425.635 31.8916 430.774 31.8916C436.153 31.8916 438 36.8915 438 41.761V43.0218H428.686ZM432.821 39.4567C432.781 37.7176 432.661 35.6741 430.733 35.6741C429.168 35.6741 428.686 37.6741 428.686 39.4567H432.821Z" fill="white"/>
<path d="M590.411 50.0455V47.9371H593.423V29.2177H590.411V27.0455H606.771V34.0732H604.527V29.2177H596.022V37.7788H600.274V34.3927H602.342V43.3371H600.274V39.8871H596.022V48.001H599.566V50.0455H590.411ZM617.344 46.7871C616.281 49.2788 614.804 50.301 612.264 50.301C610.079 50.301 608.012 49.2788 607.48 46.7871C607.303 45.9566 607.303 45.4455 607.303 45.1899C607.303 41.4205 610.138 40.0149 613.209 40.0149H614.922H617.344V38.4816C617.226 37.2677 617.107 36.5649 616.281 35.6705C615.69 35.0316 614.745 34.776 613.977 34.776C612.678 34.776 611.792 34.9677 610.906 36.1177C610.492 36.6927 610.374 37.4593 610.315 38.0982H607.835C607.953 35.6705 609.075 33.9455 611.201 33.1788C612.087 32.8593 612.914 32.7955 613.859 32.7955C615.513 32.7955 616.812 33.1149 618.112 34.2649C619.352 35.351 619.588 36.8205 619.588 38.4177V48.0649H622.069V50.0455H617.403V46.7871H617.344ZM612.619 48.3843C616.162 48.3843 617.285 45.1899 617.403 41.9316C616.635 41.8038 615.749 41.8038 615.04 41.8038C612.678 41.8038 609.961 41.9316 609.961 45.2538C609.902 47.1066 610.847 48.3843 612.619 48.3843ZM628.684 36.3093C629.511 33.8816 630.928 32.7955 633.35 32.7955C635.712 32.7955 637.307 33.8816 638.016 36.3093C638.134 37.076 638.134 37.7149 638.134 38.4816V48.0649H640.556V50.0455H633.291V48.001H635.712V39.376C635.712 37.076 635.24 34.8399 632.641 34.8399C631.696 34.8399 631.283 34.8399 630.515 35.4149C629.865 35.8621 629.511 36.3732 629.215 37.076C628.566 38.4177 628.566 39.951 628.566 41.3566V48.0649H630.987V50.0455H623.604V48.001H626.203V35.2232H623.663V33.3066H628.566V36.3093H628.684ZM647.23 36.3093C648.057 33.8816 649.474 32.7955 651.896 32.7955C654.258 32.7955 655.853 33.8816 656.562 36.3093C656.68 37.076 656.68 37.7149 656.68 38.4816V48.0649H659.101V50.0455H651.837V48.001H654.258V39.376C654.258 37.076 653.786 34.8399 651.187 34.8399C650.242 34.8399 649.829 34.8399 649.061 35.4149C648.411 35.8621 648.057 36.3732 647.761 37.076C647.112 38.4177 647.112 39.951 647.112 41.3566V48.0649H649.533V50.0455H642.15V48.001H644.749V35.2232H642.209V33.3066H647.112V36.3093H647.23ZM667.961 50.0455H660.696V48.001H663.177V35.2232H660.696V33.3066H665.539V48.001H667.961V50.0455ZM665.776 27.0455V29.7288H663V27.0455H665.776ZM683.554 42.1871H672.036C672.154 43.8482 672.391 45.3816 673.395 46.6593C674.458 48.001 675.462 48.3205 677.116 48.3205C679.006 48.3205 680.837 46.7871 681.014 44.8066H683.317C682.727 48.4482 680.069 50.2371 676.643 50.2371C671.564 50.2371 669.438 46.5955 669.438 41.6121C669.438 39.8232 669.792 37.9066 670.619 36.3732C671.8 34.0732 674.222 32.7955 676.702 32.7955C678.12 32.7955 679.833 33.3066 680.955 34.2649C682.195 35.351 682.845 36.8205 683.199 38.4177C683.436 39.6316 683.554 40.526 683.554 41.7399V42.1871ZM680.955 40.2705C680.896 37.5871 679.537 34.7121 676.702 34.7121C673.808 34.7121 672.332 37.5232 672.154 40.2705H680.955ZM692.472 50.0455V47.9371H695.544V29.2177H692.472V27.0455H700.032L705.525 46.7232L711.195 27.0455H718.696V29.1538H715.684V47.9371H718.696V50.0455H710.427V47.9371H713.144V29.2177H712.908L706.647 50.0455H704.344L698.024 29.1538H697.788V47.9371H700.564V50.0455H692.472ZM730.096 46.7871C729.032 49.2788 727.556 50.301 725.016 50.301C722.831 50.301 720.764 49.2788 720.232 46.7871C720.055 45.9566 720.055 45.4455 720.055 45.1899C720.055 41.4205 722.89 40.0149 725.961 40.0149H727.674H730.096V38.4816C729.977 37.2677 729.859 36.5649 729.032 35.6705C728.442 35.0316 727.497 34.776 726.729 34.776C725.43 34.776 724.544 34.9677 723.658 36.1177C723.244 36.6927 723.126 37.4593 723.067 38.0982H720.586C720.704 35.6705 721.827 33.9455 723.953 33.1788C724.839 32.8593 725.666 32.7955 726.611 32.7955C728.265 32.7955 729.564 33.1149 730.863 34.2649C732.104 35.351 732.34 36.8205 732.34 38.4177V48.0649H734.821V50.0455H730.155V46.7871H730.096ZM725.311 48.3843C728.855 48.3843 729.977 45.1899 730.096 41.9316C729.328 41.8038 728.442 41.8038 727.733 41.8038C725.37 41.8038 722.654 41.9316 722.654 45.2538C722.654 47.1066 723.599 48.3843 725.311 48.3843ZM749.882 42.1871H738.483C738.601 43.8482 738.837 45.3816 739.841 46.6593C740.904 48.001 741.908 48.3205 743.503 48.3205C745.393 48.3205 747.165 46.7871 747.401 44.8066H749.705C749.114 48.4482 746.456 50.2371 743.149 50.2371C738.128 50.2371 736.061 46.5955 736.061 41.6121C736.061 39.8232 736.415 37.9066 737.242 36.3732C738.423 34.0732 740.845 32.7955 743.267 32.7955C744.684 32.7955 746.397 33.3066 747.46 34.2649C748.701 35.351 749.35 36.8205 749.646 38.4177C749.882 39.6316 750 40.526 750 41.7399V42.1871H749.882ZM747.342 40.2705C747.283 37.5871 745.925 34.7121 743.089 34.7121C740.195 34.7121 738.778 37.5232 738.601 40.2705H747.342ZM553.263 16.3528C564.071 16.3528 572.813 25.8722 572.813 37.5C572.813 49.1917 564.012 58.6472 553.263 58.6472C542.454 58.6472 533.713 49.1278 533.713 37.5C533.713 25.8083 542.454 16.3528 553.263 16.3528ZM553.263 14.5C541.509 14.5 532 24.7861 532 37.5C532 50.2139 541.509 60.5 553.263 60.5C565.016 60.5 574.526 50.2139 574.526 37.5C574.526 24.7861 565.016 14.5 553.263 14.5ZM560.705 21.6556L549.424 25.8722V22.8056H544.403V27.7889L540.387 29.1944L536.489 38.7778C536.548 38.9056 536.902 41.3333 536.902 41.3333C538.851 40.7583 540.859 40.5028 542.986 40.5028C551.609 40.5028 559.169 45.55 563.244 53.025L564.367 52.2583C563.658 50.9806 562.89 49.7667 562.004 48.6806V40.5667L557.043 39.6083V43.825C553.558 41.2056 549.424 39.5444 544.935 39.225C551.845 36.9889 557.574 31.6861 560.528 24.7222L566.375 39.225L567.91 39.5444L560.705 21.6556ZM558.342 41.2694L560.705 41.7167V47.0833C559.937 46.2528 559.169 45.4861 558.342 44.7833V41.2694ZM537.847 38.9694L541.332 30.3444L545.644 28.7472V24.1472H548.065V27.7889L559.464 23.5083C555.921 32.5806 547.475 38.7778 537.847 38.9694ZM559.583 33.5389L560.705 33.7306V36.2222L559.583 36.0306V33.5389ZM558.283 31.8778V37.1806L562.004 37.8833V32.5806L558.283 31.8778Z" fill="white"/>
<path d="M856.565 36.4266V26.8178C856.565 25.5678 855.969 24.1868 853.07 24.1868V23.3687H864.101V24.1868C861.206 24.1868 860.612 25.5678 860.612 26.8178V48.4495C860.612 49.698 861.206 51.0773 864.101 51.0773V51.8962H853.07V51.0773C855.969 51.0773 856.565 49.698 856.565 48.4495V38.1929H844.54V48.4495C844.54 49.698 845.134 51.0773 848.032 51.0773V51.8962H837V51.0773C839.897 51.0773 840.492 49.698 840.492 48.4495V26.8178C840.492 25.5678 839.897 24.1868 837 24.1868V23.3687H848.032V24.1868C845.134 24.1868 844.54 25.5678 844.54 26.8178V36.4266H856.565ZM865.032 43.2357H865.945C867.177 47.2436 869.954 50.8662 874.16 50.8662C877.374 50.8662 879.556 47.8474 878.645 44.485C877.016 38.4522 866.185 38.1929 866.185 29.9635C866.185 25.6962 869.318 22.7649 873.208 22.7649C877.414 22.7649 879.317 25.9539 880.271 22.7649H881.103L881.976 31.9466H880.986C880.072 27.9378 877.452 24.5337 873.763 24.5337C871.381 24.5337 869.596 25.9539 869.596 28.6725C869.596 31.1694 872.096 32.9357 873.802 34.0557C879.198 37.5915 882.849 39.4437 882.849 44.6142C882.849 48.4937 879.872 52.5 874.479 52.5C870.351 52.5 867.493 49.3576 867.095 52.5H866.223L865.032 43.2357ZM895.968 36.1255C899.975 36.1255 902.316 34.2709 902.316 30.7832C902.316 27.5043 900.413 25.738 897.635 25.1808C893.983 24.9198 892.712 24.8363 892.712 26.3425V36.1255H895.968ZM892.712 48.0184C892.712 49.5286 893.071 50.3025 895.968 50.3025C900.094 50.3025 903.151 48.9674 903.151 43.9254C903.151 38.7974 898.427 37.8476 894.697 37.8476H892.712V48.0184ZM888.666 26.8178C888.666 25.5678 888.07 24.1868 884.857 24.1868V23.3687H895.49C901.602 23.3687 906.365 25.1358 906.365 30.6531C906.365 34.2709 904.14 36.1255 901.088 36.8585V36.9452C904.498 37.6325 907.712 39.9158 907.712 44.0554C907.712 49.2275 903.587 51.8962 897.357 51.8962H884.857V51.0773C888.07 51.0773 888.666 49.698 888.666 48.4495V26.8178ZM931.53 32.2428H930.578C929.429 27.5019 926.532 24.2703 922.007 24.2703C915.461 24.2703 912.643 30.0004 912.643 37.7569C912.643 43.7905 915.539 50.2953 922.048 50.2953C925.937 50.2953 928.596 48.9168 931.334 45.9871L932.008 46.8502C929.588 50.0818 925.5 52.2383 921.69 52.2383C913.953 52.2383 908.04 46.8502 908.04 37.4117C908.04 28.837 913.634 22.5 921.613 22.5C927.048 22.5 929.034 26.0374 930.344 22.5458H931.175L931.53 32.2428Z" fill="white"/>
<path d="M952.964 22.5703H979.654L966.31 37.0612L952.964 22.5703Z" fill="white"/>
<path d="M952.964 51.5529H979.654L966.31 37.062L952.964 51.5529Z" fill="white"/>
<path d="M952.964 22.5703V51.5522L939.618 37.0612L952.964 22.5703Z" fill="white"/>
<path d="M979.654 22.5703V51.5522L993 37.0612L979.654 22.5703Z" fill="white"/>
<mask id="mask0" mask-type="alpha" maskUnits="userSpaceOnUse" x="24" y="14" width="48" height="47">
<path d="M71.6473 60.3947H24V37.4479V14.5H71.6473V60.3947Z" fill="white"/>
</mask>
<g mask="url(#mask0)">
<path d="M49.8788 46.4295V28.8153H44.0894V50.6621C44.0894 50.6621 53.6419 50.8485 58.042 50.6621C62.0366 50.5376 64.6994 48.0482 65.742 43.9401C66.8416 39.521 66.8998 35.0395 65.9154 30.5579C65.2783 27.6326 63.7156 25.2676 60.8788 24.3338C59.4889 23.8985 58.042 23.6495 56.5945 23.6495C47.6791 23.587 28.805 23.6495 28.805 23.6495V27.6326H36.9682V28.629V50.6621H42.6419V27.6326H54.9736C57.7522 27.6326 59.1997 28.8779 59.8368 31.7407C60.4733 34.4171 60.4157 37.1555 60.1841 39.8319C60.0684 41.2636 59.6628 42.6954 59.2573 44.0645C58.7942 45.3718 57.8104 46.305 56.4787 46.492C54.0474 46.4295 49.8788 46.4295 49.8788 46.4295ZM24 14.5H71.6472V60.4339H24V14.5Z" fill="white"/>
</g>
<path d="M104.906 45.026V31.146H110.812V33.2001C111.854 31.4575 113.359 30.7726 115.154 30.7726C116.89 30.7726 118.512 31.146 119.438 33.0131C120.653 31.0215 122.448 30.6481 124.475 30.7726C126.906 30.9596 128.18 32.2662 128.238 34.9427C128.296 37.8061 128.296 40.607 128.296 43.4698V45.026H121.985V44.2167V37.0587V36.3744C121.927 35.5031 121.522 35.0671 120.827 35.0671C120.19 35.1297 119.785 35.5031 119.785 36.4363V44.0303V45.026H113.475V44.2167V37.3083C113.475 36.9342 113.475 36.4989 113.417 36.1255C113.359 35.4406 113.011 35.0671 112.375 35.0671C111.738 35.0671 111.391 35.4406 111.275 36.1255C111.217 36.4989 111.217 36.8723 111.217 37.2457V45.0879C109.075 45.026 106.99 45.026 104.906 45.026ZM90.3168 36.4363H94.1962C93.5591 34.3822 92.9802 32.4533 92.3431 30.4611H92.1698C91.5327 32.3907 90.9538 34.3822 90.3168 36.4363ZM81.5747 45.0879C82.3276 42.8475 83.0222 40.7309 83.7169 38.6149C84.9904 34.6937 86.2646 30.8345 87.5381 26.9134C87.7115 26.4155 87.8854 26.2291 88.4067 26.2291C91.2436 26.291 94.138 26.2291 97.0324 26.2291C99.117 32.4533 101.143 38.6774 103.286 45.026H101.317H96.859C96.3959 45.026 96.1644 44.9016 96.0486 44.4037C95.8171 43.4073 95.5273 42.4115 95.18 41.4783C95.1224 41.2294 94.7751 40.9798 94.5435 40.9798C92.9802 40.9179 91.4169 40.9798 89.8536 40.9179C89.4487 40.9179 89.2748 41.0423 89.2172 41.4783C88.9856 42.4741 88.6959 43.4698 88.4067 44.4656C88.3485 44.6526 88.117 44.9635 87.943 44.9635C85.859 45.0879 83.7751 45.0879 81.5747 45.0879ZM219.479 37.9306C219.363 37.2457 219.248 36.4989 219.074 35.814C218.9 35.1916 218.379 34.8808 217.742 34.8808C217.163 34.8808 216.7 35.1916 216.468 35.7521C216.005 37.1212 216.005 38.553 216.468 39.9221C216.7 40.5445 217.163 40.8553 217.8 40.8553C218.437 40.8553 218.9 40.4819 219.074 39.8596C219.305 39.2998 219.363 38.6149 219.479 37.9306ZM225.442 45.0879H219.653V42.8475C219.537 42.9094 219.479 42.9094 219.421 42.9094C218.495 44.9635 216.874 45.5858 214.905 45.4614C212.879 45.3369 211.316 44.3411 210.447 42.3496C209.347 39.7351 209.29 36.9968 210.216 34.2578C211.605 30.0258 217.106 29.6524 219.132 32.8267V24.9219H225.442V45.0879ZM201.764 38.8019C200.837 38.9883 199.911 39.0508 199.1 39.2998C198.464 39.4862 198.29 40.1085 198.348 40.8553C198.464 41.5402 198.869 41.7892 199.447 41.9136C200.953 42.0381 201.937 40.8553 201.764 38.8019ZM201.764 36.1255C201.648 35.1297 201.185 34.5693 200.085 34.3822C198.29 34.0095 196.611 34.3203 194.932 35.0671C194.701 35.1297 194.527 35.2542 194.295 35.3161C194.237 35.3161 194.179 35.3161 194.121 35.2542V31.8928C194.121 31.7065 194.353 31.4575 194.527 31.395C197.711 30.4611 200.895 30.3366 204.022 31.333C206.337 32.0173 207.495 33.698 207.553 36.3118C207.611 39.1753 207.553 42.1007 207.553 45.026H201.705V43.2828H201.532C199.969 45.4614 197.827 45.7103 195.511 45.0879C194.005 44.7145 192.848 43.7188 192.674 41.9136C192.443 39.9221 192.906 38.2415 194.642 37.1212C195.858 36.3744 197.19 36.1255 198.579 36.0629C199.621 36.1255 200.663 36.1255 201.764 36.1255ZM139.296 36.6853C139.238 35.7521 139.238 34.8182 138.485 34.1959C137.964 33.7599 137.385 33.8224 136.864 34.1959C136.112 34.8182 135.996 35.6895 135.996 36.6853H139.296ZM144.854 39.6732H136.112C136.053 40.6689 136.516 41.2913 137.501 41.6028C139.122 42.1007 140.743 41.9136 142.306 41.5402C142.769 41.4158 143.175 41.2913 143.753 41.1049V44.4037C143.753 44.5282 143.522 44.7145 143.406 44.7771C140.454 45.5239 137.443 45.8348 134.49 44.9635C131.653 44.0922 130.032 41.8517 129.859 38.6774C129.801 37.9925 129.801 37.2457 129.917 36.5608C130.206 34.0714 131.48 32.3288 133.68 31.4575C135.648 30.7101 137.732 30.5856 139.759 30.9596C142.133 31.395 143.695 32.9512 144.274 35.4406C144.622 36.7478 144.68 38.1795 144.854 39.6732ZM233.258 36.6233H236.558C236.5 35.6276 236.558 34.5693 235.632 34.1339C235.226 33.8844 234.474 33.9469 234.068 34.1959C233.258 34.6937 233.2 35.6895 233.258 36.6233ZM241.942 39.6106H233.374C233.316 40.607 233.837 41.4158 234.937 41.5402C236.095 41.7273 237.253 41.7273 238.41 41.6647C239.279 41.6028 240.089 41.2913 241.016 41.1049V44.5901C237.716 45.3369 234.358 45.8973 231.058 44.5901C228.626 43.6569 227.411 41.6028 227.179 38.8638C227.121 37.9306 227.121 36.9342 227.295 36.001C227.584 33.8844 228.684 32.3907 230.537 31.582C232.852 30.5237 235.284 30.3366 237.774 31.0215C240.263 31.7065 241.71 33.8844 242 37.1212C242 37.9306 241.942 38.7393 241.942 39.6106ZM176.405 31.0841H179.242V35.0671H176.464C176.464 36.6853 176.405 38.117 176.464 39.6106C176.521 40.4819 177.101 40.9179 177.911 40.9179C178.316 40.9179 178.722 40.7934 179.242 40.7934V44.4656C179.242 44.5901 179.069 44.839 178.895 44.839C177.158 45.3994 175.422 45.6484 173.627 45.3369C171.659 45.026 170.443 43.7188 170.211 41.5402C170.037 39.7977 170.095 37.9925 170.095 36.2499V35.1297H167.895V31.146H170.095V28.4077C170.095 28.1581 170.327 27.7853 170.5 27.7228C172.295 27.1004 174.09 26.54 175.885 25.9176C176.001 25.8557 176.174 25.8557 176.405 25.7932V31.0841ZM157.416 30.8345C157.416 31.0215 157.474 31.146 157.474 31.333V36.4363C157.185 36.3744 157.011 36.3744 156.78 36.3118C154.579 36.001 152.843 37.5572 152.785 39.984V44.2167V45.026H146.532V31.146H152.38V33.9469C153.537 31.7684 154.927 30.3366 157.416 30.8345ZM187.405 45.026H181.153V31.0841H186.942V33.8844C187.001 33.9469 187.058 33.9469 187.058 34.0095C188.043 31.8309 189.432 30.2747 191.98 30.8345V36.3744C191.748 36.3118 191.516 36.3118 191.343 36.2499C189.143 35.9384 187.405 37.5572 187.405 39.9221V44.2792V45.026Z" fill="white"/>
<path d="M167 45.5H160V32.5H167V45.5Z" fill="white"/>
<path d="M160.14 31.0872V26.3906H166.619V31.0872H160.14Z" fill="white"/>
</svg>
