<?xml version="1.0" encoding="utf-8"?>
<svg width="1000" height="75" viewBox="0 0 1000 75" fill="none" xmlns="http://www.w3.org/2000/svg">
<path d="M624.814 45.7804H628.283C628.646 45.7804 628.893 45.6926 628.965 45.4291C629.009 45.2395 628.922 45.0041 628.777 44.9163C628.588 44.7699 628.341 44.8144 628.08 44.7699C627.805 44.7266 627.528 44.5498 627.528 44.1997V33.186L632.043 41.8414C632.289 42.2805 632.726 42.2805 632.914 41.8848L637.327 33.0396V44.0521C637.327 44.668 636.543 44.8437 636.005 44.8577C635.686 44.8577 635.498 45.2395 635.584 45.4444C635.657 45.6493 635.831 45.7664 636.136 45.7664H640.97C641.319 45.7664 641.406 45.6493 641.479 45.4584C641.551 45.2676 641.392 44.8577 641.115 44.8577C640.636 44.8577 639.911 44.6388 639.911 44.0521L639.882 31.8675C639.882 31.6334 639.896 31.1498 640.056 30.8863C640.187 30.6814 640.419 30.5198 641.072 30.4905C641.551 30.4472 641.755 29.5971 640.926 29.5971H637.923C637.689 29.5971 637.544 29.7142 637.486 29.8325L633.074 38.824L628.211 29.8325C628.138 29.685 627.95 29.6124 627.702 29.6124H624.901C624.088 29.6124 624.16 30.5198 624.741 30.5058C625.452 30.4905 625.902 30.6955 625.902 31.3114L625.887 44.243C625.887 44.668 625.38 44.7699 624.814 44.8437C624.509 44.8577 624.305 45.2395 624.408 45.4736C624.481 45.6493 624.611 45.7804 624.814 45.7804ZM539.29 39.4282L545.792 51.2322L545.779 43.6458L539.29 39.4282ZM552.751 39.4059L546.247 43.6248V51.21L552.751 39.4059ZM552.577 39.0991H539.439L546.016 43.2583L552.577 39.0991ZM546.02 52.5718L538.37 38.687H553.657L546.02 52.5718ZM531.06 24.9053L537.564 36.7093L537.55 29.1229L531.06 24.9053ZM538.008 29.1112V36.6976L544.512 24.8924L538.008 29.1112ZM531.212 24.554L537.789 28.7143L544.35 24.554H531.212ZM537.791 38.0477L530.141 24.1641H545.427L537.791 38.0477ZM531.06 51.9804L537.55 47.7616L537.564 40.1764L531.06 51.9804ZM538.008 47.7745L544.512 51.9922L538.008 40.1881V47.7745ZM531.212 52.3083H544.35L537.789 48.1492L531.212 52.3083ZM530.149 52.7029L537.798 38.8193L545.434 52.7029H530.149ZM545.782 33.2293L545.796 25.6429L539.292 37.447L545.782 33.2293ZM552.751 37.4786L546.247 25.6745V33.2609L552.751 37.4786ZM539.442 37.7854H552.578L546.018 33.6263L539.442 37.7854ZM546.02 24.2917L553.657 38.1753H538.37L546.02 24.2917ZM529.78 25.6722V33.2586L536.283 37.4763L529.78 25.6722ZM522.831 37.4563L529.32 33.2387L529.335 25.6523L522.831 37.4563ZM529.563 33.6239L522.987 37.783H536.124L529.563 33.6239ZM529.563 24.2917L537.198 38.1753H521.912L529.563 24.2917ZM529.302 43.6564L522.813 39.4375L529.317 51.2428L529.302 43.6564ZM536.271 39.4059L529.768 43.6248V51.21L536.271 39.4059ZM522.983 39.0991L529.559 43.2583L536.121 39.0991H522.983ZM521.92 38.7057H537.205L529.57 52.5893L521.92 38.7057ZM566.451 42.955C566.451 43.3941 566.553 44.0088 566.742 44.2149C567.061 44.5954 567.686 44.7559 568.193 44.8156C569.108 44.9175 570.095 44.7278 570.821 44.1411C572.259 43.0276 572.375 40.6694 571.445 39.0886C571.082 38.4587 570.472 38.0348 569.79 37.8147C569.282 37.6683 568.237 37.6531 568.005 37.6097C567.627 37.5512 567.381 37.0969 567.555 36.7597C567.773 36.3791 568.28 36.4376 568.701 36.3932C569.442 36.3053 570.226 36.1004 570.734 35.5583C571.387 34.9295 571.59 33.933 571.445 33.0701C571.343 32.3371 571.068 31.5608 570.472 31.1217C569.703 30.5503 568.483 30.4472 567.555 30.7985C567.032 31.0046 566.451 31.3851 566.451 31.9999V42.955ZM562.934 31.0163C563.021 30.5772 563.544 30.3863 563.95 30.2107C564.615 29.9273 565.317 29.7575 566.019 29.6299C568.707 29.1405 571.729 29.1662 573.256 31.0901C574.3 32.4085 574.242 34.5314 573.111 35.762C572.515 36.3768 571.31 36.9189 570.773 37.0067C571.266 37.0067 571.775 37.1976 572.225 37.3732C572.674 37.5489 573.43 38.105 573.981 38.7198C575.128 40.0675 574.866 42.2641 573.995 43.7582C573.502 44.6072 572.631 45.1938 571.789 45.5884C570.367 46.2476 568.712 46.2043 567.159 46.0579C565.808 45.9256 564.429 45.7933 563.254 45.0474C563.021 44.8718 562.759 44.5638 562.861 44.2711C562.992 43.9046 563.457 43.9046 563.646 43.8168C563.849 43.7137 563.906 43.5674 563.906 43.3917L563.95 32.0713C563.95 31.8956 563.936 31.7633 563.849 31.7633C563.428 31.7633 562.847 31.4413 562.934 31.0163Z" fill="white"/>
<path d="M645.809 45.2337C644.982 46.8589 644.038 48.4115 642.965 49.8611C642.907 49.9642 642.82 50.1539 643.081 50.1539H644.794C644.982 50.1539 645.07 50.1539 645.186 49.8166L650.44 36.9588C650.644 36.4166 650.905 36.3721 651.399 36.3148C651.66 36.2843 651.762 35.611 651.18 35.611H648.104C647.421 35.611 647.624 36.2995 647.928 36.3148C648.278 36.3288 648.539 36.3429 648.713 36.3874C649.061 36.4752 649.148 36.885 649.018 37.1637L646.87 42.6998L644.475 37.0759C644.388 36.8557 644.417 36.5923 644.635 36.4752C644.837 36.3429 645.186 36.3581 645.302 36.3581C645.621 36.3429 645.795 35.611 645.084 35.611H641.295C640.598 35.611 640.772 36.3429 641.12 36.3429C641.702 36.3429 642.006 36.5923 642.239 37.1344L645.809 45.2337ZM705.258 42.8017V36.2843C705.258 36.0501 705.243 35.7715 705.026 35.6403C704.866 35.5818 704.663 35.6696 704.387 35.7715L702.296 36.5478C701.919 36.6649 701.875 37.0759 702.064 37.2515C702.18 37.3686 702.399 37.3826 702.602 37.3826C702.95 37.3826 703.139 37.6754 703.139 37.8217L703.182 43.0218C703.182 43.9 703.341 44.6611 703.878 45.1892C704.576 45.8917 705.636 46.024 706.666 45.9503C707.595 45.8917 708.509 45.4819 709.163 44.8227L709.366 45.8039H712.167C712.894 45.8039 712.894 45.0135 712.314 45.0135C711.935 45.0135 711.645 44.8086 711.398 44.6178C711.268 44.5147 711.166 44.2805 711.166 43.8707V36.1672C711.166 35.83 710.992 35.6836 710.847 35.6403C710.672 35.5818 710.382 35.6836 710.222 35.7574L708.161 36.6215C707.799 36.782 707.784 37.1344 707.9 37.31C707.987 37.4119 708.132 37.426 708.248 37.426C708.698 37.4119 709.017 37.5583 709.017 37.8217L709.033 42.7138C709.04 45.1974 705.258 45.7372 705.258 42.8017ZM689.603 38.4423C688.311 37.125 685.394 34.9858 684.667 34.5467C683.957 34.1076 683.549 33.1404 683.753 32.3067C683.885 31.7646 684.247 31.3243 684.697 31.0608C685.336 30.7096 686.294 30.7388 686.801 30.9004C688.035 31.3103 689.023 32.1884 689.705 33.2434C689.864 33.4917 690.301 33.3172 690.402 33.0233C690.475 32.8477 690.475 32.6135 690.475 32.4519C690.431 31.5152 690.243 30.4754 689.85 29.6698C689.778 29.4942 689.603 29.2155 689.357 29.2155C688.733 29.1722 688.979 29.7436 688.369 29.8314C688.238 29.8314 687.992 29.7728 687.789 29.7283C687.092 29.5234 686.279 29.3911 685.467 29.4204C684.436 29.4649 683.361 29.7436 682.563 30.3723C681.518 31.2365 681.111 32.7458 681.43 34.0631C681.692 35.1614 682.592 36.0408 683.462 36.7726C684.755 37.8709 686.453 38.6625 687.528 39.8919C688.122 40.5804 688.501 41.386 688.471 42.3965C688.442 43.0558 688.108 43.729 687.571 44.1693C686.933 44.681 686.018 44.784 685.249 44.7255C684.406 44.681 683.565 44.2419 682.926 43.6564C682.491 43.2899 682.186 42.66 681.72 42.2654C681.474 42.0745 681.082 41.9867 680.85 42.2361C680.676 42.4117 680.676 42.763 680.705 42.8953L681.387 45.8531C681.445 46.1165 681.72 46.2629 681.88 46.2629C682.389 46.2629 682.723 45.6774 683.216 45.6774C683.58 45.6774 683.885 45.9116 684.232 45.9854C685.51 46.2629 687.034 46.3367 688.297 45.7653C689.211 45.3695 690.053 44.6084 690.475 43.6564C691.258 41.8837 690.867 39.7456 689.603 38.4423ZM727.926 42.9984C728.579 41.153 728.593 38.9271 727.447 37.3604C726.779 36.4377 725.66 35.6614 724.543 35.6473C723.919 35.6473 723.208 35.6907 722.627 35.9986C722.336 36.1743 721.93 36.5689 722.118 36.9061C722.206 37.0384 722.278 37.111 722.511 37.111C722.816 37.1262 723.091 36.8768 723.367 36.8335C723.904 36.7304 724.471 36.789 724.92 37.1403C725.85 37.8873 725.981 39.5863 725.995 40.406C725.995 40.5242 725.981 42.8672 725.312 43.8625C724.761 44.7711 723.498 45.1365 722.497 44.7419C722.003 44.551 721.567 44.0241 721.567 43.5112V29.9344C721.567 29.7002 721.509 29.4953 721.321 29.4075C721.176 29.3349 720.987 29.3642 720.623 29.5246L718.635 30.404C718.257 30.5796 718.112 30.8431 718.301 31.0925C718.432 31.2388 718.693 31.2821 718.881 31.2821C719.187 31.2821 719.477 31.5901 719.477 31.8688V43.9222C719.477 44.2723 718.809 44.1271 718.533 44.2876C718.301 44.4339 718.272 44.7711 718.446 44.9608C718.533 45.0639 718.707 45.181 718.867 45.2395C720.289 45.928 721.945 46.1774 723.57 46.0884C724.601 46.0158 725.704 45.7372 726.488 45.0932C727.141 44.551 727.636 43.8332 727.926 42.9984ZM735.22 35.638C734.597 35.638 733.886 35.6825 733.305 35.9904C733.014 36.1661 732.608 36.5607 732.797 36.8979C732.884 37.0302 732.956 37.0735 733.189 37.1028C733.435 37.1321 733.769 36.8546 734.045 36.8253C734.582 36.7363 735.148 36.7808 735.599 37.1321C736.527 37.8791 736.643 39.5781 736.672 40.3989C736.672 40.516 736.643 42.8438 735.99 43.8543C735.438 44.763 734.176 45.1295 733.174 44.7337C732.681 44.5428 732.246 44.0159 732.246 43.503V29.9274C732.246 29.6932 732.186 29.4871 731.998 29.3853C731.853 29.3267 731.664 29.356 731.302 29.5164L729.313 30.3958C728.936 30.5714 728.79 30.8349 728.979 31.0831C729.11 31.2306 729.371 31.274 729.56 31.274C729.864 31.274 730.154 31.5819 730.154 31.8606V43.9129C730.154 44.2501 729.487 44.1189 729.197 44.2794C728.979 44.4257 728.95 44.763 729.124 44.9538C729.211 45.0557 729.386 45.1728 729.545 45.2313C730.968 45.9198 732.622 46.1692 734.249 46.0814C735.279 46.0076 736.382 45.729 737.165 45.085C737.819 44.5428 738.312 43.811 738.603 42.9902C739.242 41.1448 739.271 38.9189 738.124 37.3381C737.457 36.4295 736.107 35.6532 735.22 35.638ZM701.806 49.7464C701.573 49.5403 701.196 49.7312 700.906 49.5696L700.775 49.4384C700.703 49.3647 700.659 49.2335 700.63 49.1305L700.645 40.153C700.645 38.7023 700.615 37.0337 700.949 35.5841C700.978 35.3932 700.731 35.2176 700.557 35.1731C700.354 35.1298 700.137 35.2469 699.961 35.364C699.671 35.5537 699.469 35.8757 699.338 36.2422C697.393 35.2902 694.808 35.2609 693.255 36.8581C692.457 37.6777 691.993 38.9224 691.891 39.9774C691.717 41.4422 691.862 42.9796 692.588 44.2243C693.066 45.0147 693.807 45.6599 694.721 45.9233C695.448 46.1435 696.304 46.1142 697.015 45.9233C697.567 45.777 698.249 45.3519 698.046 44.8391C697.886 44.4 697.262 44.6927 696.87 44.8098C696.275 44.9854 695.651 44.8391 695.259 44.5171C694.765 44.1072 694.489 43.4187 694.359 42.8918C694.01 41.4703 693.981 39.7139 694.634 38.2924C694.881 37.7503 695.259 37.2679 695.781 37.0044C696.26 36.7691 696.827 36.7843 697.32 36.9447C697.712 37.063 697.944 37.1801 698.191 37.4728C698.424 37.7808 698.554 38.2351 698.554 38.5266V49.0134C698.554 49.2335 698.453 49.4818 698.263 49.6141C697.93 49.7897 697.451 49.5403 697.175 49.7897C697.015 49.922 696.958 50.1562 697.074 50.3166C697.175 50.4923 697.393 50.4923 697.581 50.5356H701.138C701.428 50.4923 701.819 50.5356 701.937 50.2733C702.024 50.0965 701.937 49.8775 701.806 49.7464ZM655.493 44.7079C654.782 44.4878 654.159 43.7993 653.882 43.1846C653.258 41.7783 653.244 40.1238 653.737 38.6589C653.969 37.9412 654.362 37.2234 655.058 36.9166C655.522 36.7105 656.045 36.652 656.524 36.8428C657.061 37.077 657.496 37.5747 657.583 38.1601C657.641 38.5419 657.424 39.084 657.206 39.2444L654.565 40.9879C654.304 41.1635 654.186 41.6026 654.376 41.8661C654.55 42.1003 654.971 42.071 655.218 41.9246L658.991 39.6109C659.471 39.3322 659.921 38.8053 659.863 38.2046C659.762 37.3112 659.021 36.5794 658.252 36.1836C656.64 35.3195 654.492 35.4811 653.026 36.5794C651.342 37.8534 650.833 40.2116 651.269 42.2619C651.589 43.8145 652.721 45.2348 654.246 45.791C655.348 46.1575 656.684 46.1435 657.715 45.8203C658.136 45.7032 658.542 45.4983 658.876 45.2934C659.341 45.0147 659.805 44.6634 660.037 44.2396C660.139 44.0487 660.211 43.8438 660.182 43.6236C660.124 43.3742 659.805 43.2138 659.558 43.2876C659.093 43.4328 658.426 44.2396 657.831 44.5171C657.148 44.8391 656.234 44.9421 655.493 44.7079ZM670.912 38.9435C670.752 38.8112 670.316 38.5184 670.171 38.0208C670.069 37.6543 670.287 37.2152 670.606 36.9658C671.216 36.5267 672.102 36.7761 672.697 37.2152C673.162 37.5817 673.538 38.0793 673.814 38.5184C673.959 38.7819 674.526 38.4306 674.482 38.1812L674.046 36.0724C674.004 35.8534 673.872 35.7211 673.684 35.7071C673.321 35.6485 673.089 36.0724 673.002 36.0291C671.927 35.6626 670.606 35.4717 669.503 35.9705C668.98 36.1602 668.501 36.5267 668.24 37.0536C667.834 37.7714 667.863 38.6941 668.24 39.3966C668.458 39.8217 668.734 40.1144 669.068 40.3638C669.967 41.0523 670.999 41.7408 671.985 42.3708C672.639 42.7946 672.944 43.7759 672.494 44.4058C672.188 44.8309 671.623 44.9772 671.1 44.9772C670.243 44.9035 669.489 44.3625 668.967 43.674C668.69 43.3368 668.443 42.8391 668.023 42.9703C667.834 43.044 667.617 43.2349 667.704 43.674L668.08 45.8554C668.11 46.0311 668.255 46.1341 668.356 46.1341C668.69 46.1341 668.704 45.9444 668.951 45.8414C669.156 45.7536 669.329 45.7091 669.547 45.7243C669.837 45.7676 670.055 45.9292 670.345 45.9737C671.913 46.2957 673.872 45.8554 674.599 44.3625C675.019 43.4984 674.961 42.3555 674.41 41.564C673.116 39.7081 672.602 40.4048 670.912 38.9435ZM589.532 43.6775C589.256 43.3415 589.01 42.8426 588.589 42.975C588.399 43.0335 588.196 43.2384 588.268 43.6775L588.647 45.8449C588.676 46.0217 588.821 46.1388 588.922 46.1388C589.256 46.1388 589.271 45.9479 589.517 45.8308C589.721 45.743 589.894 45.7137 590.112 45.7278C590.403 45.7571 590.621 45.9187 590.911 45.9772C592.479 46.2992 594.439 45.8449 595.164 44.366C595.586 43.4878 595.527 42.3602 594.975 41.5687C593.773 39.8439 593.217 40.3697 591.477 38.947C591.317 38.8158 590.882 38.5079 590.737 38.0243C590.635 37.659 590.853 37.2187 591.172 36.9705C591.781 36.5314 592.682 36.7796 593.262 37.2187C593.728 37.5852 594.105 38.0688 594.38 38.5219C594.525 38.7866 595.091 38.4201 595.048 38.1859L594.613 36.0618C594.569 35.8569 594.439 35.7258 594.25 35.6965C593.887 35.652 593.655 36.0618 593.567 36.0326C592.508 35.6672 591.172 35.4764 590.069 35.96C588.716 36.5525 588.042 37.9494 588.806 39.4013C589.024 39.8111 589.3 40.1191 589.633 40.3685C590.534 41.0558 591.564 41.7303 592.552 42.3743C593.219 42.7993 593.509 43.7806 593.059 44.4105C592.755 44.8344 592.189 44.9807 591.665 44.9667C590.809 44.9081 590.054 44.366 589.532 43.6775ZM580.26 35.7047L579.898 35.8359C579.317 36.056 578.925 36.6122 578.663 37.1695V35.9389C578.663 35.6462 578.446 35.5876 578.04 35.748L575.66 36.7152C575.325 36.8464 575.296 37.1836 575.455 37.344C575.572 37.4915 575.805 37.5056 575.979 37.5056C576.24 37.5056 576.574 37.5349 576.574 37.8721V44.5358C576.574 45.0042 575.89 44.7993 575.528 45.0042C575.296 45.1213 575.267 45.4585 575.397 45.6341C575.455 45.6927 575.543 45.7805 575.731 45.7805H579.579C579.811 45.7805 580 45.6341 580.043 45.4433C580.058 45.3414 580.014 45.1657 579.898 45.0627C579.608 44.8145 579.129 45.0475 578.867 44.77C578.78 44.6669 578.707 44.5943 578.707 44.462V39.4247C578.707 38.6625 579.026 37.8276 579.695 37.4763C579.869 37.3744 580.101 37.344 580.304 37.3592C580.696 37.3885 581.089 37.5208 581.422 37.7983C581.524 37.9014 581.654 37.8721 581.741 37.7398L582.468 36.7293C582.787 36.2457 581.959 35.7925 581.436 35.6754C581.045 35.5876 580.652 35.6157 580.26 35.7047ZM665.394 35.7047L665.031 35.8359C664.451 36.056 664.058 36.6122 663.797 37.1695V35.9389C663.797 35.6462 663.58 35.5876 663.173 35.748L660.793 36.7152C660.458 36.8464 660.43 37.1836 660.589 37.344C660.705 37.4915 660.938 37.5056 661.112 37.5056C661.373 37.5056 661.707 37.5349 661.707 37.8721V44.5358C661.707 45.0042 661.025 44.7993 660.661 45.0042C660.43 45.1213 660.401 45.4585 660.531 45.6341C660.589 45.6927 660.676 45.7805 660.866 45.7805H664.712C664.944 45.7805 665.133 45.6341 665.176 45.4433C665.191 45.3414 665.147 45.1657 665.031 45.0627C664.741 44.8145 664.262 45.0475 664.002 44.77C663.913 44.6669 663.841 44.5943 663.841 44.462V39.4247C663.841 38.6625 664.161 37.8276 664.828 37.4763C665.002 37.3744 665.234 37.344 665.437 37.3592C665.829 37.3885 666.222 37.5208 666.556 37.7983C666.657 37.9014 666.788 37.8721 666.875 37.7398L667.601 36.7293C667.92 36.2457 667.093 35.7925 666.57 35.6754C666.178 35.5876 665.787 35.6157 665.394 35.7047ZM601.451 45.3871C601.598 45.27 601.743 44.948 601.67 44.7278C601.612 44.537 601.451 44.4491 601.234 44.4199C600.755 44.3473 600.523 44.7419 599.972 44.7278C599.637 44.7126 599.39 44.4199 599.39 43.9948V37.2574C599.39 37.0384 599.564 36.8335 599.753 36.8335H601.234C601.67 36.8335 601.67 35.9693 601.234 35.9693H599.39V32.1182C599.39 31.7669 599.173 31.6779 598.941 31.7962L597.431 32.6451C597.3 32.7189 597.242 32.8055 597.242 32.9823V35.9693H595.935C595.529 35.9693 595.529 36.8335 595.935 36.8335H596.923C597.141 36.8335 597.242 36.9506 597.242 37.2574V43.9948C597.242 44.7278 597.663 45.606 598.185 45.8402C598.825 46.1622 599.68 46.1329 600.291 45.9573C600.813 45.8109 601.19 45.6212 601.451 45.3871ZM623.381 41.7724C623.512 41.7724 623.628 41.6401 623.628 41.523V40.3814C623.628 40.2491 623.512 40.132 623.381 40.132H618.242C618.127 40.132 617.996 40.2491 617.996 40.3814V41.523C617.996 41.6401 618.127 41.7724 618.242 41.7724H623.381ZM612.894 45.7805H616.814C617.118 45.7805 617.249 45.2395 616.959 45.0334C616.77 44.9023 616.407 44.9456 616.161 44.8578C615.958 44.7993 615.797 44.5943 615.797 44.4187V29.7143C615.797 29.4661 615.579 29.3045 615.115 29.4801L612.923 30.3887C612.545 30.5351 612.445 30.9157 612.604 31.0913C612.677 31.1651 612.793 31.2084 612.894 31.2084C613.475 31.2084 613.692 31.3114 613.692 31.8817V44.4187C613.692 44.6388 613.562 44.7993 613.402 44.8578C613.098 45.0042 612.604 44.8285 612.458 45.195C612.357 45.4585 612.545 45.7805 612.894 45.7805ZM587.469 44.9925C587.077 44.9772 586.903 44.9339 586.772 44.8168C586.641 44.7138 586.497 44.5241 586.497 44.3484V35.9857C586.497 35.7223 586.163 35.5314 585.844 35.6778L583.375 36.7035C583.143 36.8206 583.056 37.1274 583.23 37.303C583.332 37.3908 583.462 37.4353 583.564 37.4353C583.897 37.4494 584.363 37.5232 584.363 38.0067V44.3484C584.363 44.5405 584.04 44.859 583.783 44.8894C583.462 44.9339 583.143 45.051 583.129 45.3145C583.114 45.5639 583.288 45.7536 583.564 45.7536H587.339C587.614 45.7536 587.73 45.5931 587.774 45.4608C587.774 45.3004 587.716 45.0217 587.469 44.9925ZM716.657 44.8168C716.527 44.7138 716.381 44.5241 716.381 44.3484V35.9857C716.381 35.7223 716.047 35.5314 715.728 35.679L713.259 36.7035C713.028 36.8206 712.94 37.1286 713.114 37.3042C713.217 37.392 713.348 37.4353 713.449 37.4353C713.783 37.4506 714.247 37.5232 714.247 38.0067V44.3484C714.247 44.5674 713.913 44.8613 713.667 44.8906C713.348 44.9339 713.028 45.051 713.013 45.3145C712.998 45.5639 713.174 45.7547 713.449 45.7547H717.223C717.499 45.7547 717.615 45.5931 717.659 45.462C717.659 45.3004 717.6 45.0217 717.354 44.9925C716.962 44.9784 716.788 44.9339 716.657 44.8168ZM715.202 30.3595C714.462 30.3595 713.853 30.9742 713.853 31.7072C713.853 32.4683 714.462 33.0842 715.202 33.0842C715.943 33.0842 716.538 32.4683 716.538 31.7072C716.538 30.9742 715.943 30.3595 715.202 30.3595ZM586.665 31.7177C586.665 30.9707 586.056 30.37 585.33 30.37C584.575 30.37 583.966 30.9707 583.966 31.7177C583.966 32.4648 584.575 33.0795 585.33 33.0795C586.056 33.0795 586.665 32.4648 586.665 31.7177Z" fill="white"/>
<path d="M604.623 37.7501C603.647 39.0592 603.501 41.9772 604.387 43.6598C605.396 45.5777 607.805 45.4208 608.839 43.7136C609.72 42.2605 609.843 39.489 608.798 37.8836C607.809 36.3638 605.873 36.1308 604.623 37.7501ZM609.159 45.6058C607.726 46.3084 605.407 46.2873 603.846 45.4349C602.472 44.6855 601.336 42.1692 601.502 40.3964C601.731 37.9574 602.77 36.6659 604.249 36.0664C606.121 35.3076 608.111 35.5476 609.3 36.1717C610.761 36.9387 611.756 38.4585 611.802 40.2301C611.991 42.0755 611.061 44.6679 609.159 45.6058Z" fill="white"/>
<path d="M369.468 46.1824C369.124 46.6697 368.002 48.125 366.606 48.125C364.718 48.125 364.323 46.7705 364.323 45.6349C364.323 43.7672 365.722 42.9029 369.468 41.9575V46.1824ZM374.132 48.4706C374.078 48.3253 373.93 48.2431 373.785 48.2779L373.74 48.2897C373.309 48.3853 372.978 48.3585 372.746 48.1984C372.417 47.9705 372.257 47.4572 372.257 46.6294V39.1411C372.257 36.2164 370.55 34.7333 367.184 34.7333C364.169 34.7333 361.807 36.192 361.807 38.0537C361.807 39.0112 362.378 39.7028 363.221 39.8067C363.771 39.8746 364.296 39.6201 364.678 39.2085C365.419 38.4091 365.323 37.4585 364.425 36.4375C364.956 35.8689 365.898 35.533 366.971 35.533C368.721 35.533 369.468 36.5934 369.468 39.0791V40.9716C369.058 41.1012 368.674 41.2239 367.972 41.3925C366.555 41.7322 364.611 42.1847 363.145 43.0128C361.935 43.6904 361.321 44.7608 361.321 46.1945C361.321 47.7548 362.323 49.5768 365.147 49.5768C366.728 49.5768 368.146 48.8098 369.6 47.1656C369.725 48.8745 370.359 49.5149 371.896 49.5149C372.635 49.5149 373.227 49.3389 373.93 48.9909C374.12 48.8967 374.211 48.6709 374.132 48.4706ZM405.505 35.4395C403.776 35.4395 401.792 36.1994 401.792 42.1244C401.792 46.643 403.096 48.8391 405.779 48.8391C408.346 48.8391 409.491 46.7683 409.491 42.1244C409.491 37.6259 408.187 35.4395 405.505 35.4395ZM405.656 49.639C401.656 49.639 398.638 46.4353 398.638 42.186C398.638 38.0252 401.787 34.6402 405.656 34.6402C409.575 34.6402 412.645 37.9 412.645 42.0619C412.645 46.742 409.018 49.639 405.656 49.639ZM336.47 46.6293V41.2121H338.511C341.556 41.2121 343.872 40.5536 345.396 39.2542C346.989 37.8964 347.323 36.1758 347.323 34.9714C347.323 30.0182 342.647 28.9785 338.724 28.9785L338.739 28.9782H330.783C330.602 28.9782 330.456 29.1278 330.456 29.312V29.3342V29.3268C330.456 29.497 330.557 29.6485 330.713 29.7071C331.422 29.9735 333.347 29.5989 333.347 31.7089L333.347 46.6263C333.347 47.7117 332.877 48.4771 330.724 48.6848C330.554 48.7015 330.425 48.8446 330.425 49.0172V49.0682C330.425 49.252 330.571 49.4019 330.751 49.4019H339.252C339.432 49.4019 339.579 49.252 339.579 49.0682V49.0224C339.579 48.8501 339.445 48.704 339.275 48.6903C336.937 48.499 336.467 47.7589 336.467 46.6263V41.2217L336.47 46.6293ZM343.805 34.909C343.805 38.3557 342.973 40.2541 338.724 40.2541H336.47V29.8403H338.815C343.212 29.8403 343.805 32.4025 343.805 34.909ZM350.187 40.2649C350.497 37.1599 351.683 35.4577 353.545 35.4577C354.477 35.4577 355.168 35.7213 355.656 36.2636C356.328 37.0089 356.611 38.355 356.5 40.2649H350.187ZM353.757 34.6326C350.057 34.6326 347.047 38.0568 347.047 42.2664C347.047 46.5272 349.869 49.6199 353.757 49.6199C357.025 49.6199 358.615 47.6247 359.526 46.1241C359.616 45.9764 359.577 45.7808 359.437 45.6786L359.394 45.6473C359.253 45.5446 359.057 45.5734 358.948 45.7134C357.746 47.2529 356.695 48.144 354.879 48.144C352.582 48.144 350.128 46.5267 350.128 41.9872V41.9535C350.124 41.7529 350.129 41.478 350.136 41.2215H359.533C359.559 41.2215 359.58 41.2013 359.582 41.175L359.588 41.098C359.72 39.236 359.205 37.5641 358.137 36.3891C357.091 35.2401 355.577 34.6326 353.757 34.6326ZM392.708 40.433C392.707 40.4327 392.706 40.4327 392.705 40.4322C390.135 39.6956 389.134 38.9497 389.134 37.7727C389.134 36.4311 390.176 35.4578 391.611 35.4578C393.3 35.4578 394.023 36.2826 395.805 39.3278L395.829 39.3684C395.837 39.384 395.853 39.3933 395.871 39.3933H396.115C396.295 39.3933 396.442 39.2434 396.442 39.0593V34.6831C396.442 34.6551 396.42 34.6327 396.393 34.6327H396.07C395.972 34.6327 395.88 34.6773 395.818 34.7549L395.249 35.4624C394.531 35.058 393.361 34.6327 392.188 34.6327C389.236 34.6327 387.174 36.4974 387.174 39.167C387.174 41.6724 388.8 42.6115 391.607 43.3862C394.334 44.1496 395.301 44.9432 395.301 46.4185C395.301 48.0575 393.746 48.7952 392.642 48.7952C390.589 48.7952 389.721 48.015 387.753 44.4014L387.73 44.3584C387.721 44.3425 387.705 44.3324 387.687 44.3324H387.441C387.261 44.3324 387.114 44.482 387.114 44.6661V49.5698C387.114 49.5972 387.136 49.6197 387.163 49.6197H387.497C387.583 49.6197 387.667 49.5844 387.728 49.5222L388.628 48.6025C389.681 49.2706 391.255 49.6197 392.278 49.6197C393.814 49.6197 395.076 49.1229 395.929 48.1822C396.689 47.3445 397.108 46.1566 397.108 44.8377C397.108 42.5539 395.916 41.3603 392.708 40.433ZM377.157 47.6417C377.157 48.3977 376.969 48.6452 375.792 48.7208C375.621 48.732 375.487 48.8781 375.487 49.0535C375.487 49.2371 375.633 49.3867 375.813 49.3867H381.629C381.805 49.3867 381.949 49.2395 381.949 49.0592C381.949 48.8808 381.814 48.7345 381.64 48.7257C380.294 48.6597 379.946 48.4369 379.946 47.6414V38.9257C380.903 37.2988 381.591 36.4474 382.752 36.1901C382.696 36.3954 382.659 36.642 382.659 36.842C382.659 37.9009 383.383 38.6399 384.419 38.6399C385.437 38.6399 386.147 37.9009 386.147 36.842C386.147 35.8407 385.535 34.6709 383.811 34.6709C382.397 34.6709 381.045 35.4993 379.885 37.4819V35.2401C379.885 35.0115 379.701 34.8279 379.477 34.834L375.813 34.9337C375.635 34.9392 375.496 35.085 375.496 35.2661V35.3146C375.496 35.4788 375.614 35.6199 375.768 35.6418C376.99 35.8191 377.158 36.4129 377.157 37.0284V47.6417ZM417.377 34.824C417.462 34.824 417.542 34.8572 417.603 34.9177C417.667 34.9805 417.702 35.0651 417.703 35.1558L417.716 37.6418C417.716 37.6418 418.909 34.7259 422.783 34.7259H422.817C425.232 34.7259 426.617 36.2996 426.617 39.0429V47.627C426.617 48.3834 426.805 48.6311 427.982 48.7067C428.153 48.7174 428.287 48.8632 428.287 49.0391C428.287 49.2227 428.141 49.372 427.961 49.372H422.736C422.556 49.372 422.41 49.2222 422.41 49.0383C422.41 48.8602 422.541 48.7144 422.708 48.6999C423.657 48.6171 423.808 48.3718 423.808 47.627V39.8798C423.808 37.3217 423.097 36.3254 421.27 36.3254C420.036 36.3254 419.026 37.4267 418.395 38.3504C418.395 38.3504 418.073 38.7634 417.724 39.5397L417.763 47.6268C417.763 48.3705 417.91 48.6152 418.832 48.699C418.999 48.7138 419.129 48.8596 419.129 49.0306C419.129 49.2222 418.983 49.372 418.803 49.372H413.611C413.431 49.372 413.285 49.2227 413.285 49.0388C413.285 48.8632 413.419 48.7174 413.59 48.7064C414.767 48.6305 414.955 48.3828 414.955 47.627V37.0305C414.955 36.4117 414.786 35.8146 413.558 35.6368C413.403 35.6143 413.285 35.4729 413.285 35.3079V35.2589C413.285 35.0769 413.425 34.9303 413.603 34.9251L417.377 34.824ZM314.927 21.8669C323.233 26.7474 325.166 37.6917 319.387 48.7639C314.308 58.4973 303.218 62.6543 294.955 57.6989C286.689 52.7426 285.076 38.9168 288.628 30.9605C293.786 19.4077 305.75 16.4733 314.927 21.8669ZM303.97 50.1417C303.693 49.9163 303.381 49.7615 303.066 49.696C302.959 49.6744 302.849 49.6622 302.741 49.6622C302.147 49.6622 301.566 50.002 301.185 50.5732C300.867 51.0471 300.738 51.6139 300.822 52.1641C300.875 52.5142 301.002 52.8186 301.188 53.0453C301.397 53.3016 301.717 53.4973 302.113 53.6148C302.342 53.6812 302.577 53.7163 302.812 53.7163H302.813C303.325 53.7163 303.785 53.5568 304.143 53.2543C304.559 52.9012 304.786 52.398 304.781 51.8379C304.776 51.184 304.473 50.5492 303.97 50.1417ZM313.856 30.1562L313.833 30.1324C310.778 26.518 306.538 26.2901 303.852 26.3612C300.883 26.4397 298.751 27.4661 297.007 28.4194C295.485 29.25 294.112 30.6797 293.556 31.3894C293.201 31.8418 292.598 32.7762 292.921 33.6143C293.189 34.3097 294.188 34.2641 294.565 33.9671C294.941 33.6701 295.339 33.2187 295.856 32.7708C298.148 30.7842 300.18 29.5334 304.914 29.5334C309.648 29.5334 312.214 32.6259 312.214 35.3873C312.214 38.1488 310.968 40.0237 308.614 41.2457C307.449 41.8524 306.204 42.3204 304.636 42.3846C304.75 39.708 304.809 37.1747 304.809 37.1747C304.842 35.2484 305.154 33.6814 303.922 33.4213C302.694 33.162 300.43 33.4184 300.388 34.8874C300.332 34.6694 300.62 46.9314 300.673 47.1737L300.694 47.4549C300.718 47.7661 300.823 48.0408 301.009 48.2581C301.195 48.4756 301.495 48.6086 301.766 48.6408C301.808 48.6463 301.85 48.6487 301.894 48.6487C302.15 48.6487 302.512 48.6019 302.879 48.4929C303.339 48.3554 303.803 48.1196 304.071 47.7547C304.206 47.5686 304.317 47.3893 304.376 47.057C304.416 46.8316 304.495 45.4071 304.514 44.9939C307.004 44.9704 309.534 44.4806 311.46 43.2529C313.889 41.7045 315.349 39.3694 315.664 36.8457C315.941 34.633 315.446 31.9344 313.856 30.1562Z" fill="white"/>
<path d="M874.317 42.899H872.854V47.5663H882.692V43.0369H881.097V39.7419L881.229 39.1926V38.6433L881.361 38.2318L881.628 37.4078L881.762 37.1332L881.894 36.7217L882.027 36.447L882.292 36.3092L882.559 36.1723L882.825 36.0355L883.355 35.7609H885.749L886.015 35.8977V29.4457L885.749 29.3088H884.553L884.287 29.4457H884.021L883.622 29.5835L883.355 29.7203L882.958 29.8571L882.425 30.1318L882.292 30.2696L882.027 30.5443L881.762 30.6811L881.628 30.9558L881.495 31.2305L881.229 31.7798L881.097 32.0544L880.964 32.4659L880.831 32.7406L880.697 33.1521V33.5646V29.995H872.854V34.1129H874.317V42.899Z" fill="white"/>
<path d="M896.118 31.0925L895.586 30.5442L895.32 30.4073L895.054 30.1317L894.787 29.9948L894.522 29.857L894.124 29.7202L893.858 29.5834L893.592 29.4455H893.326L893.059 29.3087H892.528L892.396 29.1719H891.598L891.199 29.3087L890.668 29.4455L890.268 29.5834L889.737 29.7202L889.337 29.9948L888.94 30.2695L888.54 30.681L888.142 30.9557L887.876 31.3682L887.477 31.7796L887.212 32.329L887.078 32.7405L886.812 33.2898V33.8391L886.679 34.5253V35.3482L886.812 36.0354V36.5847L887.078 37.6824L887.212 38.0938L887.344 38.3685L887.609 38.781L888.142 39.3293L888.54 39.4661L888.806 39.7418L889.205 39.8796L889.604 40.1533L890.135 40.2901L890.668 40.5648L893.059 41.3888L893.459 41.5266L893.592 41.6634L893.858 41.8013L893.99 41.9381L894.124 42.2117V43.3104L893.99 43.5851L893.858 43.7219L893.592 43.8597L893.326 43.9976H893.193L892.927 44.1354H891.863L891.598 43.9976H891.465L891.199 43.8597L890.933 43.7219L890.8 43.5851L890.668 43.4482L890.534 43.1736L890.401 43.0367L890.268 42.7611L890.135 42.4874V41.3888H886.945V47.704H889.737V45.7813L889.87 46.057L890.002 46.1938L890.135 46.4685L890.268 46.6053L890.534 46.88L890.668 47.0168L890.933 47.2925L891.199 47.4293L891.465 47.5661L891.863 47.704L892.262 47.8408L892.528 47.9776L892.927 48.1155H893.858L894.389 48.2533L894.921 48.1155H895.32L895.852 47.9776L896.384 47.8408L896.782 47.5661L897.314 47.4293L897.978 46.7432L898.377 46.3307L898.644 45.9192L898.91 45.3699L899.175 44.9584L899.307 44.409L899.574 43.0367V41.2519L899.441 40.7026V40.1533L899.307 39.7418L899.175 39.1925L898.91 38.781L898.776 38.5053L898.51 38.0938L898.244 37.8202L897.846 37.4077L897.447 37.2709L897.048 36.9962L896.649 36.7215L896.118 36.5847L895.586 36.4469L892.396 35.6239L892.129 35.3482L891.996 35.2114L891.863 35.0736L891.598 34.7999V34.1128L891.73 33.9759V33.7013L891.863 33.5644L892.129 33.2898L892.396 33.1519H892.661L893.193 33.0151L893.459 33.1519H893.858L894.256 33.2898L894.655 33.4276L894.921 33.7013L895.32 34.1128L895.586 34.6631L895.984 35.2114H898.776V29.4455H896.118V31.0925Z" fill="white"/>
<path d="M911.805 47.4293H919.78V43.0368H918.451V34.5253L918.318 33.7013L918.185 33.0152L917.92 31.9165L917.654 31.3682L917.388 30.9557L917.122 30.5442L916.723 30.2695L916.457 30.1317L916.058 29.857L915.66 29.7202L915.26 29.5834L914.862 29.4456H913.134L912.602 29.5834H912.203L911.805 29.7202L911.539 29.857L911.141 29.9949L910.74 30.2695L910.475 30.4074L910.077 30.681L909.81 30.9557L909.545 31.2304L909.279 31.505L909.012 31.7797L908.747 32.0543L908.481 32.4658V21.4834H900.239V25.6013H901.967V43.0368H900.239V47.4293H909.943V43.0368H908.481V36.8594L908.615 36.4469V36.1722L908.747 35.8976V35.7608L909.012 35.2114L909.146 35.0736L909.412 34.7999H909.545L909.678 34.6631H910.475L910.74 34.7999H910.874L911.141 34.9368L911.273 35.0736L911.406 35.3483V35.4861L911.539 35.7608L911.672 35.8976V36.1722L911.805 36.4469V47.4293Z" fill="white"/>
<path d="M923.236 28.3469H929.75V22.0327H923.236V28.3469Z" fill="white"/>
<path d="M923.37 42.8989H921.508V47.2925H931.479V42.8989H929.751V29.9949H921.242V34.1128H923.37V42.8989Z" fill="white"/>
<path d="M944.905 47.2926H952.881V42.899H951.552V33.9761L951.418 33.2899V32.7406L951.286 32.0544L951.02 31.6419L950.754 31.2305L950.488 30.818L950.09 30.4075L949.69 30.1318L949.292 29.995L948.892 29.7203L948.361 29.5835L947.962 29.4457L947.564 29.3088H945.304L945.038 29.4457L944.772 29.5835L944.373 29.7203L944.107 29.8571L943.708 30.1318L943.442 30.2696L943.044 30.5443L942.778 30.818L942.512 31.0926L942.246 31.5051L941.98 31.7798L941.714 32.1913L941.582 32.6038V29.7203H933.207V34.1129H934.935V42.899H933.207V47.2926H943.044V42.899H941.582V36.1724L941.714 35.624L941.98 35.2115L942.246 34.9369L942.512 34.6632L942.778 34.5254H943.442L943.708 34.6632L943.974 34.8001L944.24 34.9369L944.506 35.2115L944.905 36.447V47.2926Z" fill="white"/>
<path d="M837.228 41.8008V26.5632H834.968V20.9348H848.528L849.458 21.0718L850.256 21.2088L851.053 21.3467L851.85 21.6207L853.18 22.4445L853.712 22.8563L854.243 23.406L854.775 24.092L855.174 24.6408L855.44 25.3276L855.971 26.9751L856.238 28.6226V30.4071L855.971 32.3286L855.705 33.0153L855.44 33.8391L855.041 34.525L854.642 35.0739L854.111 35.6236L853.446 36.1725L852.781 36.5843L852.116 36.8592L851.319 37.1332L850.521 37.4081L848.66 37.6821H844.805V41.8008H847.065V47.4292H834.968V41.8008H837.228ZM844.805 32.8783H846.533L846.8 32.7405L847.198 32.6034L847.464 32.4656L847.73 32.3286L847.995 32.1916L848.262 31.9167L848.395 31.6419L848.528 31.5048L848.926 30.6811V29.1714L848.793 29.0336V28.6226L848.66 28.4847L848.395 27.9358L848.129 27.661L847.995 27.3869L847.73 27.2491L847.464 26.9751L847.198 26.838L846.932 26.7002L846.666 26.5632H844.805V32.8783ZM866.207 41.5268H871.658L871.392 42.3497L871.259 43.0365L870.993 43.7224L870.594 44.4091L870.328 44.958L869.929 45.5077L869.398 45.9196L868.999 46.4685L868.467 46.7433L867.935 47.1544L867.271 47.4292L866.739 47.5662L866.074 47.8411L865.41 47.9781H864.745L864.081 48.1159L863.017 47.9781L861.954 47.8411L861.023 47.7041L860.225 47.2922L859.428 47.0173L858.631 46.4685L858.098 45.9196L857.433 45.3699L857.035 44.6831L856.238 43.0365L855.705 41.389L855.573 40.4282V39.3296L855.44 38.3688L855.573 37.2711L855.839 35.3487L856.105 34.388L856.37 33.5642L856.769 32.8783L857.168 32.0546L857.7 31.3678L858.365 30.8181L859.03 30.27L859.694 29.8574L860.491 29.4455L861.289 29.1714L862.087 28.8966L863.017 28.7596H865.011L865.942 28.8966L866.872 29.1714L867.67 29.4455L868.467 29.8574L868.999 30.4071L869.664 30.956L870.196 31.5048L870.594 32.3286L870.993 33.0153L871.392 33.8391L871.658 34.6628L871.924 36.5843L872.056 37.6821V39.8793H861.821V40.9771L861.954 41.389V41.6638L862.087 42.0749V42.3497L862.486 43.1735L862.751 43.3105L863.017 43.5853L863.15 43.7224H863.416L863.815 43.8602H864.613L865.011 43.5853L865.41 43.3105L865.676 42.8986L865.942 42.6246L866.207 41.8008V41.5268ZM861.821 36.7213H866.074V35.6236L865.942 35.2117V34.9368L865.676 34.388V34.1131L865.543 33.8391L865.277 33.7012L865.144 33.4272L864.613 33.1523L864.346 33.0153H863.682L863.283 33.1523L863.017 33.2894L862.751 33.5642L862.486 33.7012L862.087 34.525L861.954 34.9368V35.4857L861.821 35.7606V36.7213ZM964.047 31.7797V29.5833H972.023V33.9761H970.561V46.4685L970.428 47.5662L970.162 49.2137L969.764 50.0375L969.365 50.7242L968.832 51.4101L968.301 51.959L967.769 52.3709L967.105 52.7827L966.44 53.1946L965.642 53.4695L964.845 53.7443L964.047 54.0184L963.25 54.1554H958.863L958.331 54.0184H957.933L957.534 53.8813H957.135L956.869 53.7443H956.337L956.204 53.6065H955.938L956.337 48.39H956.47V48.5278L956.736 48.6648L957.001 48.8018L957.799 49.0767L958.464 49.2137L959.129 49.3507H961.122L961.256 49.2137H961.521L961.655 49.0767H961.787L962.054 48.9389L962.186 48.8018L962.319 48.6648L962.585 48.39L962.718 48.253L962.851 47.9781L962.984 47.7041L963.117 47.4292L963.25 47.1544L963.383 46.7433V46.1936L963.516 45.9196V45.5077L963.648 45.3699V45.0958L963.383 45.3699L963.117 45.6447L962.984 45.7817L962.718 46.0566L962.186 46.3306L961.92 46.4685L961.787 46.6055L961.521 46.7433L961.256 46.8803L960.724 47.1544H960.325L960.192 47.2922H959.927L958.996 47.1544L958.065 47.0173L957.268 46.6055L956.47 46.3306L955.806 45.9196L954.742 44.821L954.343 44.2721L953.944 43.5853L953.413 42.2119L953.146 41.389L953.014 40.7022V39.8793L952.881 39.1926V37.2711L953.146 35.3487L953.413 34.388L953.679 33.5642L954.078 32.7405L954.343 32.0546L954.874 31.5048L955.273 30.956L955.806 30.4071L956.47 29.9952L957.001 29.7203L957.666 29.4455L958.464 29.1714L959.129 29.0336H960.857L961.122 29.1714L961.389 29.3085H961.655L961.92 29.4455L962.186 29.7203L962.452 29.8574L962.718 30.1322L962.984 30.27L963.25 30.5441L963.383 30.8181L963.648 31.093L963.914 31.5048L964.047 31.7797ZM964.047 38.2318V37.5451L963.914 37.2711V36.8592L963.782 36.5843V36.1725L963.516 35.6236L963.383 35.3487L963.25 35.0739L962.984 34.7998L962.718 34.525L962.452 34.388L962.319 34.2509H961.787L961.521 34.388L961.256 34.525L960.99 34.6628L960.724 34.7998L960.458 35.3487L960.325 35.6236L960.192 36.0354L959.927 36.5843V37.2711L959.794 37.5451V38.7807L959.927 39.1926V39.8793L960.192 40.7022V40.9771L960.458 41.389L960.591 41.8008L960.724 42.0749L960.99 42.3497L961.122 42.4876L961.389 42.6246L961.787 42.7616H962.319L962.851 42.4876L962.984 42.3497L963.25 42.0749L963.516 41.5268L963.648 41.1141L963.782 40.8401L963.914 40.4282V39.6045L964.047 39.3296V38.2318Z" fill="white"/>
<path d="M126.621 16.5637C139.181 16.5637 149.402 26.9747 149.402 39.7668C149.402 52.5616 139.181 63.1853 126.621 63.1853C113.845 63.1853 103.626 52.5616 103.626 39.7668C103.626 26.9747 113.845 16.5637 126.621 16.5637ZM115.762 49.9596H137.266V43.0208H115.762V49.9596ZM125.77 32.6098C125.77 32.6098 122.149 27.8421 121.935 27.6239C121.512 26.9747 120.872 26.9747 120.446 27.6239C120.02 27.8421 115.762 33.4799 115.762 33.4799V43.0208L120.235 36.9493C120.872 36.2974 121.512 36.2974 121.935 36.9493C122.149 37.1647 125.77 41.9352 125.77 41.9352C126.196 42.5843 126.833 42.5843 127.259 41.9352C127.259 41.9352 130.877 37.1647 131.091 36.9493C131.519 36.2974 132.157 36.2974 132.794 36.9493L137.266 43.0208V33.4799L132.582 27.6239C132.157 26.9747 131.519 26.9747 131.091 27.6239C130.877 27.8421 127.259 32.6098 127.259 32.6098C127.047 33.0434 126.833 33.0434 126.621 33.0434C126.196 33.0434 125.981 33.0434 125.77 32.6098ZM33.1581 36.9009C33.1581 39.1841 32.1398 40.4551 29.3412 40.4551H27.0484V33.0912H28.5758H29.3412C32.1398 33.0912 33.1581 34.3622 33.1581 36.9009ZM38.7619 45.7848C38.7619 42.2306 35.7038 40.9628 32.1398 40.9628V40.7074C35.1979 40.4551 37.7404 39.1841 37.7404 36.1377C37.7404 32.8389 34.9417 32.0757 31.8869 32.0757C28.0667 32.0757 23.4844 32.3312 19.9204 32.0757V33.0912C20.6857 33.0912 22.4661 33.0912 22.4661 34.1067V49.0835C22.4661 50.1022 20.4296 50.1022 19.9204 50.1022V51.1177C23.4844 50.8623 27.8137 51.1177 31.3777 51.1177C35.1979 51.1177 38.7619 49.8468 38.7619 45.7848ZM33.9234 45.5325C33.9234 48.579 32.9019 50.1022 29.3412 50.1022H27.0484V41.4706H29.3412C32.6522 41.4706 33.9234 42.4828 33.9234 45.5325ZM64.0777 51.9128H59.041V50.8549C59.7922 50.8549 62.065 50.8549 62.065 49.7937V35.2494L54.2515 52.1756H53.4939L45.9341 35.2494V49.7937C45.9341 50.8549 48.2036 50.8549 48.958 50.8549V51.9128C46.942 51.9128 44.1717 51.6467 41.9021 51.9128V50.8549C42.9101 50.8549 44.6725 50.8549 44.6725 49.7937V34.1915C44.6725 33.3997 42.6565 33.1336 41.9021 33.1336V32.0757C44.4221 32.3419 46.942 32.3419 49.2084 32.0757L55.7635 46.3572L62.065 32.3419C64.3313 32.3419 66.8513 32.3419 69.1176 32.0757V33.1336C68.3632 33.1336 66.3473 33.1336 66.3473 34.1915V49.7937C66.3473 50.8549 68.3632 50.8549 69.1176 50.8549V51.9128H64.0777ZM89.0058 42.2552C89.0058 45.9045 88.7484 51.1177 83.3774 51.1177C78.0033 51.1177 77.4916 45.9045 77.4916 42.2552C77.4916 38.3469 78.0033 33.1336 83.3774 33.1336C88.7484 33.1336 89.0058 38.3469 89.0058 42.2552ZM94.2396 42.2554C94.2396 35.7305 90.3591 32.0757 83.3788 32.0757C76.3953 32.0757 72.2579 35.7305 72.2579 42.2554C72.2579 48.5208 76.135 52.1756 83.3788 52.1756C90.3591 52.1756 94.2396 48.5208 94.2396 42.2554Z" fill="white"/>
</svg>
