<?xml version="1.0" encoding="utf-8"?>
<svg width="37" height="38" fill="none" xmlns="http://www.w3.org/2000/svg"><path d="M22.884 27.582h.419v8.539c0 1.065-.346 1.154-.732 1.154a.83.83 0 01-.196-.026l-.114-.028v.727l.072.016c.092.02.186.032.28.032.947 0 1.468-.628 1.468-1.77v-9.385h-1.197v.741zM6.256 26.843H3.37v.737h.45v6.988H3.37v.74h2.885c2.834 0 4.458-1.539 4.458-4.22 0-2.659-1.666-4.245-4.458-4.245zm.014 7.727H4.593v-6.99H6.27c1.369 0 3.665.456 3.665 3.512 0 3.025-2.296 3.476-3.665 3.476v.002zM16.8 26.651c-2.503 0-4.319 1.86-4.319 4.423 0 2.562 1.817 4.422 4.319 4.422s4.319-1.86 4.319-4.422c0-2.563-1.816-4.423-4.32-4.423zm0 8.114c-2.084 0-3.54-1.515-3.54-3.685s1.456-3.685 3.54-3.685 3.54 1.515 3.54 3.685-1.457 3.674-3.54 3.674v.01zM30.586 26.651c-2.503 0-4.32 1.86-4.32 4.423 0 2.562 1.818 4.422 4.32 4.422 2.502 0 4.311-1.859 4.311-4.421 0-2.562-1.81-4.424-4.311-4.424zm0 8.114c-2.085 0-3.54-1.515-3.54-3.685s1.455-3.685 3.54-3.685c2.084 0 3.54 1.515 3.54 3.685s-1.458 3.674-3.54 3.674v.01z" fill="#000"/><path d="M5.024 16.27l.087.132c.438.612.95 1.17 1.522 1.663a7.532 7.532 0 004.735 1.66c.107 0 .216 0 .326-.009 1.2-.095 2.375-.38 3.481-.847-.495.077-.995.122-1.497.133a6.171 6.171 0 01-2.477-.514 6.08 6.08 0 01-2.05-1.461 11.175 11.175 0 01-4.127-.757z" fill="url(#paint0_linear)"/><path d="M11.369 5.012a7.58 7.58 0 013.677.948 7.422 7.422 0 012.728 2.604 6.133 6.133 0 00-2.728-1.402 6.199 6.199 0 00-3.077.088c1.365.65 3.24 1.146 5.813 1.32 0 0-.123-2.409-3.26-3.667-4.379-1.755-5.001-1.406-6.11-3.222 0 0-.36 1.816.994 3.588a7.61 7.61 0 011.963-.257z" fill="#F15A24"/><path d="M14.52 4.903c-1.5-.605-2.556-.955-3.345-1.235.2.493.473.955.81 1.37 1.18.095 2.32.465 3.326 1.078a7.417 7.417 0 012.463 2.448A6.123 6.123 0 0014.39 7.05a18.098 18.098 0 003.294 1.51l.097.008s-.13-2.408-3.261-3.666z" fill="#ED1C24"/><path d="M17.774 8.569h.016c.048-.262.341-2.342-2.042-4.162C12.19 1.695 11.492 1.439 11.325 0a4.44 4.44 0 00-.15 3.668c.788.278 1.848.633 3.345 1.235 3.13 1.258 3.262 3.667 3.262 3.667l-.008-.002z" fill="#C1272D"/><path d="M28.582 6.2a5.6 5.6 0 013.638 1.332c1.28.076 2.39.574 3.133 1.288 0 0-2.992-4.273-8.269-2.497a6.924 6.924 0 00-1.354.65 5.616 5.616 0 012.852-.773z" fill="url(#paint1_linear)"/><path d="M28.583 6.2a5.616 5.616 0 00-2.848.77l.152-.091c-4.263 2.468-9.485 10.05-16.73 10.146a6.079 6.079 0 002.047 1.458c.779.34 1.621.515 2.473.514a11.316 11.316 0 001.497-.133c4.712-1.909 9.239-6.474 11.294-8.686 1.9-2.053 3.994-2.75 5.751-2.645A5.6 5.6 0 0028.583 6.2z" fill="url(#paint2_linear)"/><path d="M17.577 20.897a3.337 3.337 0 00-.15.95c-.001.37.056.737.169 1.09a2.64 2.64 0 01.146-1.306c.158-.417.419-.789.759-1.082l.023-.082a3.307 3.307 0 011.467-1.856h-.013c-.224.07-.443.153-.657.248a3.429 3.429 0 00-1.085.843c-.3.35-.524.757-.659 1.195z" fill="url(#paint3_linear)"/><path d="M36.651 12.822a6.79 6.79 0 00-1.308-4.01c-.739-.707-1.848-1.203-3.124-1.278a5.465 5.465 0 011.424 1.863c.333.714.505 1.49.504 2.276 0 1.837-.679 3.936-2.875 5.067-3.203 1.645-8.107.863-11.293 1.878h.014a3.308 3.308 0 00-1.49 1.929c.933-.803 2.774-1.383 6.364-.928 2.564.325 4.601.413 6.35-.08a6.794 6.794 0 004.157-2.753 6.788 6.788 0 001.277-3.964z" fill="url(#paint4_linear)"/><path opacity=".49" d="M36.651 12.822a6.79 6.79 0 00-1.308-4.01c-.739-.707-1.848-1.203-3.124-1.278a5.465 5.465 0 011.424 1.863c.333.714.505 1.49.504 2.276 0 1.837-.679 3.936-2.875 5.067-3.203 1.645-8.107.863-11.293 1.878h.014a3.308 3.308 0 00-1.49 1.929c.933-.803 2.774-1.383 6.364-.928 2.564.325 4.601.413 6.35-.08a6.794 6.794 0 004.157-2.753 6.788 6.788 0 001.277-3.964z" fill="url(#paint5_linear)"/><path d="M20.76 24.606a3.357 3.357 0 01-1.971-1.582 3.26 3.26 0 01-.283-2.485v.013a2.68 2.68 0 00-.76 1.08 2.64 2.64 0 00-.147 1.305c.175.534.482 1.016.894 1.404.41.388.914.67 1.463.82.549.151 1.128.165 1.684.042a3.472 3.472 0 001.503-.747 3.409 3.409 0 01-2.383.15z" fill="url(#paint6_linear)"/><path d="M21.93 24.366c.35-1 1.479-2.543 2.69-1.837 0 0 .985.545 1.191-.989 0 0 .74 3.607-2.817 3.486 0 0 .8-.575.793-1.165-.001-.006-.847.508-1.856.505z" fill="#2DB5F9"/><path d="M23.35 22.16c.353-.176.686-.354 1.332-.072.502.22 1.134-.637.588-1.402 0 0 .036.79-.616.784-.651-.006-1.014.27-1.303.69z" fill="#5FD2FF"/><path d="M26.923 10.68c-.851 1.14-2.094 2.095-2.247 2.33-.152.235.247.99.832 1.045.585.055.134-.219.085-.484-.05-.265.174.17.868.068.695-.102-.246-.356-.187-.701.06-.346.781-1 1.067-1.66.286-.658.775 0 .525.515-.099.205.793-.574.342-1.167-.45-.593-.788-.613-1.285.053zM24.494 13.174c-.123.12-.493.384-.493.384s.361.494.827.484c0 0 .1-.047-.045-.191-.144-.144-.322-.59-.289-.677z" fill="#219058"/><path d="M11.969 7.25c-1.216-.578-2.022-1.276-2.56-1.982A7.522 7.522 0 006.37 6.89a7.355 7.355 0 00-1.972 2.793 7.24 7.24 0 00.626 6.586c1.313.51 2.714.767 4.126.757a5.961 5.961 0 01-1.416-2.657 5.896 5.896 0 01.071-2.998 5.972 5.972 0 011.54-2.59 6.12 6.12 0 012.623-1.532z" fill="url(#paint7_linear)"/><path d="M11.985 5.038c.332.47 1.287 1.284 2.41 2.015 1.26.144 2.441.673 3.38 1.51a7.418 7.418 0 00-2.464-2.447 7.57 7.57 0 00-3.326-1.078z" fill="#F7B852"/><path d="M11.985 5.037a7.61 7.61 0 00-2.575.231c.537.705 1.343 1.404 2.559 1.982a6.149 6.149 0 012.424-.198c-1.124-.73-2.077-1.544-2.409-2.015z" fill="#FF8431"/><path d="M16.136 6.712c.04 0-.914-.848-2.012-1.18.486.901.9 1.18 2.012 1.18z" fill="#FFFB69"/><path d="M14.02 2.87c.374.225.734.473 1.077.742.087.063-.154-.575-.43-.696a1.252 1.252 0 00-.647-.046zM15.349 3.795c.37.23.728.482 1.07.752.088.062-.148-.576-.424-.7a1.252 1.252 0 00-.646-.052zM16.602 4.701c.226.209.421.448.578.711.044.062.012-.419-.151-.555a.879.879 0 00-.427-.156z" fill="#C1272D"/><path d="M10.834 16.358c-.033-.105.387-.242.493-.242.205.033.403.098.587.193a2.728 2.728 0 01-.8.16.747.747 0 01-.28-.11zM12.347 16.007c-.036-.082.288-.223.378-.242.167.01.331.045.486.105a2.193 2.193 0 01-.63.2.6.6 0 01-.234-.063zM13.612 15.55c-.037-.064.217-.208.29-.227.137-.007.275.008.408.044a1.806 1.806 0 01-.5.22.5.5 0 01-.198-.037zM14.618 15.101c-.038-.056.184-.206.247-.228.125-.015.252-.011.377.013-.134.1-.283.179-.441.235a.454.454 0 01-.183-.02zM15.557 14.596c-.036-.047.149-.188.203-.21.108-.02.219-.023.328-.009-.111.093-.236.17-.37.225a.396.396 0 01-.161-.006zM9.318 16.479c-.018-.122.45-.19.569-.177.211.069.41.17.589.301-.29.059-.587.073-.881.043a.79.79 0 01-.277-.168z" fill="#44C688"/><path d="M9.605 2.572c.327.363 1.1.605 1.1.605s-.184-.422-.153-1.225c0-.03-.947-.015-1.109-.78-.033-.152-.169 1.033.162 1.4z" fill="#C1272D"/><path d="M6.384 20.2a.878.878 0 01.37-.629l.03-.017a2.368 2.368 0 00-.234-.04c-1.129-.166-1.415.495-1.479 1.236v.122c.129-.224.32-.406.55-.526.23-.12.49-.174.75-.154l.013.009z" fill="#F15A24"/><path d="M7.76 19.96c-1.122-.67-1.752-.719-2.002 1.156 0 0 1.18-.918 1.738-.311.606.66 1.43.052.998-.333a3.09 3.09 0 00-.735-.513z" fill="#F15A24"/><path d="M7.294 20.176c-.637.417-.636 1.397-.636 1.397s1.16-.618 1.07-1.003a.472.472 0 00-.149-.27.487.487 0 00-.285-.124zM2.006 12.473a.914.914 0 01.74-.11l.033.014a2.262 2.262 0 00-.116-.206c-.574-.969-1.277-.775-1.903-.357-.036.024-.07.05-.104.076.258-.042.523-.01.763.091.24.102.445.268.592.48l-.005.012z" fill="#F15A24"/><path d="M3.213 13.625c-.407-1.59-.739-2.205-2.302-1.107 0 0 1.34-.377 1.493 1.495.073.885.938 1.063.928.484a2.992 2.992 0 00-.119-.872z" fill="#F15A24"/><path d="M2.643 12.774c-.739-.173-1.478.496-1.478.496s1.143-.04 1.281.643c.084.386.197-1.139.197-1.139z" fill="#F15A24"/><path d="M26.468 10.178a9.098 9.098 0 012.55-2.024c.93-.484 2.251-.783 3.048-.746l.306.258-.16-.012a6.31 6.31 0 00-3.138.606 9.053 9.053 0 00-2.607 1.918z" fill="#29B36E"/><path d="M32.18 7.417c.594.054 1.176.2 1.724.433a4.521 4.521 0 011.453.969 4.474 4.474 0 00-1.497-.857c-.483-.15-.98-.25-1.484-.298l-.312-.256.116.009z" fill="#6FD191"/><path d="M18.573 20.33c.163-.115.334-.218.51-.31.125-.062.252-.118.381-.168.124-.055.262-.093.392-.137a7.628 7.628 0 011.621-.293c1.091-.07 2.186-.03 3.268.121 1.074.156 2.156.259 3.24.307 1.083.034 2.178-.03 3.229-.313-1.045.302-2.143.387-3.23.373a32.65 32.65 0 01-3.253-.242 15.877 15.877 0 00-3.237-.067 7.428 7.428 0 00-1.572.314c-.124.044-.247.084-.37.138-.122.05-.242.105-.359.166a3.527 3.527 0 00-.646.436l-.088.075c.029-.136.066-.27.114-.4z" fill="#C83AD7"/><path d="M12.17 7.726c-1.046.228-.885 1.045-.885 1.045s.331-.393 2.156-.605a8.719 8.719 0 01-1.27-.44z" fill="#C1272D"/><path d="M17.596 22.937a2.61 2.61 0 01-.014-.686 2.973 2.973 0 01.458-1.31c.132-.198.286-.381.459-.546l.075-.068s-.104.325-.116.406a3.137 3.137 0 00-.266.313 2.865 2.865 0 00-.596 1.891z" fill="#FBA9FF"/><path d="M8.914 17.027c-.595-.643-1.097-1.667-1.31-2.625a5.86 5.86 0 01-.135-1.536l.022-.385.059-.382c.02-.127.045-.253.077-.377.026-.126.059-.25.099-.372.146-.492.358-.963.63-1.4.134-.217.28-.426.44-.626l.246-.29c.083-.098.18-.184.27-.274.369-.357.783-.666 1.231-.92.449-.249.925-.446 1.42-.586a6.595 6.595 0 00-1.391.617 6.04 6.04 0 00-1.19.944c-.084.094-.178.18-.257.278l-.239.293a6.25 6.25 0 00-.412.63 5.552 5.552 0 00-.573 1.38 2.99 2.99 0 00-.085.363c-.027.12-.048.241-.063.363l-.042.37-.01.371c-.008.496.05.99.173 1.47a5.828 5.828 0 001.42 2.571l.11.115s-.4.014-.49.008z" fill="#FF737D"/><path d="M15.174 18.863a7.893 7.893 0 01-1.636.183 6.212 6.212 0 01-1.636-.265 7.764 7.764 0 01-1.536-.634 5.686 5.686 0 01-1.338-.998l-.115-.121s.392 0 .493-.01c.329.343.701.642 1.109.89.457.281.944.513 1.452.691.509.185 1.04.3 1.58.343.544.03 1.089.003 1.627-.079z" fill="#FDC666"/><defs><linearGradient id="paint0_linear" x1="10.1" y1="19.563" x2="10.1" y2="16.771" gradientUnits="userSpaceOnUse"><stop stop-color="#FFDD42"/><stop offset="1" stop-color="#FB784B"/></linearGradient><linearGradient id="paint1_linear" x1="31.257" y1="7.319" x2="32.289" y2="6.454" gradientUnits="userSpaceOnUse"><stop stop-color="#5BCB99"/><stop offset="1" stop-color="#85A8E8"/></linearGradient><linearGradient id="paint2_linear" x1="11.43" y1="17.549" x2="43.835" y2=".444" gradientUnits="userSpaceOnUse"><stop stop-color="#34E28B"/><stop offset="1"/></linearGradient><linearGradient id="paint3_linear" x1="17.427" y1="20.775" x2="19.994" y2="20.775" gradientUnits="userSpaceOnUse"><stop stop-color="#C297FF"/><stop offset="1" stop-color="#AE31BB"/></linearGradient><linearGradient id="paint4_linear" x1="6.962" y1="32.931" x2="38.999" y2="7.514" gradientUnits="userSpaceOnUse"><stop/><stop offset="1" stop-color="#D23DE2"/></linearGradient><linearGradient id="paint5_linear" x1="30.975" y1="5.913" x2="29.701" y2="10.284" gradientUnits="userSpaceOnUse"><stop/><stop offset="1" stop-opacity="0"/></linearGradient><linearGradient id="paint6_linear" x1="18.959" y1="22.785" x2="28.172" y2="25.054" gradientUnits="userSpaceOnUse"><stop stop-color="#2DB5F9"/><stop offset="1" stop-color="#092432"/></linearGradient><linearGradient id="paint7_linear" x1="11.745" y1="-.063" x2="5.829" y2="16.471" gradientUnits="userSpaceOnUse"><stop/><stop offset=".21" stop-color="#48080A"/><stop offset=".42" stop-color="#891014"/><stop offset=".61" stop-color="#BC151B"/><stop offset=".78" stop-color="#E01A21"/><stop offset=".91" stop-color="#F71C24"/><stop offset="1" stop-color="#FF1D25"/></linearGradient></defs></svg>