<svg width="218" height="47" fill="none" xmlns="http://www.w3.org/2000/svg"><path d="M58.41 36.163v-2.109h3.013v-18.72h-3.012v-2.171h16.36v7.027h-2.244v-4.855h-8.505v8.561h4.252V20.51h2.068v8.944h-2.068v-3.45h-4.252v8.114h3.544v2.045H58.41zm26.934-3.259c-1.063 2.492-2.54 3.514-5.08 3.514-2.185 0-4.252-1.022-4.784-3.514-.177-.83-.177-1.341-.177-1.597 0-3.77 2.835-5.175 5.906-5.175h4.135V24.6c-.118-1.214-.236-1.917-1.063-2.811-.591-.64-1.536-.895-2.304-.895-1.3 0-2.185.192-3.071 1.342-.414.575-.532 1.341-.59 1.98h-2.481c.118-2.427 1.24-4.152 3.366-4.919.886-.32 1.713-.383 2.658-.383 1.654 0 2.953.32 4.253 1.47 1.24 1.085 1.476 2.555 1.476 4.152v9.647h2.48v1.98h-4.665v-3.258h-.06zm-4.725 1.597c3.543 0 4.666-3.194 4.784-6.452-.768-.128-1.654-.128-2.363-.128-2.362 0-5.08.128-5.08 3.45-.058 1.853.887 3.13 2.659 3.13zm16.065-12.074c.827-2.428 2.244-3.514 4.666-3.514 2.362 0 3.957 1.086 4.666 3.514.118.766.118 1.405.118 2.172v9.583h2.422v1.98h-7.265v-2.044h2.421v-8.625c0-2.3-.472-4.536-3.071-4.536-.945 0-1.358 0-2.126.575-.65.447-1.004.958-1.3 1.661-.65 1.342-.65 2.875-.65 4.28v6.71h2.422v1.98h-7.383v-2.045h2.6V21.34h-2.54v-1.916h4.902v3.003h.118zm18.546 0c.827-2.428 2.244-3.514 4.666-3.514 2.362 0 3.957 1.086 4.666 3.514.118.766.118 1.405.118 2.172v9.583h2.421v1.98h-7.264v-2.044h2.421v-8.625c0-2.3-.472-4.536-3.071-4.536-.945 0-1.358 0-2.126.575-.65.447-1.004.958-1.3 1.661-.649 1.342-.649 2.875-.649 4.28v6.71h2.421v1.98h-7.383v-2.045h2.599V21.34h-2.54v-1.916h4.903v3.003h.118zm20.731 13.736h-7.265v-2.045h2.481V21.34h-2.481v-1.916h4.843v14.694h2.422v2.045zm-2.185-23v2.683H131v-2.683h2.776zm17.778 15.141h-11.518c.118 1.661.355 3.195 1.359 4.473 1.063 1.341 2.067 1.66 3.721 1.66 1.89 0 3.721-1.533 3.898-3.513h2.303c-.59 3.641-3.248 5.43-6.674 5.43-5.079 0-7.205-3.641-7.205-8.625 0-1.789.354-3.705 1.181-5.239 1.181-2.3 3.603-3.577 6.083-3.577 1.418 0 3.131.51 4.253 1.47 1.24 1.085 1.89 2.555 2.244 4.152.237 1.214.355 2.108.355 3.322v.447zm-2.599-1.916c-.059-2.684-1.418-5.559-4.253-5.559-2.894 0-4.37 2.811-4.548 5.559h8.801zm11.517 9.775v-2.109h3.072v-18.72h-3.072v-2.171h7.56l5.493 19.677 5.67-19.677h7.501v2.108h-3.012v18.783h3.012v2.109h-8.269v-2.109h2.717v-18.72h-.236l-6.261 20.829h-2.303l-6.32-20.892h-.236v18.783h2.776v2.109h-8.092zm37.624-3.259c-1.064 2.492-2.54 3.514-5.08 3.514-2.185 0-4.252-1.022-4.784-3.514-.177-.83-.177-1.341-.177-1.597 0-3.77 2.835-5.175 5.906-5.175h4.135V24.6c-.119-1.214-.237-1.917-1.064-2.811-.59-.64-1.535-.895-2.303-.895-1.299 0-2.185.192-3.071 1.342-.414.575-.532 1.341-.591 1.98h-2.481c.118-2.427 1.241-4.152 3.367-4.919.886-.32 1.713-.383 2.658-.383 1.654 0 2.953.32 4.252 1.47 1.241 1.085 1.477 2.555 1.477 4.152v9.647h2.481v1.98h-4.666v-3.258h-.059zm-4.785 1.597c3.544 0 4.666-3.194 4.785-6.452-.768-.128-1.654-.128-2.363-.128-2.363 0-5.079.128-5.079 3.45 0 1.853.945 3.13 2.657 3.13zm24.571-6.197h-11.399c.118 1.661.354 3.195 1.358 4.473 1.063 1.341 2.067 1.66 3.662 1.66 1.89 0 3.662-1.533 3.898-3.513h2.304c-.591 3.641-3.249 5.43-6.556 5.43-5.021 0-7.088-3.641-7.088-8.625 0-1.789.354-3.705 1.181-5.239 1.181-2.3 3.603-3.577 6.025-3.577 1.417 0 3.13.51 4.193 1.47 1.241 1.085 1.89 2.555 2.186 4.152.236 1.214.354 2.108.354 3.322v.447h-.118zm-2.54-1.916c-.059-2.684-1.417-5.559-4.253-5.559-2.894 0-4.311 2.811-4.488 5.559h8.741zM21.262 2.47c10.81 0 19.55 9.52 19.55 21.147 0 11.692-8.8 21.147-19.55 21.147-10.808 0-19.55-9.519-19.55-21.147 0-11.692 8.742-21.147 19.55-21.147zm0-1.853C9.51.617 0 10.903 0 23.617s9.51 23 21.263 23c11.753 0 21.263-10.286 21.263-23s-9.51-23-21.263-23zm7.443 7.156l-11.281 4.216V8.923h-5.02v4.983l-4.017 1.406-3.898 9.583c.059.128.413 2.556.413 2.556 1.95-.576 3.958-.831 6.084-.831 8.623 0 16.183 5.047 20.258 12.522l1.123-.767c-.71-1.277-1.477-2.491-2.363-3.577v-8.114l-4.961-.959v4.217c-3.485-2.62-7.62-4.28-12.108-4.6 6.91-2.236 12.64-7.539 15.593-14.503l5.847 14.503 1.535.32-7.205-17.89zm-2.363 19.614l2.363.447V33.2a27.34 27.34 0 00-2.363-2.3v-3.513zm-20.495-2.3l3.485-8.625 4.312-1.598v-4.6h2.421v3.642l11.4-4.28c-3.544 9.072-11.99 15.269-21.618 15.46zm21.736-5.43l1.122.19v2.492l-1.122-.191v-2.492zm-1.3-1.662v5.303l3.721.703v-5.303l-3.72-.703z" fill="#1F3D56"/></svg>