<svg fill="none" height="29" width="140" xmlns="http://www.w3.org/2000/svg"><g fill="#1f3d56"><path d="m134.243 24.008c-1.429-.756-1.651-2.89-1.619-8.08l.032-7.954-2.711-.005.609-1.474h2.102v-3.765l5.037-1.884-.002 5.525 2.309.004-.608 1.632-1.699-.003-.009 13.767c.11 1.109.479 1.762 1.005 2.238h-4.446zm-126.625-13.536c.512 1.418 1.672 2.882.847 4.525-.401 1.666-1.96 3.017-3.609 3.287-1.713.158-3.362-.134-4.632-1.193-.914-4.819 1.024-9.277 4.789-11.933z"/><path d="m14.267 25.151c-.858 2.916-9.376 1.002-12.05-3.782 3.508.394 7.463-2.747 7.529-6.326l4.52 10.108zm3.486-.377c.39-.174 1.174-.569 1.369-1.412l-9.165-20.095c-.613-.08-1.057-.136-1.837.426zm4.12-4.362c3.898-5.966.613-15.76-7.785-17.134zm72.945-13.301c.92-.783 2.546-.802 3.597-.298.442.223.865.522 1.145.914l-2.032 3.188c-.257-.204-.442-.298-.774-.465-1.006-.438-2.067-.182-2.675.372v9.307c-.013 1.609.263 3.077 1.09 3.842h-4.613c-.96-.746-1.2-1.94-1.292-2.984l-.038-12.374c.043-1.003-.21-1.445-.609-2.005l4.78.018c.386.28.405.766.607 1.139l.813-.654zm5.829 3.059c-.037-1.176.222-2.583-.539-3.6h4.432c.295.225.462.598.553.952.24.317.222.764.333 1.138l.037 13.184c.184.784.479 1.577 1.052 2.191l-4.743.01c-1.55-1.515-1.042-4.01-1.162-6.584zm11.623 9.455c.221.821.647 1.828 1.624 1.94.572.018.996-.466 1.326-.876 1.035-2.053.887-4.291.887-6.62-.331-1.736.074-4.104-1.771-5.168-.646-.242-1.144.205-1.549.615-.721 1.1-.803 2.36-.849 3.76-.239 2.236.019 4.093.332 6.35zm-4.611-9.325c.479-1.342 1.973-2.015 3.06-2.74 1.662-.616 3.488-2.145 5.35-.896 1.551 1.026 2.916 2.181 3.894 3.768.241.614.351 1.304.517 1.957 0 .877.184 1.53.166 2.406a22.4 22.4 0 0 1 0 2.742c-.054 1.584-.793 3.002-2.029 4.101-1.845 1.66-4.169 3.545-6.679 2.258-2.251-1.064-4.909-3.17-4.741-6.06-.092-2.053-.186-3.824.092-5.82.11-.579.054-1.212.37-1.716zm16.271 13.708c-1.43-.756-1.652-2.89-1.619-8.08l.032-7.954-2.712-.005.61-1.474h2.102v-3.765l5.038-1.884-.004 5.525 2.31.004-.61 1.632-1.696-.003-.009 13.767c.11 1.109.478 1.762 1.005 2.238h-4.447zm-46.05-15.395c-.03-1.005-.21-1.445-.609-2.005l4.778.018c.388.28.405.766.61 1.139l.812-.654c.921-.783 2.545-.803 3.598-.298.442.223.866.523 1.144.914l-2.03 3.189c-.258-.205-.444-.299-.775-.466-1.006-.438-2.067-.182-2.675.372v9.307c-.013 1.609.263 3.077 1.09 3.841h-4.615c-.96-.745-1.232-1.857-1.29-2.983l-.038-12.375zm-36.143 4.895-1.745 3.61c-1.186 2.132-2.85 4.744-5.401 5.393-.989.35-1.861.035-2.817-.033l-3.08 5.093c.232.25.558.46.874.583 5.417 2.09 7.6-.158 12.934-12.342l5.04 10.853h6.71l-3.171-7.324 1.796-3.786 4.956 10.943 6.422.041-11.24-24.967-5.176 2.601 4.058 9.316-1.779 3.663-7.435-16.225-5.454 2.809zm29.095.886c-.037-.7-.534-.774-.885-.774-1.144.168-2.128 1.136-2.675 2.126-.489.886-.604 1.632-.647 2.406-.003.835-.054 1.454.278 2.088.184.412.59.598.978.71.737.148 1.42-.057 1.992-.448 1.347-.764 1.106-2.295 1.126-3.655zm-8.468 3.515c.128-1.808 1.107-3.507 2.767-4.42 1.643-1.025 3.562-1.436 5.258-2.33.295-.243.665-.542.683-.933.019-.485-.22-.858-.646-1.026-2.582-.56-4.723 1.083-6.604 2.704.24-1.193.424-2.499.978-3.618.275-.298.442-.71.81-.933 1.827-.913 4.115-1.174 6.163-1.025 1.679.112 3.23 1.324 3.802 2.872.294.728.275 1.548.331 2.293l.02 10.11c.017.875.423 1.696.938 2.405h-4.778c-.57-.522-.853-1.175-1.014-1.995-1.336 1.193-4.129 2.965-5.793 1.79-1.725-.784-3.303-3.413-2.915-5.894z"/></g></svg>