<svg width="138" height="35" fill="none" xmlns="http://www.w3.org/2000/svg"><path d="M40.293 22.751h-1.462v4.668h9.838v-4.53h-1.596v-3.295l.133-.55v-.548l.132-.412.267-.824.133-.275.133-.411.132-.275.265-.137.267-.137.266-.137.531-.275h2.393l.266.137V9.298l-.266-.137H50.53l-.266.137h-.266l-.398.138-.267.137-.397.136-.533.275-.134.138-.265.275-.265.136-.133.275-.133.275-.267.55-.132.274-.132.411-.134.275-.133.411v.413-3.57H38.83v4.118h1.462v8.786zM62.094 10.945l-.531-.548-.266-.137-.266-.276-.267-.137-.265-.137-.399-.137-.266-.137-.265-.138h-.266l-.267-.137h-.531l-.133-.137h-.797l-.4.137-.53.137-.4.138-.531.137-.4.274-.398.275-.4.412-.398.274-.266.413-.399.411-.265.55-.133.411-.266.55v.549l-.134.686v.823l.134.687v.55l.266 1.097.133.411.133.275.265.413.532.548.399.137.266.275.398.138.4.274.53.137.533.274 2.392.824.4.138.133.137.265.138.133.137.133.273v1.099l-.133.275-.133.136-.265.138-.266.138h-.134l-.266.138H57.84l-.265-.138h-.134l-.266-.138-.266-.138-.132-.136-.133-.137-.133-.275-.134-.137-.132-.275-.134-.274v-1.099h-3.19v6.316h2.793v-1.923l.133.276.132.136.132.275.134.137.266.275.133.136.265.276.266.137.266.137.398.137.4.137.266.137.398.138h.931l.531.138.532-.138h.4l.532-.138.531-.137.399-.274.532-.137.664-.686.398-.413.267-.411.266-.55.265-.411.133-.55.267-1.372v-1.784l-.134-.55v-.55l-.133-.41-.133-.55-.265-.412-.133-.275-.266-.412-.266-.273-.398-.413-.4-.137-.398-.274-.4-.275-.53-.137-.532-.138-3.19-.823-.267-.275-.133-.137-.133-.138-.265-.274v-.687l.132-.136v-.275l.133-.137.265-.275.267-.137h.265l.532-.137.266.136h.4l.398.138.398.138.266.274.4.411.266.55.398.549h2.792V9.298h-2.659v1.647zM77.782 27.281h7.975V22.89h-1.329v-8.512l-.133-.824-.133-.686-.266-1.098-.266-.549-.266-.412-.266-.412-.398-.274-.266-.138-.4-.275-.398-.137-.4-.137-.398-.137H79.11l-.532.137h-.398l-.398.137-.266.137-.399.138-.4.275-.265.137-.398.274-.267.275-.265.274-.266.275-.267.275-.265.274-.266.412V1.335h-8.242v4.118h1.728V22.89h-1.728v4.392h9.704V22.89h-1.462v-6.177l.133-.413v-.275l.133-.274v-.137l.265-.55.133-.137.266-.274h.134l.132-.137h.798l.265.137h.133l.267.137.133.137.132.274v.138l.134.275.132.137v.274l.134.275v10.982zM89.213 8.2h6.514V1.884h-6.514V8.2zM89.346 22.751h-1.861v4.394h9.97V22.75h-1.727V9.847h-8.51v4.118h2.128v8.786zM110.882 27.145h7.976V22.75h-1.33v-8.923l-.133-.686v-.55l-.133-.685-.266-.413-.266-.411-.266-.413-.398-.41-.399-.276-.399-.137-.399-.274-.531-.137-.399-.138-.399-.137h-2.26l-.266.137-.266.138-.398.137-.266.136-.399.275-.266.138-.399.275-.266.273-.266.275-.266.412-.265.275-.266.412-.133.412V9.573h-8.374v4.392h1.728v8.786h-1.728v4.394h9.836V22.75h-1.462v-6.726l.133-.549.266-.412.265-.275.266-.274.266-.137h.665l.266.137.266.137.265.137.266.275.4 1.235v10.846zM3.205 21.653V6.415H.945V.787h13.56l.93.137.797.137.798.138.797.274 1.33.824.531.412.532.55.532.685.398.55.267.686.531 1.647.266 1.648v1.784l-.266 1.922-.266.687-.265.823-.4.686-.398.55-.532.549-.665.549-.664.412-.665.274-.798.274-.797.275-1.861.274H10.78v4.12h2.26v5.628H.944v-5.629h2.26zm7.576-8.922h1.729l.266-.138.398-.137.266-.138.267-.137.265-.137.266-.275.134-.275.132-.137.398-.824v-1.51l-.132-.137v-.411l-.133-.138-.265-.549-.267-.275-.133-.274-.265-.138-.267-.274-.266-.137-.265-.137-.266-.138H10.78v6.316zm21.403 8.648h5.45l-.265.823-.133.687-.266.686-.399.686-.266.55-.399.549-.532.412-.398.549-.532.275-.532.41-.664.276-.532.137-.665.274-.664.137h-.665l-.664.138-1.064-.138-1.063-.137-.931-.137-.798-.412-.797-.274-.798-.55-.532-.548-.665-.55-.398-.687-.798-1.646-.532-1.648-.133-.96v-1.1l-.133-.96.133-1.098.266-1.922.266-.96.266-.825.399-.685.399-.824.532-.687.664-.55.665-.548.664-.412.798-.412.798-.274.797-.275.93-.137h1.995l.93.137.93.275.798.274.798.412.532.55.665.548.531.55.399.823.399.687.399.823.266.824.265 1.922.133 1.097v2.198H27.797v1.097l.134.412v.275l.132.411v.275l.4.824.265.137.266.275.132.137h.267l.398.137h.798l.399-.274.399-.275.265-.412.266-.274.266-.824v-.274zm-4.387-4.805h4.254v-1.098l-.133-.412v-.275l-.266-.549v-.275l-.133-.274-.266-.138-.132-.274-.532-.274-.266-.137h-.664l-.4.137-.265.137-.266.274-.266.137-.399.824-.132.412v.549l-.134.275v.96zm102.227-4.942V9.436H138v4.392h-1.462v12.493l-.134 1.098-.265 1.647-.399.824-.399.686-.532.686-.532.55-.531.411-.664.412-.665.412-.798.275-.798.275-.797.274-.797.137h-4.388l-.531-.137h-.399l-.399-.137h-.399l-.266-.137h-.531l-.133-.138h-.266l.399-5.217h.132v.138l.267.137.265.137.798.275.665.137.665.137h1.993l.133-.137h.266l.133-.137h.133l.266-.138.133-.137.133-.137.266-.275.132-.137.133-.275.134-.274.132-.274.134-.275.132-.411v-.55l.133-.274v-.412l.133-.138v-.274l-.266.274-.266.275-.132.137-.267.275-.531.274-.266.138-.133.137-.266.138-.266.137-.531.274h-.4l-.132.137h-.266l-.931-.137-.93-.137-.798-.412-.798-.275-.664-.411-1.064-1.099-.399-.549-.398-.686-.532-1.374-.266-.823-.133-.686v-.823l-.132-.687v-1.922l.265-1.922.266-.96.266-.825.399-.823.265-.686.532-.55.399-.549.532-.549.664-.412.532-.274.665-.275.798-.274.665-.138h1.728l.265.138.266.137h.266l.266.137.266.275.266.137.265.274.267.138.266.274.132.274.266.275.266.412.133.275zm0 6.452v-.687l-.133-.274v-.412l-.133-.274v-.412l-.266-.55-.133-.274-.132-.275-.266-.274-.267-.275-.265-.137-.133-.137h-.532l-.266.137-.266.137-.266.138-.265.137-.266.549-.134.275-.132.412-.266.549v.686l-.132.274v1.236l.132.412v.687l.266.823v.274l.266.412.132.412.134.274.265.275.133.138.266.137.399.137h.532l.531-.274.134-.138.266-.275.265-.548.133-.413.133-.274.133-.412v-.823l.133-.275v-1.098z" fill="#1F3D56"/></svg>