<?xml version="1.0" encoding="utf-8"?>
<svg width="38" height="33" fill="none" xmlns="http://www.w3.org/2000/svg"><path fill-rule="evenodd" clip-rule="evenodd" d="M25.12 2.282c-1.192.416-2.605 1.24-4.088 2.469-.29.24-.582.494-.875.762a36.742 36.742 0 013.212 3.813c1.804.161 3.517.42 5.085.763.062-.241.118-.48.169-.714.425-1.962.483-3.645.26-4.913-.229-1.298-.719-2.012-1.228-2.291l-.002-.001c-.48-.264-1.315-.313-2.534.112zm2.897 9.296a37.726 37.726 0 00-3.468-.576c.395.589.78 1.193 1.156 1.808.381.627.747 1.256 1.095 1.884.48-1.07.889-2.115 1.217-3.116zm-.277 4.901a35.162 35.162 0 001.852-4.516c.389.106.764.219 1.126.337 1.86.608 3.316 1.36 4.29 2.134.995.79 1.369 1.504 1.369 2.031 0 .56-.405 1.319-1.473 2.155-1.044.817-2.606 1.61-4.606 2.242m-4.358-4.376c-.5-.96-1.049-1.93-1.64-2.902a46.412 46.412 0 00-1.832-2.781 48.405 48.405 0 00-6.929 0 42.825 42.825 0 00-1.84 2.789 43.115 43.115 0 00-1.618 2.914 43.527 43.527 0 003.476 5.71c1.117.07 2.269.103 3.44.103 1.189 0 2.358-.039 3.49-.116a50.348 50.348 0 001.819-2.79 45.843 45.843 0 001.634-2.927zm-1.39 5.53a53.4 53.4 0 001.162-1.83c.386-.637.754-1.278 1.103-1.918.503 1.09.932 2.155 1.274 3.174-1.102.239-2.29.431-3.539.574zm-3.25 1.799c-.758.032-1.527.048-2.302.048-.748 0-1.49-.013-2.224-.04a35.131 35.131 0 002.291 2.607c.751-.786 1.5-1.664 2.236-2.615zm-1.097 3.72c1.09-1.133 2.161-2.436 3.19-3.852a39.679 39.679 0 005.142-.754c.078.298.147.591.206.878.396 1.902.424 3.536.183 4.771-.246 1.262-.74 1.966-1.243 2.244m2.424-8.285c.24-.067.474-.137.704-.21 2.13-.673 3.885-1.544 5.126-2.515C37.152 18.86 38 17.706 38 16.465c0-1.2-.806-2.306-1.952-3.216-1.169-.928-2.816-1.76-4.802-2.41h-.001a26.36 26.36 0 00-1.22-.364c.07-.266.132-.53.188-.788.452-2.09.536-3.972.27-5.48-.26-1.478-.887-2.753-2.017-3.373-1.093-.603-2.504-.49-3.906 0-1.43.498-3.01 1.441-4.594 2.752-.314.26-.63.536-.947.826-.21-.192-.42-.376-.629-.553-1.678-1.417-3.35-2.426-4.857-2.96-1.476-.525-2.95-.645-4.08-.025h-.001L9.45.876c-1.092.603-1.693 1.822-1.947 3.222-.258 1.427-.189 3.2.214 5.16.08.39.174.79.28 1.196-.487.131-.956.272-1.405.42-1.96.65-3.57 1.48-4.707 2.404C.768 14.187 0 15.284 0 16.467c0 1.215.81 2.366 1.985 3.324 1.199.976 2.896 1.855 4.961 2.523.334.108.678.21 1.032.307-.115.442-.215.874-.3 1.294-.386 1.941-.436 3.682-.161 5.08.27 1.376.885 2.555 1.963 3.147 1.106.606 2.558.512 4.017.022 1.488-.5 3.138-1.46 4.782-2.826.265-.22.53-.452.794-.695.344.315.687.612 1.027.89 1.573 1.288 3.133 2.198 4.544 2.67 1.389.465 2.772.547 3.849-.044 1.104-.609 1.745-1.852 2.027-3.3.288-1.475.238-3.314-.186-5.351a19.57 19.57 0 00-.229-.97zm-.443-1.485c-.488-1.47-1.142-3.01-1.922-4.573l1.922 4.573zm.636-.19c-.207.065-.42.129-.636.19l.636-.19zm-12.363 6.68a37.995 37.995 0 01-3.267-3.84c-1.81-.139-3.536-.371-5.116-.703-.108.412-.2.814-.278 1.204-.362 1.814-.389 3.353-.162 4.508.232 1.178.695 1.828 1.179 2.093.504.276 1.392.332 2.666-.095 1.244-.419 2.72-1.258 4.254-2.534.24-.2.482-.412.724-.634zM9.99 21.51c1.091.225 2.265.403 3.498.534a44.907 44.907 0 01-2.268-3.723 33.602 33.602 0 00-1.23 3.189zm1.229-6.82A45.158 45.158 0 0113.455 11a38.404 38.404 0 00-3.444.562 33.103 33.103 0 001.208 3.128zm-2.784-2.75a35.943 35.943 0 001.852 4.567 36.503 36.503 0 00-1.874 4.627 20.647 20.647 0 01-.943-.281c-1.926-.624-3.426-1.418-4.429-2.235-1.025-.835-1.418-1.596-1.418-2.15 0-.531.36-1.238 1.319-2.018.94-.764 2.353-1.511 4.185-2.119.416-.137.853-.268 1.308-.39zm1.137-1.867a41.647 41.647 0 015.07-.749 37.365 37.365 0 013.24-3.81c-.19-.174-.38-.34-.57-.5-1.575-1.331-3.08-2.22-4.346-2.67-1.296-.46-2.191-.413-2.7-.133-.481.265-.942.931-1.162 2.148-.215 1.19-.17 2.765.207 4.601.075.362.162.734.261 1.113zm9.447-3.456a34.548 34.548 0 00-2.256 2.567 50.545 50.545 0 014.492.001 33.504 33.504 0 00-2.236-2.568zm1.184 20.918c.321.293.64.57.956.828 1.47 1.204 2.858 1.994 4.024 2.384 1.19.398 2.014.34 2.497.075m-8.679-16.808c-1.426 0-2.582 1.099-2.582 2.455s1.156 2.456 2.582 2.456 2.582-1.1 2.582-2.456c0-1.356-1.156-2.456-2.582-2.456zm-4.205 2.455c0-2.209 1.883-4 4.205-4 2.323 0 4.205 1.791 4.205 4s-1.882 4-4.205 4c-2.322 0-4.205-1.791-4.205-4z" fill="#00DFFD"/></svg>