<?xml version="1.0" encoding="utf-8"?>
<svg width="690" height="690" fill="none" xmlns="http://www.w3.org/2000/svg"><rect y="418.788" width="592.256" height="383" rx="191.5" transform="rotate(-45 0 418.788)" fill="url(#paint0_linear)"/><circle cx="537.5" cy="176.787" r="96.5" stroke="#E9ECEE" stroke-width="3" stroke-linecap="round" stroke-linejoin="round" stroke-dasharray="5 10"/><path d="M256.68 472.102a.998.998 0 00-.598-.198h-88.61c-.899 0-1.341 1.093-.695 1.718l16.039 15.513a1 1 0 01.035 1.402l-13.329 14.256c-.598.639-.145 1.683.73 1.683h153.697a.616.616 0 00.165-1.21c-24.648-6.906-47.434-18.268-67.434-33.164z" fill="#5CDBDD"/><path d="M444.031 502.789c-1.101.359-.847 2.078.312 2.078h138.434a1 1 0 00.757-.346l14.399-16.672a1 1 0 00-.015-1.325l-14.385-15.899a1 1 0 00-.742-.329h-76.778c-.22 0-.434.072-.609.206-18.294 13.993-38.994 24.998-61.373 32.287z" fill="#76D5EA"/><g filter="url(#filter0_d)"><path d="M562.016 390.147a1.994 1.994 0 01-.048 1.581C529.851 460.01 460.437 507.28 379.982 507.28c-2.035 0-4.063-.031-6.083-.091-1.701-.05-2.524-2.075-1.361-3.318l13.299-14.224a2 2 0 00-.07-2.804l-13.738-13.287c-1.343-1.299-.328-3.595 1.539-3.524 2.128.082 4.266.124 6.414.124 65.491 0 122.009-38.417 148.249-93.944a2.008 2.008 0 011.112-1.027l21.436-8.036a2 2 0 012.561 1.135l8.676 21.863z" fill="#76D5EA"/></g><g filter="url(#filter1_d)"><path d="M223.643 355.552c-.5-1.588-2.61-1.959-3.59-.612L207.8 371.779a2 2 0 01-2.766.46l-14.596-10.248c-1.531-1.074-3.543.35-3.005 2.142 22.598 75.318 88.181 132.047 168.257 141.694a1.995 1.995 0 001.694-.62l14.184-15.203a2 2 0 00-.071-2.8l-19.722-19.117a2.018 2.018 0 00-1.046-.535c-60.227-10.852-109.018-54.615-127.086-112z" fill="#5CDBDD"/></g><g filter="url(#filter2_d)"><path d="M272.355 140.733c.768-1.793-1.205-3.48-2.834-2.407-54.543 35.945-90.539 97.746-90.539 167.954a202.18 202.18 0 003.389 36.95c.096.512.389.966.816 1.265l19.507 13.663a2 2 0 002.763-.459l13.338-18.289c.33-.452.455-1.022.347-1.572a164.711 164.711 0 01-3.036-31.558c0-55.988 28.077-105.419 70.919-134.979 1.3-.897 1.138-2.884-.302-3.53l-19.972-8.954a2 2 0 01-1.02-2.612l6.624-15.472z" fill="#7278FA"/></g><g filter="url(#filter3_d)"><path d="M507.082 150.558c1.346 1.1.705 3.251-1.019 3.466l-20.541 2.568a2.001 2.001 0 00-1.741 2.2l1.912 17.722c.194 1.798-1.923 2.926-3.335 1.795-28.048-22.468-63.643-35.905-102.376-35.905-28.436 0-55.18 7.242-78.489 19.984a2.015 2.015 0 01-1.792.072l-19.655-8.838a2 2 0 01-1.019-2.609l10.04-23.52c.185-.433.516-.787.937-.998 27.07-13.575 57.632-21.215 89.978-21.215 48.216 0 92.466 16.976 127.1 45.278z" fill="#618BF8"/></g><g filter="url(#filter4_d)"><path d="M566.085 372.74c.672 1.699 3.063 1.675 3.667-.049 7.275-20.79 11.23-43.139 11.23-66.411 0-56.006-22.906-106.662-59.86-143.111a1.99 1.99 0 00-1.647-.555l-22.726 2.866a2 2 0 00-1.738 2.197l2.545 23.836c.048.444.243.86.552 1.181 28.332 29.458 45.75 69.487 45.75 113.586 0 18.243-2.981 35.791-8.483 52.182-.544 1.621 1.037 3.18 2.638 2.578l18.567-6.984a2 2 0 012.564 1.137l6.941 17.547z" fill="#61B8F8"/></g><g filter="url(#filter5_d)"><circle cx="202" cy="449.288" r="7" fill="#5CDBDD"/></g><g filter="url(#filter6_d)"><path fill-rule="evenodd" clip-rule="evenodd" d="M383 359.281c39.212 0 71-25.072 71-56s-31.788-56-71-56-71 25.072-71 56c0 11.9 4.706 22.932 12.73 32.004 1 1.13 1.354 2.706.855 4.13l-3.429 9.786c-1.091 3.112 1.842 6.133 4.985 5.135l13.941-4.424a4.119 4.119 0 013.132.282c11.149 5.746 24.473 9.087 38.786 9.087z" fill="url(#paint1_linear)"/></g><path d="M604.149 206.553c-.11-3.077 3.152-5.12 5.872-3.677l29.103 15.438c2.72 1.443 2.858 5.29.249 6.924l-27.922 17.485c-2.61 1.634-6.01-.17-6.12-3.247l-1.182-32.923z" fill="#5CDBDD"/><circle cx="406" cy="303.281" r="7" fill="#fff"/><circle cx="385" cy="303.281" r="7" fill="#fff"/><circle cx="363" cy="303.281" r="7" fill="#fff"/><defs><filter id="filter0_d" x="351.415" y="357.021" width="230.742" height="180.258" filterUnits="userSpaceOnUse" color-interpolation-filters="sRGB"><feFlood flood-opacity="0" result="BackgroundImageFix"/><feColorMatrix in="SourceAlpha" values="0 0 0 0 0 0 0 0 0 0 0 0 0 0 0 0 0 0 127 0"/><feOffset dy="10"/><feGaussianBlur stdDeviation="10"/><feColorMatrix values="0 0 0 0 0.122344 0 0 0 0 0.237341 0 0 0 0 0.3375 0 0 0 0.12 0"/><feBlend in2="BackgroundImageFix" result="effect1_dropShadow"/><feBlend in="SourceGraphic" in2="effect1_dropShadow" result="shape"/></filter><filter id="filter1_d" x="167.344" y="344.115" width="224.761" height="191.726" filterUnits="userSpaceOnUse" color-interpolation-filters="sRGB"><feFlood flood-opacity="0" result="BackgroundImageFix"/><feColorMatrix in="SourceAlpha" values="0 0 0 0 0 0 0 0 0 0 0 0 0 0 0 0 0 0 127 0"/><feOffset dy="10"/><feGaussianBlur stdDeviation="10"/><feColorMatrix values="0 0 0 0 0.122344 0 0 0 0 0.237341 0 0 0 0 0.3375 0 0 0 0.12 0"/><feBlend in2="BackgroundImageFix" result="effect1_dropShadow"/><feBlend in="SourceGraphic" in2="effect1_dropShadow" result="shape"/></filter><filter id="filter2_d" x="158.982" y="127.99" width="148.926" height="260.53" filterUnits="userSpaceOnUse" color-interpolation-filters="sRGB"><feFlood flood-opacity="0" result="BackgroundImageFix"/><feColorMatrix in="SourceAlpha" values="0 0 0 0 0 0 0 0 0 0 0 0 0 0 0 0 0 0 127 0"/><feOffset dy="10"/><feGaussianBlur stdDeviation="10"/><feColorMatrix values="0 0 0 0 0.122344 0 0 0 0 0.237341 0 0 0 0 0.3375 0 0 0 0.12 0"/><feBlend in2="BackgroundImageFix" result="effect1_dropShadow"/><feBlend in="SourceGraphic" in2="effect1_dropShadow" result="shape"/></filter><filter id="filter3_d" x="258.866" y="95.28" width="268.94" height="113.483" filterUnits="userSpaceOnUse" color-interpolation-filters="sRGB"><feFlood flood-opacity="0" result="BackgroundImageFix"/><feColorMatrix in="SourceAlpha" values="0 0 0 0 0 0 0 0 0 0 0 0 0 0 0 0 0 0 127 0"/><feOffset dy="10"/><feGaussianBlur stdDeviation="10"/><feColorMatrix values="0 0 0 0 0.122344 0 0 0 0 0.237341 0 0 0 0 0.3375 0 0 0 0.12 0"/><feBlend in2="BackgroundImageFix" result="effect1_dropShadow"/><feBlend in="SourceGraphic" in2="effect1_dropShadow" result="shape"/></filter><filter id="filter4_d" x="475" y="152.598" width="125.983" height="251.402" filterUnits="userSpaceOnUse" color-interpolation-filters="sRGB"><feFlood flood-opacity="0" result="BackgroundImageFix"/><feColorMatrix in="SourceAlpha" values="0 0 0 0 0 0 0 0 0 0 0 0 0 0 0 0 0 0 127 0"/><feOffset dy="10"/><feGaussianBlur stdDeviation="10"/><feColorMatrix values="0 0 0 0 0.122344 0 0 0 0 0.237341 0 0 0 0 0.3375 0 0 0 0.12 0"/><feBlend in2="BackgroundImageFix" result="effect1_dropShadow"/><feBlend in="SourceGraphic" in2="effect1_dropShadow" result="shape"/></filter><filter id="filter5_d" x="175" y="432.288" width="54" height="54" filterUnits="userSpaceOnUse" color-interpolation-filters="sRGB"><feFlood flood-opacity="0" result="BackgroundImageFix"/><feColorMatrix in="SourceAlpha" values="0 0 0 0 0 0 0 0 0 0 0 0 0 0 0 0 0 0 127 0"/><feOffset dy="10"/><feGaussianBlur stdDeviation="10"/><feColorMatrix values="0 0 0 0 0.122344 0 0 0 0 0.237341 0 0 0 0 0.3375 0 0 0 0.12 0"/><feBlend in2="BackgroundImageFix" result="effect1_dropShadow"/><feBlend in="SourceGraphic" in2="effect1_dropShadow" result="shape"/></filter><filter id="filter6_d" x="292" y="237.281" width="182" height="152" filterUnits="userSpaceOnUse" color-interpolation-filters="sRGB"><feFlood flood-opacity="0" result="BackgroundImageFix"/><feColorMatrix in="SourceAlpha" values="0 0 0 0 0 0 0 0 0 0 0 0 0 0 0 0 0 0 127 0"/><feOffset dy="10"/><feGaussianBlur stdDeviation="10"/><feColorMatrix values="0 0 0 0 0.122344 0 0 0 0 0.237341 0 0 0 0 0.3375 0 0 0 0.26 0"/><feBlend in2="BackgroundImageFix" result="effect1_dropShadow"/><feBlend in="SourceGraphic" in2="effect1_dropShadow" result="shape"/></filter><linearGradient id="paint0_linear" x1="587.445" y1="484.538" x2="11.451" y2="470.269" gradientUnits="userSpaceOnUse"><stop stop-color="#5CDBDD" stop-opacity="0"/><stop offset="1" stop-color="#5CDBDD" stop-opacity=".1"/></linearGradient><linearGradient id="paint1_linear" x1="454" y1="247.281" x2="314.666" y2="347.419" gradientUnits="userSpaceOnUse"><stop stop-color="#1F3D56"/><stop offset="1" stop-color="#335878"/></linearGradient></defs></svg>