<?xml version="1.0" encoding="utf-8"?>
<svg width="564" height="609" fill="none" xmlns="http://www.w3.org/2000/svg"><circle cx="277.215" cy="303.504" r="214.071" stroke="#E9ECEE" stroke-width="3" stroke-linecap="round" stroke-linejoin="round" stroke-dasharray="5 10"/><circle cx="109.714" cy="439.714" r="10.859" fill="#9A8AF9"/><circle cx="362.003" cy="107.292" r="10.859" fill="#0191FB"/><rect x=".144" y="311.71" width="440.213" height="162.401" rx="81.2" transform="rotate(-45 .144 311.71)" fill="url(#paint0_linear)"/><rect x="137.744" y="493.732" width="440.213" height="162.401" rx="81.2" transform="rotate(-45 137.744 493.732)" fill="url(#paint1_linear)"/><g filter="url(#filter0_d)"><rect x="81.856" y="132.855" width="400" height="88" rx="4" fill="#fff"/></g><rect opacity=".4" x="97.856" y="148.855" width="111" height="8" rx="4" fill="#5B7993"/><rect opacity=".1" x="97.856" y="163.855" width="51" height="4" rx="2" fill="#5B7993"/><rect opacity=".4" x="445.856" y="148.855" width="20" height="20" rx="10" fill="#335878"/><rect x="98.356" y="189.355" width="15" height="15" rx="7.5" fill="#E9ECEE" stroke="#fff"/><rect x="110.356" y="189.355" width="15" height="15" rx="7.5" fill="#E9ECEE" stroke="#fff"/><g filter="url(#filter1_d)"><rect x="81.856" y="344.855" width="400" height="88" rx="4" fill="#fff"/></g><rect opacity=".4" x="97.856" y="360.855" width="111" height="8" rx="4" fill="#5B7993"/><rect opacity=".1" x="97.856" y="375.855" width="51" height="4" rx="2" fill="#5B7993"/><rect opacity=".4" x="445.856" y="360.855" width="20" height="20" rx="10" fill="#335878"/><rect x="98.356" y="401.355" width="15" height="15" rx="7.5" fill="#E9ECEE" stroke="#fff"/><rect x="110.356" y="401.355" width="15" height="15" rx="7.5" fill="#E9ECEE" stroke="#fff"/><g filter="url(#filter2_d)"><rect x="51.856" y="225.855" width="460" height="110" rx="4" fill="url(#paint2_linear)"/></g><rect opacity=".8" x="67.856" y="241.855" width="111" height="8" rx="4" fill="#BDC9D4"/><rect opacity=".4" x="67.856" y="256.855" width="51" height="4" rx="2" fill="#BDC9D4"/><rect x="476.356" y="242.355" width="19" height="19" rx="9.5" fill="#5CDBDD" stroke="#5CDBDD"/><rect x="68.356" y="304.355" width="15" height="15" rx="7.5" fill="#ADBCC9" stroke="#315575"/><rect x="80.356" y="304.355" width="15" height="15" rx="7.5" fill="#ADBCC9" stroke="#315575"/><rect x="481.668" y="250.117" width="5.816" height="2.563" rx="1.282" transform="rotate(45 481.668 250.117)" fill="#fff"/><rect x="482.324" y="254.23" width="10.429" height="2.563" rx="1.282" transform="rotate(-45 482.324 254.23)" fill="#fff"/><defs><linearGradient id="paint0_linear" x1="855.141" y1="353.512" x2="185.064" y2="83.635" gradientUnits="userSpaceOnUse"><stop stop-color="#5CDBDD" stop-opacity=".03"/><stop offset="1" stop-color="#5CDBDD" stop-opacity=".21"/></linearGradient><linearGradient id="paint1_linear" x1="992.74" y1="535.533" x2="322.664" y2="265.656" gradientUnits="userSpaceOnUse"><stop stop-color="#5CDBDD" stop-opacity=".03"/><stop offset="1" stop-color="#5CDBDD" stop-opacity=".21"/></linearGradient><linearGradient id="paint2_linear" x1="511.856" y1="225.855" x2="408.445" y2="470.99" gradientUnits="userSpaceOnUse"><stop stop-color="#1F3D56"/><stop offset="1" stop-color="#335878"/></linearGradient><filter id="filter0_d" x="61.856" y="122.855" width="440" height="128" filterUnits="userSpaceOnUse" color-interpolation-filters="sRGB"><feFlood flood-opacity="0" result="BackgroundImageFix"/><feColorMatrix in="SourceAlpha" values="0 0 0 0 0 0 0 0 0 0 0 0 0 0 0 0 0 0 127 0"/><feOffset dy="10"/><feGaussianBlur stdDeviation="10"/><feColorMatrix values="0 0 0 0 0.122344 0 0 0 0 0.237341 0 0 0 0 0.3375 0 0 0 0.12 0"/><feBlend in2="BackgroundImageFix" result="effect1_dropShadow"/><feBlend in="SourceGraphic" in2="effect1_dropShadow" result="shape"/></filter><filter id="filter1_d" x="61.856" y="334.855" width="440" height="128" filterUnits="userSpaceOnUse" color-interpolation-filters="sRGB"><feFlood flood-opacity="0" result="BackgroundImageFix"/><feColorMatrix in="SourceAlpha" values="0 0 0 0 0 0 0 0 0 0 0 0 0 0 0 0 0 0 127 0"/><feOffset dy="10"/><feGaussianBlur stdDeviation="10"/><feColorMatrix values="0 0 0 0 0.122344 0 0 0 0 0.237341 0 0 0 0 0.3375 0 0 0 0.12 0"/><feBlend in2="BackgroundImageFix" result="effect1_dropShadow"/><feBlend in="SourceGraphic" in2="effect1_dropShadow" result="shape"/></filter><filter id="filter2_d" x="31.856" y="215.855" width="500" height="150" filterUnits="userSpaceOnUse" color-interpolation-filters="sRGB"><feFlood flood-opacity="0" result="BackgroundImageFix"/><feColorMatrix in="SourceAlpha" values="0 0 0 0 0 0 0 0 0 0 0 0 0 0 0 0 0 0 127 0"/><feOffset dy="10"/><feGaussianBlur stdDeviation="10"/><feColorMatrix values="0 0 0 0 0.122344 0 0 0 0 0.237341 0 0 0 0 0.3375 0 0 0 0.26 0"/><feBlend in2="BackgroundImageFix" result="effect1_dropShadow"/><feBlend in="SourceGraphic" in2="effect1_dropShadow" result="shape"/></filter></defs></svg>