<?xml version="1.0" encoding="utf-8"?>
<svg width="405" height="395" fill="none" xmlns="http://www.w3.org/2000/svg"><circle cx="148.883" cy="172.8" r="134.533" fill="url(#paint0_linear)"/><circle cx="224.221" cy="213.458" r="141.708" stroke="#E9ECEE" stroke-width="3" stroke-linecap="round" stroke-linejoin="round" stroke-dasharray="5 10"/><circle cx="224.221" cy="214.654" r="178.779" stroke="#E9ECEE" stroke-width="3" stroke-linecap="round" stroke-linejoin="round" stroke-dasharray="1 12"/><circle cx="157.852" cy="381.475" r="8.371" fill="#0191FB"/><circle cx="314.507" cy="105.234" r="8.371" fill="#0191FB"/><path fill-rule="evenodd" clip-rule="evenodd" d="M217.046 154.264c42.599 0 77.132-34.533 77.132-77.132C294.178 34.533 259.645 0 217.046 0c-42.599 0-77.132 34.533-77.132 77.132 0 42.599 34.533 77.132 77.132 77.132zm0-23.917c29.39 0 53.215-23.825 53.215-53.215 0-29.39-23.825-53.215-53.215-53.215-29.39 0-53.215 23.825-53.215 53.215 0 29.39 23.825 53.215 53.215 53.215z" fill="#5CDBDD"/><rect y="35.875" width="202.098" height="202.098" rx="18" fill="url(#paint1_linear)"/><rect x="55.232" y="121.659" width="69.787" height="30.758" rx="15.379" transform="rotate(45 55.232 121.659)" fill="#fff"/><rect x="63.099" y="171.006" width="125.147" height="30.758" rx="15.379" transform="rotate(-45 63.099 171.006)" fill="#fff"/><path fill-rule="evenodd" clip-rule="evenodd" d="M267.87 345.599a6.766 6.766 0 000-9.567 6.766 6.766 0 00-9.567 0l-5.979 5.98-5.98-5.979a6.763 6.763 0 00-9.566 0 6.763 6.763 0 000 9.566l5.979 5.98-5.979 5.979a6.765 6.765 0 009.566 9.567l5.98-5.98 5.979 5.98a6.766 6.766 0 009.567 0 6.766 6.766 0 000-9.567l-5.98-5.979 5.98-5.98z" fill="#9A8AF9"/><defs><linearGradient id="paint0_linear" x1="536.938" y1="107.523" x2="71.222" y2="38.326" gradientUnits="userSpaceOnUse"><stop stop-color="#5CDBDD" stop-opacity=".03"/><stop offset="1" stop-color="#5CDBDD" stop-opacity=".21"/></linearGradient><linearGradient id="paint1_linear" x1="202.098" y1="35.875" x2="-25.5" y2="164.89" gradientUnits="userSpaceOnUse"><stop stop-color="#1F3D56"/><stop offset="1" stop-color="#335878"/></linearGradient></defs></svg>