<?xml version="1.0" encoding="utf-8"?>
<svg width="533" height="670" fill="none" xmlns="http://www.w3.org/2000/svg"><path d="M29.86 457.227c-39.726-39.726-39.726-104.135 0-143.861L313.296 29.93c39.726-39.726 104.135-39.726 143.861 0 39.726 39.726 39.726 104.135 0 143.861L173.721 457.227c-39.726 39.726-104.135 39.727-143.861 0z" fill="url(#paint0_linear)"/><g opacity=".1" fill="#5CDBDD"><ellipse rx="3.229" ry="3.279" transform="matrix(-1 0 0 1 129.771 237.279)"/><ellipse rx="3.229" ry="3.279" transform="matrix(-1 0 0 1 112.551 237.279)"/><ellipse rx="3.229" ry="3.279" transform="matrix(-1 0 0 1 95.33 237.279)"/><ellipse rx="3.229" ry="3.279" transform="matrix(-1 0 0 1 78.11 237.279)"/><ellipse rx="3.229" ry="3.279" transform="matrix(-1 0 0 1 60.89 237.279)"/><ellipse rx="3.229" ry="3.279" transform="matrix(-1 0 0 1 43.67 237.279)"/><ellipse rx="3.229" ry="3.279" transform="matrix(-1 0 0 1 26.45 237.279)"/><ellipse rx="3.229" ry="3.279" transform="matrix(-1 0 0 1 9.229 237.279)"/><ellipse rx="3.229" ry="3.279" transform="matrix(-1 0 0 1 129.771 254.767)"/><ellipse rx="3.229" ry="3.279" transform="matrix(-1 0 0 1 112.551 254.767)"/><ellipse rx="3.229" ry="3.279" transform="matrix(-1 0 0 1 95.33 254.767)"/><ellipse rx="3.229" ry="3.279" transform="matrix(-1 0 0 1 78.11 254.767)"/><ellipse rx="3.229" ry="3.279" transform="matrix(-1 0 0 1 60.89 254.767)"/><ellipse rx="3.229" ry="3.279" transform="matrix(-1 0 0 1 43.67 254.767)"/><ellipse rx="3.229" ry="3.279" transform="matrix(-1 0 0 1 26.45 254.767)"/><ellipse rx="3.229" ry="3.279" transform="matrix(-1 0 0 1 9.229 254.767)"/><ellipse rx="3.229" ry="3.279" transform="matrix(-1 0 0 1 129.771 272.256)"/><ellipse rx="3.229" ry="3.279" transform="matrix(-1 0 0 1 112.551 272.256)"/><ellipse rx="3.229" ry="3.279" transform="matrix(-1 0 0 1 95.33 272.256)"/><ellipse rx="3.229" ry="3.279" transform="matrix(-1 0 0 1 78.11 272.256)"/><ellipse rx="3.229" ry="3.279" transform="matrix(-1 0 0 1 60.89 272.256)"/><ellipse rx="3.229" ry="3.279" transform="matrix(-1 0 0 1 43.67 272.256)"/><ellipse rx="3.229" ry="3.279" transform="matrix(-1 0 0 1 26.45 272.256)"/><ellipse rx="3.229" ry="3.279" transform="matrix(-1 0 0 1 9.229 272.256)"/><ellipse rx="3.229" ry="3.279" transform="matrix(-1 0 0 1 129.771 289.744)"/><ellipse rx="3.229" ry="3.279" transform="matrix(-1 0 0 1 112.551 289.744)"/><ellipse rx="3.229" ry="3.279" transform="matrix(-1 0 0 1 95.33 289.744)"/><ellipse rx="3.229" ry="3.279" transform="matrix(-1 0 0 1 78.11 289.744)"/><ellipse rx="3.229" ry="3.279" transform="matrix(-1 0 0 1 60.89 289.744)"/><ellipse rx="3.229" ry="3.279" transform="matrix(-1 0 0 1 43.67 289.744)"/><ellipse rx="3.229" ry="3.279" transform="matrix(-1 0 0 1 26.45 289.744)"/><ellipse rx="3.229" ry="3.279" transform="matrix(-1 0 0 1 9.229 289.744)"/><ellipse rx="3.229" ry="3.279" transform="matrix(-1 0 0 1 129.771 307.233)"/><ellipse rx="3.229" ry="3.279" transform="matrix(-1 0 0 1 112.551 307.233)"/><ellipse rx="3.229" ry="3.279" transform="matrix(-1 0 0 1 95.33 307.233)"/><ellipse rx="3.229" ry="3.279" transform="matrix(-1 0 0 1 78.11 307.233)"/><ellipse rx="3.229" ry="3.279" transform="matrix(-1 0 0 1 60.89 307.233)"/><ellipse rx="3.229" ry="3.279" transform="matrix(-1 0 0 1 43.67 307.233)"/><ellipse rx="3.229" ry="3.279" transform="matrix(-1 0 0 1 26.45 307.233)"/><ellipse rx="3.229" ry="3.279" transform="matrix(-1 0 0 1 9.229 307.233)"/><ellipse rx="3.229" ry="3.279" transform="matrix(-1 0 0 1 129.771 324.721)"/><ellipse rx="3.229" ry="3.279" transform="matrix(-1 0 0 1 112.551 324.721)"/><ellipse rx="3.229" ry="3.279" transform="matrix(-1 0 0 1 95.33 324.721)"/><ellipse rx="3.229" ry="3.279" transform="matrix(-1 0 0 1 78.11 324.721)"/><ellipse rx="3.229" ry="3.279" transform="matrix(-1 0 0 1 60.89 324.721)"/><ellipse rx="3.229" ry="3.279" transform="matrix(-1 0 0 1 43.67 324.721)"/><ellipse rx="3.229" ry="3.279" transform="matrix(-1 0 0 1 26.45 324.721)"/><ellipse rx="3.229" ry="3.279" transform="matrix(-1 0 0 1 9.229 324.721)"/></g><circle cx="370.929" cy="432" r="160" stroke="#E9ECEE" stroke-width="3" stroke-linecap="round" stroke-linejoin="round" stroke-dasharray="5 10"/><circle cx="371.429" cy="432.499" r="86.5" stroke="#E9ECEE" stroke-width="3" stroke-linecap="round" stroke-linejoin="round" stroke-dasharray="1 12"/><circle cx="442.788" cy="474.857" r="10.859" fill="#9A8AF9"/><g filter="url(#filter0_di)"><rect x="105" y="60" width="297" height="598" rx="41" fill="#fff"/><path fill-rule="evenodd" clip-rule="evenodd" d="M177 72h-29c-15.464 0-28 12.536-28 28v514c0 15.464 12.536 28 28 28h209c15.464 0 28-12.536 28-28V100c0-15.464-12.536-28-28-28h-29v5c0 9.389-7.611 17-17 17H194c-9.389 0-17-7.611-17-17v-5z" fill="url(#paint1_linear)"/><path d="M177 72h.5v-.5h-.5v.5zm151 0v-.5h-.5v.5h.5zm-180 .5h29v-1h-29v1zM120.5 100c0-15.188 12.312-27.5 27.5-27.5v-1c-15.74 0-28.5 12.76-28.5 28.5h1zm0 514V100h-1v514h1zm27.5 27.5c-15.188 0-27.5-12.312-27.5-27.5h-1c0 15.74 12.76 28.5 28.5 28.5v-1zm209 0H148v1h209v-1zm27.5-27.5c0 15.188-12.312 27.5-27.5 27.5v1c15.74 0 28.5-12.76 28.5-28.5h-1zm0-514v514h1V100h-1zM357 72.5c15.188 0 27.5 12.312 27.5 27.5h1c0-15.74-12.76-28.5-28.5-28.5v1zm-29 0h29v-1h-29v1zm-.5-.5v5h1v-5h-1zm0 5c0 9.113-7.387 16.5-16.5 16.5v1c9.665 0 17.5-7.835 17.5-17.5h-1zM311 93.5H194v1h117v-1zm-117 0c-9.113 0-16.5-7.387-16.5-16.5h-1c0 9.665 7.835 17.5 17.5 17.5v-1zM177.5 77v-5h-1v5h1z" fill="#EDEDED" fill-opacity=".61"/><g filter="url(#filter1_d)"><rect x="142" y="147" width="223" height="232.846" rx="4" fill="#fff"/><rect x="159.751" y="169" width="66.567" height="8" rx="4" fill="#5B7993"/><rect x="315.575" y="165.5" width="16.751" height="15" rx="7.5" fill="#ADBCC9" stroke="#fff"/><rect x="328.888" y="165.5" width="16.751" height="15" rx="7.5" fill="#ADBCC9" stroke="#fff"/><path opacity=".2" d="M159.751 263.694c2.017-5.983 4.412-11.834 8.215-17.326 3.55-5.113 4.517 1.818 8.067 2.424 5.777.966 8.908-8.067 10.42-11.684 2.038-4.885 4.181-9.77 6.555-14.523 1.134-2.254 4.643-2.216 5.735.075 2.92 6.155 5.694 12.347 8.635 18.482 2.416 5.018 7.437 13.653 14.853 8.616 1.68-1.155 3.025-2.727 3.823-4.507 2.71-6.135 8.53 3.92 10.399 5.832.547.568 1.156 1.136 1.912 1.439 4.475 1.742 7.794-4.582 8.866-7.442l16.933-44.972c.546-1.477 2.794-1.477 3.361 0 3.151 8.085 10.903 21.984 16.008 20.034 1.093-.417 2.017-1.079 2.921-1.78.462-.379 1.176-.17 1.344.379.798 2.651 1.303 5.472 2.752 7.858 1.282 2.083 3.299 3.863 5.778 4.583 2.479.719 5.441.227 7.226-1.515.736-.72 1.261-1.629 2.038-2.31 4.958-4.356 8.152 8.691 9.118 11.191 1.639 4.241 5.105 8.729 10 8.672 2.395-.019 4.937-1.136 7.08-.151 1.449.662 2.248 2.121 2.92 3.465 3.046 6.041 5.798 12.233 8.635 18.349V301.5H159.836l-.085-37.806z" fill="url(#paint2_linear)"/><path d="M160.861 263c2.017-5.984 3.303-11.14 7.105-16.632 3.551-5.113 4.517 1.818 8.067 2.424 5.778.966 8.908-8.067 10.421-11.684 2.038-4.885 4.18-9.77 6.554-14.523 1.135-2.254 4.643-2.216 5.736.075 2.92 6.155 5.693 12.347 8.634 18.482 2.416 5.018 7.437 13.653 14.853 8.616 1.681-1.155 3.025-2.727 3.824-4.507 2.71-6.135 8.529 3.92 10.399 5.832.546.568 1.155 1.136 1.912 1.439 4.474 1.742 7.794-4.582 8.865-7.442l16.933-44.972c.546-1.477 2.794-1.477 3.361 0 3.152 8.085 10.904 21.984 16.009 20.034 1.092-.417 2.017-1.079 2.92-1.78.462-.379 1.176-.17 1.345.379.798 2.651 1.302 5.472 2.752 7.858 1.281 2.083 3.298 3.863 5.777 4.583 2.479.719 5.441.227 7.227-1.515.735-.72 1.26-1.629 2.038-2.31 4.958-4.356 8.151 8.691 9.117 11.191 1.639 4.241 5.105 8.729 10 8.672 2.395-.019 4.937-1.136 7.08-.151 1.45.662 2.248 2.121 2.92 3.465 3.047 6.041 4.711 12.35 7.547 18.466" stroke="#5CDBDD" stroke-width="2" stroke-linecap="round" stroke-linejoin="round"/><rect x="261.821" y="302" width="81.523" height="60" rx="4" fill="#E9ECEE"/><rect opacity=".4" x="271.332" y="350" width="43.479" height="4" rx="2" fill="#738CA1"/><rect opacity=".8" x="271.332" y="341" width="19.022" height="6" rx="3" fill="#738CA1"/><rect x="271.332" y="310" width="10.87" height="4" rx="2" fill="#9BAEBD"/><rect x="284.918" y="310" width="21.74" height="4" rx="2" fill="#9BAEBD"/><rect x="160.861" y="302" width="84.318" height="60" rx="4" fill="#E9ECEE"/><rect opacity=".4" x="170.697" y="350" width="44.97" height="4" rx="2" fill="#55748E"/><rect opacity=".8" x="170.697" y="341" width="19.674" height="6" rx="3" fill="#55748E"/><rect x="170.697" y="310" width="11.242" height="4" rx="2" fill="#9BAEBD"/><rect x="186.686" y="310" width="22.485" height="4" rx="2" fill="#9BAEBD"/></g><g filter="url(#filter2_d)"><rect x="142" y="390" width="223" height="232.846" rx="4" fill="#fff"/><rect x="159.751" y="412" width="66.567" height="8" rx="4" fill="#5B7993"/><rect x="315.575" y="408.5" width="16.751" height="15" rx="7.5" fill="#ADBCC9" stroke="#fff"/><rect x="328.888" y="408.5" width="16.751" height="15" rx="7.5" fill="#ADBCC9" stroke="#fff"/><path opacity=".2" d="M343.345 506.694c-2.017-5.983-4.412-11.834-8.215-17.326-3.55-5.113-4.516 1.818-8.067 2.424-5.777.966-8.907-8.067-10.42-11.684-2.038-4.885-4.181-9.77-6.555-14.523-1.134-2.254-4.643-2.216-5.735.075-2.92 6.155-5.693 12.347-8.635 18.482-2.415 5.018-7.437 13.653-14.853 8.616-1.68-1.155-3.025-2.727-3.823-4.507-2.71-6.135-8.529 3.92-10.399 5.832-.546.568-1.156 1.136-1.912 1.439-4.475 1.742-7.794-4.582-8.866-7.442l-16.932-44.972c-.547-1.477-2.795-1.477-3.362 0-3.151 8.085-10.903 21.984-16.008 20.034-1.093-.417-2.017-1.079-2.92-1.78-.463-.379-1.177-.17-1.345.379-.798 2.651-1.302 5.472-2.752 7.858-1.282 2.083-3.298 3.863-5.777 4.583-2.479.719-5.442.227-7.227-1.515-.736-.72-1.261-1.629-2.038-2.31-4.958-4.356-8.151 8.691-9.118 11.191-1.638 4.241-5.105 8.729-10 8.672-2.395-.019-4.937-1.136-7.08-.151-1.449.662-2.248 2.121-2.92 3.465-3.046 6.041-5.798 12.233-8.634 18.349V544.5h183.509l.084-37.806z" fill="url(#paint3_linear)"/><path d="M342.235 506c-2.017-5.984-3.302-11.14-7.105-16.632-3.55-5.113-4.517 1.818-8.067 2.424-5.778.966-8.908-8.067-10.42-11.684-2.038-4.885-4.181-9.77-6.555-14.523-1.135-2.254-4.643-2.216-5.735.075-2.921 6.155-5.694 12.347-8.635 18.482-2.416 5.018-7.437 13.653-14.853 8.616-1.681-1.155-3.025-2.727-3.823-4.507-2.71-6.135-8.53 3.92-10.4 5.832-.546.568-1.155 1.136-1.911 1.439-4.475 1.742-7.795-4.582-8.866-7.442l-16.933-44.972c-.546-1.477-2.794-1.477-3.361 0-3.151 8.085-10.904 21.984-16.009 20.034-1.092-.417-2.016-1.079-2.92-1.78-.462-.379-1.176-.17-1.344.379-.799 2.651-1.303 5.472-2.752 7.858-1.282 2.083-3.299 3.863-5.778 4.583-2.479.719-5.441.227-7.227-1.515-.735-.72-1.26-1.629-2.038-2.31-4.958-4.356-8.151 8.691-9.117 11.191-1.639 4.241-5.105 8.729-10 8.672-2.395-.019-4.937-1.136-7.08-.151-1.45.662-2.248 2.121-2.92 3.465-3.046 6.041-4.711 12.35-7.547 18.466" stroke="#0191FB" stroke-width="2" stroke-linecap="round" stroke-linejoin="round"/><rect x="261.821" y="545" width="81.523" height="60" rx="4" fill="#E9ECEE"/><rect opacity=".4" x="271.332" y="593" width="43.479" height="4" rx="2" fill="#738CA1"/><rect opacity=".8" x="271.332" y="584" width="19.022" height="6" rx="3" fill="#738CA1"/><rect x="271.332" y="553" width="10.87" height="4" rx="2" fill="#9BAEBD"/><rect x="284.918" y="553" width="21.74" height="4" rx="2" fill="#9BAEBD"/><rect x="160.861" y="545" width="84.318" height="60" rx="4" fill="#E9ECEE"/><rect opacity=".4" x="170.697" y="593" width="44.97" height="4" rx="2" fill="#55748E"/><rect opacity=".8" x="170.697" y="584" width="19.674" height="6" rx="3" fill="#55748E"/><rect x="170.697" y="553" width="11.242" height="4" rx="2" fill="#9BAEBD"/><rect x="186.686" y="553" width="22.485" height="4" rx="2" fill="#9BAEBD"/></g><rect x="232.5" y="75.5" width="42" height="5" rx="2.5" fill="#EEF0F4" stroke="#E3E5EA"/><rect x="285.5" y="75.5" width="5" height="5" rx="2.5" fill="#EEF0F4" stroke="#E3E5EA"/><path d="M160 113h-12.17l5.59-5.59L152 106l-8 8 8 8 1.41-1.41-5.58-5.59H160v-2z" fill="#D1D1D1"/><rect x="105.5" y="60.5" width="296" height="597" rx="40.5" stroke="#E9ECEE"/></g><defs><linearGradient id="paint0_linear" x1="824.87" y1="-407.586" x2="-87.047" y2="-54.11" gradientUnits="userSpaceOnUse"><stop stop-color="#5CDBDD" stop-opacity=".03"/><stop offset="1" stop-color="#5CDBDD" stop-opacity=".21"/></linearGradient><linearGradient id="paint1_linear" x1="489" y1="1126.5" x2="174.5" y2="-135" gradientUnits="userSpaceOnUse"><stop stop-color="#5B7993"/><stop offset="1" stop-color="#1F3D56"/></linearGradient><linearGradient id="paint2_linear" x1="269.795" y1="216.002" x2="269.572" y2="291" gradientUnits="userSpaceOnUse"><stop offset=".531" stop-color="#5CDBDD"/><stop offset="1" stop-color="#5CDBDD" stop-opacity="0"/></linearGradient><linearGradient id="paint3_linear" x1="233.301" y1="459.002" x2="233.524" y2="534" gradientUnits="userSpaceOnUse"><stop offset=".531" stop-color="#0191FB"/><stop offset="1" stop-color="#0191FB" stop-opacity="0"/></linearGradient><filter id="filter0_di" x="93" y="48" width="321" height="622" filterUnits="userSpaceOnUse" color-interpolation-filters="sRGB"><feFlood flood-opacity="0" result="BackgroundImageFix"/><feColorMatrix in="SourceAlpha" values="0 0 0 0 0 0 0 0 0 0 0 0 0 0 0 0 0 0 127 0"/><feOffset/><feGaussianBlur stdDeviation="6"/><feColorMatrix values="0 0 0 0 0 0 0 0 0 0 0 0 0 0 0 0 0 0 0.08 0"/><feBlend in2="BackgroundImageFix" result="effect1_dropShadow"/><feBlend in="SourceGraphic" in2="effect1_dropShadow" result="shape"/><feColorMatrix in="SourceAlpha" values="0 0 0 0 0 0 0 0 0 0 0 0 0 0 0 0 0 0 127 0" result="hardAlpha"/><feOffset dx="-5"/><feGaussianBlur stdDeviation="8"/><feComposite in2="hardAlpha" operator="arithmetic" k2="-1" k3="1"/><feColorMatrix values="0 0 0 0 0.85 0 0 0 0 0.85 0 0 0 0 0.85 0 0 0 0.15 0"/><feBlend in2="shape" result="effect2_innerShadow"/></filter><filter id="filter1_d" x="141" y="146" width="225" height="234.846" filterUnits="userSpaceOnUse" color-interpolation-filters="sRGB"><feFlood flood-opacity="0" result="BackgroundImageFix"/><feColorMatrix in="SourceAlpha" values="0 0 0 0 0 0 0 0 0 0 0 0 0 0 0 0 0 0 127 0"/><feOffset/><feGaussianBlur stdDeviation=".5"/><feColorMatrix values="0 0 0 0 0.122344 0 0 0 0 0.237341 0 0 0 0 0.3375 0 0 0 0.12 0"/><feBlend in2="BackgroundImageFix" result="effect1_dropShadow"/><feBlend in="SourceGraphic" in2="effect1_dropShadow" result="shape"/></filter><filter id="filter2_d" x="141" y="389" width="225" height="234.846" filterUnits="userSpaceOnUse" color-interpolation-filters="sRGB"><feFlood flood-opacity="0" result="BackgroundImageFix"/><feColorMatrix in="SourceAlpha" values="0 0 0 0 0 0 0 0 0 0 0 0 0 0 0 0 0 0 127 0"/><feOffset/><feGaussianBlur stdDeviation=".5"/><feColorMatrix values="0 0 0 0 0.122344 0 0 0 0 0.237341 0 0 0 0 0.3375 0 0 0 0.12 0"/><feBlend in2="BackgroundImageFix" result="effect1_dropShadow"/><feBlend in="SourceGraphic" in2="effect1_dropShadow" result="shape"/></filter></defs></svg>