<svg width="643" height="491" viewBox="0 0 643 491" fill="none" xmlns="http://www.w3.org/2000/svg">
<path d="M78.2273 296.042L79.7458 298.442C87.5864 309.566 96.7295 319.712 106.98 328.664C130.824 348.192 160.705 358.839 191.525 358.789H197.354C218.757 357.047 239.734 351.836 259.464 343.359C250.615 344.779 241.679 345.597 232.719 345.808C217.488 345.796 202.43 342.58 188.523 336.369C174.615 330.158 162.17 321.091 151.996 309.757C126.754 309.964 101.708 305.307 78.2273 296.042Z" fill="url(#paint0_linear)"/>
<path d="M191.475 91.5378C214.49 91.5177 237.12 97.4468 257.168 108.75C277.217 120.053 294.003 136.346 305.899 156.048C292.106 143.538 275.334 134.775 257.187 130.598C239.041 126.422 220.125 126.971 202.251 132.194C226.743 143.998 260.1 153.011 306.046 156.146C306.046 156.146 303.793 112.404 247.805 89.5295C169.433 57.6416 158.608 63.9604 138.77 30.75C135.84 53.9556 142.215 77.3773 156.501 95.8972C167.916 92.9074 179.676 91.4415 191.475 91.5378Z" fill="#F15A24"/>
<path d="M247.806 89.5295C221.013 78.8512 202.154 72.1896 188.047 67.0953C191.692 76.0687 196.644 84.4538 202.742 91.9786C223.81 93.7177 244.165 100.432 262.132 111.571C280.1 122.709 295.167 137.952 306.096 156.048C289.329 140.803 268.209 131.194 245.7 128.569C264.316 139.676 284.009 148.866 304.48 155.999H306.194C306.194 155.999 303.843 112.404 247.806 89.5295Z" fill="#ED1C24"/>
<path d="M305.948 156.146H306.242C307.124 151.248 312.365 113.58 269.75 80.5168C206.17 31.191 193.777 26.5866 190.741 0.47876C185.639 10.7711 182.763 22.0224 182.299 33.5002C181.835 44.978 183.793 56.4248 188.047 67.0955C202.105 71.9938 221.012 78.6065 247.757 89.5296C303.842 112.405 306.046 156.146 306.046 156.146H305.948Z" fill="#C1272D"/>
<path d="M498.893 113.139C522.753 113.11 545.82 121.704 563.844 137.337C584.682 138.24 604.515 146.541 619.783 160.751C619.783 160.751 566.342 83.1128 472.148 115.393C463.708 118.435 455.626 122.394 448.049 127.197C463.412 117.997 480.985 113.138 498.893 113.139Z" fill="url(#paint1_linear)"/>
<path d="M498.892 113.139C480.989 113.121 463.416 117.963 448.048 127.148L450.791 125.483C374.672 170.302 281.359 308.042 151.996 309.757C162.192 321.046 174.647 330.067 188.553 336.236C202.46 342.404 217.507 345.582 232.719 345.563C241.679 345.352 250.615 344.534 259.464 343.114C343.617 308.434 424.438 225.555 461.126 185.34C495.121 148.064 532.397 135.378 563.991 137.288C545.921 121.639 522.796 113.061 498.892 113.139Z" fill="url(#paint2_linear)"/>
<path d="M302.373 380.096C300.67 385.655 299.763 391.427 299.679 397.24C299.665 403.969 300.689 410.661 302.715 417.078C301.63 409.08 302.537 400.937 305.357 393.374C308.177 385.811 312.822 379.063 318.88 373.728L319.272 372.259C323.563 358.144 332.912 346.109 345.526 338.46C341.543 339.741 337.634 341.246 333.82 342.967C326.324 346.685 319.667 351.897 314.26 358.282C308.852 364.667 304.807 372.09 302.373 380.096Z" fill="url(#paint3_linear)"/>
<path d="M643 233.392C643.03 207.266 634.858 181.789 619.635 160.555C604.374 146.452 584.604 138.225 563.844 137.337C574.63 146.666 583.278 158.213 589.195 171.188C595.112 184.164 598.161 198.264 598.132 212.526C598.132 245.883 586.033 284.041 546.798 304.564C489.683 334.444 402.053 320.239 345.135 338.852C332.548 346.499 323.219 358.513 318.929 372.602L318.537 374.071C335.191 359.376 368.059 348.943 432.178 357.221C477.977 363.099 514.322 364.715 545.573 355.752C575.784 349.159 602.332 331.268 619.782 305.74C634.855 284.625 642.971 259.336 643 233.392Z" fill="url(#paint4_linear)"/>
<path opacity="0.49" d="M643 233.392C643.03 207.266 634.858 181.789 619.635 160.555C604.374 146.452 584.604 138.225 563.844 137.337C574.63 146.666 583.278 158.213 589.195 171.188C595.112 184.164 598.161 198.264 598.132 212.526C598.132 245.883 586.033 284.041 546.798 304.564C489.683 334.444 402.053 320.239 345.135 338.852C332.548 346.499 323.219 358.513 318.929 372.602L318.537 374.071C335.191 359.376 368.059 348.943 432.178 357.221C477.977 363.099 514.322 364.715 545.573 355.752C575.784 349.159 602.332 331.268 619.782 305.74C634.855 284.625 642.971 259.336 643 233.392Z" fill="url(#paint5_linear)"/>
<path d="M359.242 447.447C344.208 442.841 331.575 432.53 324.049 418.724C316.523 404.918 314.703 388.713 318.978 373.581C312.921 378.916 308.275 385.664 305.455 393.227C302.635 400.79 301.728 408.933 302.814 416.931C305.915 426.638 311.378 435.424 318.712 442.5C326.045 449.576 335.02 454.721 344.832 457.474C354.644 460.227 364.986 460.501 374.93 458.273C384.874 456.044 394.11 451.382 401.808 444.704C388.437 450.81 373.287 451.786 359.242 447.447Z" fill="url(#paint6_linear)"/>
<g style="mix-blend-mode:screen">
<path d="M380.109 443.088C386.33 424.915 406.511 396.897 428.113 409.731C428.113 409.731 445.698 419.527 449.371 391.754C449.371 391.754 462.548 457.293 399.066 455.089C399.066 455.089 413.369 444.655 413.222 433.928C403.074 439.582 391.72 442.722 380.109 443.088Z" fill="#2DB5F9"/>
</g>
<g style="mix-blend-mode:screen">
<path d="M405.482 402.971C408.955 400.626 412.999 399.268 417.184 399.044C421.368 398.82 425.535 399.737 429.239 401.697C438.202 405.665 449.468 390.137 439.721 376.226C439.721 376.226 440.358 390.578 428.798 390.431C424.143 390.232 419.521 391.292 415.417 393.499C411.314 395.706 407.882 398.978 405.482 402.971Z" fill="#5FD2FF"/>
</g>
<path d="M469.257 194.451C454.073 215.171 431.736 232.511 429.14 236.772C426.544 241.034 433.549 254.749 443.835 255.729C454.122 256.708 446.235 251.761 445.354 246.912C444.472 242.062 448.44 249.998 460.881 248.136C473.323 246.275 456.375 241.67 457.55 235.401C458.726 229.131 471.511 217.228 476.605 205.276C481.699 193.324 490.418 205.276 485.961 214.632C484.197 218.355 500.117 204.199 492.083 193.422C484.05 182.646 478.123 182.352 469.257 194.451Z" fill="#219058"/>
<path d="M425.908 239.76C423.655 241.915 417.091 246.716 417.091 246.716C417.091 246.716 423.557 255.679 431.786 255.533C431.786 255.533 433.549 254.7 431.002 252.055C428.165 248.527 426.397 244.261 425.908 239.76Z" fill="#219058"/>
<path d="M202.252 132.194C184.347 124.038 168.671 111.689 156.551 96.1913C136.408 101.643 117.823 111.737 102.283 125.664C86.7428 139.591 74.6806 156.963 67.0622 176.39C59.4438 195.817 56.4811 216.758 58.4114 237.536C60.3417 258.314 67.1113 278.35 78.178 296.041C101.674 305.314 126.737 309.97 151.995 309.757C139.623 296.075 130.929 279.474 126.729 261.513C122.53 243.551 122.962 224.816 127.985 207.067C133.009 189.318 142.459 173.136 155.449 160.04C168.44 146.943 184.544 137.362 202.252 132.194Z" fill="url(#paint7_linear)"/>
<path d="M202.496 91.9786C208.423 100.551 225.469 115.343 245.552 128.569C268.043 131.203 289.146 140.813 305.899 156.048C294.966 137.946 279.891 122.698 261.914 111.56C243.937 100.421 223.573 93.7102 202.496 91.9786Z" fill="#F7B852"/>
<path d="M202.496 91.9787C198.872 91.6848 195.198 91.5378 191.524 91.5378C179.701 91.6173 167.941 93.2644 156.55 96.4361C168.671 111.934 184.347 124.283 202.251 132.439C216.294 128.326 231.025 127.109 245.552 128.863C225.469 115.344 208.423 100.551 202.496 91.9787Z" fill="#FF8431"/>
<path d="M276.657 122.397C266.373 112.744 254.126 105.426 240.752 100.943C249.373 117.352 256.819 122.397 276.657 122.397Z" fill="#FFFB69"/>
<path d="M238.842 52.5963C245.537 56.6757 251.966 61.1748 258.093 66.0665C259.611 67.2421 255.35 55.6332 250.402 53.429C246.692 52.1252 242.701 51.8377 238.842 52.5963Z" fill="#C1272D"/>
<path d="M262.599 69.3975C269.219 73.5897 275.597 78.1524 281.703 83.0638C283.27 84.1904 279.058 72.5814 274.11 70.3282C270.424 69.0005 266.451 68.6792 262.599 69.3975Z" fill="#C1272D"/>
<path d="M284.935 85.8558C288.985 89.6462 292.466 94.0017 295.27 98.7873C296.054 99.9139 295.27 91.195 292.576 88.6968C290.328 87.0862 287.69 86.1054 284.935 85.8558Z" fill="#C1272D"/>
<path d="M181.974 297.658C181.386 295.747 188.88 293.298 190.888 293.2C194.544 293.798 198.083 294.972 201.371 296.678C196.755 298.423 191.897 299.447 186.97 299.715C185.18 299.383 183.478 298.682 181.974 297.658Z" fill="#44C688"/>
<path d="M208.963 291.241C208.326 289.772 214.106 287.176 215.723 286.931C218.696 287.105 221.622 287.75 224.393 288.841C220.845 290.62 217.046 291.842 213.127 292.466C211.669 292.351 210.251 291.934 208.963 291.241Z" fill="#44C688"/>
<path d="M231.592 282.963C230.955 281.787 235.462 279.191 236.735 278.799C239.194 278.673 241.658 278.938 244.034 279.583C241.331 281.357 238.375 282.712 235.266 283.6C234.01 283.655 232.756 283.438 231.592 282.963Z" fill="#44C688"/>
<path d="M249.57 274.783C248.884 273.754 252.852 271.06 253.978 270.619C256.201 270.265 258.466 270.265 260.689 270.619C258.294 272.435 255.634 273.872 252.803 274.881C251.73 275.069 250.63 275.036 249.57 274.783Z" fill="#44C688"/>
<path d="M266.322 265.623C265.685 264.79 268.967 262.243 269.947 261.802C271.878 261.495 273.845 261.495 275.776 261.802C273.795 263.505 271.565 264.892 269.163 265.917C268.206 266.016 267.238 265.916 266.322 265.623Z" fill="#44C688"/>
<path d="M154.885 299.813C154.591 297.658 162.918 296.384 165.073 296.629C168.835 297.893 172.373 299.744 175.556 302.115C170.386 303.18 165.083 303.445 159.832 302.899C157.986 302.227 156.3 301.176 154.885 299.813Z" fill="#44C688"/>
<path d="M160.029 47.2082C165.701 52.2345 172.381 55.9919 179.622 58.2293C177.211 51.0621 176.277 43.4802 176.879 35.9421C176.879 35.4033 159.98 35.6482 157.286 21.7861C156.551 18.9941 154.151 40.5465 160.029 47.2082Z" fill="#C1272D"/>
<path d="M102.523 367.458C102.761 365.198 103.473 363.013 104.612 361.047C105.751 359.08 107.293 357.376 109.135 356.045L109.674 355.752C108.284 355.434 106.878 355.189 105.462 355.017C85.3297 352.029 80.1865 364.03 79.1579 377.5C79.1579 378.284 79.1579 379.067 79.1579 379.802C81.4538 375.75 84.8575 372.436 88.9698 370.25C93.0821 368.064 97.7326 367.095 102.376 367.458H102.523Z" fill="#F15A24"/>
<path d="M127.063 362.952C107.029 350.804 95.7634 349.922 91.306 383.965C91.306 383.965 112.369 367.311 122.361 378.332C133.186 390.333 147.881 379.263 140.191 372.308C136.296 368.563 131.873 365.411 127.063 362.952Z" fill="#F15A24"/>
<path d="M118.785 367.017C107.421 374.561 107.421 392.342 107.421 392.342C107.421 392.342 128.141 381.124 126.524 374.12C126.197 372.249 125.261 370.538 123.861 369.254C122.462 367.969 120.677 367.183 118.785 367.017Z" fill="#F15A24"/>
<path d="M24.6401 227.073C26.5488 225.842 28.6957 225.027 30.9407 224.681C33.1858 224.335 35.4785 224.466 37.6695 225.065H38.2573C37.6361 223.79 36.9494 222.547 36.2 221.342C25.7177 203.954 13.1781 207.48 2.00997 215.073C1.32421 215.514 0.736415 216.003 0.148621 216.493C4.74455 215.75 9.45714 216.332 13.7341 218.171C18.0111 220.01 21.6752 223.03 24.2972 226.878L24.6401 227.073Z" fill="#F15A24"/>
<path d="M45.8986 247.989C38.6001 219.089 32.7222 207.921 4.80194 227.906C4.80194 227.906 28.7056 221.049 31.4486 255.043C32.7222 271.109 48.2008 274.342 48.0048 263.958C48.0872 258.56 47.3776 253.18 45.8986 247.989Z" fill="#F15A24"/>
<path d="M35.7101 232.511C22.4357 229.376 9.40625 241.524 9.40625 241.524C9.40625 241.524 29.8321 240.838 32.2813 253.181C33.7018 260.088 35.7101 232.511 35.7101 232.511Z" fill="#F15A24"/>
<path d="M461.127 185.389C473.965 170.477 489.399 158.013 506.681 148.603C523.539 139.963 542.16 135.32 561.101 135.035L566.538 139.933H563.697C544.372 138.674 525.054 142.49 507.66 151.003C490.207 159.573 474.444 171.222 461.127 185.389Z" fill="#29B36E"/>
<path d="M563.158 135.231C573.762 136.229 584.143 138.89 593.919 143.117C603.626 147.244 612.43 153.235 619.831 160.751C611.953 153.813 602.781 148.503 592.842 145.125C584.223 142.401 575.34 140.595 566.342 139.737L560.905 134.839L563.158 135.231Z" fill="#6FD191"/>
<path d="M320.153 369.761C323.079 367.698 326.139 365.833 329.313 364.177C331.531 363.051 333.803 362.038 336.122 361.14C338.424 360.16 341.02 359.425 343.126 358.641C352.545 355.756 362.253 353.916 372.075 353.155C391.565 351.895 411.133 352.666 430.463 355.458C449.639 358.282 468.947 360.13 488.311 360.993C507.705 361.981 527.137 360.066 545.964 355.311C527.19 360.421 507.758 362.699 488.311 362.07C468.884 361.57 449.494 360.083 430.218 357.613C411.039 355.268 391.668 354.923 372.418 356.584C362.882 357.444 353.47 359.35 344.351 362.266C342.098 363.05 339.844 363.785 337.689 364.764C335.501 365.668 333.359 366.682 331.272 367.801C327.135 370.007 323.258 372.669 319.712 375.737L318.145 377.108C318.641 374.615 319.312 372.16 320.153 369.761Z" fill="#C83AD7"/>
<path d="M205.876 140.815C187.165 144.929 190.055 159.771 190.055 159.771C190.055 159.771 195.982 152.62 228.555 148.75C220.801 146.7 213.218 144.046 205.876 140.815Z" fill="#C1272D"/>
<path d="M302.716 417.176C302.097 413.057 302.015 408.875 302.471 404.734C302.886 400.513 303.79 396.354 305.165 392.342C306.545 388.307 308.386 384.444 310.651 380.831C313.011 377.276 315.754 373.99 318.831 371.034L320.153 369.81C320.153 369.81 318.292 375.737 318.096 377.206C316.34 378.99 314.703 380.888 313.198 382.888C308.265 389.375 304.91 396.922 303.401 404.93C302.647 408.966 302.416 413.082 302.716 417.176Z" fill="#FBA9FF"/>
<path d="M147.685 309.756C136.127 296.013 128.106 279.65 124.321 262.096C122.314 252.933 121.507 243.547 121.92 234.176L122.312 227.171L123.292 220.216C123.63 217.908 124.088 215.619 124.663 213.358C125.114 211.071 125.703 208.814 126.427 206.598C129.035 197.661 132.824 189.112 137.693 181.176C140.09 177.201 142.723 173.374 145.579 169.714L150.086 164.424C151.555 162.661 153.318 161.093 154.984 159.526C161.58 153.052 168.97 147.439 176.977 142.823C184.988 138.295 193.504 134.728 202.35 132.193C193.622 134.99 185.254 138.804 177.418 143.558C169.653 148.355 162.527 154.115 156.208 160.702C154.69 162.367 153.025 163.934 151.604 165.6L147.098 171.037C144.405 174.706 141.935 178.534 139.701 182.499C135.187 190.365 131.744 198.8 129.464 207.578C128.822 209.749 128.315 211.958 127.945 214.191C127.501 216.409 127.174 218.649 126.966 220.901L126.231 227.612V234.372C126.113 243.369 127.167 252.343 129.366 261.067C133.741 278.483 142.453 294.509 154.69 307.65L156.649 309.756C156.649 309.756 149.302 309.903 147.685 309.756Z" fill="#FF737D"/>
<path d="M259.463 343.359C249.814 345.514 239.961 346.63 230.074 346.69C220.099 346.409 210.21 344.761 200.684 341.791C191.15 338.96 181.953 335.1 173.254 330.28C164.434 325.454 156.378 319.346 149.35 312.157L147.293 310.001H156.012C161.82 316.211 168.405 321.644 175.605 326.166C183.96 331.224 192.847 335.347 202.104 338.46C211.203 341.777 220.712 343.837 230.368 344.583C240.082 345.184 249.833 344.773 259.463 343.359Z" fill="#FFF4C0"/>
<defs>
<linearGradient id="paint0_linear" x1="168.846" y1="355.85" x2="168.846" y2="305.152" gradientUnits="userSpaceOnUse">
<stop stop-color="#FFFA8F"/>
<stop offset="1" stop-color="#FB784B"/>
</linearGradient>
<linearGradient id="paint1_linear" x1="546.651" y1="133.418" x2="565.363" y2="118.038" gradientUnits="userSpaceOnUse">
<stop stop-color="#5BCB99"/>
<stop offset="1" stop-color="#85A8E8"/>
</linearGradient>
<linearGradient id="paint2_linear" x1="192.602" y1="319.259" x2="775.548" y2="16.7901" gradientUnits="userSpaceOnUse">
<stop stop-color="#34E28B"/>
<stop offset="1"/>
</linearGradient>
<linearGradient id="paint3_linear" x1="299.679" y1="377.843" x2="345.526" y2="377.843" gradientUnits="userSpaceOnUse">
<stop stop-color="#C297FF"/>
<stop offset="1" stop-color="#AE31BB"/>
</linearGradient>
<linearGradient id="paint4_linear" x1="112.858" y1="598.706" x2="692.472" y2="146.644" gradientUnits="userSpaceOnUse">
<stop/>
<stop offset="1" stop-color="#D23DE2"/>
</linearGradient>
<linearGradient id="paint5_linear" x1="541.605" y1="107.898" x2="518.143" y2="187.104" gradientUnits="userSpaceOnUse">
<stop/>
<stop offset="1" stop-opacity="0"/>
</linearGradient>
<linearGradient id="paint6_linear" x1="327.06" y1="414.384" x2="491.888" y2="454.305" gradientUnits="userSpaceOnUse">
<stop stop-color="#2DB5F9"/>
<stop offset="1"/>
</linearGradient>
<linearGradient id="paint7_linear" x1="198.235" y1="-0.647887" x2="89.3459" y2="298.491" gradientUnits="userSpaceOnUse">
<stop/>
<stop offset="0.21" stop-color="#48080A"/>
<stop offset="0.42" stop-color="#891014"/>
<stop offset="0.61" stop-color="#BC151B"/>
<stop offset="0.78" stop-color="#E01A21"/>
<stop offset="0.91" stop-color="#F71C24"/>
<stop offset="1" stop-color="#FF1D25"/>
</linearGradient>
</defs>
</svg>
