<svg fill="none" height="491" viewBox="0 0 643 491" width="643" xmlns="http://www.w3.org/2000/svg" xmlns:xlink="http://www.w3.org/1999/xlink"><linearGradient id="a" gradientUnits="userSpaceOnUse" x1="168.846" x2="168.846" y1="355.85" y2="305.152"><stop offset="0" stop-color="#fffa8f"/><stop offset="1" stop-color="#fb784b"/></linearGradient><linearGradient id="b" gradientUnits="userSpaceOnUse" x1="546.651" x2="565.363" y1="133.418" y2="118.038"><stop offset="0" stop-color="#5bcb99"/><stop offset="1" stop-color="#85a8e8"/></linearGradient><linearGradient id="c" gradientUnits="userSpaceOnUse" x1="192.602" x2="775.548" y1="319.259" y2="16.7901"><stop offset="0" stop-color="#34e28b"/><stop offset="1"/></linearGradient><linearGradient id="d" gradientUnits="userSpaceOnUse" x1="299.679" x2="345.526" y1="377.843" y2="377.843"><stop offset="0" stop-color="#c297ff"/><stop offset="1" stop-color="#ae31bb"/></linearGradient><linearGradient id="e" gradientUnits="userSpaceOnUse" x1="112.858" x2="692.472" y1="598.706" y2="146.644"><stop offset="0"/><stop offset="1" stop-color="#d23de2"/></linearGradient><linearGradient id="f" gradientUnits="userSpaceOnUse" x1="541.605" x2="518.143" y1="107.898" y2="187.104"><stop offset="0"/><stop offset="1" stop-opacity="0"/></linearGradient><linearGradient id="g" gradientUnits="userSpaceOnUse" x1="327.06" x2="491.888" y1="414.384" y2="454.305"><stop offset="0" stop-color="#2db5f9"/><stop offset="1"/></linearGradient><linearGradient id="h" gradientUnits="userSpaceOnUse" x1="198.235" x2="89.3459" y1="-.647887" y2="298.491"><stop offset="0"/><stop offset=".21" stop-color="#48080a"/><stop offset=".42" stop-color="#891014"/><stop offset=".61" stop-color="#bc151b"/><stop offset=".78" stop-color="#e01a21"/><stop offset=".91" stop-color="#f71c24"/><stop offset="1" stop-color="#ff1d25"/></linearGradient><path d="m78.2273 296.042 1.5185 2.4c7.8406 11.124 16.9837 21.27 27.2342 30.222 23.844 19.528 53.725 30.175 84.545 30.125h5.829c21.403-1.742 42.38-6.953 62.11-15.43-8.849 1.42-17.785 2.238-26.745 2.449-15.231-.012-30.289-3.228-44.196-9.439-13.908-6.211-26.353-15.278-36.527-26.612-25.242.207-50.288-4.45-73.7687-13.715z" fill="url(#a)"/><path d="m191.475 91.5378c23.015-.0201 45.645 5.909 65.693 17.2122 20.049 11.303 36.835 27.596 48.731 47.298-13.793-12.51-30.565-21.273-48.712-25.45-18.146-4.176-37.062-3.627-54.936 1.596 24.492 11.804 57.849 20.817 103.795 23.952 0 0-2.253-43.742-58.241-66.6165-78.372-31.8879-89.197-25.5691-109.035-58.7795-2.93 23.2056 3.445 46.6273 17.731 65.1472 11.415-2.9898 23.175-4.4557 34.974-4.3594z" fill="#f15a24"/><path d="m247.806 89.5295c-26.793-10.6783-45.652-17.3399-59.759-22.4342 3.645 8.9734 8.597 17.3585 14.695 24.8833 21.068 1.7391 41.423 8.4534 59.39 19.5924 17.968 11.138 33.035 26.381 43.964 44.477-16.767-15.245-37.887-24.854-60.396-27.479 18.616 11.107 38.309 20.297 58.78 27.43h1.714s-2.351-43.595-58.388-66.4695z" fill="#ed1c24"/><path d="m305.948 156.146h.294c.882-4.898 6.123-42.566-36.492-75.6292-63.58-49.3258-75.973-53.9302-79.009-80.03804-5.102 10.29234-7.978 21.54364-8.442 33.02144s1.494 22.9246 5.748 33.5953c14.058 4.8983 32.965 11.511 59.71 22.4341 56.085 22.8754 58.289 66.6164 58.289 66.6164z" fill="#c1272d"/><path d="m498.893 113.139c23.86-.029 46.927 8.565 64.951 24.198 20.838.903 40.671 9.204 55.939 23.414 0 0-53.441-77.6382-147.635-45.358-8.44 3.042-16.522 7.001-24.099 11.804 15.363-9.2 32.936-14.059 50.844-14.058z" fill="url(#b)"/><path d="m498.892 113.139c-17.903-.018-35.476 4.824-50.844 14.009l2.743-1.665c-76.119 44.819-169.432 182.559-298.795 184.274 10.196 11.289 22.651 20.31 36.557 26.479 13.907 6.168 28.954 9.346 44.166 9.327 8.96-.211 17.896-1.029 26.745-2.449 84.153-34.68 164.974-117.559 201.662-157.774 33.995-37.276 71.271-49.962 102.865-48.052-18.07-15.649-41.195-24.227-65.099-24.149z" fill="url(#c)"/><path d="m302.373 380.096c-1.703 5.559-2.61 11.331-2.694 17.144-.014 6.729 1.01 13.421 3.036 19.838-1.085-7.998-.178-16.141 2.642-23.704s7.465-14.311 13.523-19.646l.392-1.469c4.291-14.115 13.64-26.15 26.254-33.799-3.983 1.281-7.892 2.786-11.706 4.507-7.496 3.718-14.153 8.93-19.56 15.315-5.408 6.385-9.453 13.808-11.887 21.814z" fill="url(#d)"/><path d="m643 233.392c.03-26.126-8.142-51.603-23.365-72.837-15.261-14.103-35.031-22.33-55.791-23.218 10.786 9.329 19.434 20.876 25.351 33.851 5.917 12.976 8.966 27.076 8.937 41.338 0 33.357-12.099 71.515-51.334 92.038-57.115 29.88-144.745 15.675-201.663 34.288-12.587 7.647-21.916 19.661-26.206 33.75l-.392 1.469c16.654-14.695 49.522-25.128 113.641-16.85 45.799 5.878 82.144 7.494 113.395-1.469 30.211-6.593 56.759-24.484 74.209-50.012 15.073-21.115 23.189-46.404 23.218-72.348z" fill="url(#e)"/><path d="m643 233.392c.03-26.126-8.142-51.603-23.365-72.837-15.261-14.103-35.031-22.33-55.791-23.218 10.786 9.329 19.434 20.876 25.351 33.851 5.917 12.976 8.966 27.076 8.937 41.338 0 33.357-12.099 71.515-51.334 92.038-57.115 29.88-144.745 15.675-201.663 34.288-12.587 7.647-21.916 19.661-26.206 33.75l-.392 1.469c16.654-14.695 49.522-25.128 113.641-16.85 45.799 5.878 82.144 7.494 113.395-1.469 30.211-6.593 56.759-24.484 74.209-50.012 15.073-21.115 23.189-46.404 23.218-72.348z" fill="url(#f)" opacity=".49"/><path d="m359.242 447.447c-15.034-4.606-27.667-14.917-35.193-28.723s-9.346-30.011-5.071-45.143c-6.057 5.335-10.703 12.083-13.523 19.646s-3.727 15.706-2.641 23.704c3.101 9.707 8.564 18.493 15.898 25.569 7.333 7.076 16.308 12.221 26.12 14.974s20.154 3.027 30.098.799c9.944-2.229 19.18-6.891 26.878-13.569-13.371 6.106-28.521 7.082-42.566 2.743z" fill="url(#g)"/><path d="m380.109 443.088c6.221-18.173 26.402-46.191 48.004-33.357 0 0 17.585 9.796 21.258-17.977 0 0 13.177 65.539-50.305 63.335 0 0 14.303-10.434 14.156-21.161-10.148 5.654-21.502 8.794-33.113 9.16z" fill="#2db5f9"/><path d="m405.482 402.971c3.473-2.345 7.517-3.703 11.702-3.927 4.184-.224 8.351.693 12.055 2.653 8.963 3.968 20.229-11.56 10.482-25.471 0 0 .637 14.352-10.923 14.205-4.655-.199-9.277.861-13.381 3.068-4.103 2.207-7.535 5.479-9.935 9.472z" fill="#5fd2ff"/><path d="m469.257 194.451c-15.184 20.72-37.521 38.06-40.117 42.321-2.596 4.262 4.409 17.977 14.695 18.957 10.287.979 2.4-3.968 1.519-8.817-.882-4.85 3.086 3.086 15.527 1.224 12.442-1.861-4.506-6.466-3.331-12.735 1.176-6.27 13.961-18.173 19.055-30.125s13.813 0 9.356 9.356c-1.764 3.723 14.156-10.433 6.122-21.21-8.033-10.776-13.96-11.07-22.826 1.029z" fill="#219058"/><path d="m425.908 239.76c-2.253 2.155-8.817 6.956-8.817 6.956s6.466 8.963 14.695 8.817c0 0 1.763-.833-.784-3.478-2.837-3.528-4.605-7.794-5.094-12.295z" fill="#219058"/><path d="m202.252 132.194c-17.905-8.156-33.581-20.505-45.701-36.0027-20.143 5.4517-38.728 15.5457-54.268 29.4727-15.5402 13.927-27.6024 31.299-35.2208 50.726s-10.5811 40.368-8.6508 61.146 8.6999 40.814 19.7666 58.505c23.496 9.273 48.559 13.929 73.817 13.716-12.372-13.682-21.066-30.283-25.266-48.244-4.199-17.962-3.767-36.697 1.256-54.446 5.024-17.749 14.474-33.931 27.464-47.027 12.991-13.097 29.095-22.678 46.803-27.846z" fill="url(#h)"/><path d="m202.496 91.9786c5.927 8.5724 22.973 23.3644 43.056 36.5904 22.491 2.634 43.594 12.244 60.347 27.479-10.933-18.102-26.008-33.35-43.985-44.488-17.977-11.139-38.341-17.8498-59.418-19.5814z" fill="#f7b852"/><path d="m202.496 91.9787c-3.624-.2939-7.298-.4409-10.972-.4409-11.823.0795-23.583 1.7266-34.974 4.8983 12.121 15.4979 27.797 27.8469 45.701 36.0029 14.043-4.113 28.774-5.33 43.301-3.576-20.083-13.519-37.129-28.312-43.056-36.8843z" fill="#ff8431"/><path d="m276.657 122.397c-10.284-9.653-22.531-16.971-35.905-21.454 8.621 16.409 16.067 21.454 35.905 21.454z" fill="#fffb69"/><path d="m238.842 52.5963c6.695 4.0794 13.124 8.5785 19.251 13.4702 1.518 1.1756-2.743-10.4333-7.691-12.6375-3.71-1.3038-7.701-1.5913-11.56-.8327z" fill="#c1272d"/><path d="m262.599 69.3975c6.62 4.1922 12.998 8.7549 19.104 13.6663 1.567 1.1266-2.645-10.4824-7.593-12.7356-3.686-1.3277-7.659-1.649-11.511-.9307z" fill="#c1272d"/><path d="m284.935 85.8558c4.05 3.7904 7.531 8.1459 10.335 12.9315.784 1.1266 0-7.5923-2.694-10.0905-2.248-1.6106-4.886-2.5914-7.641-2.841z" fill="#c1272d"/><path d="m181.974 297.658c-.588-1.911 6.906-4.36 8.914-4.458 3.656.598 7.195 1.772 10.483 3.478-4.616 1.745-9.474 2.769-14.401 3.037-1.79-.332-3.492-1.033-4.996-2.057z" fill="#44c688"/><path d="m208.963 291.241c-.637-1.469 5.143-4.065 6.76-4.31 2.973.174 5.899.819 8.67 1.91-3.548 1.779-7.347 3.001-11.266 3.625-1.458-.115-2.876-.532-4.164-1.225z" fill="#44c688"/><path d="m231.592 282.963c-.637-1.176 3.87-3.772 5.143-4.164 2.459-.126 4.923.139 7.299.784-2.703 1.774-5.659 3.129-8.768 4.017-1.256.055-2.51-.162-3.674-.637z" fill="#44c688"/><path d="m249.57 274.783c-.686-1.029 3.282-3.723 4.408-4.164 2.223-.354 4.488-.354 6.711 0-2.395 1.816-5.055 3.253-7.886 4.262-1.073.188-2.173.155-3.233-.098z" fill="#44c688"/><path d="m266.322 265.623c-.637-.833 2.645-3.38 3.625-3.821 1.931-.307 3.898-.307 5.829 0-1.981 1.703-4.211 3.09-6.613 4.115-.957.099-1.925-.001-2.841-.294z" fill="#44c688"/><path d="m154.885 299.813c-.294-2.155 8.033-3.429 10.188-3.184 3.762 1.264 7.3 3.115 10.483 5.486-5.17 1.065-10.473 1.33-15.724.784-1.846-.672-3.532-1.723-4.947-3.086z" fill="#44c688"/><path d="m160.029 47.2082c5.672 5.0263 12.352 8.7837 19.593 11.0211-2.411-7.1672-3.345-14.7491-2.743-22.2872 0-.5388-16.899-.2939-19.593-14.156-.735-2.792-3.135 18.7604 2.743 25.4221z" fill="#c1272d"/><g fill="#f15a24"><path d="m102.523 367.458c.238-2.26.95-4.445 2.089-6.411 1.139-1.967 2.681-3.671 4.523-5.002l.539-.293c-1.39-.318-2.796-.563-4.212-.735-20.1323-2.988-25.2755 9.013-26.3041 22.483v2.302c2.2959-4.052 5.6996-7.366 9.8119-9.552s8.7628-3.155 13.4062-2.792z"/><path d="m127.063 362.952c-20.034-12.148-31.2996-13.03-35.757 21.013 0 0 21.063-16.654 31.055-5.633 10.825 12.001 25.52.931 17.83-6.024-3.895-3.745-8.318-6.897-13.128-9.356z"/><path d="m118.785 367.017c-11.364 7.544-11.364 25.325-11.364 25.325s20.72-11.218 19.103-18.222c-.327-1.871-1.263-3.582-2.663-4.866-1.399-1.285-3.184-2.071-5.076-2.237z"/><path d="m24.6401 227.073c1.9087-1.231 4.0556-2.046 6.3006-2.392 2.2451-.346 4.5378-.215 6.7288.384h.5878c-.6212-1.275-1.3079-2.518-2.0573-3.723-10.4823-17.388-23.0219-13.862-34.19003-6.269-.68576.441-1.273555.93-1.861349 1.42 4.595929-.743 9.308519-.161 13.585479 1.678 4.277 1.839 7.9411 4.859 10.5631 8.707z"/><path d="m45.8986 247.989c-7.2985-28.9-13.1764-40.068-41.09666-20.083 0 0 23.90366-6.857 26.64666 27.137 1.2736 16.066 16.7522 19.299 16.5562 8.915.0824-5.398-.6272-10.778-2.1062-15.969z"/><path d="m35.7101 232.511c-13.2744-3.135-26.30385 9.013-26.30385 9.013s20.42585-.686 22.87505 11.657c1.4205 6.907 3.4288-20.67 3.4288-20.67z"/></g><path d="m461.127 185.389c12.838-14.912 28.272-27.376 45.554-36.786 16.858-8.64 35.479-13.283 54.42-13.568l5.437 4.898h-2.841c-19.325-1.259-38.643 2.557-56.037 11.07-17.453 8.57-33.216 20.219-46.533 34.386z" fill="#29b36e"/><path d="m563.158 135.231c10.604.998 20.985 3.659 30.761 7.886 9.707 4.127 18.511 10.118 25.912 17.634-7.878-6.938-17.05-12.248-26.989-15.626-8.619-2.724-17.502-4.53-26.5-5.388l-5.437-4.898z" fill="#6fd191"/><path d="m320.153 369.761c2.926-2.063 5.986-3.928 9.16-5.584 2.218-1.126 4.49-2.139 6.809-3.037 2.302-.98 4.898-1.715 7.004-2.499 9.419-2.885 19.127-4.725 28.949-5.486 19.49-1.26 39.058-.489 58.388 2.303 19.176 2.824 38.484 4.672 57.848 5.535 19.394.988 38.826-.927 57.653-5.682-18.774 5.11-38.206 7.388-57.653 6.759-19.427-.5-38.817-1.987-58.093-4.457-19.179-2.345-38.55-2.69-57.8-1.029-9.536.86-18.948 2.766-28.067 5.682-2.253.784-4.507 1.519-6.662 2.498-2.188.904-4.33 1.918-6.417 3.037-4.137 2.206-8.014 4.868-11.56 7.936l-1.567 1.371c.496-2.493 1.167-4.948 2.008-7.347z" fill="#c83ad7"/><path d="m205.876 140.815c-18.711 4.114-15.821 18.956-15.821 18.956s5.927-7.151 38.5-11.021c-7.754-2.05-15.337-4.704-22.679-7.935z" fill="#c1272d"/><path d="m302.716 417.176c-.619-4.119-.701-8.301-.245-12.442.415-4.221 1.319-8.38 2.694-12.392 1.38-4.035 3.221-7.898 5.486-11.511 2.36-3.555 5.103-6.841 8.18-9.797l1.322-1.224s-1.861 5.927-2.057 7.396c-1.756 1.784-3.393 3.682-4.898 5.682-4.933 6.487-8.288 14.034-9.797 22.042-.754 4.036-.985 8.152-.685 12.246z" fill="#fba9ff"/><path d="m147.685 309.756c-11.558-13.743-19.579-30.106-23.364-47.66-2.007-9.163-2.814-18.549-2.401-27.92l.392-7.005.98-6.955c.338-2.308.796-4.597 1.371-6.858.451-2.287 1.04-4.544 1.764-6.76 2.608-8.937 6.397-17.486 11.266-25.422 2.397-3.975 5.03-7.802 7.886-11.462l4.507-5.29c1.469-1.763 3.232-3.331 4.898-4.898 6.596-6.474 13.986-12.087 21.993-16.703 8.011-4.528 16.527-8.095 25.373-10.63-8.728 2.797-17.096 6.611-24.932 11.365-7.765 4.797-14.891 10.557-21.21 17.144-1.518 1.665-3.183 3.232-4.604 4.898l-4.506 5.437c-2.693 3.669-5.163 7.497-7.397 11.462-4.514 7.866-7.957 16.301-10.237 25.079-.642 2.171-1.149 4.38-1.519 6.613-.444 2.218-.771 4.458-.979 6.71l-.735 6.711v6.76c-.118 8.997.936 17.971 3.135 26.695 4.375 17.416 13.087 33.442 25.324 46.583l1.959 2.106s-7.347.147-8.964 0z" fill="#ff737d"/><path d="m259.463 343.359c-9.649 2.155-19.502 3.271-29.389 3.331-9.975-.281-19.864-1.929-29.39-4.899-9.534-2.831-18.731-6.691-27.43-11.511-8.82-4.826-16.876-10.934-23.904-18.123l-2.057-2.156h8.719c5.808 6.21 12.393 11.643 19.593 16.165 8.355 5.058 17.242 9.181 26.499 12.294 9.099 3.317 18.608 5.377 28.264 6.123 9.714.601 19.465.19 29.095-1.224z" fill="#fff4c0"/></svg>